<?xml version="1.0" encoding="utf-8" standalone="no"?>
<!DOCTYPE svg PUBLIC "-//W3C//DTD SVG 1.1//EN"
  "http://www.w3.org/Graphics/SVG/1.1/DTD/svg11.dtd">
<!-- Created with matplotlib (https://matplotlib.org/) -->
<svg height="288pt" version="1.1" viewBox="0 0 432 288" width="432pt" xmlns="http://www.w3.org/2000/svg" xmlns:xlink="http://www.w3.org/1999/xlink">
 <defs>
  <style type="text/css">
*{stroke-linecap:butt;stroke-linejoin:round;}
  </style>
 </defs>
 <g id="figure_1">
  <g id="patch_1">
   <path d="M 0 288 
L 432 288 
L 432 0 
L 0 0 
z
" style="fill:#ffffff;"/>
  </g>
  <g id="axes_1">
   <g id="patch_2">
    <path d="M 54 252 
L 388.8 252 
L 388.8 34.56 
L 54 34.56 
z
" style="fill:#ffffff;"/>
   </g>
   <g id="patch_3">
    <path clip-path="url(#p2283d1ff4e)" d="M 79.531354 252 
L 79.531354 251.999512 
L 97.174382 251.918036 
L 97.174382 251.815783 
L 100.114887 251.815783 
L 100.114887 251.633204 
L 103.055391 251.633204 
L 103.055391 251.291823 
L 105.995896 251.291823 
L 105.995896 250.654627 
L 108.9364 250.654627 
L 108.9364 249.716666 
L 111.876905 249.716666 
L 111.876905 248.118116 
L 114.81741 248.118116 
L 114.81741 245.766694 
L 117.757914 245.766694 
L 117.757914 242.575276 
L 120.698419 242.575276 
L 120.698419 238.231698 
L 123.638924 238.231698 
L 123.638924 232.567987 
L 126.579428 232.567987 
L 126.579428 225.992882 
L 129.519933 225.992882 
L 129.519933 217.994553 
L 132.460438 217.994553 
L 132.460438 209.210965 
L 135.400942 209.210965 
L 135.400942 199.890063 
L 138.341447 199.890063 
L 138.341447 190.256265 
L 141.281952 190.256265 
L 141.281952 180.463315 
L 144.222456 180.463315 
L 144.222456 171.096534 
L 147.162961 171.096534 
L 147.162961 162.153969 
L 150.103465 162.153969 
L 150.103465 154.27829 
L 153.04397 154.27829 
L 153.04397 147.543371 
L 155.984475 147.543371 
L 155.984475 141.992303 
L 158.924979 141.992303 
L 158.924979 137.311737 
L 161.865484 137.311737 
L 161.865484 133.953289 
L 164.805989 133.953289 
L 164.805989 131.505157 
L 167.746493 131.505157 
L 167.746493 130.447161 
L 170.686998 130.447161 
L 170.686998 130.130498 
L 173.627503 130.130498 
L 173.627503 130.332914 
L 176.568007 130.332914 
L 176.568007 131.354861 
L 179.508512 131.354861 
L 179.508512 133.436407 
L 182.449016 133.436407 
L 182.449016 136.877968 
L 185.389521 136.877968 
L 185.389521 141.344335 
L 188.330026 141.344335 
L 188.330026 147.026035 
L 191.27053 147.026035 
L 191.27053 153.222944 
L 194.211035 153.222944 
L 194.211035 160.722693 
L 197.15154 160.722693 
L 197.15154 168.526171 
L 200.092044 168.526171 
L 200.092044 176.503233 
L 203.032549 176.503233 
L 203.032549 184.651124 
L 205.973054 184.651124 
L 205.973054 192.346631 
L 208.913558 192.346631 
L 208.913558 199.592819 
L 211.854063 199.592819 
L 211.854063 206.608283 
L 214.794568 206.608283 
L 214.794568 212.622683 
L 217.735072 212.622683 
L 217.735072 217.781155 
L 220.675577 217.781155 
L 220.675577 222.558153 
L 223.616081 222.558153 
L 223.616081 226.34134 
L 226.556586 226.34134 
L 226.556586 229.479138 
L 229.497091 229.479138 
L 229.497091 231.962901 
L 232.437595 231.962901 
L 232.437595 234.126514 
L 235.3781 234.126514 
L 235.3781 235.788376 
L 238.318605 235.788376 
L 238.318605 237.095121 
L 241.259109 237.095121 
L 241.259109 238.190873 
L 244.199614 238.190873 
L 244.199614 238.85969 
L 247.140119 238.85969 
L 247.140119 239.37469 
L 250.080623 239.37469 
L 250.080623 239.61169 
L 255.961633 239.552562 
L 255.961633 239.267137 
L 258.902137 239.267137 
L 258.902137 238.751579 
L 261.842642 238.751579 
L 261.842642 238.014116 
L 264.783146 238.014116 
L 264.783146 236.824024 
L 267.723651 236.824024 
L 267.723651 235.465682 
L 270.664156 235.465682 
L 270.664156 234.001878 
L 273.60466 234.001878 
L 273.60466 232.33538 
L 276.545165 232.33538 
L 276.545165 230.60299 
L 279.48567 230.60299 
L 279.48567 228.499654 
L 282.426174 228.499654 
L 282.426174 226.614215 
L 285.366679 226.614215 
L 285.366679 224.746416 
L 288.307184 224.746416 
L 288.307184 223.228992 
L 291.247688 223.228992 
L 291.247688 221.90241 
L 294.188193 221.90241 
L 294.188193 220.870144 
L 297.128698 220.870144 
L 297.128698 220.540582 
L 300.069202 220.540582 
L 300.069202 220.715072 
L 303.009707 220.715072 
L 303.009707 221.636718 
L 305.950211 221.636718 
L 305.950211 223.296557 
L 308.890716 223.296557 
L 308.890716 225.475267 
L 311.831221 225.475267 
L 311.831221 228.261155 
L 314.771725 228.261155 
L 314.771725 231.425623 
L 317.71223 231.425623 
L 317.71223 234.977387 
L 320.652735 234.977387 
L 320.652735 238.448024 
L 323.593239 238.448024 
L 323.593239 241.654538 
L 326.533744 241.654538 
L 326.533744 244.480135 
L 329.474249 244.480135 
L 329.474249 246.786165 
L 332.414753 246.786165 
L 332.414753 248.676451 
L 335.355258 248.676451 
L 335.355258 250.006833 
L 338.295762 250.006833 
L 338.295762 250.915544 
L 341.236267 250.915544 
L 341.236267 251.425523 
L 344.176772 251.425523 
L 344.176772 251.732424 
L 347.117276 251.732424 
L 347.117276 251.892028 
L 370.641314 251.983998 
L 370.641314 251.754667 
L 373.581818 251.754667 
L 373.581818 252 
L 373.581818 252 
" style="fill:none;opacity:0.5;stroke:#008080;stroke-linejoin:miter;stroke-width:2;"/>
   </g>
   <g id="patch_4">
    <path clip-path="url(#p2283d1ff4e)" d="M 69.218182 252 
L 69.218182 251.999844 
L 87.963885 251.908795 
L 87.963885 251.81424 
L 90.641842 251.81424 
L 90.641842 251.553085 
L 93.3198 251.553085 
L 93.3198 251.13974 
L 95.997757 251.13974 
L 95.997757 250.30861 
L 98.675715 250.30861 
L 98.675715 248.899404 
L 101.353673 248.899404 
L 101.353673 246.679785 
L 104.03163 246.679785 
L 104.03163 243.012795 
L 106.709588 243.012795 
L 106.709588 237.893061 
L 109.387545 237.893061 
L 109.387545 230.328459 
L 112.065503 230.328459 
L 112.065503 220.453111 
L 114.74346 220.453111 
L 114.74346 207.744942 
L 117.421418 207.744942 
L 117.421418 192.270154 
L 120.099376 192.270154 
L 120.099376 174.354472 
L 122.777333 174.354472 
L 122.777333 154.407657 
L 125.455291 154.407657 
L 125.455291 133.946478 
L 128.133248 133.946478 
L 128.133248 112.863528 
L 130.811206 112.863528 
L 130.811206 93.706329 
L 133.489163 93.706329 
L 133.489163 76.071818 
L 136.167121 76.071818 
L 136.167121 61.802953 
L 138.845079 61.802953 
L 138.845079 51.8526 
L 141.523036 51.8526 
L 141.523036 45.563784 
L 144.200994 45.563784 
L 144.200994 44.914286 
L 146.878951 44.914286 
L 146.878951 48.376666 
L 149.556909 48.376666 
L 149.556909 56.086371 
L 152.234866 56.086371 
L 152.234866 65.038137 
L 154.912824 65.038137 
L 154.912824 78.112531 
L 157.590782 78.112531 
L 157.590782 91.918982 
L 160.268739 91.918982 
L 160.268739 106.578528 
L 162.946697 106.578528 
L 162.946697 121.424146 
L 165.624654 121.424146 
L 165.624654 135.838348 
L 168.302612 135.838348 
L 168.302612 149.305291 
L 170.980569 149.305291 
L 170.980569 161.767416 
L 173.658527 161.767416 
L 173.658527 173.258527 
L 176.336484 173.258527 
L 176.336484 183.175232 
L 179.014442 183.175232 
L 179.014442 192.546886 
L 181.6924 192.546886 
L 181.6924 200.783963 
L 184.370357 200.783963 
L 184.370357 207.784275 
L 187.048315 207.784275 
L 187.048315 213.678983 
L 189.726272 213.678983 
L 189.726272 219.090014 
L 192.40423 219.090014 
L 192.40423 223.615939 
L 195.082187 223.615939 
L 195.082187 227.618232 
L 197.760145 227.618232 
L 197.760145 230.670305 
L 200.438103 230.670305 
L 200.438103 233.62572 
L 203.11606 233.62572 
L 203.11606 236.082582 
L 205.794018 236.082582 
L 205.794018 238.02469 
L 208.471975 238.02469 
L 208.471975 239.718806 
L 211.149933 239.718806 
L 211.149933 241.193281 
L 213.82789 241.193281 
L 213.82789 242.387598 
L 216.505848 242.387598 
L 216.505848 243.665409 
L 219.183806 243.665409 
L 219.183806 244.483688 
L 221.861763 244.483688 
L 221.861763 245.328293 
L 224.539721 245.328293 
L 224.539721 246.033947 
L 227.217678 246.033947 
L 227.217678 246.633209 
L 229.895636 246.633209 
L 229.895636 247.301633 
L 232.573593 247.301633 
L 232.573593 247.727129 
L 235.251551 247.727129 
L 235.251551 248.184948 
L 237.929508 248.184948 
L 237.929508 248.538476 
L 240.607466 248.538476 
L 240.607466 248.942553 
L 243.285424 248.942553 
L 243.285424 249.251063 
L 245.963381 249.251063 
L 245.963381 249.559806 
L 248.641339 249.559806 
L 248.641339 249.871042 
L 251.319296 249.871042 
L 251.319296 250.063812 
L 253.997254 250.063812 
L 253.997254 250.3252 
L 256.675211 250.3252 
L 256.675211 250.439538 
L 259.353169 250.439538 
L 259.353169 250.638305 
L 262.031127 250.638305 
L 262.031127 250.803347 
L 264.709084 250.803347 
L 264.709084 250.937702 
L 267.387042 250.937702 
L 267.387042 251.05017 
L 272.742957 251.15189 
L 272.742957 251.281494 
L 278.098872 251.353461 
L 278.098872 251.446069 
L 280.77683 251.446069 
L 280.77683 251.572713 
L 288.810702 251.673654 
L 288.810702 251.707223 
L 296.844575 251.818212 
L 296.844575 251.856532 
L 310.234363 251.950542 
L 310.234363 251.968767 
L 337.013938 251.999611 
L 337.013938 252 
" style="fill:none;opacity:0.5;stroke:#bf4080;stroke-linejoin:miter;stroke-width:2;"/>
   </g>
   <g id="patch_5">
    <path clip-path="url(#p2283d1ff4e)" d="M 75.306035 252 
L 75.306035 251.99633 
L 88.662407 251.944791 
L 88.662407 251.867092 
L 91.333682 251.867092 
L 91.333682 251.719268 
L 94.004956 251.719268 
L 94.004956 251.410737 
L 96.67623 251.410737 
L 96.67623 250.924474 
L 99.347505 250.924474 
L 99.347505 250.048154 
L 102.018779 250.048154 
L 102.018779 248.557739 
L 104.690054 248.557739 
L 104.690054 246.458851 
L 107.361328 246.458851 
L 107.361328 243.285061 
L 110.032602 243.285061 
L 110.032602 238.87824 
L 112.703877 238.87824 
L 112.703877 232.888857 
L 115.375151 232.888857 
L 115.375151 225.063045 
L 118.046426 225.063045 
L 118.046426 215.652798 
L 120.7177 215.652798 
L 120.7177 204.002633 
L 123.388974 204.002633 
L 123.388974 191.048922 
L 126.060249 191.048922 
L 126.060249 176.542635 
L 128.731523 176.542635 
L 128.731523 161.478634 
L 131.402798 161.478634 
L 131.402798 146.393003 
L 134.074072 146.393003 
L 134.074072 131.680326 
L 136.745346 131.680326 
L 136.745346 118.676481 
L 139.416621 118.676481 
L 139.416621 107.907165 
L 142.087895 107.907165 
L 142.087895 98.834265 
L 144.75917 98.834265 
L 144.75917 92.244296 
L 147.430444 92.244296 
L 147.430444 88.971099 
L 150.101718 88.971099 
L 150.101718 87.896432 
L 152.772993 87.896432 
L 152.772993 89.280099 
L 155.444267 89.280099 
L 155.444267 92.294195 
L 158.115542 92.294195 
L 158.115542 97.226793 
L 160.786816 97.226793 
L 160.786816 103.625286 
L 163.45809 103.625286 
L 163.45809 110.169338 
L 166.129365 110.169338 
L 166.129365 118.78971 
L 168.800639 118.78971 
L 168.800639 126.951698 
L 171.471914 126.951698 
L 171.471914 135.458293 
L 174.143188 135.458293 
L 174.143188 143.296756 
L 176.814462 143.296756 
L 176.814462 151.501302 
L 179.485737 151.501302 
L 179.485737 159.776831 
L 182.157011 159.776831 
L 182.157011 167.579216 
L 184.828286 167.579216 
L 184.828286 174.525273 
L 187.49956 174.525273 
L 187.49956 181.289615 
L 190.170834 181.289615 
L 190.170834 187.639849 
L 192.842109 187.639849 
L 192.842109 193.351779 
L 195.513383 193.351779 
L 195.513383 198.898004 
L 198.184658 198.898004 
L 198.184658 203.513169 
L 200.855932 203.513169 
L 200.855932 208.07984 
L 203.527207 208.07984 
L 203.527207 211.941675 
L 206.198481 211.941675 
L 206.198481 215.691687 
L 208.869755 215.691687 
L 208.869755 219.06929 
L 211.54103 219.06929 
L 211.54103 222.036298 
L 214.212304 222.036298 
L 214.212304 224.703912 
L 216.883579 224.703912 
L 216.883579 227.100399 
L 219.554853 227.100399 
L 219.554853 229.389591 
L 222.226127 229.389591 
L 222.226127 231.691746 
L 224.897402 231.691746 
L 224.897402 233.358956 
L 227.568676 233.358956 
L 227.568676 235.149781 
L 230.239951 235.149781 
L 230.239951 236.761313 
L 232.911225 236.761313 
L 232.911225 238.246184 
L 235.582499 238.246184 
L 235.582499 239.415495 
L 238.253774 239.415495 
L 238.253774 240.963228 
L 240.925048 240.963228 
L 240.925048 242.023292 
L 243.596323 242.023292 
L 243.596323 243.144032 
L 246.267597 243.144032 
L 246.267597 244.075014 
L 248.938871 244.075014 
L 248.938871 244.92986 
L 251.610146 244.92986 
L 251.610146 245.751126 
L 254.28142 245.751126 
L 254.28142 246.424492 
L 256.952695 246.424492 
L 256.952695 247.205698 
L 259.623969 247.205698 
L 259.623969 247.712655 
L 262.295243 247.712655 
L 262.295243 248.19923 
L 264.966518 248.19923 
L 264.966518 248.779201 
L 267.637792 248.779201 
L 267.637792 249.190576 
L 270.309067 249.190576 
L 270.309067 249.611244 
L 272.980341 249.611244 
L 272.980341 249.931879 
L 275.651615 249.931879 
L 275.651615 250.242128 
L 278.32289 250.242128 
L 278.32289 250.445239 
L 280.994164 250.445239 
L 280.994164 250.717225 
L 283.665439 250.717225 
L 283.665439 250.886054 
L 286.336713 250.886054 
L 286.336713 251.129068 
L 289.007987 251.129068 
L 289.007987 251.272831 
L 291.679262 251.272831 
L 291.679262 251.406911 
L 294.350536 251.406911 
L 294.350536 251.526466 
L 299.693085 251.600182 
L 299.693085 251.695529 
L 307.706908 251.787441 
L 307.706908 251.864515 
L 323.734555 251.971966 
L 323.734555 251.978135 
L 342.433475 251.999688 
L 342.433475 252 
" style="fill:none;opacity:0.5;stroke:#bf8080;stroke-linejoin:miter;stroke-width:2;"/>
   </g>
   <g id="patch_6">
    <path clip-path="url(#p2283d1ff4e)" d="M 89.11286 252 
L 89.11286 251.995972 
L 103.336308 251.925999 
L 103.336308 251.830664 
L 106.180997 251.830664 
L 106.180997 251.709518 
L 109.025687 251.709518 
L 109.025687 251.539585 
L 111.870377 251.539585 
L 111.870377 251.229409 
L 114.715066 251.229409 
L 114.715066 250.789881 
L 117.559756 250.789881 
L 117.559756 249.996761 
L 120.404445 249.996761 
L 120.404445 248.97776 
L 123.249135 248.97776 
L 123.249135 247.617402 
L 126.093825 247.617402 
L 126.093825 245.672945 
L 128.938514 245.672945 
L 128.938514 243.241964 
L 131.783204 243.241964 
L 131.783204 240.025025 
L 134.627893 240.025025 
L 134.627893 235.757903 
L 137.472583 235.757903 
L 137.472583 230.937418 
L 140.317272 230.937418 
L 140.317272 225.445854 
L 143.161962 225.445854 
L 143.161962 219.030029 
L 146.006652 219.030029 
L 146.006652 211.500314 
L 148.851341 211.500314 
L 148.851341 203.253718 
L 151.696031 203.253718 
L 151.696031 195.137071 
L 154.54072 195.137071 
L 154.54072 186.124808 
L 157.38541 186.124808 
L 157.38541 177.234436 
L 160.2301 177.234436 
L 160.2301 168.422541 
L 163.074789 168.422541 
L 163.074789 159.987662 
L 165.919479 159.987662 
L 165.919479 152.991319 
L 168.764168 152.991319 
L 168.764168 145.595432 
L 171.608858 145.595432 
L 171.608858 139.967803 
L 174.453547 139.967803 
L 174.453547 135.201475 
L 177.298237 135.201475 
L 177.298237 131.164859 
L 180.142927 131.164859 
L 180.142927 128.497106 
L 182.987616 128.497106 
L 182.987616 127.195829 
L 185.832306 127.195829 
L 185.832306 126.824334 
L 188.676995 126.824334 
L 188.676995 127.519134 
L 191.521685 127.519134 
L 191.521685 129.296791 
L 194.366374 129.296791 
L 194.366374 132.013629 
L 197.211064 132.013629 
L 197.211064 135.182676 
L 200.055754 135.182676 
L 200.055754 138.634896 
L 202.900443 138.634896 
L 202.900443 142.542607 
L 205.745133 142.542607 
L 205.745133 147.090961 
L 208.589822 147.090961 
L 208.589822 151.607984 
L 211.434512 151.607984 
L 211.434512 156.288674 
L 214.279202 156.288674 
L 214.279202 161.213447 
L 217.123891 161.213447 
L 217.123891 166.788709 
L 219.968581 166.788709 
L 219.968581 171.489241 
L 222.81327 171.489241 
L 222.81327 176.413268 
L 225.65796 176.413268 
L 225.65796 181.230322 
L 228.502649 181.230322 
L 228.502649 185.629182 
L 231.347339 185.629182 
L 231.347339 190.173359 
L 234.192029 190.173359 
L 234.192029 194.499711 
L 237.036718 194.499711 
L 237.036718 199.099686 
L 239.881408 199.099686 
L 239.881408 202.877151 
L 242.726097 202.877151 
L 242.726097 206.592251 
L 245.570787 206.592251 
L 245.570787 210.486834 
L 248.415477 210.486834 
L 248.415477 214.140317 
L 251.260166 214.140317 
L 251.260166 217.16375 
L 254.104856 217.16375 
L 254.104856 220.419629 
L 256.949545 220.419629 
L 256.949545 222.929087 
L 259.794235 222.929087 
L 259.794235 226.028609 
L 262.638924 226.028609 
L 262.638924 228.630567 
L 265.483614 228.630567 
L 265.483614 231.125851 
L 268.328304 231.125851 
L 268.328304 233.28485 
L 271.172993 233.28485 
L 271.172993 235.429227 
L 274.017683 235.429227 
L 274.017683 237.359809 
L 276.862372 237.359809 
L 276.862372 239.222655 
L 279.707062 239.222655 
L 279.707062 240.762644 
L 282.551752 240.762644 
L 282.551752 242.251758 
L 285.396441 242.251758 
L 285.396441 243.709243 
L 288.241131 243.709243 
L 288.241131 245.008133 
L 291.08582 245.008133 
L 291.08582 245.998936 
L 293.93051 245.998936 
L 293.93051 246.948263 
L 296.775199 246.948263 
L 296.775199 247.9604 
L 299.619889 247.9604 
L 299.619889 248.685189 
L 302.464579 248.685189 
L 302.464579 249.239 
L 305.309268 249.239 
L 305.309268 249.776251 
L 308.153958 249.776251 
L 308.153958 250.351994 
L 310.998647 250.351994 
L 310.998647 250.646057 
L 313.843337 250.646057 
L 313.843337 250.993681 
L 316.688027 250.993681 
L 316.688027 251.26253 
L 319.532716 251.26253 
L 319.532716 251.491693 
L 322.377406 251.491693 
L 322.377406 251.625223 
L 325.222095 251.625223 
L 325.222095 251.74622 
L 330.911474 251.837527 
L 330.911474 251.917943 
L 370.737129 251.999105 
L 370.737129 251.491693 
L 373.581818 251.491693 
L 373.581818 252 
L 373.581818 252 
" style="fill:none;opacity:0.5;stroke:#00bf40;stroke-linejoin:miter;stroke-width:2;"/>
   </g>
   <g id="matplotlib.axis_1">
    <g id="xtick_1">
     <g id="line2d_1">
      <defs>
       <path d="M 0 0 
L 0 3.5 
" id="m1adc004726" style="stroke:#000000;stroke-width:0.8;"/>
      </defs>
      <g>
       <use style="stroke:#000000;stroke-width:0.8;" x="59.577728" xlink:href="#m1adc004726" y="252"/>
      </g>
     </g>
     <g id="text_1">
      <!-- −0.6 -->
      <defs>
       <path d="M 10.59375 35.5 
L 73.1875 35.5 
L 73.1875 27.203125 
L 10.59375 27.203125 
z
" id="DejaVuSans-8722"/>
       <path d="M 31.78125 66.40625 
Q 24.171875 66.40625 20.328125 58.90625 
Q 16.5 51.421875 16.5 36.375 
Q 16.5 21.390625 20.328125 13.890625 
Q 24.171875 6.390625 31.78125 6.390625 
Q 39.453125 6.390625 43.28125 13.890625 
Q 47.125 21.390625 47.125 36.375 
Q 47.125 51.421875 43.28125 58.90625 
Q 39.453125 66.40625 31.78125 66.40625 
z
M 31.78125 74.21875 
Q 44.046875 74.21875 50.515625 64.515625 
Q 56.984375 54.828125 56.984375 36.375 
Q 56.984375 17.96875 50.515625 8.265625 
Q 44.046875 -1.421875 31.78125 -1.421875 
Q 19.53125 -1.421875 13.0625 8.265625 
Q 6.59375 17.96875 6.59375 36.375 
Q 6.59375 54.828125 13.0625 64.515625 
Q 19.53125 74.21875 31.78125 74.21875 
z
" id="DejaVuSans-48"/>
       <path d="M 10.6875 12.40625 
L 21 12.40625 
L 21 0 
L 10.6875 0 
z
" id="DejaVuSans-46"/>
       <path d="M 33.015625 40.375 
Q 26.375 40.375 22.484375 35.828125 
Q 18.609375 31.296875 18.609375 23.390625 
Q 18.609375 15.53125 22.484375 10.953125 
Q 26.375 6.390625 33.015625 6.390625 
Q 39.65625 6.390625 43.53125 10.953125 
Q 47.40625 15.53125 47.40625 23.390625 
Q 47.40625 31.296875 43.53125 35.828125 
Q 39.65625 40.375 33.015625 40.375 
z
M 52.59375 71.296875 
L 52.59375 62.3125 
Q 48.875 64.0625 45.09375 64.984375 
Q 41.3125 65.921875 37.59375 65.921875 
Q 27.828125 65.921875 22.671875 59.328125 
Q 17.53125 52.734375 16.796875 39.40625 
Q 19.671875 43.65625 24.015625 45.921875 
Q 28.375 48.1875 33.59375 48.1875 
Q 44.578125 48.1875 50.953125 41.515625 
Q 57.328125 34.859375 57.328125 23.390625 
Q 57.328125 12.15625 50.6875 5.359375 
Q 44.046875 -1.421875 33.015625 -1.421875 
Q 20.359375 -1.421875 13.671875 8.265625 
Q 6.984375 17.96875 6.984375 36.375 
Q 6.984375 53.65625 15.1875 63.9375 
Q 23.390625 74.21875 37.203125 74.21875 
Q 40.921875 74.21875 44.703125 73.484375 
Q 48.484375 72.75 52.59375 71.296875 
z
" id="DejaVuSans-54"/>
      </defs>
      <g transform="translate(47.436322 266.598437)scale(0.1 -0.1)">
       <use xlink:href="#DejaVuSans-8722"/>
       <use x="83.789062" xlink:href="#DejaVuSans-48"/>
       <use x="147.412109" xlink:href="#DejaVuSans-46"/>
       <use x="179.199219" xlink:href="#DejaVuSans-54"/>
      </g>
     </g>
    </g>
    <g id="xtick_2">
     <g id="line2d_2">
      <g>
       <use style="stroke:#000000;stroke-width:0.8;" x="98.828239" xlink:href="#m1adc004726" y="252"/>
      </g>
     </g>
     <g id="text_2">
      <!-- −0.4 -->
      <defs>
       <path d="M 37.796875 64.3125 
L 12.890625 25.390625 
L 37.796875 25.390625 
z
M 35.203125 72.90625 
L 47.609375 72.90625 
L 47.609375 25.390625 
L 58.015625 25.390625 
L 58.015625 17.1875 
L 47.609375 17.1875 
L 47.609375 0 
L 37.796875 0 
L 37.796875 17.1875 
L 4.890625 17.1875 
L 4.890625 26.703125 
z
" id="DejaVuSans-52"/>
      </defs>
      <g transform="translate(86.686833 266.598437)scale(0.1 -0.1)">
       <use xlink:href="#DejaVuSans-8722"/>
       <use x="83.789062" xlink:href="#DejaVuSans-48"/>
       <use x="147.412109" xlink:href="#DejaVuSans-46"/>
       <use x="179.199219" xlink:href="#DejaVuSans-52"/>
      </g>
     </g>
    </g>
    <g id="xtick_3">
     <g id="line2d_3">
      <g>
       <use style="stroke:#000000;stroke-width:0.8;" x="138.07875" xlink:href="#m1adc004726" y="252"/>
      </g>
     </g>
     <g id="text_3">
      <!-- −0.2 -->
      <defs>
       <path d="M 19.1875 8.296875 
L 53.609375 8.296875 
L 53.609375 0 
L 7.328125 0 
L 7.328125 8.296875 
Q 12.9375 14.109375 22.625 23.890625 
Q 32.328125 33.6875 34.8125 36.53125 
Q 39.546875 41.84375 41.421875 45.53125 
Q 43.3125 49.21875 43.3125 52.78125 
Q 43.3125 58.59375 39.234375 62.25 
Q 35.15625 65.921875 28.609375 65.921875 
Q 23.96875 65.921875 18.8125 64.3125 
Q 13.671875 62.703125 7.8125 59.421875 
L 7.8125 69.390625 
Q 13.765625 71.78125 18.9375 73 
Q 24.125 74.21875 28.421875 74.21875 
Q 39.75 74.21875 46.484375 68.546875 
Q 53.21875 62.890625 53.21875 53.421875 
Q 53.21875 48.921875 51.53125 44.890625 
Q 49.859375 40.875 45.40625 35.40625 
Q 44.1875 33.984375 37.640625 27.21875 
Q 31.109375 20.453125 19.1875 8.296875 
z
" id="DejaVuSans-50"/>
      </defs>
      <g transform="translate(125.937344 266.598437)scale(0.1 -0.1)">
       <use xlink:href="#DejaVuSans-8722"/>
       <use x="83.789062" xlink:href="#DejaVuSans-48"/>
       <use x="147.412109" xlink:href="#DejaVuSans-46"/>
       <use x="179.199219" xlink:href="#DejaVuSans-50"/>
      </g>
     </g>
    </g>
    <g id="xtick_4">
     <g id="line2d_4">
      <g>
       <use style="stroke:#000000;stroke-width:0.8;" x="177.329262" xlink:href="#m1adc004726" y="252"/>
      </g>
     </g>
     <g id="text_4">
      <!-- 0.0 -->
      <g transform="translate(169.377699 266.598437)scale(0.1 -0.1)">
       <use xlink:href="#DejaVuSans-48"/>
       <use x="63.623047" xlink:href="#DejaVuSans-46"/>
       <use x="95.410156" xlink:href="#DejaVuSans-48"/>
      </g>
     </g>
    </g>
    <g id="xtick_5">
     <g id="line2d_5">
      <g>
       <use style="stroke:#000000;stroke-width:0.8;" x="216.579773" xlink:href="#m1adc004726" y="252"/>
      </g>
     </g>
     <g id="text_5">
      <!-- 0.2 -->
      <g transform="translate(208.62821 266.598437)scale(0.1 -0.1)">
       <use xlink:href="#DejaVuSans-48"/>
       <use x="63.623047" xlink:href="#DejaVuSans-46"/>
       <use x="95.410156" xlink:href="#DejaVuSans-50"/>
      </g>
     </g>
    </g>
    <g id="xtick_6">
     <g id="line2d_6">
      <g>
       <use style="stroke:#000000;stroke-width:0.8;" x="255.830284" xlink:href="#m1adc004726" y="252"/>
      </g>
     </g>
     <g id="text_6">
      <!-- 0.4 -->
      <g transform="translate(247.878722 266.598437)scale(0.1 -0.1)">
       <use xlink:href="#DejaVuSans-48"/>
       <use x="63.623047" xlink:href="#DejaVuSans-46"/>
       <use x="95.410156" xlink:href="#DejaVuSans-52"/>
      </g>
     </g>
    </g>
    <g id="xtick_7">
     <g id="line2d_7">
      <g>
       <use style="stroke:#000000;stroke-width:0.8;" x="295.080796" xlink:href="#m1adc004726" y="252"/>
      </g>
     </g>
     <g id="text_7">
      <!-- 0.6 -->
      <g transform="translate(287.129233 266.598437)scale(0.1 -0.1)">
       <use xlink:href="#DejaVuSans-48"/>
       <use x="63.623047" xlink:href="#DejaVuSans-46"/>
       <use x="95.410156" xlink:href="#DejaVuSans-54"/>
      </g>
     </g>
    </g>
    <g id="xtick_8">
     <g id="line2d_8">
      <g>
       <use style="stroke:#000000;stroke-width:0.8;" x="334.331307" xlink:href="#m1adc004726" y="252"/>
      </g>
     </g>
     <g id="text_8">
      <!-- 0.8 -->
      <defs>
       <path d="M 31.78125 34.625 
Q 24.75 34.625 20.71875 30.859375 
Q 16.703125 27.09375 16.703125 20.515625 
Q 16.703125 13.921875 20.71875 10.15625 
Q 24.75 6.390625 31.78125 6.390625 
Q 38.8125 6.390625 42.859375 10.171875 
Q 46.921875 13.96875 46.921875 20.515625 
Q 46.921875 27.09375 42.890625 30.859375 
Q 38.875 34.625 31.78125 34.625 
z
M 21.921875 38.8125 
Q 15.578125 40.375 12.03125 44.71875 
Q 8.5 49.078125 8.5 55.328125 
Q 8.5 64.0625 14.71875 69.140625 
Q 20.953125 74.21875 31.78125 74.21875 
Q 42.671875 74.21875 48.875 69.140625 
Q 55.078125 64.0625 55.078125 55.328125 
Q 55.078125 49.078125 51.53125 44.71875 
Q 48 40.375 41.703125 38.8125 
Q 48.828125 37.15625 52.796875 32.3125 
Q 56.78125 27.484375 56.78125 20.515625 
Q 56.78125 9.90625 50.3125 4.234375 
Q 43.84375 -1.421875 31.78125 -1.421875 
Q 19.734375 -1.421875 13.25 4.234375 
Q 6.78125 9.90625 6.78125 20.515625 
Q 6.78125 27.484375 10.78125 32.3125 
Q 14.796875 37.15625 21.921875 38.8125 
z
M 18.3125 54.390625 
Q 18.3125 48.734375 21.84375 45.5625 
Q 25.390625 42.390625 31.78125 42.390625 
Q 38.140625 42.390625 41.71875 45.5625 
Q 45.3125 48.734375 45.3125 54.390625 
Q 45.3125 60.0625 41.71875 63.234375 
Q 38.140625 66.40625 31.78125 66.40625 
Q 25.390625 66.40625 21.84375 63.234375 
Q 18.3125 60.0625 18.3125 54.390625 
z
" id="DejaVuSans-56"/>
      </defs>
      <g transform="translate(326.379744 266.598437)scale(0.1 -0.1)">
       <use xlink:href="#DejaVuSans-48"/>
       <use x="63.623047" xlink:href="#DejaVuSans-46"/>
       <use x="95.410156" xlink:href="#DejaVuSans-56"/>
      </g>
     </g>
    </g>
    <g id="xtick_9">
     <g id="line2d_9">
      <g>
       <use style="stroke:#000000;stroke-width:0.8;" x="373.581818" xlink:href="#m1adc004726" y="252"/>
      </g>
     </g>
     <g id="text_9">
      <!-- 1.0 -->
      <defs>
       <path d="M 12.40625 8.296875 
L 28.515625 8.296875 
L 28.515625 63.921875 
L 10.984375 60.40625 
L 10.984375 69.390625 
L 28.421875 72.90625 
L 38.28125 72.90625 
L 38.28125 8.296875 
L 54.390625 8.296875 
L 54.390625 0 
L 12.40625 0 
z
" id="DejaVuSans-49"/>
      </defs>
      <g transform="translate(365.630256 266.598437)scale(0.1 -0.1)">
       <use xlink:href="#DejaVuSans-49"/>
       <use x="63.623047" xlink:href="#DejaVuSans-46"/>
       <use x="95.410156" xlink:href="#DejaVuSans-48"/>
      </g>
     </g>
    </g>
    <g id="text_10">
     <!-- cosine similarity -->
     <defs>
      <path d="M 48.78125 52.59375 
L 48.78125 44.1875 
Q 44.96875 46.296875 41.140625 47.34375 
Q 37.3125 48.390625 33.40625 48.390625 
Q 24.65625 48.390625 19.8125 42.84375 
Q 14.984375 37.3125 14.984375 27.296875 
Q 14.984375 17.28125 19.8125 11.734375 
Q 24.65625 6.203125 33.40625 6.203125 
Q 37.3125 6.203125 41.140625 7.25 
Q 44.96875 8.296875 48.78125 10.40625 
L 48.78125 2.09375 
Q 45.015625 0.34375 40.984375 -0.53125 
Q 36.96875 -1.421875 32.421875 -1.421875 
Q 20.0625 -1.421875 12.78125 6.34375 
Q 5.515625 14.109375 5.515625 27.296875 
Q 5.515625 40.671875 12.859375 48.328125 
Q 20.21875 56 33.015625 56 
Q 37.15625 56 41.109375 55.140625 
Q 45.0625 54.296875 48.78125 52.59375 
z
" id="DejaVuSans-99"/>
      <path d="M 30.609375 48.390625 
Q 23.390625 48.390625 19.1875 42.75 
Q 14.984375 37.109375 14.984375 27.296875 
Q 14.984375 17.484375 19.15625 11.84375 
Q 23.34375 6.203125 30.609375 6.203125 
Q 37.796875 6.203125 41.984375 11.859375 
Q 46.1875 17.53125 46.1875 27.296875 
Q 46.1875 37.015625 41.984375 42.703125 
Q 37.796875 48.390625 30.609375 48.390625 
z
M 30.609375 56 
Q 42.328125 56 49.015625 48.375 
Q 55.71875 40.765625 55.71875 27.296875 
Q 55.71875 13.875 49.015625 6.21875 
Q 42.328125 -1.421875 30.609375 -1.421875 
Q 18.84375 -1.421875 12.171875 6.21875 
Q 5.515625 13.875 5.515625 27.296875 
Q 5.515625 40.765625 12.171875 48.375 
Q 18.84375 56 30.609375 56 
z
" id="DejaVuSans-111"/>
      <path d="M 44.28125 53.078125 
L 44.28125 44.578125 
Q 40.484375 46.53125 36.375 47.5 
Q 32.28125 48.484375 27.875 48.484375 
Q 21.1875 48.484375 17.84375 46.4375 
Q 14.5 44.390625 14.5 40.28125 
Q 14.5 37.15625 16.890625 35.375 
Q 19.28125 33.59375 26.515625 31.984375 
L 29.59375 31.296875 
Q 39.15625 29.25 43.1875 25.515625 
Q 47.21875 21.78125 47.21875 15.09375 
Q 47.21875 7.46875 41.1875 3.015625 
Q 35.15625 -1.421875 24.609375 -1.421875 
Q 20.21875 -1.421875 15.453125 -0.5625 
Q 10.6875 0.296875 5.421875 2 
L 5.421875 11.28125 
Q 10.40625 8.6875 15.234375 7.390625 
Q 20.0625 6.109375 24.8125 6.109375 
Q 31.15625 6.109375 34.5625 8.28125 
Q 37.984375 10.453125 37.984375 14.40625 
Q 37.984375 18.0625 35.515625 20.015625 
Q 33.0625 21.96875 24.703125 23.78125 
L 21.578125 24.515625 
Q 13.234375 26.265625 9.515625 29.90625 
Q 5.8125 33.546875 5.8125 39.890625 
Q 5.8125 47.609375 11.28125 51.796875 
Q 16.75 56 26.8125 56 
Q 31.78125 56 36.171875 55.265625 
Q 40.578125 54.546875 44.28125 53.078125 
z
" id="DejaVuSans-115"/>
      <path d="M 9.421875 54.6875 
L 18.40625 54.6875 
L 18.40625 0 
L 9.421875 0 
z
M 9.421875 75.984375 
L 18.40625 75.984375 
L 18.40625 64.59375 
L 9.421875 64.59375 
z
" id="DejaVuSans-105"/>
      <path d="M 54.890625 33.015625 
L 54.890625 0 
L 45.90625 0 
L 45.90625 32.71875 
Q 45.90625 40.484375 42.875 44.328125 
Q 39.84375 48.1875 33.796875 48.1875 
Q 26.515625 48.1875 22.3125 43.546875 
Q 18.109375 38.921875 18.109375 30.90625 
L 18.109375 0 
L 9.078125 0 
L 9.078125 54.6875 
L 18.109375 54.6875 
L 18.109375 46.1875 
Q 21.34375 51.125 25.703125 53.5625 
Q 30.078125 56 35.796875 56 
Q 45.21875 56 50.046875 50.171875 
Q 54.890625 44.34375 54.890625 33.015625 
z
" id="DejaVuSans-110"/>
      <path d="M 56.203125 29.59375 
L 56.203125 25.203125 
L 14.890625 25.203125 
Q 15.484375 15.921875 20.484375 11.0625 
Q 25.484375 6.203125 34.421875 6.203125 
Q 39.59375 6.203125 44.453125 7.46875 
Q 49.3125 8.734375 54.109375 11.28125 
L 54.109375 2.78125 
Q 49.265625 0.734375 44.1875 -0.34375 
Q 39.109375 -1.421875 33.890625 -1.421875 
Q 20.796875 -1.421875 13.15625 6.1875 
Q 5.515625 13.8125 5.515625 26.8125 
Q 5.515625 40.234375 12.765625 48.109375 
Q 20.015625 56 32.328125 56 
Q 43.359375 56 49.78125 48.890625 
Q 56.203125 41.796875 56.203125 29.59375 
z
M 47.21875 32.234375 
Q 47.125 39.59375 43.09375 43.984375 
Q 39.0625 48.390625 32.421875 48.390625 
Q 24.90625 48.390625 20.390625 44.140625 
Q 15.875 39.890625 15.1875 32.171875 
z
" id="DejaVuSans-101"/>
      <path id="DejaVuSans-32"/>
      <path d="M 52 44.1875 
Q 55.375 50.25 60.0625 53.125 
Q 64.75 56 71.09375 56 
Q 79.640625 56 84.28125 50.015625 
Q 88.921875 44.046875 88.921875 33.015625 
L 88.921875 0 
L 79.890625 0 
L 79.890625 32.71875 
Q 79.890625 40.578125 77.09375 44.375 
Q 74.3125 48.1875 68.609375 48.1875 
Q 61.625 48.1875 57.5625 43.546875 
Q 53.515625 38.921875 53.515625 30.90625 
L 53.515625 0 
L 44.484375 0 
L 44.484375 32.71875 
Q 44.484375 40.625 41.703125 44.40625 
Q 38.921875 48.1875 33.109375 48.1875 
Q 26.21875 48.1875 22.15625 43.53125 
Q 18.109375 38.875 18.109375 30.90625 
L 18.109375 0 
L 9.078125 0 
L 9.078125 54.6875 
L 18.109375 54.6875 
L 18.109375 46.1875 
Q 21.1875 51.21875 25.484375 53.609375 
Q 29.78125 56 35.6875 56 
Q 41.65625 56 45.828125 52.96875 
Q 50 49.953125 52 44.1875 
z
" id="DejaVuSans-109"/>
      <path d="M 9.421875 75.984375 
L 18.40625 75.984375 
L 18.40625 0 
L 9.421875 0 
z
" id="DejaVuSans-108"/>
      <path d="M 34.28125 27.484375 
Q 23.390625 27.484375 19.1875 25 
Q 14.984375 22.515625 14.984375 16.5 
Q 14.984375 11.71875 18.140625 8.90625 
Q 21.296875 6.109375 26.703125 6.109375 
Q 34.1875 6.109375 38.703125 11.40625 
Q 43.21875 16.703125 43.21875 25.484375 
L 43.21875 27.484375 
z
M 52.203125 31.203125 
L 52.203125 0 
L 43.21875 0 
L 43.21875 8.296875 
Q 40.140625 3.328125 35.546875 0.953125 
Q 30.953125 -1.421875 24.3125 -1.421875 
Q 15.921875 -1.421875 10.953125 3.296875 
Q 6 8.015625 6 15.921875 
Q 6 25.140625 12.171875 29.828125 
Q 18.359375 34.515625 30.609375 34.515625 
L 43.21875 34.515625 
L 43.21875 35.40625 
Q 43.21875 41.609375 39.140625 45 
Q 35.0625 48.390625 27.6875 48.390625 
Q 23 48.390625 18.546875 47.265625 
Q 14.109375 46.140625 10.015625 43.890625 
L 10.015625 52.203125 
Q 14.9375 54.109375 19.578125 55.046875 
Q 24.21875 56 28.609375 56 
Q 40.484375 56 46.34375 49.84375 
Q 52.203125 43.703125 52.203125 31.203125 
z
" id="DejaVuSans-97"/>
      <path d="M 41.109375 46.296875 
Q 39.59375 47.171875 37.8125 47.578125 
Q 36.03125 48 33.890625 48 
Q 26.265625 48 22.1875 43.046875 
Q 18.109375 38.09375 18.109375 28.8125 
L 18.109375 0 
L 9.078125 0 
L 9.078125 54.6875 
L 18.109375 54.6875 
L 18.109375 46.1875 
Q 20.953125 51.171875 25.484375 53.578125 
Q 30.03125 56 36.53125 56 
Q 37.453125 56 38.578125 55.875 
Q 39.703125 55.765625 41.0625 55.515625 
z
" id="DejaVuSans-114"/>
      <path d="M 18.3125 70.21875 
L 18.3125 54.6875 
L 36.8125 54.6875 
L 36.8125 47.703125 
L 18.3125 47.703125 
L 18.3125 18.015625 
Q 18.3125 11.328125 20.140625 9.421875 
Q 21.96875 7.515625 27.59375 7.515625 
L 36.8125 7.515625 
L 36.8125 0 
L 27.59375 0 
Q 17.1875 0 13.234375 3.875 
Q 9.28125 7.765625 9.28125 18.015625 
L 9.28125 47.703125 
L 2.6875 47.703125 
L 2.6875 54.6875 
L 9.28125 54.6875 
L 9.28125 70.21875 
z
" id="DejaVuSans-116"/>
      <path d="M 32.171875 -5.078125 
Q 28.375 -14.84375 24.75 -17.8125 
Q 21.140625 -20.796875 15.09375 -20.796875 
L 7.90625 -20.796875 
L 7.90625 -13.28125 
L 13.1875 -13.28125 
Q 16.890625 -13.28125 18.9375 -11.515625 
Q 21 -9.765625 23.484375 -3.21875 
L 25.09375 0.875 
L 2.984375 54.6875 
L 12.5 54.6875 
L 29.59375 11.921875 
L 46.6875 54.6875 
L 56.203125 54.6875 
z
" id="DejaVuSans-121"/>
     </defs>
     <g transform="translate(180.692969 280.276563)scale(0.1 -0.1)">
      <use xlink:href="#DejaVuSans-99"/>
      <use x="54.980469" xlink:href="#DejaVuSans-111"/>
      <use x="116.162109" xlink:href="#DejaVuSans-115"/>
      <use x="168.261719" xlink:href="#DejaVuSans-105"/>
      <use x="196.044922" xlink:href="#DejaVuSans-110"/>
      <use x="259.423828" xlink:href="#DejaVuSans-101"/>
      <use x="320.947266" xlink:href="#DejaVuSans-32"/>
      <use x="352.734375" xlink:href="#DejaVuSans-115"/>
      <use x="404.833984" xlink:href="#DejaVuSans-105"/>
      <use x="432.617188" xlink:href="#DejaVuSans-109"/>
      <use x="530.029297" xlink:href="#DejaVuSans-105"/>
      <use x="557.8125" xlink:href="#DejaVuSans-108"/>
      <use x="585.595703" xlink:href="#DejaVuSans-97"/>
      <use x="646.875" xlink:href="#DejaVuSans-114"/>
      <use x="687.988281" xlink:href="#DejaVuSans-105"/>
      <use x="715.771484" xlink:href="#DejaVuSans-116"/>
      <use x="754.980469" xlink:href="#DejaVuSans-121"/>
     </g>
    </g>
   </g>
   <g id="matplotlib.axis_2">
    <g id="ytick_1">
     <g id="line2d_10">
      <defs>
       <path d="M 0 0 
L -3.5 0 
" id="md2e1435727" style="stroke:#000000;stroke-width:0.8;"/>
      </defs>
      <g>
       <use style="stroke:#000000;stroke-width:0.8;" x="54" xlink:href="#md2e1435727" y="252"/>
      </g>
     </g>
     <g id="text_11">
      <!-- 0.0 -->
      <g transform="translate(31.096875 255.799219)scale(0.1 -0.1)">
       <use xlink:href="#DejaVuSans-48"/>
       <use x="63.623047" xlink:href="#DejaVuSans-46"/>
       <use x="95.410156" xlink:href="#DejaVuSans-48"/>
      </g>
     </g>
    </g>
    <g id="ytick_2">
     <g id="line2d_11">
      <g>
       <use style="stroke:#000000;stroke-width:0.8;" x="54" xlink:href="#md2e1435727" y="225.5805"/>
      </g>
     </g>
     <g id="text_12">
      <!-- 0.5 -->
      <defs>
       <path d="M 10.796875 72.90625 
L 49.515625 72.90625 
L 49.515625 64.59375 
L 19.828125 64.59375 
L 19.828125 46.734375 
Q 21.96875 47.46875 24.109375 47.828125 
Q 26.265625 48.1875 28.421875 48.1875 
Q 40.625 48.1875 47.75 41.5 
Q 54.890625 34.8125 54.890625 23.390625 
Q 54.890625 11.625 47.5625 5.09375 
Q 40.234375 -1.421875 26.90625 -1.421875 
Q 22.3125 -1.421875 17.546875 -0.640625 
Q 12.796875 0.140625 7.71875 1.703125 
L 7.71875 11.625 
Q 12.109375 9.234375 16.796875 8.0625 
Q 21.484375 6.890625 26.703125 6.890625 
Q 35.15625 6.890625 40.078125 11.328125 
Q 45.015625 15.765625 45.015625 23.390625 
Q 45.015625 31 40.078125 35.4375 
Q 35.15625 39.890625 26.703125 39.890625 
Q 22.75 39.890625 18.8125 39.015625 
Q 14.890625 38.140625 10.796875 36.28125 
z
" id="DejaVuSans-53"/>
      </defs>
      <g transform="translate(31.096875 229.379719)scale(0.1 -0.1)">
       <use xlink:href="#DejaVuSans-48"/>
       <use x="63.623047" xlink:href="#DejaVuSans-46"/>
       <use x="95.410156" xlink:href="#DejaVuSans-53"/>
      </g>
     </g>
    </g>
    <g id="ytick_3">
     <g id="line2d_12">
      <g>
       <use style="stroke:#000000;stroke-width:0.8;" x="54" xlink:href="#md2e1435727" y="199.161"/>
      </g>
     </g>
     <g id="text_13">
      <!-- 1.0 -->
      <g transform="translate(31.096875 202.960219)scale(0.1 -0.1)">
       <use xlink:href="#DejaVuSans-49"/>
       <use x="63.623047" xlink:href="#DejaVuSans-46"/>
       <use x="95.410156" xlink:href="#DejaVuSans-48"/>
      </g>
     </g>
    </g>
    <g id="ytick_4">
     <g id="line2d_13">
      <g>
       <use style="stroke:#000000;stroke-width:0.8;" x="54" xlink:href="#md2e1435727" y="172.7415"/>
      </g>
     </g>
     <g id="text_14">
      <!-- 1.5 -->
      <g transform="translate(31.096875 176.540719)scale(0.1 -0.1)">
       <use xlink:href="#DejaVuSans-49"/>
       <use x="63.623047" xlink:href="#DejaVuSans-46"/>
       <use x="95.410156" xlink:href="#DejaVuSans-53"/>
      </g>
     </g>
    </g>
    <g id="ytick_5">
     <g id="line2d_14">
      <g>
       <use style="stroke:#000000;stroke-width:0.8;" x="54" xlink:href="#md2e1435727" y="146.322"/>
      </g>
     </g>
     <g id="text_15">
      <!-- 2.0 -->
      <g transform="translate(31.096875 150.121219)scale(0.1 -0.1)">
       <use xlink:href="#DejaVuSans-50"/>
       <use x="63.623047" xlink:href="#DejaVuSans-46"/>
       <use x="95.410156" xlink:href="#DejaVuSans-48"/>
      </g>
     </g>
    </g>
    <g id="ytick_6">
     <g id="line2d_15">
      <g>
       <use style="stroke:#000000;stroke-width:0.8;" x="54" xlink:href="#md2e1435727" y="119.9025"/>
      </g>
     </g>
     <g id="text_16">
      <!-- 2.5 -->
      <g transform="translate(31.096875 123.701719)scale(0.1 -0.1)">
       <use xlink:href="#DejaVuSans-50"/>
       <use x="63.623047" xlink:href="#DejaVuSans-46"/>
       <use x="95.410156" xlink:href="#DejaVuSans-53"/>
      </g>
     </g>
    </g>
    <g id="ytick_7">
     <g id="line2d_16">
      <g>
       <use style="stroke:#000000;stroke-width:0.8;" x="54" xlink:href="#md2e1435727" y="93.483"/>
      </g>
     </g>
     <g id="text_17">
      <!-- 3.0 -->
      <defs>
       <path d="M 40.578125 39.3125 
Q 47.65625 37.796875 51.625 33 
Q 55.609375 28.21875 55.609375 21.1875 
Q 55.609375 10.40625 48.1875 4.484375 
Q 40.765625 -1.421875 27.09375 -1.421875 
Q 22.515625 -1.421875 17.65625 -0.515625 
Q 12.796875 0.390625 7.625 2.203125 
L 7.625 11.71875 
Q 11.71875 9.328125 16.59375 8.109375 
Q 21.484375 6.890625 26.8125 6.890625 
Q 36.078125 6.890625 40.9375 10.546875 
Q 45.796875 14.203125 45.796875 21.1875 
Q 45.796875 27.640625 41.28125 31.265625 
Q 36.765625 34.90625 28.71875 34.90625 
L 20.21875 34.90625 
L 20.21875 43.015625 
L 29.109375 43.015625 
Q 36.375 43.015625 40.234375 45.921875 
Q 44.09375 48.828125 44.09375 54.296875 
Q 44.09375 59.90625 40.109375 62.90625 
Q 36.140625 65.921875 28.71875 65.921875 
Q 24.65625 65.921875 20.015625 65.03125 
Q 15.375 64.15625 9.8125 62.3125 
L 9.8125 71.09375 
Q 15.4375 72.65625 20.34375 73.4375 
Q 25.25 74.21875 29.59375 74.21875 
Q 40.828125 74.21875 47.359375 69.109375 
Q 53.90625 64.015625 53.90625 55.328125 
Q 53.90625 49.265625 50.4375 45.09375 
Q 46.96875 40.921875 40.578125 39.3125 
z
" id="DejaVuSans-51"/>
      </defs>
      <g transform="translate(31.096875 97.282219)scale(0.1 -0.1)">
       <use xlink:href="#DejaVuSans-51"/>
       <use x="63.623047" xlink:href="#DejaVuSans-46"/>
       <use x="95.410156" xlink:href="#DejaVuSans-48"/>
      </g>
     </g>
    </g>
    <g id="ytick_8">
     <g id="line2d_17">
      <g>
       <use style="stroke:#000000;stroke-width:0.8;" x="54" xlink:href="#md2e1435727" y="67.0635"/>
      </g>
     </g>
     <g id="text_18">
      <!-- 3.5 -->
      <g transform="translate(31.096875 70.862719)scale(0.1 -0.1)">
       <use xlink:href="#DejaVuSans-51"/>
       <use x="63.623047" xlink:href="#DejaVuSans-46"/>
       <use x="95.410156" xlink:href="#DejaVuSans-53"/>
      </g>
     </g>
    </g>
    <g id="ytick_9">
     <g id="line2d_18">
      <g>
       <use style="stroke:#000000;stroke-width:0.8;" x="54" xlink:href="#md2e1435727" y="40.644"/>
      </g>
     </g>
     <g id="text_19">
      <!-- 4.0 -->
      <g transform="translate(31.096875 44.443219)scale(0.1 -0.1)">
       <use xlink:href="#DejaVuSans-52"/>
       <use x="63.623047" xlink:href="#DejaVuSans-46"/>
       <use x="95.410156" xlink:href="#DejaVuSans-48"/>
      </g>
     </g>
    </g>
    <g id="text_20">
     <!-- density -->
     <defs>
      <path d="M 45.40625 46.390625 
L 45.40625 75.984375 
L 54.390625 75.984375 
L 54.390625 0 
L 45.40625 0 
L 45.40625 8.203125 
Q 42.578125 3.328125 38.25 0.953125 
Q 33.9375 -1.421875 27.875 -1.421875 
Q 17.96875 -1.421875 11.734375 6.484375 
Q 5.515625 14.40625 5.515625 27.296875 
Q 5.515625 40.1875 11.734375 48.09375 
Q 17.96875 56 27.875 56 
Q 33.9375 56 38.25 53.625 
Q 42.578125 51.265625 45.40625 46.390625 
z
M 14.796875 27.296875 
Q 14.796875 17.390625 18.875 11.75 
Q 22.953125 6.109375 30.078125 6.109375 
Q 37.203125 6.109375 41.296875 11.75 
Q 45.40625 17.390625 45.40625 27.296875 
Q 45.40625 37.203125 41.296875 42.84375 
Q 37.203125 48.484375 30.078125 48.484375 
Q 22.953125 48.484375 18.875 42.84375 
Q 14.796875 37.203125 14.796875 27.296875 
z
" id="DejaVuSans-100"/>
     </defs>
     <g transform="translate(25.017187 161.612813)rotate(-90)scale(0.1 -0.1)">
      <use xlink:href="#DejaVuSans-100"/>
      <use x="63.476562" xlink:href="#DejaVuSans-101"/>
      <use x="125" xlink:href="#DejaVuSans-110"/>
      <use x="188.378906" xlink:href="#DejaVuSans-115"/>
      <use x="240.478516" xlink:href="#DejaVuSans-105"/>
      <use x="268.261719" xlink:href="#DejaVuSans-116"/>
      <use x="307.470703" xlink:href="#DejaVuSans-121"/>
     </g>
    </g>
   </g>
   <g id="patch_7">
    <path d="M 54 252 
L 54 34.56 
" style="fill:none;stroke:#000000;stroke-linecap:square;stroke-linejoin:miter;stroke-width:0.8;"/>
   </g>
   <g id="patch_8">
    <path d="M 388.8 252 
L 388.8 34.56 
" style="fill:none;stroke:#000000;stroke-linecap:square;stroke-linejoin:miter;stroke-width:0.8;"/>
   </g>
   <g id="patch_9">
    <path d="M 54 252 
L 388.8 252 
" style="fill:none;stroke:#000000;stroke-linecap:square;stroke-linejoin:miter;stroke-width:0.8;"/>
   </g>
   <g id="patch_10">
    <path d="M 54 34.56 
L 388.8 34.56 
" style="fill:none;stroke:#000000;stroke-linecap:square;stroke-linejoin:miter;stroke-width:0.8;"/>
   </g>
   <g id="text_21">
    <!-- x-validation -->
    <defs>
     <path d="M 54.890625 54.6875 
L 35.109375 28.078125 
L 55.90625 0 
L 45.3125 0 
L 29.390625 21.484375 
L 13.484375 0 
L 2.875 0 
L 24.125 28.609375 
L 4.6875 54.6875 
L 15.28125 54.6875 
L 29.78125 35.203125 
L 44.28125 54.6875 
z
" id="DejaVuSans-120"/>
     <path d="M 4.890625 31.390625 
L 31.203125 31.390625 
L 31.203125 23.390625 
L 4.890625 23.390625 
z
" id="DejaVuSans-45"/>
     <path d="M 2.984375 54.6875 
L 12.5 54.6875 
L 29.59375 8.796875 
L 46.6875 54.6875 
L 56.203125 54.6875 
L 35.6875 0 
L 23.484375 0 
z
" id="DejaVuSans-118"/>
    </defs>
    <g transform="translate(186.145313 28.56)scale(0.12 -0.12)">
     <use xlink:href="#DejaVuSans-120"/>
     <use x="59.179688" xlink:href="#DejaVuSans-45"/>
     <use x="95.232422" xlink:href="#DejaVuSans-118"/>
     <use x="154.412109" xlink:href="#DejaVuSans-97"/>
     <use x="215.691406" xlink:href="#DejaVuSans-108"/>
     <use x="243.474609" xlink:href="#DejaVuSans-105"/>
     <use x="271.257812" xlink:href="#DejaVuSans-100"/>
     <use x="334.734375" xlink:href="#DejaVuSans-97"/>
     <use x="396.013672" xlink:href="#DejaVuSans-116"/>
     <use x="435.222656" xlink:href="#DejaVuSans-105"/>
     <use x="463.005859" xlink:href="#DejaVuSans-111"/>
     <use x="524.1875" xlink:href="#DejaVuSans-110"/>
    </g>
   </g>
  </g>
 </g>
 <defs>
  <clipPath id="p2283d1ff4e">
   <rect height="217.44" width="334.8" x="54" y="34.56"/>
  </clipPath>
 </defs>
</svg>
