<?xml version="1.0" encoding="utf-8" standalone="no"?>
<!DOCTYPE svg PUBLIC "-//W3C//DTD SVG 1.1//EN"
  "http://www.w3.org/Graphics/SVG/1.1/DTD/svg11.dtd">
<!-- Created with matplotlib (https://matplotlib.org/) -->
<svg height="288pt" version="1.1" viewBox="0 0 432 288" width="432pt" xmlns="http://www.w3.org/2000/svg" xmlns:xlink="http://www.w3.org/1999/xlink">
 <defs>
  <style type="text/css">
*{stroke-linecap:butt;stroke-linejoin:round;}
  </style>
 </defs>
 <g id="figure_1">
  <g id="patch_1">
   <path d="M 0 288 
L 432 288 
L 432 0 
L 0 0 
z
" style="fill:#ffffff;"/>
  </g>
  <g id="axes_1">
   <g id="patch_2">
    <path d="M 54 252 
L 388.8 252 
L 388.8 34.56 
L 54 34.56 
z
" style="fill:#ffffff;"/>
   </g>
   <g id="patch_3">
    <path clip-path="url(#p421e385a2f)" d="M 69.218182 252 
L 69.218182 251.84531 
L 72.261814 251.84531 
L 72.261814 251.266936 
L 75.305456 251.266936 
L 75.305456 250.850509 
L 78.349089 250.850509 
L 78.349089 249.189874 
L 81.392731 249.189874 
L 81.392731 247.384523 
L 84.436363 247.384523 
L 84.436363 244.075614 
L 87.479995 244.075614 
L 87.479995 240.091923 
L 90.523638 240.091923 
L 90.523638 230.689881 
L 93.56727 230.689881 
L 93.56727 229.011894 
L 96.610912 229.011894 
L 96.610912 220.210769 
L 99.654544 220.210769 
L 99.654544 208.944691 
L 102.698187 208.944691 
L 102.698187 209.390923 
L 105.741819 209.390923 
L 105.741819 221.105056 
L 108.785451 221.105056 
L 108.785451 230.048052 
L 111.829088 230.048052 
L 111.829088 238.824452 
L 114.872726 238.824452 
L 114.872726 243.810135 
L 117.916363 243.810135 
L 117.916363 240.728944 
L 120.96 240.728944 
L 120.96 236.885142 
L 124.003638 236.885142 
L 124.003638 231.006649 
L 127.047275 231.006649 
L 127.047275 225.2053 
L 130.090907 225.2053 
L 130.090907 227.973296 
L 133.134544 227.973296 
L 133.134544 235.649789 
L 136.178182 235.649789 
L 136.178182 240.416266 
L 139.221819 240.416266 
L 139.221819 244.653323 
L 142.265456 244.653323 
L 142.265456 247.592466 
L 145.309088 247.592466 
L 145.309088 248.349016 
L 148.352726 248.349016 
L 148.352726 249.169202 
L 151.396363 249.169202 
L 151.396363 248.887801 
L 154.44 248.887801 
L 154.44 245.396921 
L 157.483638 245.396921 
L 157.483638 247.630264 
L 160.527272 247.630264 
L 160.527272 246.647604 
L 163.57091 246.647604 
L 163.57091 222.543889 
L 166.614544 222.543889 
L 166.614544 217.983828 
L 169.658182 217.983828 
L 169.658182 190.937331 
L 172.701819 190.937331 
L 172.701819 184.377183 
L 175.745453 184.377183 
L 175.745453 216.303673 
L 178.789091 216.303673 
L 178.789091 222.302732 
L 181.832727 222.302732 
L 181.832727 227.113353 
L 184.876364 227.113353 
L 184.876364 242.226219 
L 187.92 242.226219 
L 187.92 247.84597 
L 190.963636 247.84597 
L 190.963636 250.155777 
L 194.007273 250.155777 
L 194.007273 242.707481 
L 197.050909 242.707481 
L 197.050909 188.701809 
L 200.094545 188.701809 
L 200.094545 194.643332 
L 203.138182 194.643332 
L 203.138182 246.868207 
L 206.181818 246.868207 
L 206.181818 247.766432 
L 209.225455 247.766432 
L 209.225455 247.391996 
L 212.269091 247.391996 
L 212.269091 238.757056 
L 215.312727 238.757056 
L 215.312727 177.18487 
L 218.356364 177.18487 
L 218.356364 225.353226 
L 221.4 225.353226 
L 221.4 239.631963 
L 224.443637 239.631963 
L 224.443637 246.242708 
L 227.487272 246.242708 
L 227.487272 249.098502 
L 230.530909 249.098502 
L 230.530909 249.340929 
L 236.618181 249.416283 
L 236.618181 249.558172 
L 239.661819 249.558172 
L 239.661819 249.694851 
L 242.705456 249.694851 
L 242.705456 249.940779 
L 245.749093 249.940779 
L 245.749093 250.068025 
L 251.836363 250.152763 
L 251.836363 250.201551 
L 254.88 250.201551 
L 254.88 250.328877 
L 257.923637 250.328877 
L 257.923637 250.604428 
L 260.967275 250.604428 
L 260.967275 250.787262 
L 267.054544 250.888369 
L 267.054544 250.988177 
L 270.098181 250.988177 
L 270.098181 251.117248 
L 276.185456 251.199853 
L 276.185456 251.349629 
L 318.796368 251.247975 
L 318.796368 251.233386 
L 327.927274 251.154735 
L 327.927274 251.11105 
L 334.014549 251.055889 
L 334.014549 250.93949 
L 337.058181 250.93949 
L 337.058181 250.820451 
L 340.101813 250.820451 
L 340.101813 250.670127 
L 343.145456 250.670127 
L 343.145456 250.511724 
L 346.189088 250.511724 
L 346.189088 250.31074 
L 349.23273 250.31074 
L 349.23273 250.08918 
L 352.276362 250.08918 
L 352.276362 249.771404 
L 355.320005 249.771404 
L 355.320005 249.371277 
L 358.363637 249.371277 
L 358.363637 248.807539 
L 361.407269 248.807539 
L 361.407269 247.901746 
L 364.450911 247.901746 
L 364.450911 246.114466 
L 367.494544 246.114466 
L 367.494544 233.989846 
L 370.538186 233.989846 
L 370.538186 44.914286 
L 373.581818 44.914286 
L 373.581818 252 
L 373.581818 252 
" style="fill:none;opacity:0.5;stroke:#008080;stroke-linejoin:miter;stroke-width:2;"/>
   </g>
   <g id="patch_4">
    <path clip-path="url(#p421e385a2f)" d="M 72.426497 252 
L 72.426497 251.876279 
L 75.438039 251.876279 
L 75.438039 251.53994 
L 78.449591 251.53994 
L 78.449591 250.652343 
L 81.461133 250.652343 
L 81.461133 248.951013 
L 84.472674 248.951013 
L 84.472674 247.64054 
L 87.484226 247.64054 
L 87.484226 246.092171 
L 90.495768 246.092171 
L 90.495768 245.540809 
L 93.50731 245.540809 
L 93.50731 241.518265 
L 96.518862 241.518265 
L 96.518862 232.828823 
L 99.530404 232.828823 
L 99.530404 219.355387 
L 102.541945 219.355387 
L 102.541945 201.080161 
L 105.553498 201.080161 
L 105.553498 178.28841 
L 108.565039 178.28841 
L 108.565039 172.755066 
L 111.576581 172.755066 
L 111.576581 165.047161 
L 114.588128 165.047161 
L 114.588128 182.745611 
L 117.599675 182.745611 
L 117.599675 208.161708 
L 120.611216 208.161708 
L 120.611216 213.98044 
L 123.622763 213.98044 
L 123.622763 209.694703 
L 126.63431 209.694703 
L 126.63431 216.377625 
L 129.645852 216.377625 
L 129.645852 214.766817 
L 132.657399 214.766817 
L 132.657399 206.750054 
L 135.668941 206.750054 
L 135.668941 209.603034 
L 138.680488 209.603034 
L 138.680488 225.265954 
L 141.692034 225.265954 
L 141.692034 230.924739 
L 144.703576 230.924739 
L 144.703576 234.241748 
L 147.715123 234.241748 
L 147.715123 235.095287 
L 150.72667 235.095287 
L 150.72667 237.553683 
L 153.738212 237.553683 
L 153.738212 241.755268 
L 156.749759 241.755268 
L 156.749759 245.094498 
L 159.761303 245.094498 
L 159.761303 244.97856 
L 162.772847 244.97856 
L 162.772847 246.809733 
L 165.784394 246.809733 
L 165.784394 239.838963 
L 168.795938 239.838963 
L 168.795938 207.140749 
L 171.807483 207.140749 
L 171.807483 221.264563 
L 174.81903 221.264563 
L 174.81903 200.638011 
L 177.830574 200.638011 
L 177.830574 188.246205 
L 180.842118 188.246205 
L 180.842118 219.121759 
L 183.853664 219.121759 
L 183.853664 226.088184 
L 186.865208 226.088184 
L 186.865208 232.171705 
L 189.876754 232.171705 
L 189.876754 242.692846 
L 192.888299 242.692846 
L 192.888299 249.943286 
L 195.899844 249.943286 
L 195.899844 249.702651 
L 198.911389 249.702651 
L 198.911389 246.19941 
L 201.922934 246.19941 
L 201.922934 247.70078 
L 204.934479 247.70078 
L 204.934479 246.783297 
L 207.946024 246.783297 
L 207.946024 240.894364 
L 210.957569 240.894364 
L 210.957569 246.906832 
L 213.969114 246.906832 
L 213.969114 248.444212 
L 219.992205 248.486868 
L 219.992205 247.081544 
L 223.003749 247.081544 
L 223.003749 247.494095 
L 226.015293 247.494095 
L 226.015293 250.30118 
L 229.02684 250.30118 
L 229.02684 250.792683 
L 250.107656 250.707083 
L 250.107656 250.482352 
L 253.119197 250.482352 
L 253.119197 250.598689 
L 256.130744 250.598689 
L 256.130744 250.720246 
L 277.211562 250.712253 
L 277.211562 250.539016 
L 283.234651 250.563472 
L 283.234651 250.651896 
L 316.361646 250.738947 
L 316.361646 250.770893 
L 322.38474 250.737923 
L 322.38474 250.640208 
L 325.396282 250.640208 
L 325.396282 250.378733 
L 328.407824 250.378733 
L 328.407824 249.931842 
L 331.419376 249.931842 
L 331.419376 249.455972 
L 334.430917 249.455972 
L 334.430917 249.013375 
L 337.442459 249.013375 
L 337.442459 248.829007 
L 343.465553 248.726982 
L 343.465553 248.298143 
L 346.477095 248.298143 
L 346.477095 247.515063 
L 349.488636 247.515063 
L 349.488636 246.56639 
L 352.500188 246.56639 
L 352.500188 245.519758 
L 355.51173 245.519758 
L 355.51173 244.856706 
L 358.523272 244.856706 
L 358.523272 245.91339 
L 361.534824 245.91339 
L 361.534824 247.191332 
L 364.546366 247.191332 
L 364.546366 247.718107 
L 367.557907 247.718107 
L 367.557907 247.226249 
L 370.56946 247.226249 
L 370.56946 245.315237 
L 373.581001 245.315237 
L 373.581001 252 
L 373.581001 252 
" style="fill:none;opacity:0.5;stroke:#bf4080;stroke-linejoin:miter;stroke-width:2;"/>
   </g>
   <g id="patch_5">
    <path clip-path="url(#p421e385a2f)" d="M 72.426497 252 
L 72.426497 251.998813 
L 78.449601 251.997889 
L 78.449601 251.848961 
L 81.461143 251.848961 
L 81.461143 251.149333 
L 84.472695 251.149333 
L 84.472695 249.476623 
L 87.484247 249.476623 
L 87.484247 248.537101 
L 90.4958 248.537101 
L 90.4958 248.714442 
L 93.507352 248.714442 
L 93.507352 246.502585 
L 96.518904 246.502585 
L 96.518904 242.817252 
L 99.530446 242.817252 
L 99.530446 234.851183 
L 102.541998 234.851183 
L 102.541998 229.325434 
L 105.55355 229.325434 
L 105.55355 220.4597 
L 108.565102 220.4597 
L 108.565102 215.842474 
L 111.576654 215.842474 
L 111.576654 210.006108 
L 114.588201 210.006108 
L 114.588201 215.687215 
L 117.599753 215.687215 
L 117.599753 221.038657 
L 120.611305 221.038657 
L 120.611305 220.110608 
L 123.622852 220.110608 
L 123.622852 214.297402 
L 126.634405 214.297402 
L 126.634405 218.023252 
L 129.645957 218.023252 
L 129.645957 217.256578 
L 132.657504 217.256578 
L 132.657504 214.32811 
L 135.669056 214.32811 
L 135.669056 218.496153 
L 138.680608 218.496153 
L 138.680608 227.280692 
L 141.692155 227.280692 
L 141.692155 231.526104 
L 144.703707 231.526104 
L 144.703707 234.335385 
L 147.715259 234.335385 
L 147.715259 233.603643 
L 150.726806 233.603643 
L 150.726806 234.972198 
L 153.738358 234.972198 
L 153.738358 238.412582 
L 156.749908 238.412582 
L 156.749908 241.435666 
L 162.77301 241.462981 
L 162.77301 240.976616 
L 165.784559 240.976616 
L 165.784559 233.092794 
L 168.796109 233.092794 
L 168.796109 216.812679 
L 171.807661 216.812679 
L 171.807661 223.565228 
L 174.81921 223.565228 
L 174.81921 206.241218 
L 177.83076 206.241218 
L 177.83076 195.029147 
L 180.842311 195.029147 
L 180.842311 211.963273 
L 183.853862 211.963273 
L 183.853862 218.738972 
L 186.865411 218.738972 
L 186.865411 228.136457 
L 189.876962 228.136457 
L 189.876962 240.050339 
L 192.888512 240.050339 
L 192.888512 245.309052 
L 195.900063 245.309052 
L 195.900063 245.192679 
L 198.911613 245.192679 
L 198.911613 242.395427 
L 201.923163 242.395427 
L 201.923163 245.038079 
L 204.934714 245.038079 
L 204.934714 246.243035 
L 207.946265 246.243035 
L 207.946265 243.816186 
L 210.957814 243.816186 
L 210.957814 245.302008 
L 213.969365 245.302008 
L 213.969365 245.077628 
L 216.980916 245.077628 
L 216.980916 244.74975 
L 219.992467 244.74975 
L 219.992467 244.294047 
L 223.004016 244.294047 
L 223.004016 244.620236 
L 226.015566 244.620236 
L 226.015566 247.437306 
L 229.027118 247.437306 
L 229.027118 248.157035 
L 238.061769 248.179173 
L 238.061769 248.04404 
L 244.084871 247.95904 
L 244.084871 247.818311 
L 247.096418 247.818311 
L 247.096418 247.55877 
L 250.10797 247.55877 
L 250.10797 246.823261 
L 253.119522 246.823261 
L 253.119522 247.217455 
L 256.131069 247.217455 
L 256.131069 247.364834 
L 262.154173 247.267115 
L 262.154173 247.21917 
L 271.188825 247.123543 
L 271.188825 247.071456 
L 274.200372 247.071456 
L 274.200372 246.84223 
L 277.211924 246.84223 
L 277.211924 246.339359 
L 283.235023 246.277747 
L 283.235023 246.498153 
L 286.246575 246.498153 
L 286.246575 246.380964 
L 292.269679 246.333054 
L 292.269679 246.26196 
L 301.304325 246.221932 
L 301.304325 246.149829 
L 310.338982 246.218581 
L 310.338982 246.338548 
L 313.350524 246.338548 
L 313.350524 246.514563 
L 316.362076 246.514563 
L 316.362076 246.654151 
L 325.396732 246.553239 
L 325.396732 246.253458 
L 328.408284 246.253458 
L 328.408284 245.732626 
L 331.419826 245.732626 
L 331.419826 245.177883 
L 334.431378 245.177883 
L 334.431378 244.789194 
L 337.44293 244.789194 
L 337.44293 244.454061 
L 340.454483 244.454061 
L 340.454483 244.037619 
L 343.466035 244.037619 
L 343.466035 242.868175 
L 346.477587 242.868175 
L 346.477587 241.294335 
L 349.489129 241.294335 
L 349.489129 239.820136 
L 352.500681 239.820136 
L 352.500681 238.666759 
L 355.512233 238.666759 
L 355.512233 237.634002 
L 358.523785 237.634002 
L 358.523785 237.875505 
L 361.535337 237.875505 
L 361.535337 238.835289 
L 364.546889 238.835289 
L 364.546889 239.084107 
L 367.558431 239.084107 
L 367.558431 237.25642 
L 370.569983 237.25642 
L 370.569983 232.826508 
L 373.581535 232.826508 
L 373.581535 252 
L 373.581535 252 
" style="fill:none;opacity:0.5;stroke:#bf8080;stroke-linejoin:miter;stroke-width:2;"/>
   </g>
   <g id="patch_6">
    <path clip-path="url(#p421e385a2f)" d="M 76.018881 252 
L 76.018881 251.998913 
L 84.945766 251.987831 
L 84.945766 251.864839 
L 87.921395 251.864839 
L 87.921395 251.33555 
L 90.897024 251.33555 
L 90.897024 249.666901 
L 93.872652 249.666901 
L 93.872652 246.320008 
L 96.848291 246.320008 
L 96.848291 242.331169 
L 99.82392 242.331169 
L 99.82392 239.259304 
L 102.799548 239.259304 
L 102.799548 237.20511 
L 105.775177 237.20511 
L 105.775177 235.885011 
L 108.750805 235.885011 
L 108.750805 233.237316 
L 111.726434 233.237316 
L 111.726434 230.709135 
L 114.702062 230.709135 
L 114.702062 229.223182 
L 117.677691 229.223182 
L 117.677691 225.050256 
L 120.653319 225.050256 
L 120.653319 222.121426 
L 123.628953 222.121426 
L 123.628953 220.884826 
L 126.604582 220.884826 
L 126.604582 221.850889 
L 129.58021 221.850889 
L 129.58021 222.676685 
L 132.555839 222.676685 
L 132.555839 223.816262 
L 138.507096 223.863524 
L 138.507096 225.707853 
L 141.48273 225.707853 
L 141.48273 225.868065 
L 144.458358 225.868065 
L 144.458358 224.335229 
L 147.433987 224.335229 
L 147.433987 224.17258 
L 150.409615 224.17258 
L 150.409615 227.432356 
L 153.385244 227.432356 
L 153.385244 231.332208 
L 156.360875 231.332208 
L 156.360875 233.765464 
L 159.336503 233.765464 
L 159.336503 235.669829 
L 162.312132 235.669829 
L 162.312132 238.401632 
L 165.287763 238.401632 
L 165.287763 241.249666 
L 168.263392 241.249666 
L 168.263392 242.328345 
L 171.23902 242.328345 
L 171.23902 241.703181 
L 174.214651 241.703181 
L 174.214651 238.401946 
L 177.19028 238.401946 
L 177.19028 234.224293 
L 180.165908 234.224293 
L 180.165908 236.532301 
L 183.141538 236.532301 
L 183.141538 238.482353 
L 186.117168 238.482353 
L 186.117168 240.034362 
L 189.092797 240.034362 
L 189.092797 243.38046 
L 192.068426 243.38046 
L 192.068426 246.615354 
L 195.044056 246.615354 
L 195.044056 247.841852 
L 198.019685 247.841852 
L 198.019685 248.718604 
L 200.995315 248.718604 
L 200.995315 249.133049 
L 203.970944 249.133049 
L 203.970944 250.073307 
L 206.946573 250.073307 
L 206.946573 250.596621 
L 209.922203 250.596621 
L 209.922203 250.812889 
L 212.897831 250.812889 
L 212.897831 251.138894 
L 215.873461 251.138894 
L 215.873461 251.466474 
L 221.824721 251.525742 
L 221.824721 251.072019 
L 224.80035 251.072019 
L 224.80035 250.731238 
L 230.751609 250.788498 
L 230.751609 250.593361 
L 239.678497 250.659041 
L 239.678497 250.796917 
L 242.654126 250.796917 
L 242.654126 250.445271 
L 248.605383 250.501008 
L 248.605383 250.695981 
L 254.556645 250.671428 
L 254.556645 250.536754 
L 260.507902 250.553215 
L 260.507902 250.376984 
L 263.483531 250.376984 
L 263.483531 250.117473 
L 266.459159 250.117473 
L 266.459159 249.661523 
L 269.434788 249.661523 
L 269.434788 249.247516 
L 272.410422 249.247516 
L 272.410422 248.809163 
L 275.38605 248.809163 
L 275.38605 248.234512 
L 281.337307 248.20849 
L 281.337307 248.089355 
L 284.312936 248.089355 
L 284.312936 247.792368 
L 287.28857 247.792368 
L 287.28857 247.186038 
L 290.264198 247.186038 
L 290.264198 246.44939 
L 293.239827 246.44939 
L 293.239827 245.604853 
L 296.215455 245.604853 
L 296.215455 244.650035 
L 299.191084 244.650035 
L 299.191084 243.587763 
L 302.166712 243.587763 
L 302.166712 242.571015 
L 305.142341 242.571015 
L 305.142341 241.366682 
L 308.117969 241.366682 
L 308.117969 239.883988 
L 311.093598 239.883988 
L 311.093598 238.795748 
L 314.069227 238.795748 
L 314.069227 238.169543 
L 317.044855 238.169543 
L 317.044855 237.739339 
L 322.996123 237.647207 
L 322.996123 237.354232 
L 325.971751 237.354232 
L 325.971751 236.837275 
L 328.94738 236.837275 
L 328.94738 236.443255 
L 331.923008 236.443255 
L 331.923008 236.231442 
L 334.898637 236.231442 
L 334.898637 236.396155 
L 337.874265 236.396155 
L 337.874265 236.844718 
L 346.801151 236.90089 
L 346.801151 236.4771 
L 349.776779 236.4771 
L 349.776779 235.690092 
L 352.752408 235.690092 
L 352.752408 233.530464 
L 355.728047 233.530464 
L 355.728047 230.910192 
L 358.703676 230.910192 
L 358.703676 226.020393 
L 361.679304 226.020393 
L 361.679304 215.101597 
L 364.654933 215.101597 
L 364.654933 193.059525 
L 367.630561 193.059525 
L 367.630561 178.767631 
L 370.60619 178.767631 
L 370.60619 142.13868 
L 373.581818 142.13868 
L 373.581818 252 
L 373.581818 252 
" style="fill:none;opacity:0.5;stroke:#00bf40;stroke-linejoin:miter;stroke-width:2;"/>
   </g>
   <g id="matplotlib.axis_1">
    <g id="xtick_1">
     <g id="line2d_1">
      <defs>
       <path d="M 0 0 
L 0 3.5 
" id="m6b36c1c0f2" style="stroke:#000000;stroke-width:0.8;"/>
      </defs>
      <g>
       <use style="stroke:#000000;stroke-width:0.8;" x="66.08251" xlink:href="#m6b36c1c0f2" y="252"/>
      </g>
     </g>
     <g id="text_1">
      <!-- −0.75 -->
      <defs>
       <path d="M 10.59375 35.5 
L 73.1875 35.5 
L 73.1875 27.203125 
L 10.59375 27.203125 
z
" id="DejaVuSans-8722"/>
       <path d="M 31.78125 66.40625 
Q 24.171875 66.40625 20.328125 58.90625 
Q 16.5 51.421875 16.5 36.375 
Q 16.5 21.390625 20.328125 13.890625 
Q 24.171875 6.390625 31.78125 6.390625 
Q 39.453125 6.390625 43.28125 13.890625 
Q 47.125 21.390625 47.125 36.375 
Q 47.125 51.421875 43.28125 58.90625 
Q 39.453125 66.40625 31.78125 66.40625 
z
M 31.78125 74.21875 
Q 44.046875 74.21875 50.515625 64.515625 
Q 56.984375 54.828125 56.984375 36.375 
Q 56.984375 17.96875 50.515625 8.265625 
Q 44.046875 -1.421875 31.78125 -1.421875 
Q 19.53125 -1.421875 13.0625 8.265625 
Q 6.59375 17.96875 6.59375 36.375 
Q 6.59375 54.828125 13.0625 64.515625 
Q 19.53125 74.21875 31.78125 74.21875 
z
" id="DejaVuSans-48"/>
       <path d="M 10.6875 12.40625 
L 21 12.40625 
L 21 0 
L 10.6875 0 
z
" id="DejaVuSans-46"/>
       <path d="M 8.203125 72.90625 
L 55.078125 72.90625 
L 55.078125 68.703125 
L 28.609375 0 
L 18.3125 0 
L 43.21875 64.59375 
L 8.203125 64.59375 
z
" id="DejaVuSans-55"/>
       <path d="M 10.796875 72.90625 
L 49.515625 72.90625 
L 49.515625 64.59375 
L 19.828125 64.59375 
L 19.828125 46.734375 
Q 21.96875 47.46875 24.109375 47.828125 
Q 26.265625 48.1875 28.421875 48.1875 
Q 40.625 48.1875 47.75 41.5 
Q 54.890625 34.8125 54.890625 23.390625 
Q 54.890625 11.625 47.5625 5.09375 
Q 40.234375 -1.421875 26.90625 -1.421875 
Q 22.3125 -1.421875 17.546875 -0.640625 
Q 12.796875 0.140625 7.71875 1.703125 
L 7.71875 11.625 
Q 12.109375 9.234375 16.796875 8.0625 
Q 21.484375 6.890625 26.703125 6.890625 
Q 35.15625 6.890625 40.078125 11.328125 
Q 45.015625 15.765625 45.015625 23.390625 
Q 45.015625 31 40.078125 35.4375 
Q 35.15625 39.890625 26.703125 39.890625 
Q 22.75 39.890625 18.8125 39.015625 
Q 14.890625 38.140625 10.796875 36.28125 
z
" id="DejaVuSans-53"/>
      </defs>
      <g transform="translate(50.759854 266.598437)scale(0.1 -0.1)">
       <use xlink:href="#DejaVuSans-8722"/>
       <use x="83.789062" xlink:href="#DejaVuSans-48"/>
       <use x="147.412109" xlink:href="#DejaVuSans-46"/>
       <use x="179.199219" xlink:href="#DejaVuSans-55"/>
       <use x="242.822266" xlink:href="#DejaVuSans-53"/>
      </g>
     </g>
    </g>
    <g id="xtick_2">
     <g id="line2d_2">
      <g>
       <use style="stroke:#000000;stroke-width:0.8;" x="110.01097" xlink:href="#m6b36c1c0f2" y="252"/>
      </g>
     </g>
     <g id="text_2">
      <!-- −0.50 -->
      <g transform="translate(94.688314 266.598437)scale(0.1 -0.1)">
       <use xlink:href="#DejaVuSans-8722"/>
       <use x="83.789062" xlink:href="#DejaVuSans-48"/>
       <use x="147.412109" xlink:href="#DejaVuSans-46"/>
       <use x="179.199219" xlink:href="#DejaVuSans-53"/>
       <use x="242.822266" xlink:href="#DejaVuSans-48"/>
      </g>
     </g>
    </g>
    <g id="xtick_3">
     <g id="line2d_3">
      <g>
       <use style="stroke:#000000;stroke-width:0.8;" x="153.939431" xlink:href="#m6b36c1c0f2" y="252"/>
      </g>
     </g>
     <g id="text_3">
      <!-- −0.25 -->
      <defs>
       <path d="M 19.1875 8.296875 
L 53.609375 8.296875 
L 53.609375 0 
L 7.328125 0 
L 7.328125 8.296875 
Q 12.9375 14.109375 22.625 23.890625 
Q 32.328125 33.6875 34.8125 36.53125 
Q 39.546875 41.84375 41.421875 45.53125 
Q 43.3125 49.21875 43.3125 52.78125 
Q 43.3125 58.59375 39.234375 62.25 
Q 35.15625 65.921875 28.609375 65.921875 
Q 23.96875 65.921875 18.8125 64.3125 
Q 13.671875 62.703125 7.8125 59.421875 
L 7.8125 69.390625 
Q 13.765625 71.78125 18.9375 73 
Q 24.125 74.21875 28.421875 74.21875 
Q 39.75 74.21875 46.484375 68.546875 
Q 53.21875 62.890625 53.21875 53.421875 
Q 53.21875 48.921875 51.53125 44.890625 
Q 49.859375 40.875 45.40625 35.40625 
Q 44.1875 33.984375 37.640625 27.21875 
Q 31.109375 20.453125 19.1875 8.296875 
z
" id="DejaVuSans-50"/>
      </defs>
      <g transform="translate(138.616775 266.598437)scale(0.1 -0.1)">
       <use xlink:href="#DejaVuSans-8722"/>
       <use x="83.789062" xlink:href="#DejaVuSans-48"/>
       <use x="147.412109" xlink:href="#DejaVuSans-46"/>
       <use x="179.199219" xlink:href="#DejaVuSans-50"/>
       <use x="242.822266" xlink:href="#DejaVuSans-53"/>
      </g>
     </g>
    </g>
    <g id="xtick_4">
     <g id="line2d_4">
      <g>
       <use style="stroke:#000000;stroke-width:0.8;" x="197.867892" xlink:href="#m6b36c1c0f2" y="252"/>
      </g>
     </g>
     <g id="text_4">
      <!-- 0.00 -->
      <g transform="translate(186.735079 266.598437)scale(0.1 -0.1)">
       <use xlink:href="#DejaVuSans-48"/>
       <use x="63.623047" xlink:href="#DejaVuSans-46"/>
       <use x="95.410156" xlink:href="#DejaVuSans-48"/>
       <use x="159.033203" xlink:href="#DejaVuSans-48"/>
      </g>
     </g>
    </g>
    <g id="xtick_5">
     <g id="line2d_5">
      <g>
       <use style="stroke:#000000;stroke-width:0.8;" x="241.796352" xlink:href="#m6b36c1c0f2" y="252"/>
      </g>
     </g>
     <g id="text_5">
      <!-- 0.25 -->
      <g transform="translate(230.66354 266.598437)scale(0.1 -0.1)">
       <use xlink:href="#DejaVuSans-48"/>
       <use x="63.623047" xlink:href="#DejaVuSans-46"/>
       <use x="95.410156" xlink:href="#DejaVuSans-50"/>
       <use x="159.033203" xlink:href="#DejaVuSans-53"/>
      </g>
     </g>
    </g>
    <g id="xtick_6">
     <g id="line2d_6">
      <g>
       <use style="stroke:#000000;stroke-width:0.8;" x="285.724813" xlink:href="#m6b36c1c0f2" y="252"/>
      </g>
     </g>
     <g id="text_6">
      <!-- 0.50 -->
      <g transform="translate(274.592001 266.598437)scale(0.1 -0.1)">
       <use xlink:href="#DejaVuSans-48"/>
       <use x="63.623047" xlink:href="#DejaVuSans-46"/>
       <use x="95.410156" xlink:href="#DejaVuSans-53"/>
       <use x="159.033203" xlink:href="#DejaVuSans-48"/>
      </g>
     </g>
    </g>
    <g id="xtick_7">
     <g id="line2d_7">
      <g>
       <use style="stroke:#000000;stroke-width:0.8;" x="329.653274" xlink:href="#m6b36c1c0f2" y="252"/>
      </g>
     </g>
     <g id="text_7">
      <!-- 0.75 -->
      <g transform="translate(318.520461 266.598437)scale(0.1 -0.1)">
       <use xlink:href="#DejaVuSans-48"/>
       <use x="63.623047" xlink:href="#DejaVuSans-46"/>
       <use x="95.410156" xlink:href="#DejaVuSans-55"/>
       <use x="159.033203" xlink:href="#DejaVuSans-53"/>
      </g>
     </g>
    </g>
    <g id="xtick_8">
     <g id="line2d_8">
      <g>
       <use style="stroke:#000000;stroke-width:0.8;" x="373.581734" xlink:href="#m6b36c1c0f2" y="252"/>
      </g>
     </g>
     <g id="text_8">
      <!-- 1.00 -->
      <defs>
       <path d="M 12.40625 8.296875 
L 28.515625 8.296875 
L 28.515625 63.921875 
L 10.984375 60.40625 
L 10.984375 69.390625 
L 28.421875 72.90625 
L 38.28125 72.90625 
L 38.28125 8.296875 
L 54.390625 8.296875 
L 54.390625 0 
L 12.40625 0 
z
" id="DejaVuSans-49"/>
      </defs>
      <g transform="translate(362.448922 266.598437)scale(0.1 -0.1)">
       <use xlink:href="#DejaVuSans-49"/>
       <use x="63.623047" xlink:href="#DejaVuSans-46"/>
       <use x="95.410156" xlink:href="#DejaVuSans-48"/>
       <use x="159.033203" xlink:href="#DejaVuSans-48"/>
      </g>
     </g>
    </g>
    <g id="text_9">
     <!-- cosine similarity -->
     <defs>
      <path d="M 48.78125 52.59375 
L 48.78125 44.1875 
Q 44.96875 46.296875 41.140625 47.34375 
Q 37.3125 48.390625 33.40625 48.390625 
Q 24.65625 48.390625 19.8125 42.84375 
Q 14.984375 37.3125 14.984375 27.296875 
Q 14.984375 17.28125 19.8125 11.734375 
Q 24.65625 6.203125 33.40625 6.203125 
Q 37.3125 6.203125 41.140625 7.25 
Q 44.96875 8.296875 48.78125 10.40625 
L 48.78125 2.09375 
Q 45.015625 0.34375 40.984375 -0.53125 
Q 36.96875 -1.421875 32.421875 -1.421875 
Q 20.0625 -1.421875 12.78125 6.34375 
Q 5.515625 14.109375 5.515625 27.296875 
Q 5.515625 40.671875 12.859375 48.328125 
Q 20.21875 56 33.015625 56 
Q 37.15625 56 41.109375 55.140625 
Q 45.0625 54.296875 48.78125 52.59375 
z
" id="DejaVuSans-99"/>
      <path d="M 30.609375 48.390625 
Q 23.390625 48.390625 19.1875 42.75 
Q 14.984375 37.109375 14.984375 27.296875 
Q 14.984375 17.484375 19.15625 11.84375 
Q 23.34375 6.203125 30.609375 6.203125 
Q 37.796875 6.203125 41.984375 11.859375 
Q 46.1875 17.53125 46.1875 27.296875 
Q 46.1875 37.015625 41.984375 42.703125 
Q 37.796875 48.390625 30.609375 48.390625 
z
M 30.609375 56 
Q 42.328125 56 49.015625 48.375 
Q 55.71875 40.765625 55.71875 27.296875 
Q 55.71875 13.875 49.015625 6.21875 
Q 42.328125 -1.421875 30.609375 -1.421875 
Q 18.84375 -1.421875 12.171875 6.21875 
Q 5.515625 13.875 5.515625 27.296875 
Q 5.515625 40.765625 12.171875 48.375 
Q 18.84375 56 30.609375 56 
z
" id="DejaVuSans-111"/>
      <path d="M 44.28125 53.078125 
L 44.28125 44.578125 
Q 40.484375 46.53125 36.375 47.5 
Q 32.28125 48.484375 27.875 48.484375 
Q 21.1875 48.484375 17.84375 46.4375 
Q 14.5 44.390625 14.5 40.28125 
Q 14.5 37.15625 16.890625 35.375 
Q 19.28125 33.59375 26.515625 31.984375 
L 29.59375 31.296875 
Q 39.15625 29.25 43.1875 25.515625 
Q 47.21875 21.78125 47.21875 15.09375 
Q 47.21875 7.46875 41.1875 3.015625 
Q 35.15625 -1.421875 24.609375 -1.421875 
Q 20.21875 -1.421875 15.453125 -0.5625 
Q 10.6875 0.296875 5.421875 2 
L 5.421875 11.28125 
Q 10.40625 8.6875 15.234375 7.390625 
Q 20.0625 6.109375 24.8125 6.109375 
Q 31.15625 6.109375 34.5625 8.28125 
Q 37.984375 10.453125 37.984375 14.40625 
Q 37.984375 18.0625 35.515625 20.015625 
Q 33.0625 21.96875 24.703125 23.78125 
L 21.578125 24.515625 
Q 13.234375 26.265625 9.515625 29.90625 
Q 5.8125 33.546875 5.8125 39.890625 
Q 5.8125 47.609375 11.28125 51.796875 
Q 16.75 56 26.8125 56 
Q 31.78125 56 36.171875 55.265625 
Q 40.578125 54.546875 44.28125 53.078125 
z
" id="DejaVuSans-115"/>
      <path d="M 9.421875 54.6875 
L 18.40625 54.6875 
L 18.40625 0 
L 9.421875 0 
z
M 9.421875 75.984375 
L 18.40625 75.984375 
L 18.40625 64.59375 
L 9.421875 64.59375 
z
" id="DejaVuSans-105"/>
      <path d="M 54.890625 33.015625 
L 54.890625 0 
L 45.90625 0 
L 45.90625 32.71875 
Q 45.90625 40.484375 42.875 44.328125 
Q 39.84375 48.1875 33.796875 48.1875 
Q 26.515625 48.1875 22.3125 43.546875 
Q 18.109375 38.921875 18.109375 30.90625 
L 18.109375 0 
L 9.078125 0 
L 9.078125 54.6875 
L 18.109375 54.6875 
L 18.109375 46.1875 
Q 21.34375 51.125 25.703125 53.5625 
Q 30.078125 56 35.796875 56 
Q 45.21875 56 50.046875 50.171875 
Q 54.890625 44.34375 54.890625 33.015625 
z
" id="DejaVuSans-110"/>
      <path d="M 56.203125 29.59375 
L 56.203125 25.203125 
L 14.890625 25.203125 
Q 15.484375 15.921875 20.484375 11.0625 
Q 25.484375 6.203125 34.421875 6.203125 
Q 39.59375 6.203125 44.453125 7.46875 
Q 49.3125 8.734375 54.109375 11.28125 
L 54.109375 2.78125 
Q 49.265625 0.734375 44.1875 -0.34375 
Q 39.109375 -1.421875 33.890625 -1.421875 
Q 20.796875 -1.421875 13.15625 6.1875 
Q 5.515625 13.8125 5.515625 26.8125 
Q 5.515625 40.234375 12.765625 48.109375 
Q 20.015625 56 32.328125 56 
Q 43.359375 56 49.78125 48.890625 
Q 56.203125 41.796875 56.203125 29.59375 
z
M 47.21875 32.234375 
Q 47.125 39.59375 43.09375 43.984375 
Q 39.0625 48.390625 32.421875 48.390625 
Q 24.90625 48.390625 20.390625 44.140625 
Q 15.875 39.890625 15.1875 32.171875 
z
" id="DejaVuSans-101"/>
      <path id="DejaVuSans-32"/>
      <path d="M 52 44.1875 
Q 55.375 50.25 60.0625 53.125 
Q 64.75 56 71.09375 56 
Q 79.640625 56 84.28125 50.015625 
Q 88.921875 44.046875 88.921875 33.015625 
L 88.921875 0 
L 79.890625 0 
L 79.890625 32.71875 
Q 79.890625 40.578125 77.09375 44.375 
Q 74.3125 48.1875 68.609375 48.1875 
Q 61.625 48.1875 57.5625 43.546875 
Q 53.515625 38.921875 53.515625 30.90625 
L 53.515625 0 
L 44.484375 0 
L 44.484375 32.71875 
Q 44.484375 40.625 41.703125 44.40625 
Q 38.921875 48.1875 33.109375 48.1875 
Q 26.21875 48.1875 22.15625 43.53125 
Q 18.109375 38.875 18.109375 30.90625 
L 18.109375 0 
L 9.078125 0 
L 9.078125 54.6875 
L 18.109375 54.6875 
L 18.109375 46.1875 
Q 21.1875 51.21875 25.484375 53.609375 
Q 29.78125 56 35.6875 56 
Q 41.65625 56 45.828125 52.96875 
Q 50 49.953125 52 44.1875 
z
" id="DejaVuSans-109"/>
      <path d="M 9.421875 75.984375 
L 18.40625 75.984375 
L 18.40625 0 
L 9.421875 0 
z
" id="DejaVuSans-108"/>
      <path d="M 34.28125 27.484375 
Q 23.390625 27.484375 19.1875 25 
Q 14.984375 22.515625 14.984375 16.5 
Q 14.984375 11.71875 18.140625 8.90625 
Q 21.296875 6.109375 26.703125 6.109375 
Q 34.1875 6.109375 38.703125 11.40625 
Q 43.21875 16.703125 43.21875 25.484375 
L 43.21875 27.484375 
z
M 52.203125 31.203125 
L 52.203125 0 
L 43.21875 0 
L 43.21875 8.296875 
Q 40.140625 3.328125 35.546875 0.953125 
Q 30.953125 -1.421875 24.3125 -1.421875 
Q 15.921875 -1.421875 10.953125 3.296875 
Q 6 8.015625 6 15.921875 
Q 6 25.140625 12.171875 29.828125 
Q 18.359375 34.515625 30.609375 34.515625 
L 43.21875 34.515625 
L 43.21875 35.40625 
Q 43.21875 41.609375 39.140625 45 
Q 35.0625 48.390625 27.6875 48.390625 
Q 23 48.390625 18.546875 47.265625 
Q 14.109375 46.140625 10.015625 43.890625 
L 10.015625 52.203125 
Q 14.9375 54.109375 19.578125 55.046875 
Q 24.21875 56 28.609375 56 
Q 40.484375 56 46.34375 49.84375 
Q 52.203125 43.703125 52.203125 31.203125 
z
" id="DejaVuSans-97"/>
      <path d="M 41.109375 46.296875 
Q 39.59375 47.171875 37.8125 47.578125 
Q 36.03125 48 33.890625 48 
Q 26.265625 48 22.1875 43.046875 
Q 18.109375 38.09375 18.109375 28.8125 
L 18.109375 0 
L 9.078125 0 
L 9.078125 54.6875 
L 18.109375 54.6875 
L 18.109375 46.1875 
Q 20.953125 51.171875 25.484375 53.578125 
Q 30.03125 56 36.53125 56 
Q 37.453125 56 38.578125 55.875 
Q 39.703125 55.765625 41.0625 55.515625 
z
" id="DejaVuSans-114"/>
      <path d="M 18.3125 70.21875 
L 18.3125 54.6875 
L 36.8125 54.6875 
L 36.8125 47.703125 
L 18.3125 47.703125 
L 18.3125 18.015625 
Q 18.3125 11.328125 20.140625 9.421875 
Q 21.96875 7.515625 27.59375 7.515625 
L 36.8125 7.515625 
L 36.8125 0 
L 27.59375 0 
Q 17.1875 0 13.234375 3.875 
Q 9.28125 7.765625 9.28125 18.015625 
L 9.28125 47.703125 
L 2.6875 47.703125 
L 2.6875 54.6875 
L 9.28125 54.6875 
L 9.28125 70.21875 
z
" id="DejaVuSans-116"/>
      <path d="M 32.171875 -5.078125 
Q 28.375 -14.84375 24.75 -17.8125 
Q 21.140625 -20.796875 15.09375 -20.796875 
L 7.90625 -20.796875 
L 7.90625 -13.28125 
L 13.1875 -13.28125 
Q 16.890625 -13.28125 18.9375 -11.515625 
Q 21 -9.765625 23.484375 -3.21875 
L 25.09375 0.875 
L 2.984375 54.6875 
L 12.5 54.6875 
L 29.59375 11.921875 
L 46.6875 54.6875 
L 56.203125 54.6875 
z
" id="DejaVuSans-121"/>
     </defs>
     <g transform="translate(180.692969 280.276563)scale(0.1 -0.1)">
      <use xlink:href="#DejaVuSans-99"/>
      <use x="54.980469" xlink:href="#DejaVuSans-111"/>
      <use x="116.162109" xlink:href="#DejaVuSans-115"/>
      <use x="168.261719" xlink:href="#DejaVuSans-105"/>
      <use x="196.044922" xlink:href="#DejaVuSans-110"/>
      <use x="259.423828" xlink:href="#DejaVuSans-101"/>
      <use x="320.947266" xlink:href="#DejaVuSans-32"/>
      <use x="352.734375" xlink:href="#DejaVuSans-115"/>
      <use x="404.833984" xlink:href="#DejaVuSans-105"/>
      <use x="432.617188" xlink:href="#DejaVuSans-109"/>
      <use x="530.029297" xlink:href="#DejaVuSans-105"/>
      <use x="557.8125" xlink:href="#DejaVuSans-108"/>
      <use x="585.595703" xlink:href="#DejaVuSans-97"/>
      <use x="646.875" xlink:href="#DejaVuSans-114"/>
      <use x="687.988281" xlink:href="#DejaVuSans-105"/>
      <use x="715.771484" xlink:href="#DejaVuSans-116"/>
      <use x="754.980469" xlink:href="#DejaVuSans-121"/>
     </g>
    </g>
   </g>
   <g id="matplotlib.axis_2">
    <g id="ytick_1">
     <g id="line2d_9">
      <defs>
       <path d="M 0 0 
L -3.5 0 
" id="m9fb7bea483" style="stroke:#000000;stroke-width:0.8;"/>
      </defs>
      <g>
       <use style="stroke:#000000;stroke-width:0.8;" x="54" xlink:href="#m9fb7bea483" y="252"/>
      </g>
     </g>
     <g id="text_10">
      <!-- 0 -->
      <g transform="translate(40.6375 255.799219)scale(0.1 -0.1)">
       <use xlink:href="#DejaVuSans-48"/>
      </g>
     </g>
    </g>
    <g id="ytick_2">
     <g id="line2d_10">
      <g>
       <use style="stroke:#000000;stroke-width:0.8;" x="54" xlink:href="#m9fb7bea483" y="207.044352"/>
      </g>
     </g>
     <g id="text_11">
      <!-- 2 -->
      <g transform="translate(40.6375 210.843571)scale(0.1 -0.1)">
       <use xlink:href="#DejaVuSans-50"/>
      </g>
     </g>
    </g>
    <g id="ytick_3">
     <g id="line2d_11">
      <g>
       <use style="stroke:#000000;stroke-width:0.8;" x="54" xlink:href="#m9fb7bea483" y="162.088704"/>
      </g>
     </g>
     <g id="text_12">
      <!-- 4 -->
      <defs>
       <path d="M 37.796875 64.3125 
L 12.890625 25.390625 
L 37.796875 25.390625 
z
M 35.203125 72.90625 
L 47.609375 72.90625 
L 47.609375 25.390625 
L 58.015625 25.390625 
L 58.015625 17.1875 
L 47.609375 17.1875 
L 47.609375 0 
L 37.796875 0 
L 37.796875 17.1875 
L 4.890625 17.1875 
L 4.890625 26.703125 
z
" id="DejaVuSans-52"/>
      </defs>
      <g transform="translate(40.6375 165.887923)scale(0.1 -0.1)">
       <use xlink:href="#DejaVuSans-52"/>
      </g>
     </g>
    </g>
    <g id="ytick_4">
     <g id="line2d_12">
      <g>
       <use style="stroke:#000000;stroke-width:0.8;" x="54" xlink:href="#m9fb7bea483" y="117.133056"/>
      </g>
     </g>
     <g id="text_13">
      <!-- 6 -->
      <defs>
       <path d="M 33.015625 40.375 
Q 26.375 40.375 22.484375 35.828125 
Q 18.609375 31.296875 18.609375 23.390625 
Q 18.609375 15.53125 22.484375 10.953125 
Q 26.375 6.390625 33.015625 6.390625 
Q 39.65625 6.390625 43.53125 10.953125 
Q 47.40625 15.53125 47.40625 23.390625 
Q 47.40625 31.296875 43.53125 35.828125 
Q 39.65625 40.375 33.015625 40.375 
z
M 52.59375 71.296875 
L 52.59375 62.3125 
Q 48.875 64.0625 45.09375 64.984375 
Q 41.3125 65.921875 37.59375 65.921875 
Q 27.828125 65.921875 22.671875 59.328125 
Q 17.53125 52.734375 16.796875 39.40625 
Q 19.671875 43.65625 24.015625 45.921875 
Q 28.375 48.1875 33.59375 48.1875 
Q 44.578125 48.1875 50.953125 41.515625 
Q 57.328125 34.859375 57.328125 23.390625 
Q 57.328125 12.15625 50.6875 5.359375 
Q 44.046875 -1.421875 33.015625 -1.421875 
Q 20.359375 -1.421875 13.671875 8.265625 
Q 6.984375 17.96875 6.984375 36.375 
Q 6.984375 53.65625 15.1875 63.9375 
Q 23.390625 74.21875 37.203125 74.21875 
Q 40.921875 74.21875 44.703125 73.484375 
Q 48.484375 72.75 52.59375 71.296875 
z
" id="DejaVuSans-54"/>
      </defs>
      <g transform="translate(40.6375 120.932275)scale(0.1 -0.1)">
       <use xlink:href="#DejaVuSans-54"/>
      </g>
     </g>
    </g>
    <g id="ytick_5">
     <g id="line2d_13">
      <g>
       <use style="stroke:#000000;stroke-width:0.8;" x="54" xlink:href="#m9fb7bea483" y="72.177409"/>
      </g>
     </g>
     <g id="text_14">
      <!-- 8 -->
      <defs>
       <path d="M 31.78125 34.625 
Q 24.75 34.625 20.71875 30.859375 
Q 16.703125 27.09375 16.703125 20.515625 
Q 16.703125 13.921875 20.71875 10.15625 
Q 24.75 6.390625 31.78125 6.390625 
Q 38.8125 6.390625 42.859375 10.171875 
Q 46.921875 13.96875 46.921875 20.515625 
Q 46.921875 27.09375 42.890625 30.859375 
Q 38.875 34.625 31.78125 34.625 
z
M 21.921875 38.8125 
Q 15.578125 40.375 12.03125 44.71875 
Q 8.5 49.078125 8.5 55.328125 
Q 8.5 64.0625 14.71875 69.140625 
Q 20.953125 74.21875 31.78125 74.21875 
Q 42.671875 74.21875 48.875 69.140625 
Q 55.078125 64.0625 55.078125 55.328125 
Q 55.078125 49.078125 51.53125 44.71875 
Q 48 40.375 41.703125 38.8125 
Q 48.828125 37.15625 52.796875 32.3125 
Q 56.78125 27.484375 56.78125 20.515625 
Q 56.78125 9.90625 50.3125 4.234375 
Q 43.84375 -1.421875 31.78125 -1.421875 
Q 19.734375 -1.421875 13.25 4.234375 
Q 6.78125 9.90625 6.78125 20.515625 
Q 6.78125 27.484375 10.78125 32.3125 
Q 14.796875 37.15625 21.921875 38.8125 
z
M 18.3125 54.390625 
Q 18.3125 48.734375 21.84375 45.5625 
Q 25.390625 42.390625 31.78125 42.390625 
Q 38.140625 42.390625 41.71875 45.5625 
Q 45.3125 48.734375 45.3125 54.390625 
Q 45.3125 60.0625 41.71875 63.234375 
Q 38.140625 66.40625 31.78125 66.40625 
Q 25.390625 66.40625 21.84375 63.234375 
Q 18.3125 60.0625 18.3125 54.390625 
z
" id="DejaVuSans-56"/>
      </defs>
      <g transform="translate(40.6375 75.976627)scale(0.1 -0.1)">
       <use xlink:href="#DejaVuSans-56"/>
      </g>
     </g>
    </g>
    <g id="text_15">
     <!-- density -->
     <defs>
      <path d="M 45.40625 46.390625 
L 45.40625 75.984375 
L 54.390625 75.984375 
L 54.390625 0 
L 45.40625 0 
L 45.40625 8.203125 
Q 42.578125 3.328125 38.25 0.953125 
Q 33.9375 -1.421875 27.875 -1.421875 
Q 17.96875 -1.421875 11.734375 6.484375 
Q 5.515625 14.40625 5.515625 27.296875 
Q 5.515625 40.1875 11.734375 48.09375 
Q 17.96875 56 27.875 56 
Q 33.9375 56 38.25 53.625 
Q 42.578125 51.265625 45.40625 46.390625 
z
M 14.796875 27.296875 
Q 14.796875 17.390625 18.875 11.75 
Q 22.953125 6.109375 30.078125 6.109375 
Q 37.203125 6.109375 41.296875 11.75 
Q 45.40625 17.390625 45.40625 27.296875 
Q 45.40625 37.203125 41.296875 42.84375 
Q 37.203125 48.484375 30.078125 48.484375 
Q 22.953125 48.484375 18.875 42.84375 
Q 14.796875 37.203125 14.796875 27.296875 
z
" id="DejaVuSans-100"/>
     </defs>
     <g transform="translate(34.557812 161.612813)rotate(-90)scale(0.1 -0.1)">
      <use xlink:href="#DejaVuSans-100"/>
      <use x="63.476562" xlink:href="#DejaVuSans-101"/>
      <use x="125" xlink:href="#DejaVuSans-110"/>
      <use x="188.378906" xlink:href="#DejaVuSans-115"/>
      <use x="240.478516" xlink:href="#DejaVuSans-105"/>
      <use x="268.261719" xlink:href="#DejaVuSans-116"/>
      <use x="307.470703" xlink:href="#DejaVuSans-121"/>
     </g>
    </g>
   </g>
   <g id="patch_7">
    <path d="M 54 252 
L 54 34.56 
" style="fill:none;stroke:#000000;stroke-linecap:square;stroke-linejoin:miter;stroke-width:0.8;"/>
   </g>
   <g id="patch_8">
    <path d="M 388.8 252 
L 388.8 34.56 
" style="fill:none;stroke:#000000;stroke-linecap:square;stroke-linejoin:miter;stroke-width:0.8;"/>
   </g>
   <g id="patch_9">
    <path d="M 54 252 
L 388.8 252 
" style="fill:none;stroke:#000000;stroke-linecap:square;stroke-linejoin:miter;stroke-width:0.8;"/>
   </g>
   <g id="patch_10">
    <path d="M 54 34.56 
L 388.8 34.56 
" style="fill:none;stroke:#000000;stroke-linecap:square;stroke-linejoin:miter;stroke-width:0.8;"/>
   </g>
   <g id="text_16">
    <!-- x-validation -->
    <defs>
     <path d="M 54.890625 54.6875 
L 35.109375 28.078125 
L 55.90625 0 
L 45.3125 0 
L 29.390625 21.484375 
L 13.484375 0 
L 2.875 0 
L 24.125 28.609375 
L 4.6875 54.6875 
L 15.28125 54.6875 
L 29.78125 35.203125 
L 44.28125 54.6875 
z
" id="DejaVuSans-120"/>
     <path d="M 4.890625 31.390625 
L 31.203125 31.390625 
L 31.203125 23.390625 
L 4.890625 23.390625 
z
" id="DejaVuSans-45"/>
     <path d="M 2.984375 54.6875 
L 12.5 54.6875 
L 29.59375 8.796875 
L 46.6875 54.6875 
L 56.203125 54.6875 
L 35.6875 0 
L 23.484375 0 
z
" id="DejaVuSans-118"/>
    </defs>
    <g transform="translate(186.145313 28.56)scale(0.12 -0.12)">
     <use xlink:href="#DejaVuSans-120"/>
     <use x="59.179688" xlink:href="#DejaVuSans-45"/>
     <use x="95.232422" xlink:href="#DejaVuSans-118"/>
     <use x="154.412109" xlink:href="#DejaVuSans-97"/>
     <use x="215.691406" xlink:href="#DejaVuSans-108"/>
     <use x="243.474609" xlink:href="#DejaVuSans-105"/>
     <use x="271.257812" xlink:href="#DejaVuSans-100"/>
     <use x="334.734375" xlink:href="#DejaVuSans-97"/>
     <use x="396.013672" xlink:href="#DejaVuSans-116"/>
     <use x="435.222656" xlink:href="#DejaVuSans-105"/>
     <use x="463.005859" xlink:href="#DejaVuSans-111"/>
     <use x="524.1875" xlink:href="#DejaVuSans-110"/>
    </g>
   </g>
  </g>
 </g>
 <defs>
  <clipPath id="p421e385a2f">
   <rect height="217.44" width="334.8" x="54" y="34.56"/>
  </clipPath>
 </defs>
</svg>
