<?xml version="1.0" encoding="utf-8" standalone="no"?>
<!DOCTYPE svg PUBLIC "-//W3C//DTD SVG 1.1//EN"
  "http://www.w3.org/Graphics/SVG/1.1/DTD/svg11.dtd">
<!-- Created with matplotlib (https://matplotlib.org/) -->
<svg height="288pt" version="1.1" viewBox="0 0 432 288" width="432pt" xmlns="http://www.w3.org/2000/svg" xmlns:xlink="http://www.w3.org/1999/xlink">
 <defs>
  <style type="text/css">
*{stroke-linecap:butt;stroke-linejoin:round;}
  </style>
 </defs>
 <g id="figure_1">
  <g id="patch_1">
   <path d="M 0 288 
L 432 288 
L 432 0 
L 0 0 
z
" style="fill:#ffffff;"/>
  </g>
  <g id="axes_1">
   <g id="patch_2">
    <path d="M 54 252 
L 388.8 252 
L 388.8 34.56 
L 54 34.56 
z
" style="fill:#ffffff;"/>
   </g>
   <g id="patch_3">
    <path clip-path="url(#pbc7ae3a02a)" d="M 69.218182 252 
L 69.218182 251.999417 
L 81.392727 251.933331 
L 81.392727 251.812977 
L 84.436364 251.812977 
L 84.436364 251.610306 
L 87.48 251.610306 
L 87.48 251.280789 
L 90.523636 251.280789 
L 90.523636 250.779647 
L 93.567273 250.779647 
L 93.567273 250.009248 
L 96.610909 250.009248 
L 96.610909 249.077461 
L 99.654545 249.077461 
L 99.654545 247.877 
L 102.698182 247.877 
L 102.698182 246.282434 
L 105.741818 246.282434 
L 105.741818 244.457231 
L 108.785455 244.457231 
L 108.785455 242.209706 
L 111.829091 242.209706 
L 111.829091 239.555009 
L 114.872727 239.555009 
L 114.872727 236.666595 
L 117.916364 236.666595 
L 117.916364 233.424111 
L 120.96 233.424111 
L 120.96 229.819566 
L 124.003636 229.819566 
L 124.003636 225.953338 
L 127.047273 225.953338 
L 127.047273 221.597454 
L 130.090909 221.597454 
L 130.090909 217.359177 
L 133.134545 217.359177 
L 133.134545 212.564825 
L 136.178182 212.564825 
L 136.178182 207.978137 
L 139.221818 207.978137 
L 139.221818 202.522919 
L 142.265455 202.522919 
L 142.265455 197.139948 
L 145.309091 197.139948 
L 145.309091 192.28908 
L 148.352727 192.28908 
L 148.352727 186.611882 
L 151.396364 186.611882 
L 151.396364 180.686818 
L 154.44 180.686818 
L 154.44 175.391989 
L 157.483636 175.391989 
L 157.483636 169.560478 
L 160.527273 169.560478 
L 160.527273 163.740536 
L 163.570909 163.740536 
L 163.570909 158.585121 
L 166.614545 158.585121 
L 166.614545 153.12774 
L 169.658182 153.12774 
L 169.658182 147.878689 
L 172.701818 147.878689 
L 172.701818 142.515609 
L 175.745455 142.515609 
L 175.745455 137.879648 
L 178.789091 137.879648 
L 178.789091 133.583941 
L 181.832727 133.583941 
L 181.832727 128.650674 
L 184.876364 128.650674 
L 184.876364 124.547733 
L 187.92 124.547733 
L 187.92 120.557572 
L 190.963636 120.557572 
L 190.963636 116.743697 
L 194.007273 116.743697 
L 194.007273 113.408076 
L 197.050909 113.408076 
L 197.050909 110.556784 
L 200.094545 110.556784 
L 200.094545 108.137468 
L 203.138182 108.137468 
L 203.138182 105.284594 
L 206.181818 105.284594 
L 206.181818 103.267624 
L 209.225455 103.267624 
L 209.225455 101.742889 
L 212.269091 101.742889 
L 212.269091 100.492156 
L 215.312727 100.492156 
L 215.312727 98.765916 
L 218.356364 98.765916 
L 218.356364 97.669663 
L 221.4 97.669663 
L 221.4 96.874044 
L 224.443636 96.874044 
L 224.443636 96.323462 
L 227.487273 96.323462 
L 227.487273 96.017416 
L 230.530909 96.017416 
L 230.530909 96.225248 
L 233.574545 96.225248 
L 233.574545 96.660803 
L 236.618182 96.660803 
L 236.618182 96.872962 
L 239.661818 96.872962 
L 239.661818 97.283298 
L 242.705455 97.283298 
L 242.705455 98.649474 
L 245.749091 98.649474 
L 245.749091 99.072295 
L 248.792727 99.072295 
L 248.792727 100.443299 
L 251.836364 100.443299 
L 251.836364 101.616709 
L 254.88 101.616709 
L 254.88 103.017261 
L 257.923636 103.017261 
L 257.923636 104.47724 
L 260.967273 104.47724 
L 260.967273 106.709117 
L 264.010909 106.709117 
L 264.010909 108.560621 
L 267.054545 108.560621 
L 267.054545 110.38932 
L 270.098182 110.38932 
L 270.098182 112.917754 
L 273.141818 112.917754 
L 273.141818 115.431039 
L 276.185455 115.431039 
L 276.185455 117.682309 
L 279.229091 117.682309 
L 279.229091 120.104455 
L 282.272727 120.104455 
L 282.272727 122.86569 
L 285.316364 122.86569 
L 285.316364 125.7293 
L 288.36 125.7293 
L 288.36 129.104873 
L 291.403636 129.104873 
L 291.403636 132.362839 
L 294.447273 132.362839 
L 294.447273 135.185998 
L 297.490909 135.185998 
L 297.490909 138.914393 
L 300.534545 138.914393 
L 300.534545 142.144976 
L 303.578182 142.144976 
L 303.578182 145.903251 
L 306.621818 145.903251 
L 306.621818 149.713131 
L 309.665455 149.713131 
L 309.665455 153.822897 
L 312.709091 153.822897 
L 312.709091 157.742393 
L 315.752727 157.742393 
L 315.752727 161.596303 
L 318.796364 161.596303 
L 318.796364 165.695831 
L 321.84 165.695831 
L 321.84 170.207942 
L 324.883636 170.207942 
L 324.883636 173.758886 
L 327.927273 173.758886 
L 327.927273 178.626733 
L 330.970909 178.626733 
L 330.970909 183.298817 
L 334.014545 183.298817 
L 334.014545 187.757826 
L 337.058182 187.757826 
L 337.058182 192.802458 
L 340.101818 192.802458 
L 340.101818 197.471545 
L 343.145455 197.471545 
L 343.145455 202.747813 
L 346.189091 202.747813 
L 346.189091 207.551405 
L 349.232727 207.551405 
L 349.232727 213.124646 
L 352.276364 213.124646 
L 352.276364 218.540911 
L 355.32 218.540911 
L 355.32 224.160179 
L 358.363636 224.160179 
L 358.363636 229.731506 
L 361.407273 229.731506 
L 361.407273 235.712419 
L 364.450909 235.712419 
L 364.450909 241.686424 
L 367.494545 241.686424 
L 367.494545 247.234613 
L 370.538182 247.234613 
L 370.538182 250.690921 
L 373.581818 250.690921 
L 373.581818 252 
L 373.581818 252 
" style="fill:none;opacity:0.5;stroke:#008080;stroke-linejoin:miter;stroke-width:2;"/>
   </g>
   <g id="patch_4">
    <path clip-path="url(#pbc7ae3a02a)" d="M 69.521423 252 
L 69.521423 251.990479 
L 75.584439 251.916859 
L 75.584439 251.671178 
L 78.615947 251.671178 
L 78.615947 251.05859 
L 81.647455 251.05859 
L 81.647455 250.065323 
L 84.678963 250.065323 
L 84.678963 248.279416 
L 87.710471 248.279416 
L 87.710471 245.766496 
L 90.741979 245.766496 
L 90.741979 241.80159 
L 93.773486 241.80159 
L 93.773486 236.636842 
L 96.804994 236.636842 
L 96.804994 230.216654 
L 99.836502 230.216654 
L 99.836502 222.144875 
L 102.86801 222.144875 
L 102.86801 212.670927 
L 105.899518 212.670927 
L 105.899518 201.748905 
L 108.931026 201.748905 
L 108.931026 190.215145 
L 111.962534 190.215145 
L 111.962534 176.576517 
L 114.994042 176.576517 
L 114.994042 163.361412 
L 118.02555 163.361412 
L 118.02555 149.569595 
L 121.057058 149.569595 
L 121.057058 136.313175 
L 124.088566 136.313175 
L 124.088566 123.077668 
L 127.120074 123.077668 
L 127.120074 110.402213 
L 130.151582 110.402213 
L 130.151582 98.832918 
L 133.18309 98.832918 
L 133.18309 87.857849 
L 136.214598 87.857849 
L 136.214598 79.048516 
L 139.246106 79.048516 
L 139.246106 70.782913 
L 142.277614 70.782913 
L 142.277614 63.431346 
L 145.309122 63.431346 
L 145.309122 58.137211 
L 148.34063 58.137211 
L 148.34063 53.772415 
L 151.372138 53.772415 
L 151.372138 49.120962 
L 154.403646 49.120962 
L 154.403646 47.321112 
L 157.435154 47.321112 
L 157.435154 45.305166 
L 160.466662 45.305166 
L 160.466662 44.914286 
L 163.498169 44.914286 
L 163.498169 45.471957 
L 166.529677 45.471957 
L 166.529677 46.542923 
L 169.561185 46.542923 
L 169.561185 47.894936 
L 172.592693 47.894936 
L 172.592693 51.310841 
L 175.624201 51.310841 
L 175.624201 52.933188 
L 178.655709 52.933188 
L 178.655709 56.95063 
L 181.687217 56.95063 
L 181.687217 59.783191 
L 184.718725 59.783191 
L 184.718725 64.127755 
L 187.750233 64.127755 
L 187.750233 68.668863 
L 190.781741 68.668863 
L 190.781741 72.72082 
L 193.813249 72.72082 
L 193.813249 76.313718 
L 196.844757 76.313718 
L 196.844757 82.008594 
L 199.876265 82.008594 
L 199.876265 85.462754 
L 202.907773 85.462754 
L 202.907773 90.821837 
L 205.939281 90.821837 
L 205.939281 95.871821 
L 208.970789 95.871821 
L 208.970789 100.031571 
L 212.002297 100.031571 
L 212.002297 105.952745 
L 215.033805 105.952745 
L 215.033805 110.748887 
L 218.065313 110.748887 
L 218.065313 116.082296 
L 221.096821 116.082296 
L 221.096821 120.910402 
L 224.128329 120.910402 
L 224.128329 125.818927 
L 227.159837 125.818927 
L 227.159837 130.814164 
L 230.191345 130.814164 
L 230.191345 135.368875 
L 233.222852 135.368875 
L 233.222852 140.451162 
L 236.25436 140.451162 
L 236.25436 145.733396 
L 239.285868 145.733396 
L 239.285868 150.690037 
L 242.317376 150.690037 
L 242.317376 155.627637 
L 245.348884 155.627637 
L 245.348884 159.771745 
L 248.380392 159.771745 
L 248.380392 164.804386 
L 251.4119 164.804386 
L 251.4119 169.523678 
L 254.443408 169.523678 
L 254.443408 173.397622 
L 257.474916 173.397622 
L 257.474916 178.550808 
L 260.506424 178.550808 
L 260.506424 182.548018 
L 263.537932 182.548018 
L 263.537932 187.001396 
L 266.56944 187.001396 
L 266.56944 191.010507 
L 269.600948 191.010507 
L 269.600948 194.858437 
L 272.632456 194.858437 
L 272.632456 198.919575 
L 275.663964 198.919575 
L 275.663964 202.365574 
L 278.695472 202.365574 
L 278.695472 205.742034 
L 281.72698 205.742034 
L 281.72698 209.075309 
L 284.758488 209.075309 
L 284.758488 212.663106 
L 287.789996 212.663106 
L 287.789996 215.617403 
L 290.821504 215.617403 
L 290.821504 219.006105 
L 293.853012 219.006105 
L 293.853012 221.646541 
L 296.88452 221.646541 
L 296.88452 224.22492 
L 299.916028 224.22492 
L 299.916028 226.688874 
L 302.947535 226.688874 
L 302.947535 229.441865 
L 305.979043 229.441865 
L 305.979043 231.544863 
L 309.010551 231.544863 
L 309.010551 233.56251 
L 312.042059 233.56251 
L 312.042059 235.52439 
L 315.073567 235.52439 
L 315.073567 237.519424 
L 318.105075 237.519424 
L 318.105075 239.310433 
L 321.136583 239.310433 
L 321.136583 240.840628 
L 324.168091 240.840628 
L 324.168091 242.447843 
L 327.199599 242.447843 
L 327.199599 243.769081 
L 330.231107 243.769081 
L 330.231107 245.123984 
L 333.262615 245.123984 
L 333.262615 246.250207 
L 336.294123 246.250207 
L 336.294123 247.320664 
L 339.325631 247.320664 
L 339.325631 248.267514 
L 342.357139 248.267514 
L 342.357139 248.981945 
L 345.388647 248.981945 
L 345.388647 249.683965 
L 348.420155 249.683965 
L 348.420155 250.338548 
L 351.451663 250.338548 
L 351.451663 250.700014 
L 354.483171 250.700014 
L 354.483171 251.127619 
L 357.514679 251.127619 
L 357.514679 251.401184 
L 360.546187 251.401184 
L 360.546187 251.660807 
L 363.577695 251.660807 
L 363.577695 251.806515 
L 366.609203 251.806515 
L 366.609203 251.92485 
L 372.672218 251.99728 
L 372.672218 252 
" style="fill:none;opacity:0.5;stroke:#bf4080;stroke-linejoin:miter;stroke-width:2;"/>
   </g>
   <g id="patch_5">
    <path clip-path="url(#pbc7ae3a02a)" d="M 70.026342 252 
L 70.026342 251.991654 
L 76.079259 251.933404 
L 76.079259 251.763763 
L 79.105718 251.763763 
L 79.105718 251.310365 
L 82.132177 251.310365 
L 82.132177 250.459435 
L 85.158636 250.459435 
L 85.158636 248.970648 
L 88.185094 248.970648 
L 88.185094 246.780134 
L 91.211553 246.780134 
L 91.211553 243.780418 
L 94.238012 243.780418 
L 94.238012 239.615187 
L 97.264471 239.615187 
L 97.264471 234.145969 
L 100.29093 234.145969 
L 100.29093 227.107231 
L 103.317388 227.107231 
L 103.317388 219.17345 
L 106.343847 219.17345 
L 106.343847 210.138876 
L 109.370306 210.138876 
L 109.370306 199.995845 
L 112.396765 199.995845 
L 112.396765 188.698029 
L 115.423223 188.698029 
L 115.423223 177.027888 
L 118.449682 177.027888 
L 118.449682 164.445331 
L 121.476141 164.445331 
L 121.476141 152.240549 
L 124.5026 152.240549 
L 124.5026 139.972918 
L 127.529058 139.972918 
L 127.529058 128.327474 
L 130.555517 128.327474 
L 130.555517 118.505671 
L 133.581976 118.505671 
L 133.581976 108.546417 
L 136.608435 108.546417 
L 136.608435 99.587977 
L 139.634893 99.587977 
L 139.634893 92.01034 
L 142.661352 92.01034 
L 142.661352 85.450038 
L 145.687811 85.450038 
L 145.687811 80.428426 
L 148.71427 80.428426 
L 148.71427 76.428408 
L 151.740729 76.428408 
L 151.740729 72.362475 
L 154.767187 72.362475 
L 154.767187 70.115754 
L 157.793646 70.115754 
L 157.793646 67.992176 
L 163.846564 67.898499 
L 163.846564 66.643054 
L 166.873022 66.643054 
L 166.873022 66.44531 
L 169.899481 66.44531 
L 169.899481 65.924634 
L 172.92594 65.924634 
L 172.92594 67.845359 
L 175.952399 67.845359 
L 175.952399 69.316091 
L 178.978857 69.316091 
L 178.978857 70.048818 
L 182.005316 70.048818 
L 182.005316 72.158599 
L 185.031775 72.158599 
L 185.031775 74.998553 
L 188.058234 74.998553 
L 188.058234 76.786255 
L 191.084693 76.786255 
L 191.084693 79.338705 
L 194.111151 79.338705 
L 194.111151 82.543659 
L 197.13761 82.543659 
L 197.13761 85.408649 
L 200.164069 85.408649 
L 200.164069 88.510729 
L 203.190528 88.510729 
L 203.190528 92.287454 
L 206.216986 92.287454 
L 206.216986 94.820828 
L 209.243445 94.820828 
L 209.243445 99.334879 
L 212.269904 99.334879 
L 212.269904 102.773004 
L 215.296363 102.773004 
L 215.296363 106.142489 
L 218.322821 106.142489 
L 218.322821 110.17572 
L 221.34928 110.17572 
L 221.34928 114.209803 
L 224.375739 114.209803 
L 224.375739 118.214249 
L 227.402198 118.214249 
L 227.402198 122.140859 
L 230.428656 122.140859 
L 230.428656 125.612026 
L 233.455115 125.612026 
L 233.455115 129.745918 
L 236.481574 129.745918 
L 236.481574 134.090669 
L 239.508033 134.090669 
L 239.508033 138.364565 
L 242.534492 138.364565 
L 242.534492 141.486402 
L 245.56095 141.486402 
L 245.56095 145.96724 
L 248.587409 145.96724 
L 248.587409 149.85723 
L 251.613868 149.85723 
L 251.613868 154.457123 
L 254.640327 154.457123 
L 254.640327 158.113772 
L 257.666785 158.113772 
L 257.666785 162.462951 
L 260.693244 162.462951 
L 260.693244 166.05147 
L 263.719703 166.05147 
L 263.719703 170.04706 
L 266.746162 170.04706 
L 266.746162 174.082335 
L 269.77262 174.082335 
L 269.77262 177.939112 
L 272.799079 177.939112 
L 272.799079 181.52133 
L 275.825538 181.52133 
L 275.825538 185.794205 
L 278.851997 185.794205 
L 278.851997 189.580639 
L 281.878455 189.580639 
L 281.878455 192.590914 
L 284.904914 192.590914 
L 284.904914 196.280946 
L 287.931373 196.280946 
L 287.931373 199.954627 
L 290.957832 199.954627 
L 290.957832 203.164861 
L 293.984291 203.164861 
L 293.984291 206.168494 
L 297.010749 206.168494 
L 297.010749 209.935001 
L 300.037208 209.935001 
L 300.037208 212.627795 
L 303.063667 212.627795 
L 303.063667 215.591743 
L 306.090126 215.591743 
L 306.090126 218.658225 
L 309.116584 218.658225 
L 309.116584 221.173545 
L 312.143043 221.173545 
L 312.143043 224.251949 
L 315.169502 224.251949 
L 315.169502 226.518427 
L 318.195961 226.518427 
L 318.195961 228.712178 
L 321.222419 228.712178 
L 321.222419 231.116106 
L 324.248878 231.116106 
L 324.248878 233.426528 
L 327.275337 233.426528 
L 327.275337 235.344868 
L 330.301796 235.344868 
L 330.301796 237.274789 
L 333.328255 237.274789 
L 333.328255 239.371456 
L 336.354713 239.371456 
L 336.354713 240.891923 
L 339.381172 240.891923 
L 339.381172 242.47064 
L 342.407631 242.47064 
L 342.407631 243.908841 
L 345.43409 243.908841 
L 345.43409 245.45673 
L 348.460548 245.45673 
L 348.460548 246.882838 
L 351.487007 246.882838 
L 351.487007 248.043244 
L 354.513466 248.043244 
L 354.513466 249.049848 
L 357.539925 249.049848 
L 357.539925 249.956644 
L 360.566383 249.956644 
L 360.566383 250.72071 
L 363.592842 250.72071 
L 363.592842 251.298783 
L 366.619301 251.298783 
L 366.619301 251.726803 
L 369.64576 251.726803 
L 369.64576 251.966276 
L 372.672218 251.966276 
L 372.672218 252 
" style="fill:none;opacity:0.5;stroke:#bf8080;stroke-linejoin:miter;stroke-width:2;"/>
   </g>
   <g id="patch_6">
    <path clip-path="url(#pbc7ae3a02a)" d="M 73.367581 252 
L 73.367581 251.999301 
L 85.376151 251.963319 
L 85.376151 251.874586 
L 91.380436 251.850481 
L 91.380436 251.708298 
L 94.382578 251.708298 
L 94.382578 251.524543 
L 97.38472 251.524543 
L 97.38472 251.308998 
L 100.386863 251.308998 
L 100.386863 251.104982 
L 103.389005 251.104982 
L 103.389005 250.842275 
L 106.391147 250.842275 
L 106.391147 250.470225 
L 109.39329 250.470225 
L 109.39329 249.992323 
L 112.395432 249.992323 
L 112.395432 249.340448 
L 115.397575 249.340448 
L 115.397575 248.715123 
L 118.399717 248.715123 
L 118.399717 247.681066 
L 121.401859 247.681066 
L 121.401859 246.892947 
L 124.404002 246.892947 
L 124.404002 245.556708 
L 127.406144 245.556708 
L 127.406144 244.506232 
L 130.408286 244.506232 
L 130.408286 243.211215 
L 133.410429 243.211215 
L 133.410429 241.718819 
L 136.412571 241.718819 
L 136.412571 239.811054 
L 139.414713 239.811054 
L 139.414713 237.648967 
L 142.416856 237.648967 
L 142.416856 235.86487 
L 145.418998 235.86487 
L 145.418998 233.637455 
L 148.421141 233.637455 
L 148.421141 230.905938 
L 151.423283 230.905938 
L 151.423283 227.96167 
L 154.425425 227.96167 
L 154.425425 225.627357 
L 157.427568 225.627357 
L 157.427568 222.46999 
L 160.42971 222.46999 
L 160.42971 219.4314 
L 163.431852 219.4314 
L 163.431852 216.107046 
L 166.433995 216.107046 
L 166.433995 212.235621 
L 169.436137 212.235621 
L 169.436137 207.32455 
L 172.43828 207.32455 
L 172.43828 203.329457 
L 175.440422 203.329457 
L 175.440422 199.231657 
L 178.442564 199.231657 
L 178.442564 194.93019 
L 181.444707 194.93019 
L 181.444707 188.884101 
L 184.446849 188.884101 
L 184.446849 184.012156 
L 187.448991 184.012156 
L 187.448991 178.768859 
L 190.451134 178.768859 
L 190.451134 173.474557 
L 193.453276 173.474557 
L 193.453276 168.107592 
L 196.455418 168.107592 
L 196.455418 162.935212 
L 199.457561 162.935212 
L 199.457561 157.367374 
L 202.459703 157.367374 
L 202.459703 151.147312 
L 205.461846 151.147312 
L 205.461846 145.543492 
L 208.463988 145.543492 
L 208.463988 140.46264 
L 211.46613 140.46264 
L 211.46613 135.390521 
L 214.468273 135.390521 
L 214.468273 128.146882 
L 217.470415 128.146882 
L 217.470415 124.324016 
L 220.472557 124.324016 
L 220.472557 118.476005 
L 223.4747 118.476005 
L 223.4747 113.94956 
L 226.476842 113.94956 
L 226.476842 110.079882 
L 229.478985 110.079882 
L 229.478985 105.655795 
L 232.481127 105.655795 
L 232.481127 102.984016 
L 235.483269 102.984016 
L 235.483269 98.230498 
L 238.485412 98.230498 
L 238.485412 95.805705 
L 241.487554 95.805705 
L 241.487554 92.204671 
L 244.489696 92.204671 
L 244.489696 90.359439 
L 247.491839 90.359439 
L 247.491839 88.96451 
L 250.493981 88.96451 
L 250.493981 86.382512 
L 253.496123 86.382512 
L 253.496123 84.933085 
L 256.498266 84.933085 
L 256.498266 84.162783 
L 259.500408 84.162783 
L 259.500408 83.35021 
L 262.502551 83.35021 
L 262.502551 84.266887 
L 265.504693 84.266887 
L 265.504693 83.728199 
L 268.506835 83.728199 
L 268.506835 84.410817 
L 271.508978 84.410817 
L 271.508978 84.900247 
L 274.51112 84.900247 
L 274.51112 85.303739 
L 277.513262 85.303739 
L 277.513262 87.50076 
L 280.515405 87.50076 
L 280.515405 88.16591 
L 283.517547 88.16591 
L 283.517547 91.42319 
L 286.519689 91.42319 
L 286.519689 92.189999 
L 289.521832 92.189999 
L 289.521832 93.632438 
L 292.523974 93.632438 
L 292.523974 95.05776 
L 295.526117 95.05776 
L 295.526117 95.458806 
L 298.528259 95.458806 
L 298.528259 97.283078 
L 301.530401 97.283078 
L 301.530401 99.737217 
L 304.532544 99.737217 
L 304.532544 103.584188 
L 307.534686 103.584188 
L 307.534686 105.459115 
L 310.536828 105.459115 
L 310.536828 106.436229 
L 313.538971 106.436229 
L 313.538971 109.528268 
L 316.541113 109.528268 
L 316.541113 111.802844 
L 319.543256 111.802844 
L 319.543256 113.95515 
L 322.545398 113.95515 
L 322.545398 117.695921 
L 325.54754 117.695921 
L 325.54754 119.620454 
L 328.549683 119.620454 
L 328.549683 123.684018 
L 331.551825 123.684018 
L 331.551825 126.924879 
L 334.553967 126.924879 
L 334.553967 131.19735 
L 337.55611 131.19735 
L 337.55611 135.102662 
L 340.558252 135.102662 
L 340.558252 140.497574 
L 343.560394 140.497574 
L 343.560394 145.391528 
L 346.562537 145.391528 
L 346.562537 152.48425 
L 349.564679 152.48425 
L 349.564679 160.267275 
L 352.566822 160.267275 
L 352.566822 168.960689 
L 355.568964 168.960689 
L 355.568964 179.658986 
L 358.571106 179.658986 
L 358.571106 192.910285 
L 361.573249 192.910285 
L 361.573249 207.371711 
L 364.575391 207.371711 
L 364.575391 223.78422 
L 367.577533 223.78422 
L 367.577533 239.238829 
L 370.579676 239.238829 
L 370.579676 248.914947 
L 373.581818 248.914947 
L 373.581818 252 
L 373.581818 252 
" style="fill:none;opacity:0.5;stroke:#00bf40;stroke-linejoin:miter;stroke-width:2;"/>
   </g>
   <g id="matplotlib.axis_1">
    <g id="xtick_1">
     <g id="line2d_1">
      <defs>
       <path d="M 0 0 
L 0 3.5 
" id="m30a92d5b81" style="stroke:#000000;stroke-width:0.8;"/>
      </defs>
      <g>
       <use style="stroke:#000000;stroke-width:0.8;" x="67.827271" xlink:href="#m30a92d5b81" y="252"/>
      </g>
     </g>
     <g id="text_1">
      <!-- −1.00 -->
      <defs>
       <path d="M 10.59375 35.5 
L 73.1875 35.5 
L 73.1875 27.203125 
L 10.59375 27.203125 
z
" id="DejaVuSans-8722"/>
       <path d="M 12.40625 8.296875 
L 28.515625 8.296875 
L 28.515625 63.921875 
L 10.984375 60.40625 
L 10.984375 69.390625 
L 28.421875 72.90625 
L 38.28125 72.90625 
L 38.28125 8.296875 
L 54.390625 8.296875 
L 54.390625 0 
L 12.40625 0 
z
" id="DejaVuSans-49"/>
       <path d="M 10.6875 12.40625 
L 21 12.40625 
L 21 0 
L 10.6875 0 
z
" id="DejaVuSans-46"/>
       <path d="M 31.78125 66.40625 
Q 24.171875 66.40625 20.328125 58.90625 
Q 16.5 51.421875 16.5 36.375 
Q 16.5 21.390625 20.328125 13.890625 
Q 24.171875 6.390625 31.78125 6.390625 
Q 39.453125 6.390625 43.28125 13.890625 
Q 47.125 21.390625 47.125 36.375 
Q 47.125 51.421875 43.28125 58.90625 
Q 39.453125 66.40625 31.78125 66.40625 
z
M 31.78125 74.21875 
Q 44.046875 74.21875 50.515625 64.515625 
Q 56.984375 54.828125 56.984375 36.375 
Q 56.984375 17.96875 50.515625 8.265625 
Q 44.046875 -1.421875 31.78125 -1.421875 
Q 19.53125 -1.421875 13.0625 8.265625 
Q 6.59375 17.96875 6.59375 36.375 
Q 6.59375 54.828125 13.0625 64.515625 
Q 19.53125 74.21875 31.78125 74.21875 
z
" id="DejaVuSans-48"/>
      </defs>
      <g transform="translate(52.504615 266.598437)scale(0.1 -0.1)">
       <use xlink:href="#DejaVuSans-8722"/>
       <use x="83.789062" xlink:href="#DejaVuSans-49"/>
       <use x="147.412109" xlink:href="#DejaVuSans-46"/>
       <use x="179.199219" xlink:href="#DejaVuSans-48"/>
       <use x="242.822266" xlink:href="#DejaVuSans-48"/>
      </g>
     </g>
    </g>
    <g id="xtick_2">
     <g id="line2d_2">
      <g>
       <use style="stroke:#000000;stroke-width:0.8;" x="106.046589" xlink:href="#m30a92d5b81" y="252"/>
      </g>
     </g>
     <g id="text_2">
      <!-- −0.75 -->
      <defs>
       <path d="M 8.203125 72.90625 
L 55.078125 72.90625 
L 55.078125 68.703125 
L 28.609375 0 
L 18.3125 0 
L 43.21875 64.59375 
L 8.203125 64.59375 
z
" id="DejaVuSans-55"/>
       <path d="M 10.796875 72.90625 
L 49.515625 72.90625 
L 49.515625 64.59375 
L 19.828125 64.59375 
L 19.828125 46.734375 
Q 21.96875 47.46875 24.109375 47.828125 
Q 26.265625 48.1875 28.421875 48.1875 
Q 40.625 48.1875 47.75 41.5 
Q 54.890625 34.8125 54.890625 23.390625 
Q 54.890625 11.625 47.5625 5.09375 
Q 40.234375 -1.421875 26.90625 -1.421875 
Q 22.3125 -1.421875 17.546875 -0.640625 
Q 12.796875 0.140625 7.71875 1.703125 
L 7.71875 11.625 
Q 12.109375 9.234375 16.796875 8.0625 
Q 21.484375 6.890625 26.703125 6.890625 
Q 35.15625 6.890625 40.078125 11.328125 
Q 45.015625 15.765625 45.015625 23.390625 
Q 45.015625 31 40.078125 35.4375 
Q 35.15625 39.890625 26.703125 39.890625 
Q 22.75 39.890625 18.8125 39.015625 
Q 14.890625 38.140625 10.796875 36.28125 
z
" id="DejaVuSans-53"/>
      </defs>
      <g transform="translate(90.723933 266.598437)scale(0.1 -0.1)">
       <use xlink:href="#DejaVuSans-8722"/>
       <use x="83.789062" xlink:href="#DejaVuSans-48"/>
       <use x="147.412109" xlink:href="#DejaVuSans-46"/>
       <use x="179.199219" xlink:href="#DejaVuSans-55"/>
       <use x="242.822266" xlink:href="#DejaVuSans-53"/>
      </g>
     </g>
    </g>
    <g id="xtick_3">
     <g id="line2d_3">
      <g>
       <use style="stroke:#000000;stroke-width:0.8;" x="144.265908" xlink:href="#m30a92d5b81" y="252"/>
      </g>
     </g>
     <g id="text_3">
      <!-- −0.50 -->
      <g transform="translate(128.943252 266.598437)scale(0.1 -0.1)">
       <use xlink:href="#DejaVuSans-8722"/>
       <use x="83.789062" xlink:href="#DejaVuSans-48"/>
       <use x="147.412109" xlink:href="#DejaVuSans-46"/>
       <use x="179.199219" xlink:href="#DejaVuSans-53"/>
       <use x="242.822266" xlink:href="#DejaVuSans-48"/>
      </g>
     </g>
    </g>
    <g id="xtick_4">
     <g id="line2d_4">
      <g>
       <use style="stroke:#000000;stroke-width:0.8;" x="182.485226" xlink:href="#m30a92d5b81" y="252"/>
      </g>
     </g>
     <g id="text_4">
      <!-- −0.25 -->
      <defs>
       <path d="M 19.1875 8.296875 
L 53.609375 8.296875 
L 53.609375 0 
L 7.328125 0 
L 7.328125 8.296875 
Q 12.9375 14.109375 22.625 23.890625 
Q 32.328125 33.6875 34.8125 36.53125 
Q 39.546875 41.84375 41.421875 45.53125 
Q 43.3125 49.21875 43.3125 52.78125 
Q 43.3125 58.59375 39.234375 62.25 
Q 35.15625 65.921875 28.609375 65.921875 
Q 23.96875 65.921875 18.8125 64.3125 
Q 13.671875 62.703125 7.8125 59.421875 
L 7.8125 69.390625 
Q 13.765625 71.78125 18.9375 73 
Q 24.125 74.21875 28.421875 74.21875 
Q 39.75 74.21875 46.484375 68.546875 
Q 53.21875 62.890625 53.21875 53.421875 
Q 53.21875 48.921875 51.53125 44.890625 
Q 49.859375 40.875 45.40625 35.40625 
Q 44.1875 33.984375 37.640625 27.21875 
Q 31.109375 20.453125 19.1875 8.296875 
z
" id="DejaVuSans-50"/>
      </defs>
      <g transform="translate(167.16257 266.598437)scale(0.1 -0.1)">
       <use xlink:href="#DejaVuSans-8722"/>
       <use x="83.789062" xlink:href="#DejaVuSans-48"/>
       <use x="147.412109" xlink:href="#DejaVuSans-46"/>
       <use x="179.199219" xlink:href="#DejaVuSans-50"/>
       <use x="242.822266" xlink:href="#DejaVuSans-53"/>
      </g>
     </g>
    </g>
    <g id="xtick_5">
     <g id="line2d_5">
      <g>
       <use style="stroke:#000000;stroke-width:0.8;" x="220.704545" xlink:href="#m30a92d5b81" y="252"/>
      </g>
     </g>
     <g id="text_5">
      <!-- 0.00 -->
      <g transform="translate(209.571732 266.598437)scale(0.1 -0.1)">
       <use xlink:href="#DejaVuSans-48"/>
       <use x="63.623047" xlink:href="#DejaVuSans-46"/>
       <use x="95.410156" xlink:href="#DejaVuSans-48"/>
       <use x="159.033203" xlink:href="#DejaVuSans-48"/>
      </g>
     </g>
    </g>
    <g id="xtick_6">
     <g id="line2d_6">
      <g>
       <use style="stroke:#000000;stroke-width:0.8;" x="258.923863" xlink:href="#m30a92d5b81" y="252"/>
      </g>
     </g>
     <g id="text_6">
      <!-- 0.25 -->
      <g transform="translate(247.791051 266.598437)scale(0.1 -0.1)">
       <use xlink:href="#DejaVuSans-48"/>
       <use x="63.623047" xlink:href="#DejaVuSans-46"/>
       <use x="95.410156" xlink:href="#DejaVuSans-50"/>
       <use x="159.033203" xlink:href="#DejaVuSans-53"/>
      </g>
     </g>
    </g>
    <g id="xtick_7">
     <g id="line2d_7">
      <g>
       <use style="stroke:#000000;stroke-width:0.8;" x="297.143181" xlink:href="#m30a92d5b81" y="252"/>
      </g>
     </g>
     <g id="text_7">
      <!-- 0.50 -->
      <g transform="translate(286.010369 266.598437)scale(0.1 -0.1)">
       <use xlink:href="#DejaVuSans-48"/>
       <use x="63.623047" xlink:href="#DejaVuSans-46"/>
       <use x="95.410156" xlink:href="#DejaVuSans-53"/>
       <use x="159.033203" xlink:href="#DejaVuSans-48"/>
      </g>
     </g>
    </g>
    <g id="xtick_8">
     <g id="line2d_8">
      <g>
       <use style="stroke:#000000;stroke-width:0.8;" x="335.3625" xlink:href="#m30a92d5b81" y="252"/>
      </g>
     </g>
     <g id="text_8">
      <!-- 0.75 -->
      <g transform="translate(324.229687 266.598437)scale(0.1 -0.1)">
       <use xlink:href="#DejaVuSans-48"/>
       <use x="63.623047" xlink:href="#DejaVuSans-46"/>
       <use x="95.410156" xlink:href="#DejaVuSans-55"/>
       <use x="159.033203" xlink:href="#DejaVuSans-53"/>
      </g>
     </g>
    </g>
    <g id="xtick_9">
     <g id="line2d_9">
      <g>
       <use style="stroke:#000000;stroke-width:0.8;" x="373.581818" xlink:href="#m30a92d5b81" y="252"/>
      </g>
     </g>
     <g id="text_9">
      <!-- 1.00 -->
      <g transform="translate(362.449006 266.598437)scale(0.1 -0.1)">
       <use xlink:href="#DejaVuSans-49"/>
       <use x="63.623047" xlink:href="#DejaVuSans-46"/>
       <use x="95.410156" xlink:href="#DejaVuSans-48"/>
       <use x="159.033203" xlink:href="#DejaVuSans-48"/>
      </g>
     </g>
    </g>
    <g id="text_10">
     <!-- cosine similarity -->
     <defs>
      <path d="M 48.78125 52.59375 
L 48.78125 44.1875 
Q 44.96875 46.296875 41.140625 47.34375 
Q 37.3125 48.390625 33.40625 48.390625 
Q 24.65625 48.390625 19.8125 42.84375 
Q 14.984375 37.3125 14.984375 27.296875 
Q 14.984375 17.28125 19.8125 11.734375 
Q 24.65625 6.203125 33.40625 6.203125 
Q 37.3125 6.203125 41.140625 7.25 
Q 44.96875 8.296875 48.78125 10.40625 
L 48.78125 2.09375 
Q 45.015625 0.34375 40.984375 -0.53125 
Q 36.96875 -1.421875 32.421875 -1.421875 
Q 20.0625 -1.421875 12.78125 6.34375 
Q 5.515625 14.109375 5.515625 27.296875 
Q 5.515625 40.671875 12.859375 48.328125 
Q 20.21875 56 33.015625 56 
Q 37.15625 56 41.109375 55.140625 
Q 45.0625 54.296875 48.78125 52.59375 
z
" id="DejaVuSans-99"/>
      <path d="M 30.609375 48.390625 
Q 23.390625 48.390625 19.1875 42.75 
Q 14.984375 37.109375 14.984375 27.296875 
Q 14.984375 17.484375 19.15625 11.84375 
Q 23.34375 6.203125 30.609375 6.203125 
Q 37.796875 6.203125 41.984375 11.859375 
Q 46.1875 17.53125 46.1875 27.296875 
Q 46.1875 37.015625 41.984375 42.703125 
Q 37.796875 48.390625 30.609375 48.390625 
z
M 30.609375 56 
Q 42.328125 56 49.015625 48.375 
Q 55.71875 40.765625 55.71875 27.296875 
Q 55.71875 13.875 49.015625 6.21875 
Q 42.328125 -1.421875 30.609375 -1.421875 
Q 18.84375 -1.421875 12.171875 6.21875 
Q 5.515625 13.875 5.515625 27.296875 
Q 5.515625 40.765625 12.171875 48.375 
Q 18.84375 56 30.609375 56 
z
" id="DejaVuSans-111"/>
      <path d="M 44.28125 53.078125 
L 44.28125 44.578125 
Q 40.484375 46.53125 36.375 47.5 
Q 32.28125 48.484375 27.875 48.484375 
Q 21.1875 48.484375 17.84375 46.4375 
Q 14.5 44.390625 14.5 40.28125 
Q 14.5 37.15625 16.890625 35.375 
Q 19.28125 33.59375 26.515625 31.984375 
L 29.59375 31.296875 
Q 39.15625 29.25 43.1875 25.515625 
Q 47.21875 21.78125 47.21875 15.09375 
Q 47.21875 7.46875 41.1875 3.015625 
Q 35.15625 -1.421875 24.609375 -1.421875 
Q 20.21875 -1.421875 15.453125 -0.5625 
Q 10.6875 0.296875 5.421875 2 
L 5.421875 11.28125 
Q 10.40625 8.6875 15.234375 7.390625 
Q 20.0625 6.109375 24.8125 6.109375 
Q 31.15625 6.109375 34.5625 8.28125 
Q 37.984375 10.453125 37.984375 14.40625 
Q 37.984375 18.0625 35.515625 20.015625 
Q 33.0625 21.96875 24.703125 23.78125 
L 21.578125 24.515625 
Q 13.234375 26.265625 9.515625 29.90625 
Q 5.8125 33.546875 5.8125 39.890625 
Q 5.8125 47.609375 11.28125 51.796875 
Q 16.75 56 26.8125 56 
Q 31.78125 56 36.171875 55.265625 
Q 40.578125 54.546875 44.28125 53.078125 
z
" id="DejaVuSans-115"/>
      <path d="M 9.421875 54.6875 
L 18.40625 54.6875 
L 18.40625 0 
L 9.421875 0 
z
M 9.421875 75.984375 
L 18.40625 75.984375 
L 18.40625 64.59375 
L 9.421875 64.59375 
z
" id="DejaVuSans-105"/>
      <path d="M 54.890625 33.015625 
L 54.890625 0 
L 45.90625 0 
L 45.90625 32.71875 
Q 45.90625 40.484375 42.875 44.328125 
Q 39.84375 48.1875 33.796875 48.1875 
Q 26.515625 48.1875 22.3125 43.546875 
Q 18.109375 38.921875 18.109375 30.90625 
L 18.109375 0 
L 9.078125 0 
L 9.078125 54.6875 
L 18.109375 54.6875 
L 18.109375 46.1875 
Q 21.34375 51.125 25.703125 53.5625 
Q 30.078125 56 35.796875 56 
Q 45.21875 56 50.046875 50.171875 
Q 54.890625 44.34375 54.890625 33.015625 
z
" id="DejaVuSans-110"/>
      <path d="M 56.203125 29.59375 
L 56.203125 25.203125 
L 14.890625 25.203125 
Q 15.484375 15.921875 20.484375 11.0625 
Q 25.484375 6.203125 34.421875 6.203125 
Q 39.59375 6.203125 44.453125 7.46875 
Q 49.3125 8.734375 54.109375 11.28125 
L 54.109375 2.78125 
Q 49.265625 0.734375 44.1875 -0.34375 
Q 39.109375 -1.421875 33.890625 -1.421875 
Q 20.796875 -1.421875 13.15625 6.1875 
Q 5.515625 13.8125 5.515625 26.8125 
Q 5.515625 40.234375 12.765625 48.109375 
Q 20.015625 56 32.328125 56 
Q 43.359375 56 49.78125 48.890625 
Q 56.203125 41.796875 56.203125 29.59375 
z
M 47.21875 32.234375 
Q 47.125 39.59375 43.09375 43.984375 
Q 39.0625 48.390625 32.421875 48.390625 
Q 24.90625 48.390625 20.390625 44.140625 
Q 15.875 39.890625 15.1875 32.171875 
z
" id="DejaVuSans-101"/>
      <path id="DejaVuSans-32"/>
      <path d="M 52 44.1875 
Q 55.375 50.25 60.0625 53.125 
Q 64.75 56 71.09375 56 
Q 79.640625 56 84.28125 50.015625 
Q 88.921875 44.046875 88.921875 33.015625 
L 88.921875 0 
L 79.890625 0 
L 79.890625 32.71875 
Q 79.890625 40.578125 77.09375 44.375 
Q 74.3125 48.1875 68.609375 48.1875 
Q 61.625 48.1875 57.5625 43.546875 
Q 53.515625 38.921875 53.515625 30.90625 
L 53.515625 0 
L 44.484375 0 
L 44.484375 32.71875 
Q 44.484375 40.625 41.703125 44.40625 
Q 38.921875 48.1875 33.109375 48.1875 
Q 26.21875 48.1875 22.15625 43.53125 
Q 18.109375 38.875 18.109375 30.90625 
L 18.109375 0 
L 9.078125 0 
L 9.078125 54.6875 
L 18.109375 54.6875 
L 18.109375 46.1875 
Q 21.1875 51.21875 25.484375 53.609375 
Q 29.78125 56 35.6875 56 
Q 41.65625 56 45.828125 52.96875 
Q 50 49.953125 52 44.1875 
z
" id="DejaVuSans-109"/>
      <path d="M 9.421875 75.984375 
L 18.40625 75.984375 
L 18.40625 0 
L 9.421875 0 
z
" id="DejaVuSans-108"/>
      <path d="M 34.28125 27.484375 
Q 23.390625 27.484375 19.1875 25 
Q 14.984375 22.515625 14.984375 16.5 
Q 14.984375 11.71875 18.140625 8.90625 
Q 21.296875 6.109375 26.703125 6.109375 
Q 34.1875 6.109375 38.703125 11.40625 
Q 43.21875 16.703125 43.21875 25.484375 
L 43.21875 27.484375 
z
M 52.203125 31.203125 
L 52.203125 0 
L 43.21875 0 
L 43.21875 8.296875 
Q 40.140625 3.328125 35.546875 0.953125 
Q 30.953125 -1.421875 24.3125 -1.421875 
Q 15.921875 -1.421875 10.953125 3.296875 
Q 6 8.015625 6 15.921875 
Q 6 25.140625 12.171875 29.828125 
Q 18.359375 34.515625 30.609375 34.515625 
L 43.21875 34.515625 
L 43.21875 35.40625 
Q 43.21875 41.609375 39.140625 45 
Q 35.0625 48.390625 27.6875 48.390625 
Q 23 48.390625 18.546875 47.265625 
Q 14.109375 46.140625 10.015625 43.890625 
L 10.015625 52.203125 
Q 14.9375 54.109375 19.578125 55.046875 
Q 24.21875 56 28.609375 56 
Q 40.484375 56 46.34375 49.84375 
Q 52.203125 43.703125 52.203125 31.203125 
z
" id="DejaVuSans-97"/>
      <path d="M 41.109375 46.296875 
Q 39.59375 47.171875 37.8125 47.578125 
Q 36.03125 48 33.890625 48 
Q 26.265625 48 22.1875 43.046875 
Q 18.109375 38.09375 18.109375 28.8125 
L 18.109375 0 
L 9.078125 0 
L 9.078125 54.6875 
L 18.109375 54.6875 
L 18.109375 46.1875 
Q 20.953125 51.171875 25.484375 53.578125 
Q 30.03125 56 36.53125 56 
Q 37.453125 56 38.578125 55.875 
Q 39.703125 55.765625 41.0625 55.515625 
z
" id="DejaVuSans-114"/>
      <path d="M 18.3125 70.21875 
L 18.3125 54.6875 
L 36.8125 54.6875 
L 36.8125 47.703125 
L 18.3125 47.703125 
L 18.3125 18.015625 
Q 18.3125 11.328125 20.140625 9.421875 
Q 21.96875 7.515625 27.59375 7.515625 
L 36.8125 7.515625 
L 36.8125 0 
L 27.59375 0 
Q 17.1875 0 13.234375 3.875 
Q 9.28125 7.765625 9.28125 18.015625 
L 9.28125 47.703125 
L 2.6875 47.703125 
L 2.6875 54.6875 
L 9.28125 54.6875 
L 9.28125 70.21875 
z
" id="DejaVuSans-116"/>
      <path d="M 32.171875 -5.078125 
Q 28.375 -14.84375 24.75 -17.8125 
Q 21.140625 -20.796875 15.09375 -20.796875 
L 7.90625 -20.796875 
L 7.90625 -13.28125 
L 13.1875 -13.28125 
Q 16.890625 -13.28125 18.9375 -11.515625 
Q 21 -9.765625 23.484375 -3.21875 
L 25.09375 0.875 
L 2.984375 54.6875 
L 12.5 54.6875 
L 29.59375 11.921875 
L 46.6875 54.6875 
L 56.203125 54.6875 
z
" id="DejaVuSans-121"/>
     </defs>
     <g transform="translate(180.692969 280.276563)scale(0.1 -0.1)">
      <use xlink:href="#DejaVuSans-99"/>
      <use x="54.980469" xlink:href="#DejaVuSans-111"/>
      <use x="116.162109" xlink:href="#DejaVuSans-115"/>
      <use x="168.261719" xlink:href="#DejaVuSans-105"/>
      <use x="196.044922" xlink:href="#DejaVuSans-110"/>
      <use x="259.423828" xlink:href="#DejaVuSans-101"/>
      <use x="320.947266" xlink:href="#DejaVuSans-32"/>
      <use x="352.734375" xlink:href="#DejaVuSans-115"/>
      <use x="404.833984" xlink:href="#DejaVuSans-105"/>
      <use x="432.617188" xlink:href="#DejaVuSans-109"/>
      <use x="530.029297" xlink:href="#DejaVuSans-105"/>
      <use x="557.8125" xlink:href="#DejaVuSans-108"/>
      <use x="585.595703" xlink:href="#DejaVuSans-97"/>
      <use x="646.875" xlink:href="#DejaVuSans-114"/>
      <use x="687.988281" xlink:href="#DejaVuSans-105"/>
      <use x="715.771484" xlink:href="#DejaVuSans-116"/>
      <use x="754.980469" xlink:href="#DejaVuSans-121"/>
     </g>
    </g>
   </g>
   <g id="matplotlib.axis_2">
    <g id="ytick_1">
     <g id="line2d_10">
      <defs>
       <path d="M 0 0 
L -3.5 0 
" id="m9d1b898d3a" style="stroke:#000000;stroke-width:0.8;"/>
      </defs>
      <g>
       <use style="stroke:#000000;stroke-width:0.8;" x="54" xlink:href="#m9d1b898d3a" y="252"/>
      </g>
     </g>
     <g id="text_11">
      <!-- 0.0 -->
      <g transform="translate(31.096875 255.799219)scale(0.1 -0.1)">
       <use xlink:href="#DejaVuSans-48"/>
       <use x="63.623047" xlink:href="#DejaVuSans-46"/>
       <use x="95.410156" xlink:href="#DejaVuSans-48"/>
      </g>
     </g>
    </g>
    <g id="ytick_2">
     <g id="line2d_11">
      <g>
       <use style="stroke:#000000;stroke-width:0.8;" x="54" xlink:href="#m9d1b898d3a" y="218.476273"/>
      </g>
     </g>
     <g id="text_12">
      <!-- 0.2 -->
      <g transform="translate(31.096875 222.275491)scale(0.1 -0.1)">
       <use xlink:href="#DejaVuSans-48"/>
       <use x="63.623047" xlink:href="#DejaVuSans-46"/>
       <use x="95.410156" xlink:href="#DejaVuSans-50"/>
      </g>
     </g>
    </g>
    <g id="ytick_3">
     <g id="line2d_12">
      <g>
       <use style="stroke:#000000;stroke-width:0.8;" x="54" xlink:href="#m9d1b898d3a" y="184.952545"/>
      </g>
     </g>
     <g id="text_13">
      <!-- 0.4 -->
      <defs>
       <path d="M 37.796875 64.3125 
L 12.890625 25.390625 
L 37.796875 25.390625 
z
M 35.203125 72.90625 
L 47.609375 72.90625 
L 47.609375 25.390625 
L 58.015625 25.390625 
L 58.015625 17.1875 
L 47.609375 17.1875 
L 47.609375 0 
L 37.796875 0 
L 37.796875 17.1875 
L 4.890625 17.1875 
L 4.890625 26.703125 
z
" id="DejaVuSans-52"/>
      </defs>
      <g transform="translate(31.096875 188.751764)scale(0.1 -0.1)">
       <use xlink:href="#DejaVuSans-48"/>
       <use x="63.623047" xlink:href="#DejaVuSans-46"/>
       <use x="95.410156" xlink:href="#DejaVuSans-52"/>
      </g>
     </g>
    </g>
    <g id="ytick_4">
     <g id="line2d_13">
      <g>
       <use style="stroke:#000000;stroke-width:0.8;" x="54" xlink:href="#m9d1b898d3a" y="151.428818"/>
      </g>
     </g>
     <g id="text_14">
      <!-- 0.6 -->
      <defs>
       <path d="M 33.015625 40.375 
Q 26.375 40.375 22.484375 35.828125 
Q 18.609375 31.296875 18.609375 23.390625 
Q 18.609375 15.53125 22.484375 10.953125 
Q 26.375 6.390625 33.015625 6.390625 
Q 39.65625 6.390625 43.53125 10.953125 
Q 47.40625 15.53125 47.40625 23.390625 
Q 47.40625 31.296875 43.53125 35.828125 
Q 39.65625 40.375 33.015625 40.375 
z
M 52.59375 71.296875 
L 52.59375 62.3125 
Q 48.875 64.0625 45.09375 64.984375 
Q 41.3125 65.921875 37.59375 65.921875 
Q 27.828125 65.921875 22.671875 59.328125 
Q 17.53125 52.734375 16.796875 39.40625 
Q 19.671875 43.65625 24.015625 45.921875 
Q 28.375 48.1875 33.59375 48.1875 
Q 44.578125 48.1875 50.953125 41.515625 
Q 57.328125 34.859375 57.328125 23.390625 
Q 57.328125 12.15625 50.6875 5.359375 
Q 44.046875 -1.421875 33.015625 -1.421875 
Q 20.359375 -1.421875 13.671875 8.265625 
Q 6.984375 17.96875 6.984375 36.375 
Q 6.984375 53.65625 15.1875 63.9375 
Q 23.390625 74.21875 37.203125 74.21875 
Q 40.921875 74.21875 44.703125 73.484375 
Q 48.484375 72.75 52.59375 71.296875 
z
" id="DejaVuSans-54"/>
      </defs>
      <g transform="translate(31.096875 155.228037)scale(0.1 -0.1)">
       <use xlink:href="#DejaVuSans-48"/>
       <use x="63.623047" xlink:href="#DejaVuSans-46"/>
       <use x="95.410156" xlink:href="#DejaVuSans-54"/>
      </g>
     </g>
    </g>
    <g id="ytick_5">
     <g id="line2d_14">
      <g>
       <use style="stroke:#000000;stroke-width:0.8;" x="54" xlink:href="#m9d1b898d3a" y="117.905091"/>
      </g>
     </g>
     <g id="text_15">
      <!-- 0.8 -->
      <defs>
       <path d="M 31.78125 34.625 
Q 24.75 34.625 20.71875 30.859375 
Q 16.703125 27.09375 16.703125 20.515625 
Q 16.703125 13.921875 20.71875 10.15625 
Q 24.75 6.390625 31.78125 6.390625 
Q 38.8125 6.390625 42.859375 10.171875 
Q 46.921875 13.96875 46.921875 20.515625 
Q 46.921875 27.09375 42.890625 30.859375 
Q 38.875 34.625 31.78125 34.625 
z
M 21.921875 38.8125 
Q 15.578125 40.375 12.03125 44.71875 
Q 8.5 49.078125 8.5 55.328125 
Q 8.5 64.0625 14.71875 69.140625 
Q 20.953125 74.21875 31.78125 74.21875 
Q 42.671875 74.21875 48.875 69.140625 
Q 55.078125 64.0625 55.078125 55.328125 
Q 55.078125 49.078125 51.53125 44.71875 
Q 48 40.375 41.703125 38.8125 
Q 48.828125 37.15625 52.796875 32.3125 
Q 56.78125 27.484375 56.78125 20.515625 
Q 56.78125 9.90625 50.3125 4.234375 
Q 43.84375 -1.421875 31.78125 -1.421875 
Q 19.734375 -1.421875 13.25 4.234375 
Q 6.78125 9.90625 6.78125 20.515625 
Q 6.78125 27.484375 10.78125 32.3125 
Q 14.796875 37.15625 21.921875 38.8125 
z
M 18.3125 54.390625 
Q 18.3125 48.734375 21.84375 45.5625 
Q 25.390625 42.390625 31.78125 42.390625 
Q 38.140625 42.390625 41.71875 45.5625 
Q 45.3125 48.734375 45.3125 54.390625 
Q 45.3125 60.0625 41.71875 63.234375 
Q 38.140625 66.40625 31.78125 66.40625 
Q 25.390625 66.40625 21.84375 63.234375 
Q 18.3125 60.0625 18.3125 54.390625 
z
" id="DejaVuSans-56"/>
      </defs>
      <g transform="translate(31.096875 121.70431)scale(0.1 -0.1)">
       <use xlink:href="#DejaVuSans-48"/>
       <use x="63.623047" xlink:href="#DejaVuSans-46"/>
       <use x="95.410156" xlink:href="#DejaVuSans-56"/>
      </g>
     </g>
    </g>
    <g id="ytick_6">
     <g id="line2d_15">
      <g>
       <use style="stroke:#000000;stroke-width:0.8;" x="54" xlink:href="#m9d1b898d3a" y="84.381363"/>
      </g>
     </g>
     <g id="text_16">
      <!-- 1.0 -->
      <g transform="translate(31.096875 88.180582)scale(0.1 -0.1)">
       <use xlink:href="#DejaVuSans-49"/>
       <use x="63.623047" xlink:href="#DejaVuSans-46"/>
       <use x="95.410156" xlink:href="#DejaVuSans-48"/>
      </g>
     </g>
    </g>
    <g id="ytick_7">
     <g id="line2d_16">
      <g>
       <use style="stroke:#000000;stroke-width:0.8;" x="54" xlink:href="#m9d1b898d3a" y="50.857636"/>
      </g>
     </g>
     <g id="text_17">
      <!-- 1.2 -->
      <g transform="translate(31.096875 54.656855)scale(0.1 -0.1)">
       <use xlink:href="#DejaVuSans-49"/>
       <use x="63.623047" xlink:href="#DejaVuSans-46"/>
       <use x="95.410156" xlink:href="#DejaVuSans-50"/>
      </g>
     </g>
    </g>
    <g id="text_18">
     <!-- density -->
     <defs>
      <path d="M 45.40625 46.390625 
L 45.40625 75.984375 
L 54.390625 75.984375 
L 54.390625 0 
L 45.40625 0 
L 45.40625 8.203125 
Q 42.578125 3.328125 38.25 0.953125 
Q 33.9375 -1.421875 27.875 -1.421875 
Q 17.96875 -1.421875 11.734375 6.484375 
Q 5.515625 14.40625 5.515625 27.296875 
Q 5.515625 40.1875 11.734375 48.09375 
Q 17.96875 56 27.875 56 
Q 33.9375 56 38.25 53.625 
Q 42.578125 51.265625 45.40625 46.390625 
z
M 14.796875 27.296875 
Q 14.796875 17.390625 18.875 11.75 
Q 22.953125 6.109375 30.078125 6.109375 
Q 37.203125 6.109375 41.296875 11.75 
Q 45.40625 17.390625 45.40625 27.296875 
Q 45.40625 37.203125 41.296875 42.84375 
Q 37.203125 48.484375 30.078125 48.484375 
Q 22.953125 48.484375 18.875 42.84375 
Q 14.796875 37.203125 14.796875 27.296875 
z
" id="DejaVuSans-100"/>
     </defs>
     <g transform="translate(25.017187 161.612813)rotate(-90)scale(0.1 -0.1)">
      <use xlink:href="#DejaVuSans-100"/>
      <use x="63.476562" xlink:href="#DejaVuSans-101"/>
      <use x="125" xlink:href="#DejaVuSans-110"/>
      <use x="188.378906" xlink:href="#DejaVuSans-115"/>
      <use x="240.478516" xlink:href="#DejaVuSans-105"/>
      <use x="268.261719" xlink:href="#DejaVuSans-116"/>
      <use x="307.470703" xlink:href="#DejaVuSans-121"/>
     </g>
    </g>
   </g>
   <g id="patch_7">
    <path d="M 54 252 
L 54 34.56 
" style="fill:none;stroke:#000000;stroke-linecap:square;stroke-linejoin:miter;stroke-width:0.8;"/>
   </g>
   <g id="patch_8">
    <path d="M 388.8 252 
L 388.8 34.56 
" style="fill:none;stroke:#000000;stroke-linecap:square;stroke-linejoin:miter;stroke-width:0.8;"/>
   </g>
   <g id="patch_9">
    <path d="M 54 252 
L 388.8 252 
" style="fill:none;stroke:#000000;stroke-linecap:square;stroke-linejoin:miter;stroke-width:0.8;"/>
   </g>
   <g id="patch_10">
    <path d="M 54 34.56 
L 388.8 34.56 
" style="fill:none;stroke:#000000;stroke-linecap:square;stroke-linejoin:miter;stroke-width:0.8;"/>
   </g>
   <g id="text_19">
    <!-- x-validation emb_w2v_pm_pmc -->
    <defs>
     <path d="M 54.890625 54.6875 
L 35.109375 28.078125 
L 55.90625 0 
L 45.3125 0 
L 29.390625 21.484375 
L 13.484375 0 
L 2.875 0 
L 24.125 28.609375 
L 4.6875 54.6875 
L 15.28125 54.6875 
L 29.78125 35.203125 
L 44.28125 54.6875 
z
" id="DejaVuSans-120"/>
     <path d="M 4.890625 31.390625 
L 31.203125 31.390625 
L 31.203125 23.390625 
L 4.890625 23.390625 
z
" id="DejaVuSans-45"/>
     <path d="M 2.984375 54.6875 
L 12.5 54.6875 
L 29.59375 8.796875 
L 46.6875 54.6875 
L 56.203125 54.6875 
L 35.6875 0 
L 23.484375 0 
z
" id="DejaVuSans-118"/>
     <path d="M 48.6875 27.296875 
Q 48.6875 37.203125 44.609375 42.84375 
Q 40.53125 48.484375 33.40625 48.484375 
Q 26.265625 48.484375 22.1875 42.84375 
Q 18.109375 37.203125 18.109375 27.296875 
Q 18.109375 17.390625 22.1875 11.75 
Q 26.265625 6.109375 33.40625 6.109375 
Q 40.53125 6.109375 44.609375 11.75 
Q 48.6875 17.390625 48.6875 27.296875 
z
M 18.109375 46.390625 
Q 20.953125 51.265625 25.265625 53.625 
Q 29.59375 56 35.59375 56 
Q 45.5625 56 51.78125 48.09375 
Q 58.015625 40.1875 58.015625 27.296875 
Q 58.015625 14.40625 51.78125 6.484375 
Q 45.5625 -1.421875 35.59375 -1.421875 
Q 29.59375 -1.421875 25.265625 0.953125 
Q 20.953125 3.328125 18.109375 8.203125 
L 18.109375 0 
L 9.078125 0 
L 9.078125 75.984375 
L 18.109375 75.984375 
z
" id="DejaVuSans-98"/>
     <path d="M 50.984375 -16.609375 
L 50.984375 -23.578125 
L -0.984375 -23.578125 
L -0.984375 -16.609375 
z
" id="DejaVuSans-95"/>
     <path d="M 4.203125 54.6875 
L 13.1875 54.6875 
L 24.421875 12.015625 
L 35.59375 54.6875 
L 46.1875 54.6875 
L 57.421875 12.015625 
L 68.609375 54.6875 
L 77.59375 54.6875 
L 63.28125 0 
L 52.6875 0 
L 40.921875 44.828125 
L 29.109375 0 
L 18.5 0 
z
" id="DejaVuSans-119"/>
     <path d="M 18.109375 8.203125 
L 18.109375 -20.796875 
L 9.078125 -20.796875 
L 9.078125 54.6875 
L 18.109375 54.6875 
L 18.109375 46.390625 
Q 20.953125 51.265625 25.265625 53.625 
Q 29.59375 56 35.59375 56 
Q 45.5625 56 51.78125 48.09375 
Q 58.015625 40.1875 58.015625 27.296875 
Q 58.015625 14.40625 51.78125 6.484375 
Q 45.5625 -1.421875 35.59375 -1.421875 
Q 29.59375 -1.421875 25.265625 0.953125 
Q 20.953125 3.328125 18.109375 8.203125 
z
M 48.6875 27.296875 
Q 48.6875 37.203125 44.609375 42.84375 
Q 40.53125 48.484375 33.40625 48.484375 
Q 26.265625 48.484375 22.1875 42.84375 
Q 18.109375 37.203125 18.109375 27.296875 
Q 18.109375 17.390625 22.1875 11.75 
Q 26.265625 6.109375 33.40625 6.109375 
Q 40.53125 6.109375 44.609375 11.75 
Q 48.6875 17.390625 48.6875 27.296875 
z
" id="DejaVuSans-112"/>
    </defs>
    <g transform="translate(127.011563 28.56)scale(0.12 -0.12)">
     <use xlink:href="#DejaVuSans-120"/>
     <use x="59.179688" xlink:href="#DejaVuSans-45"/>
     <use x="95.232422" xlink:href="#DejaVuSans-118"/>
     <use x="154.412109" xlink:href="#DejaVuSans-97"/>
     <use x="215.691406" xlink:href="#DejaVuSans-108"/>
     <use x="243.474609" xlink:href="#DejaVuSans-105"/>
     <use x="271.257812" xlink:href="#DejaVuSans-100"/>
     <use x="334.734375" xlink:href="#DejaVuSans-97"/>
     <use x="396.013672" xlink:href="#DejaVuSans-116"/>
     <use x="435.222656" xlink:href="#DejaVuSans-105"/>
     <use x="463.005859" xlink:href="#DejaVuSans-111"/>
     <use x="524.1875" xlink:href="#DejaVuSans-110"/>
     <use x="587.566406" xlink:href="#DejaVuSans-32"/>
     <use x="619.353516" xlink:href="#DejaVuSans-101"/>
     <use x="680.876953" xlink:href="#DejaVuSans-109"/>
     <use x="778.289062" xlink:href="#DejaVuSans-98"/>
     <use x="841.765625" xlink:href="#DejaVuSans-95"/>
     <use x="891.765625" xlink:href="#DejaVuSans-119"/>
     <use x="973.552734" xlink:href="#DejaVuSans-50"/>
     <use x="1037.175781" xlink:href="#DejaVuSans-118"/>
     <use x="1096.355469" xlink:href="#DejaVuSans-95"/>
     <use x="1146.355469" xlink:href="#DejaVuSans-112"/>
     <use x="1209.832031" xlink:href="#DejaVuSans-109"/>
     <use x="1307.244141" xlink:href="#DejaVuSans-95"/>
     <use x="1357.244141" xlink:href="#DejaVuSans-112"/>
     <use x="1420.720703" xlink:href="#DejaVuSans-109"/>
     <use x="1518.132812" xlink:href="#DejaVuSans-99"/>
    </g>
   </g>
  </g>
 </g>
 <defs>
  <clipPath id="pbc7ae3a02a">
   <rect height="217.44" width="334.8" x="54" y="34.56"/>
  </clipPath>
 </defs>
</svg>
