<?xml version="1.0" encoding="utf-8" standalone="no"?>
<!DOCTYPE svg PUBLIC "-//W3C//DTD SVG 1.1//EN"
  "http://www.w3.org/Graphics/SVG/1.1/DTD/svg11.dtd">
<!-- Created with matplotlib (https://matplotlib.org/) -->
<svg height="288pt" version="1.1" viewBox="0 0 432 288" width="432pt" xmlns="http://www.w3.org/2000/svg" xmlns:xlink="http://www.w3.org/1999/xlink">
 <defs>
  <style type="text/css">
*{stroke-linecap:butt;stroke-linejoin:round;}
  </style>
 </defs>
 <g id="figure_1">
  <g id="patch_1">
   <path d="M 0 288 
L 432 288 
L 432 0 
L 0 0 
z
" style="fill:#ffffff;"/>
  </g>
  <g id="axes_1">
   <g id="patch_2">
    <path d="M 54 252 
L 388.8 252 
L 388.8 34.56 
L 54 34.56 
z
" style="fill:#ffffff;"/>
   </g>
   <g id="patch_3">
    <path clip-path="url(#p5bcce82a58)" d="M 70.853344 252 
L 70.853344 251.998052 
L 79.935198 251.93918 
L 79.935198 251.853201 
L 82.962483 251.853201 
L 82.962483 251.65041 
L 85.989767 251.65041 
L 85.989767 251.368672 
L 89.017052 251.368672 
L 89.017052 250.922515 
L 92.044337 250.922515 
L 92.044337 250.269925 
L 95.071622 250.269925 
L 95.071622 249.35491 
L 98.098906 249.35491 
L 98.098906 248.276069 
L 101.126191 248.276069 
L 101.126191 246.749717 
L 104.153476 246.749717 
L 104.153476 244.955772 
L 107.180761 244.955772 
L 107.180761 242.831635 
L 110.208045 242.831635 
L 110.208045 240.350963 
L 113.23533 240.350963 
L 113.23533 237.44548 
L 116.262615 237.44548 
L 116.262615 234.243011 
L 119.2899 234.243011 
L 119.2899 230.745589 
L 122.317184 230.745589 
L 122.317184 226.971596 
L 125.344469 226.971596 
L 125.344469 222.457425 
L 128.371754 222.457425 
L 128.371754 218.084292 
L 131.399039 218.084292 
L 131.399039 213.620268 
L 134.426323 213.620268 
L 134.426323 208.75837 
L 137.453608 208.75837 
L 137.453608 203.782964 
L 140.480893 203.782964 
L 140.480893 198.265342 
L 143.508178 198.265342 
L 143.508178 193.139495 
L 146.535462 193.139495 
L 146.535462 187.760032 
L 149.562747 187.760032 
L 149.562747 182.266128 
L 152.590032 182.266128 
L 152.590032 176.788658 
L 155.617317 176.788658 
L 155.617317 171.397082 
L 158.644601 171.397082 
L 158.644601 165.664641 
L 161.671886 165.664641 
L 161.671886 159.999627 
L 164.699171 159.999627 
L 164.699171 154.529865 
L 167.726456 154.529865 
L 167.726456 149.54548 
L 170.75374 149.54548 
L 170.75374 144.339922 
L 173.781025 144.339922 
L 173.781025 139.276928 
L 176.80831 139.276928 
L 176.80831 134.461281 
L 179.835595 134.461281 
L 179.835595 129.603873 
L 182.862879 129.603873 
L 182.862879 125.208971 
L 185.890164 125.208971 
L 185.890164 121.159676 
L 188.917449 121.159676 
L 188.917449 116.920213 
L 191.944734 116.920213 
L 191.944734 113.967972 
L 194.972018 113.967972 
L 194.972018 110.165008 
L 197.999303 110.165008 
L 197.999303 106.833953 
L 201.026588 106.833953 
L 201.026588 105.145384 
L 204.053872 105.145384 
L 204.053872 102.364253 
L 207.081157 102.364253 
L 207.081157 100.465694 
L 210.108442 100.465694 
L 210.108442 99.369403 
L 213.135727 99.369403 
L 213.135727 97.206979 
L 219.190296 97.139467 
L 219.190296 95.665633 
L 222.217581 95.665633 
L 222.217581 95.128923 
L 225.244866 95.128923 
L 225.244866 95.293426 
L 228.27215 95.293426 
L 228.27215 94.538848 
L 231.299435 94.538848 
L 231.299435 94.963912 
L 234.32672 94.963912 
L 234.32672 95.405071 
L 237.354005 95.405071 
L 237.354005 95.947202 
L 240.381289 95.947202 
L 240.381289 97.218923 
L 243.408574 97.218923 
L 243.408574 97.692779 
L 246.435859 97.692779 
L 246.435859 98.905797 
L 249.463144 98.905797 
L 249.463144 100.08832 
L 252.490428 100.08832 
L 252.490428 100.944039 
L 255.517713 100.944039 
L 255.517713 103.269612 
L 258.544998 103.269612 
L 258.544998 105.062879 
L 261.572283 105.062879 
L 261.572283 106.946953 
L 264.599567 106.946953 
L 264.599567 108.740983 
L 267.626852 108.740983 
L 267.626852 110.859867 
L 270.654137 110.859867 
L 270.654137 113.350789 
L 273.681422 113.350789 
L 273.681422 115.40555 
L 276.708706 115.40555 
L 276.708706 117.80558 
L 279.735991 117.80558 
L 279.735991 120.627795 
L 282.763276 120.627795 
L 282.763276 123.65153 
L 285.790561 123.65153 
L 285.790561 126.499666 
L 288.817845 126.499666 
L 288.817845 129.45106 
L 291.84513 129.45106 
L 291.84513 132.281068 
L 294.872415 132.281068 
L 294.872415 135.583916 
L 297.8997 135.583916 
L 297.8997 139.403651 
L 300.926984 139.403651 
L 300.926984 142.279571 
L 303.954269 142.279571 
L 303.954269 145.660943 
L 306.981554 145.660943 
L 306.981554 149.994771 
L 310.008839 149.994771 
L 310.008839 153.504137 
L 313.036123 153.504137 
L 313.036123 157.308455 
L 316.063408 157.308455 
L 316.063408 161.717081 
L 319.090693 161.717081 
L 319.090693 164.917432 
L 322.117978 164.917432 
L 322.117978 169.305473 
L 325.145262 169.305473 
L 325.145262 173.212288 
L 328.172547 173.212288 
L 328.172547 177.846745 
L 331.199832 177.846745 
L 331.199832 182.415553 
L 334.227117 182.415553 
L 334.227117 186.76268 
L 337.254401 186.76268 
L 337.254401 191.481676 
L 340.281686 191.481676 
L 340.281686 196.278179 
L 343.308971 196.278179 
L 343.308971 201.139822 
L 346.336255 201.139822 
L 346.336255 206.338518 
L 349.36354 206.338518 
L 349.36354 212.133813 
L 352.390825 212.133813 
L 352.390825 217.376811 
L 355.41811 217.376811 
L 355.41811 223.433006 
L 358.445394 223.433006 
L 358.445394 229.098104 
L 361.472679 229.098104 
L 361.472679 235.472632 
L 364.499964 235.472632 
L 364.499964 241.484779 
L 367.527249 241.484779 
L 367.527249 247.254576 
L 370.554533 247.254576 
L 370.554533 250.765297 
L 373.581818 250.765297 
L 373.581818 252 
L 373.581818 252 
" style="fill:none;opacity:0.5;stroke:#008080;stroke-linejoin:miter;stroke-width:2;"/>
   </g>
   <g id="patch_4">
    <path clip-path="url(#p5bcce82a58)" d="M 69.218182 252 
L 69.218182 251.98934 
L 75.287251 251.93071 
L 75.287251 251.729547 
L 78.321786 251.729547 
L 78.321786 251.254492 
L 81.356321 251.254492 
L 81.356321 250.251082 
L 84.390856 250.251082 
L 84.390856 248.656905 
L 87.42539 248.656905 
L 87.42539 246.26306 
L 90.459925 246.26306 
L 90.459925 242.663954 
L 93.49446 242.663954 
L 93.49446 237.39863 
L 96.528995 237.39863 
L 96.528995 231.172708 
L 99.563529 231.172708 
L 99.563529 222.937386 
L 102.598064 222.937386 
L 102.598064 213.467575 
L 105.632599 213.467575 
L 105.632599 202.624007 
L 108.667134 202.624007 
L 108.667134 191.240564 
L 111.701669 191.240564 
L 111.701669 177.907211 
L 114.736203 177.907211 
L 114.736203 164.34914 
L 117.770738 164.34914 
L 117.770738 151.296212 
L 120.805273 151.296212 
L 120.805273 137.884629 
L 123.839808 137.884629 
L 123.839808 123.583629 
L 126.874342 123.583629 
L 126.874342 111.452442 
L 129.908877 111.452442 
L 129.908877 99.066965 
L 132.943412 99.066965 
L 132.943412 89.166457 
L 135.977947 89.166457 
L 135.977947 79.334896 
L 139.012481 79.334896 
L 139.012481 71.551934 
L 142.047016 71.551934 
L 142.047016 64.209641 
L 145.081551 64.209641 
L 145.081551 58.860585 
L 148.116086 58.860585 
L 148.116086 54.257381 
L 151.150621 54.257381 
L 151.150621 51.203996 
L 154.185155 51.203996 
L 154.185155 48.358307 
L 157.21969 48.358307 
L 157.21969 46.390688 
L 160.254225 46.390688 
L 160.254225 44.914286 
L 163.28876 44.914286 
L 163.28876 45.243712 
L 166.323294 45.243712 
L 166.323294 46.792499 
L 169.357829 46.792499 
L 169.357829 47.322573 
L 172.392364 47.322573 
L 172.392364 49.374784 
L 175.426899 49.374784 
L 175.426899 52.125909 
L 178.461433 52.125909 
L 178.461433 54.804993 
L 181.495968 54.804993 
L 181.495968 57.480638 
L 184.530503 57.480638 
L 184.530503 60.790722 
L 187.565038 60.790722 
L 187.565038 64.530987 
L 190.599573 64.530987 
L 190.599573 69.653261 
L 193.634107 69.653261 
L 193.634107 73.314263 
L 196.668642 73.314263 
L 196.668642 78.239501 
L 199.703177 78.239501 
L 199.703177 81.708624 
L 202.737712 81.708624 
L 202.737712 87.455365 
L 205.772246 87.455365 
L 205.772246 91.390947 
L 208.806781 91.390947 
L 208.806781 96.667962 
L 211.841316 96.667962 
L 211.841316 101.253972 
L 214.875851 101.253972 
L 214.875851 107.384643 
L 217.910385 107.384643 
L 217.910385 112.344611 
L 220.94492 112.344611 
L 220.94492 116.996128 
L 223.979455 116.996128 
L 223.979455 122.333665 
L 227.01399 122.333665 
L 227.01399 127.460065 
L 230.048524 127.460065 
L 230.048524 132.783159 
L 233.083059 132.783159 
L 233.083059 138.016159 
L 236.117594 138.016159 
L 236.117594 142.557638 
L 239.152129 142.557638 
L 239.152129 147.983377 
L 242.186664 147.983377 
L 242.186664 152.77399 
L 245.221198 152.77399 
L 245.221198 157.852936 
L 248.255733 157.852936 
L 248.255733 162.277328 
L 251.290268 162.277328 
L 251.290268 167.085478 
L 254.324803 167.085478 
L 254.324803 171.806113 
L 257.359337 171.806113 
L 257.359337 176.112902 
L 260.393872 176.112902 
L 260.393872 180.719201 
L 263.428407 180.719201 
L 263.428407 184.43952 
L 266.462942 184.43952 
L 266.462942 188.725505 
L 269.497476 188.725505 
L 269.497476 192.963176 
L 272.532011 192.963176 
L 272.532011 196.758115 
L 275.566546 196.758115 
L 275.566546 200.356878 
L 278.601081 200.356878 
L 278.601081 204.200818 
L 281.635616 204.200818 
L 281.635616 207.874544 
L 284.67015 207.874544 
L 284.67015 211.247384 
L 287.704685 211.247384 
L 287.704685 214.193483 
L 290.73922 214.193483 
L 290.73922 217.433418 
L 293.773755 217.433418 
L 293.773755 220.428002 
L 296.808289 220.428002 
L 296.808289 223.37496 
L 299.842824 223.37496 
L 299.842824 225.653952 
L 302.877359 225.653952 
L 302.877359 228.406797 
L 305.911894 228.406797 
L 305.911894 230.614436 
L 308.946428 230.614436 
L 308.946428 232.919563 
L 311.980963 232.919563 
L 311.980963 234.850044 
L 315.015498 234.850044 
L 315.015498 236.885061 
L 318.050033 236.885061 
L 318.050033 238.595982 
L 321.084568 238.595982 
L 321.084568 240.234003 
L 324.119102 240.234003 
L 324.119102 241.971401 
L 327.153637 241.971401 
L 327.153637 243.373871 
L 330.188172 243.373871 
L 330.188172 244.842365 
L 333.222707 244.842365 
L 333.222707 245.898387 
L 336.257241 245.898387 
L 336.257241 246.894575 
L 339.291776 246.894575 
L 339.291776 247.952833 
L 342.326311 247.952833 
L 342.326311 248.766427 
L 345.360846 248.766427 
L 345.360846 249.605296 
L 348.39538 249.605296 
L 348.39538 250.141044 
L 351.429915 250.141044 
L 351.429915 250.614207 
L 354.46445 250.614207 
L 354.46445 251.054532 
L 357.498985 251.054532 
L 357.498985 251.389288 
L 360.53352 251.389288 
L 360.53352 251.612975 
L 363.568054 251.612975 
L 363.568054 251.799352 
L 369.637124 251.909906 
L 369.637124 251.99381 
L 372.671659 251.99381 
L 372.671659 252 
" style="fill:none;opacity:0.5;stroke:#bf4080;stroke-linejoin:miter;stroke-width:2;"/>
   </g>
   <g id="patch_5">
    <path clip-path="url(#p5bcce82a58)" d="M 69.218182 252 
L 69.218182 251.991059 
L 75.287251 251.937238 
L 75.287251 251.767521 
L 78.321786 251.767521 
L 78.321786 251.31718 
L 81.356321 251.31718 
L 81.356321 250.494047 
L 84.390856 250.494047 
L 84.390856 249.050513 
L 87.42539 249.050513 
L 87.42539 246.988297 
L 90.459925 246.988297 
L 90.459925 243.970718 
L 93.49446 243.970718 
L 93.49446 239.642179 
L 96.528995 239.642179 
L 96.528995 234.384069 
L 99.563529 234.384069 
L 99.563529 227.424842 
L 102.598064 227.424842 
L 102.598064 219.515754 
L 105.632599 219.515754 
L 105.632599 209.836424 
L 108.667134 209.836424 
L 108.667134 199.230962 
L 111.701669 199.230962 
L 111.701669 188.309109 
L 114.736203 188.309109 
L 114.736203 175.717949 
L 117.770738 175.717949 
L 117.770738 163.082082 
L 120.805273 163.082082 
L 120.805273 150.588935 
L 123.839808 150.588935 
L 123.839808 137.159683 
L 126.874342 137.159683 
L 126.874342 125.700653 
L 129.908877 125.700653 
L 129.908877 114.730998 
L 132.943412 114.730998 
L 132.943412 105.183554 
L 135.977947 105.183554 
L 135.977947 96.103131 
L 139.012481 96.103131 
L 139.012481 88.649887 
L 142.047016 88.649887 
L 142.047016 82.163183 
L 145.081551 82.163183 
L 145.081551 76.038781 
L 148.116086 76.038781 
L 148.116086 72.476975 
L 151.150621 72.476975 
L 151.150621 69.011633 
L 154.185155 69.011633 
L 154.185155 66.479645 
L 157.21969 66.479645 
L 157.21969 65.198089 
L 160.254225 65.198089 
L 160.254225 63.78138 
L 166.323294 63.815082 
L 166.323294 64.373237 
L 169.357829 64.373237 
L 169.357829 63.375746 
L 172.392364 63.375746 
L 172.392364 65.454985 
L 175.426899 65.454985 
L 175.426899 66.521429 
L 178.461433 66.521429 
L 178.461433 68.241977 
L 181.495968 68.241977 
L 181.495968 70.195004 
L 184.530503 70.195004 
L 184.530503 73.424084 
L 187.565038 73.424084 
L 187.565038 75.637102 
L 190.599573 75.637102 
L 190.599573 78.416013 
L 193.634107 78.416013 
L 193.634107 82.033531 
L 196.668642 82.033531 
L 196.668642 84.552795 
L 199.703177 84.552795 
L 199.703177 88.528661 
L 202.737712 88.528661 
L 202.737712 91.91009 
L 205.772246 91.91009 
L 205.772246 95.690275 
L 208.806781 95.690275 
L 208.806781 99.448107 
L 211.841316 99.448107 
L 211.841316 103.111709 
L 214.875851 103.111709 
L 214.875851 106.682113 
L 217.910385 106.682113 
L 217.910385 110.80173 
L 220.94492 110.80173 
L 220.94492 114.488202 
L 223.979455 114.488202 
L 223.979455 118.235544 
L 227.01399 118.235544 
L 227.01399 122.77352 
L 230.048524 122.77352 
L 230.048524 126.54356 
L 233.083059 126.54356 
L 233.083059 130.398028 
L 236.117594 130.398028 
L 236.117594 134.567168 
L 239.152129 134.567168 
L 239.152129 138.457402 
L 242.186664 138.457402 
L 242.186664 142.665575 
L 245.221198 142.665575 
L 245.221198 146.216033 
L 248.255733 146.216033 
L 248.255733 150.514824 
L 251.290268 150.514824 
L 251.290268 154.649229 
L 254.324803 154.649229 
L 254.324803 158.392273 
L 257.359337 158.392273 
L 257.359337 162.419724 
L 260.393872 162.419724 
L 260.393872 166.351915 
L 263.428407 166.351915 
L 263.428407 169.733 
L 266.462942 169.733 
L 266.462942 173.566662 
L 269.497476 173.566662 
L 269.497476 177.534446 
L 272.532011 177.534446 
L 272.532011 181.449613 
L 275.566546 181.449613 
L 275.566546 184.76295 
L 278.601081 184.76295 
L 278.601081 188.64046 
L 281.635616 188.64046 
L 281.635616 191.898427 
L 284.67015 191.898427 
L 284.67015 195.850736 
L 287.704685 195.850736 
L 287.704685 199.222192 
L 290.73922 199.222192 
L 290.73922 202.449725 
L 293.773755 202.449725 
L 293.773755 205.853508 
L 296.808289 205.853508 
L 296.808289 208.952936 
L 299.842824 208.952936 
L 299.842824 211.920822 
L 302.877359 211.920822 
L 302.877359 214.733435 
L 305.911894 214.733435 
L 305.911894 217.528165 
L 308.946428 217.528165 
L 308.946428 220.232964 
L 311.980963 220.232964 
L 311.980963 222.837344 
L 315.015498 222.837344 
L 315.015498 225.425044 
L 318.050033 225.425044 
L 318.050033 227.922642 
L 321.084568 227.922642 
L 321.084568 230.316209 
L 324.119102 230.316209 
L 324.119102 232.80263 
L 327.153637 232.80263 
L 327.153637 234.861579 
L 330.188172 234.861579 
L 330.188172 236.888545 
L 333.222707 236.888545 
L 333.222707 238.901583 
L 336.257241 238.901583 
L 336.257241 240.459465 
L 339.291776 240.459465 
L 339.291776 242.237617 
L 342.326311 242.237617 
L 342.326311 243.779679 
L 345.360846 243.779679 
L 345.360846 245.304031 
L 348.39538 245.304031 
L 348.39538 246.770091 
L 351.429915 246.770091 
L 351.429915 247.801457 
L 354.46445 247.801457 
L 354.46445 248.989814 
L 357.498985 248.989814 
L 357.498985 249.878117 
L 360.53352 249.878117 
L 360.53352 250.631609 
L 363.568054 250.631609 
L 363.568054 251.291215 
L 366.602589 251.291215 
L 366.602589 251.773024 
L 369.637124 251.773024 
L 369.637124 251.967501 
L 372.671659 251.967501 
L 372.671659 252 
" style="fill:none;opacity:0.5;stroke:#bf8080;stroke-linejoin:miter;stroke-width:2;"/>
   </g>
   <g id="patch_6">
    <path clip-path="url(#p5bcce82a58)" d="M 75.517194 252 
L 75.517194 251.998219 
L 90.420425 251.899914 
L 90.420425 251.830816 
L 93.401071 251.830816 
L 93.401071 251.6627 
L 96.381717 251.6627 
L 96.381717 251.492804 
L 99.362364 251.492804 
L 99.362364 251.275892 
L 102.34301 251.275892 
L 102.34301 250.975991 
L 105.323656 250.975991 
L 105.323656 250.603074 
L 108.304302 250.603074 
L 108.304302 250.187415 
L 111.284949 250.187415 
L 111.284949 249.486815 
L 114.265595 249.486815 
L 114.265595 248.9497 
L 117.246241 248.9497 
L 117.246241 248.077423 
L 120.226887 248.077423 
L 120.226887 247.198022 
L 123.207534 247.198022 
L 123.207534 246.126997 
L 126.18818 246.126997 
L 126.18818 244.920626 
L 129.168826 244.920626 
L 129.168826 243.53296 
L 132.149472 243.53296 
L 132.149472 242.05447 
L 135.130119 242.05447 
L 135.130119 240.193089 
L 138.110765 240.193089 
L 138.110765 238.470973 
L 141.091411 238.470973 
L 141.091411 236.336404 
L 144.072057 236.336404 
L 144.072057 234.390253 
L 147.052704 234.390253 
L 147.052704 231.79301 
L 150.03335 231.79301 
L 150.03335 228.843865 
L 153.013996 228.843865 
L 153.013996 226.357749 
L 155.994642 226.357749 
L 155.994642 223.181719 
L 158.975289 223.181719 
L 158.975289 220.236135 
L 161.955935 220.236135 
L 161.955935 216.509455 
L 164.936581 216.509455 
L 164.936581 212.937 
L 167.917227 212.937 
L 167.917227 208.426731 
L 170.897874 208.426731 
L 170.897874 204.215294 
L 173.87852 204.215294 
L 173.87852 199.838235 
L 176.859166 199.838235 
L 176.859166 194.326752 
L 179.839812 194.326752 
L 179.839812 189.942213 
L 182.820459 189.942213 
L 182.820459 183.625058 
L 185.801105 183.625058 
L 185.801105 178.765735 
L 188.781751 178.765735 
L 188.781751 172.81651 
L 191.762397 172.81651 
L 191.762397 166.736925 
L 194.743043 166.736925 
L 194.743043 162.458527 
L 197.72369 162.458527 
L 197.72369 156.301295 
L 200.704336 156.301295 
L 200.704336 151.168072 
L 203.684982 151.168072 
L 203.684982 145.681878 
L 206.665628 145.681878 
L 206.665628 138.87961 
L 209.646275 138.87961 
L 209.646275 135.20137 
L 212.626921 135.20137 
L 212.626921 129.56665 
L 215.607567 129.56665 
L 215.607567 123.129107 
L 218.588213 123.129107 
L 218.588213 118.690429 
L 221.56886 118.690429 
L 221.56886 114.14098 
L 224.549506 114.14098 
L 224.549506 109.7137 
L 227.530152 109.7137 
L 227.530152 106.349608 
L 230.510798 106.349608 
L 230.510798 102.432374 
L 233.491445 102.432374 
L 233.491445 98.869891 
L 236.472091 98.869891 
L 236.472091 96.964344 
L 239.452737 96.964344 
L 239.452737 93.295009 
L 242.433383 93.295009 
L 242.433383 90.402852 
L 245.41403 90.402852 
L 245.41403 88.552156 
L 248.394676 88.552156 
L 248.394676 87.661714 
L 251.375322 87.661714 
L 251.375322 84.686567 
L 254.355968 84.686567 
L 254.355968 84.545877 
L 257.336615 84.545877 
L 257.336615 84.697609 
L 260.317261 84.697609 
L 260.317261 83.296052 
L 263.297907 83.296052 
L 263.297907 83.836373 
L 266.278553 83.836373 
L 266.278553 83.512608 
L 269.2592 83.512608 
L 269.2592 84.030133 
L 275.220492 83.975282 
L 275.220492 84.681581 
L 278.201138 84.681581 
L 278.201138 86.923715 
L 281.181785 86.923715 
L 281.181785 88.335244 
L 284.162431 88.335244 
L 284.162431 90.357973 
L 287.143077 90.357973 
L 287.143077 92.413471 
L 290.123723 92.413471 
L 290.123723 93.225554 
L 293.10437 93.225554 
L 293.10437 95.393248 
L 296.085016 95.393248 
L 296.085016 97.681329 
L 299.065662 97.681329 
L 299.065662 98.905153 
L 302.046308 98.905153 
L 302.046308 101.330362 
L 305.026955 101.330362 
L 305.026955 104.306221 
L 308.007601 104.306221 
L 308.007601 106.894559 
L 310.988247 106.894559 
L 310.988247 108.303595 
L 313.968893 108.303595 
L 313.968893 110.600225 
L 316.94954 110.600225 
L 316.94954 113.175384 
L 319.930186 113.175384 
L 319.930186 114.584421 
L 322.910832 114.584421 
L 322.910832 117.345861 
L 325.891478 117.345861 
L 325.891478 121.076459 
L 328.872125 121.076459 
L 328.872125 123.490983 
L 331.852771 123.490983 
L 331.852771 126.783127 
L 334.833417 126.783127 
L 334.833417 130.055681 
L 337.814063 130.055681 
L 337.814063 134.311996 
L 340.794709 134.311996 
L 340.794709 139.292419 
L 343.775356 139.292419 
L 343.775356 144.239717 
L 346.756002 144.239717 
L 346.756002 149.763667 
L 349.736648 149.763667 
L 349.736648 157.90338 
L 352.717294 157.90338 
L 352.717294 166.693828 
L 355.697941 166.693828 
L 355.697941 176.905066 
L 358.678587 176.905066 
L 358.678587 190.670595 
L 361.659233 190.670595 
L 361.659233 205.007788 
L 364.639879 205.007788 
L 364.639879 221.529414 
L 367.620526 221.529414 
L 367.620526 238.266883 
L 370.601172 238.266883 
L 370.601172 248.815778 
L 373.581818 248.815778 
L 373.581818 252 
L 373.581818 252 
" style="fill:none;opacity:0.5;stroke:#00bf40;stroke-linejoin:miter;stroke-width:2;"/>
   </g>
   <g id="matplotlib.axis_1">
    <g id="xtick_1">
     <g id="line2d_1">
      <defs>
       <path d="M 0 0 
L 0 3.5 
" id="m99a392dfbd" style="stroke:#000000;stroke-width:0.8;"/>
      </defs>
      <g>
       <use style="stroke:#000000;stroke-width:0.8;" x="67.523664" xlink:href="#m99a392dfbd" y="252"/>
      </g>
     </g>
     <g id="text_1">
      <!-- −1.00 -->
      <defs>
       <path d="M 10.59375 35.5 
L 73.1875 35.5 
L 73.1875 27.203125 
L 10.59375 27.203125 
z
" id="DejaVuSans-8722"/>
       <path d="M 12.40625 8.296875 
L 28.515625 8.296875 
L 28.515625 63.921875 
L 10.984375 60.40625 
L 10.984375 69.390625 
L 28.421875 72.90625 
L 38.28125 72.90625 
L 38.28125 8.296875 
L 54.390625 8.296875 
L 54.390625 0 
L 12.40625 0 
z
" id="DejaVuSans-49"/>
       <path d="M 10.6875 12.40625 
L 21 12.40625 
L 21 0 
L 10.6875 0 
z
" id="DejaVuSans-46"/>
       <path d="M 31.78125 66.40625 
Q 24.171875 66.40625 20.328125 58.90625 
Q 16.5 51.421875 16.5 36.375 
Q 16.5 21.390625 20.328125 13.890625 
Q 24.171875 6.390625 31.78125 6.390625 
Q 39.453125 6.390625 43.28125 13.890625 
Q 47.125 21.390625 47.125 36.375 
Q 47.125 51.421875 43.28125 58.90625 
Q 39.453125 66.40625 31.78125 66.40625 
z
M 31.78125 74.21875 
Q 44.046875 74.21875 50.515625 64.515625 
Q 56.984375 54.828125 56.984375 36.375 
Q 56.984375 17.96875 50.515625 8.265625 
Q 44.046875 -1.421875 31.78125 -1.421875 
Q 19.53125 -1.421875 13.0625 8.265625 
Q 6.59375 17.96875 6.59375 36.375 
Q 6.59375 54.828125 13.0625 64.515625 
Q 19.53125 74.21875 31.78125 74.21875 
z
" id="DejaVuSans-48"/>
      </defs>
      <g transform="translate(52.201008 266.598437)scale(0.1 -0.1)">
       <use xlink:href="#DejaVuSans-8722"/>
       <use x="83.789062" xlink:href="#DejaVuSans-49"/>
       <use x="147.412109" xlink:href="#DejaVuSans-46"/>
       <use x="179.199219" xlink:href="#DejaVuSans-48"/>
       <use x="242.822266" xlink:href="#DejaVuSans-48"/>
      </g>
     </g>
    </g>
    <g id="xtick_2">
     <g id="line2d_2">
      <g>
       <use style="stroke:#000000;stroke-width:0.8;" x="105.780934" xlink:href="#m99a392dfbd" y="252"/>
      </g>
     </g>
     <g id="text_2">
      <!-- −0.75 -->
      <defs>
       <path d="M 8.203125 72.90625 
L 55.078125 72.90625 
L 55.078125 68.703125 
L 28.609375 0 
L 18.3125 0 
L 43.21875 64.59375 
L 8.203125 64.59375 
z
" id="DejaVuSans-55"/>
       <path d="M 10.796875 72.90625 
L 49.515625 72.90625 
L 49.515625 64.59375 
L 19.828125 64.59375 
L 19.828125 46.734375 
Q 21.96875 47.46875 24.109375 47.828125 
Q 26.265625 48.1875 28.421875 48.1875 
Q 40.625 48.1875 47.75 41.5 
Q 54.890625 34.8125 54.890625 23.390625 
Q 54.890625 11.625 47.5625 5.09375 
Q 40.234375 -1.421875 26.90625 -1.421875 
Q 22.3125 -1.421875 17.546875 -0.640625 
Q 12.796875 0.140625 7.71875 1.703125 
L 7.71875 11.625 
Q 12.109375 9.234375 16.796875 8.0625 
Q 21.484375 6.890625 26.703125 6.890625 
Q 35.15625 6.890625 40.078125 11.328125 
Q 45.015625 15.765625 45.015625 23.390625 
Q 45.015625 31 40.078125 35.4375 
Q 35.15625 39.890625 26.703125 39.890625 
Q 22.75 39.890625 18.8125 39.015625 
Q 14.890625 38.140625 10.796875 36.28125 
z
" id="DejaVuSans-53"/>
      </defs>
      <g transform="translate(90.458277 266.598437)scale(0.1 -0.1)">
       <use xlink:href="#DejaVuSans-8722"/>
       <use x="83.789062" xlink:href="#DejaVuSans-48"/>
       <use x="147.412109" xlink:href="#DejaVuSans-46"/>
       <use x="179.199219" xlink:href="#DejaVuSans-55"/>
       <use x="242.822266" xlink:href="#DejaVuSans-53"/>
      </g>
     </g>
    </g>
    <g id="xtick_3">
     <g id="line2d_3">
      <g>
       <use style="stroke:#000000;stroke-width:0.8;" x="144.038203" xlink:href="#m99a392dfbd" y="252"/>
      </g>
     </g>
     <g id="text_3">
      <!-- −0.50 -->
      <g transform="translate(128.715547 266.598437)scale(0.1 -0.1)">
       <use xlink:href="#DejaVuSans-8722"/>
       <use x="83.789062" xlink:href="#DejaVuSans-48"/>
       <use x="147.412109" xlink:href="#DejaVuSans-46"/>
       <use x="179.199219" xlink:href="#DejaVuSans-53"/>
       <use x="242.822266" xlink:href="#DejaVuSans-48"/>
      </g>
     </g>
    </g>
    <g id="xtick_4">
     <g id="line2d_4">
      <g>
       <use style="stroke:#000000;stroke-width:0.8;" x="182.295472" xlink:href="#m99a392dfbd" y="252"/>
      </g>
     </g>
     <g id="text_4">
      <!-- −0.25 -->
      <defs>
       <path d="M 19.1875 8.296875 
L 53.609375 8.296875 
L 53.609375 0 
L 7.328125 0 
L 7.328125 8.296875 
Q 12.9375 14.109375 22.625 23.890625 
Q 32.328125 33.6875 34.8125 36.53125 
Q 39.546875 41.84375 41.421875 45.53125 
Q 43.3125 49.21875 43.3125 52.78125 
Q 43.3125 58.59375 39.234375 62.25 
Q 35.15625 65.921875 28.609375 65.921875 
Q 23.96875 65.921875 18.8125 64.3125 
Q 13.671875 62.703125 7.8125 59.421875 
L 7.8125 69.390625 
Q 13.765625 71.78125 18.9375 73 
Q 24.125 74.21875 28.421875 74.21875 
Q 39.75 74.21875 46.484375 68.546875 
Q 53.21875 62.890625 53.21875 53.421875 
Q 53.21875 48.921875 51.53125 44.890625 
Q 49.859375 40.875 45.40625 35.40625 
Q 44.1875 33.984375 37.640625 27.21875 
Q 31.109375 20.453125 19.1875 8.296875 
z
" id="DejaVuSans-50"/>
      </defs>
      <g transform="translate(166.972816 266.598437)scale(0.1 -0.1)">
       <use xlink:href="#DejaVuSans-8722"/>
       <use x="83.789062" xlink:href="#DejaVuSans-48"/>
       <use x="147.412109" xlink:href="#DejaVuSans-46"/>
       <use x="179.199219" xlink:href="#DejaVuSans-50"/>
       <use x="242.822266" xlink:href="#DejaVuSans-53"/>
      </g>
     </g>
    </g>
    <g id="xtick_5">
     <g id="line2d_5">
      <g>
       <use style="stroke:#000000;stroke-width:0.8;" x="220.552741" xlink:href="#m99a392dfbd" y="252"/>
      </g>
     </g>
     <g id="text_5">
      <!-- 0.00 -->
      <g transform="translate(209.419929 266.598437)scale(0.1 -0.1)">
       <use xlink:href="#DejaVuSans-48"/>
       <use x="63.623047" xlink:href="#DejaVuSans-46"/>
       <use x="95.410156" xlink:href="#DejaVuSans-48"/>
       <use x="159.033203" xlink:href="#DejaVuSans-48"/>
      </g>
     </g>
    </g>
    <g id="xtick_6">
     <g id="line2d_6">
      <g>
       <use style="stroke:#000000;stroke-width:0.8;" x="258.810011" xlink:href="#m99a392dfbd" y="252"/>
      </g>
     </g>
     <g id="text_6">
      <!-- 0.25 -->
      <g transform="translate(247.677198 266.598437)scale(0.1 -0.1)">
       <use xlink:href="#DejaVuSans-48"/>
       <use x="63.623047" xlink:href="#DejaVuSans-46"/>
       <use x="95.410156" xlink:href="#DejaVuSans-50"/>
       <use x="159.033203" xlink:href="#DejaVuSans-53"/>
      </g>
     </g>
    </g>
    <g id="xtick_7">
     <g id="line2d_7">
      <g>
       <use style="stroke:#000000;stroke-width:0.8;" x="297.06728" xlink:href="#m99a392dfbd" y="252"/>
      </g>
     </g>
     <g id="text_7">
      <!-- 0.50 -->
      <g transform="translate(285.934467 266.598437)scale(0.1 -0.1)">
       <use xlink:href="#DejaVuSans-48"/>
       <use x="63.623047" xlink:href="#DejaVuSans-46"/>
       <use x="95.410156" xlink:href="#DejaVuSans-53"/>
       <use x="159.033203" xlink:href="#DejaVuSans-48"/>
      </g>
     </g>
    </g>
    <g id="xtick_8">
     <g id="line2d_8">
      <g>
       <use style="stroke:#000000;stroke-width:0.8;" x="335.324549" xlink:href="#m99a392dfbd" y="252"/>
      </g>
     </g>
     <g id="text_8">
      <!-- 0.75 -->
      <g transform="translate(324.191736 266.598437)scale(0.1 -0.1)">
       <use xlink:href="#DejaVuSans-48"/>
       <use x="63.623047" xlink:href="#DejaVuSans-46"/>
       <use x="95.410156" xlink:href="#DejaVuSans-55"/>
       <use x="159.033203" xlink:href="#DejaVuSans-53"/>
      </g>
     </g>
    </g>
    <g id="xtick_9">
     <g id="line2d_9">
      <g>
       <use style="stroke:#000000;stroke-width:0.8;" x="373.581818" xlink:href="#m99a392dfbd" y="252"/>
      </g>
     </g>
     <g id="text_9">
      <!-- 1.00 -->
      <g transform="translate(362.449006 266.598437)scale(0.1 -0.1)">
       <use xlink:href="#DejaVuSans-49"/>
       <use x="63.623047" xlink:href="#DejaVuSans-46"/>
       <use x="95.410156" xlink:href="#DejaVuSans-48"/>
       <use x="159.033203" xlink:href="#DejaVuSans-48"/>
      </g>
     </g>
    </g>
    <g id="text_10">
     <!-- cosine similarity -->
     <defs>
      <path d="M 48.78125 52.59375 
L 48.78125 44.1875 
Q 44.96875 46.296875 41.140625 47.34375 
Q 37.3125 48.390625 33.40625 48.390625 
Q 24.65625 48.390625 19.8125 42.84375 
Q 14.984375 37.3125 14.984375 27.296875 
Q 14.984375 17.28125 19.8125 11.734375 
Q 24.65625 6.203125 33.40625 6.203125 
Q 37.3125 6.203125 41.140625 7.25 
Q 44.96875 8.296875 48.78125 10.40625 
L 48.78125 2.09375 
Q 45.015625 0.34375 40.984375 -0.53125 
Q 36.96875 -1.421875 32.421875 -1.421875 
Q 20.0625 -1.421875 12.78125 6.34375 
Q 5.515625 14.109375 5.515625 27.296875 
Q 5.515625 40.671875 12.859375 48.328125 
Q 20.21875 56 33.015625 56 
Q 37.15625 56 41.109375 55.140625 
Q 45.0625 54.296875 48.78125 52.59375 
z
" id="DejaVuSans-99"/>
      <path d="M 30.609375 48.390625 
Q 23.390625 48.390625 19.1875 42.75 
Q 14.984375 37.109375 14.984375 27.296875 
Q 14.984375 17.484375 19.15625 11.84375 
Q 23.34375 6.203125 30.609375 6.203125 
Q 37.796875 6.203125 41.984375 11.859375 
Q 46.1875 17.53125 46.1875 27.296875 
Q 46.1875 37.015625 41.984375 42.703125 
Q 37.796875 48.390625 30.609375 48.390625 
z
M 30.609375 56 
Q 42.328125 56 49.015625 48.375 
Q 55.71875 40.765625 55.71875 27.296875 
Q 55.71875 13.875 49.015625 6.21875 
Q 42.328125 -1.421875 30.609375 -1.421875 
Q 18.84375 -1.421875 12.171875 6.21875 
Q 5.515625 13.875 5.515625 27.296875 
Q 5.515625 40.765625 12.171875 48.375 
Q 18.84375 56 30.609375 56 
z
" id="DejaVuSans-111"/>
      <path d="M 44.28125 53.078125 
L 44.28125 44.578125 
Q 40.484375 46.53125 36.375 47.5 
Q 32.28125 48.484375 27.875 48.484375 
Q 21.1875 48.484375 17.84375 46.4375 
Q 14.5 44.390625 14.5 40.28125 
Q 14.5 37.15625 16.890625 35.375 
Q 19.28125 33.59375 26.515625 31.984375 
L 29.59375 31.296875 
Q 39.15625 29.25 43.1875 25.515625 
Q 47.21875 21.78125 47.21875 15.09375 
Q 47.21875 7.46875 41.1875 3.015625 
Q 35.15625 -1.421875 24.609375 -1.421875 
Q 20.21875 -1.421875 15.453125 -0.5625 
Q 10.6875 0.296875 5.421875 2 
L 5.421875 11.28125 
Q 10.40625 8.6875 15.234375 7.390625 
Q 20.0625 6.109375 24.8125 6.109375 
Q 31.15625 6.109375 34.5625 8.28125 
Q 37.984375 10.453125 37.984375 14.40625 
Q 37.984375 18.0625 35.515625 20.015625 
Q 33.0625 21.96875 24.703125 23.78125 
L 21.578125 24.515625 
Q 13.234375 26.265625 9.515625 29.90625 
Q 5.8125 33.546875 5.8125 39.890625 
Q 5.8125 47.609375 11.28125 51.796875 
Q 16.75 56 26.8125 56 
Q 31.78125 56 36.171875 55.265625 
Q 40.578125 54.546875 44.28125 53.078125 
z
" id="DejaVuSans-115"/>
      <path d="M 9.421875 54.6875 
L 18.40625 54.6875 
L 18.40625 0 
L 9.421875 0 
z
M 9.421875 75.984375 
L 18.40625 75.984375 
L 18.40625 64.59375 
L 9.421875 64.59375 
z
" id="DejaVuSans-105"/>
      <path d="M 54.890625 33.015625 
L 54.890625 0 
L 45.90625 0 
L 45.90625 32.71875 
Q 45.90625 40.484375 42.875 44.328125 
Q 39.84375 48.1875 33.796875 48.1875 
Q 26.515625 48.1875 22.3125 43.546875 
Q 18.109375 38.921875 18.109375 30.90625 
L 18.109375 0 
L 9.078125 0 
L 9.078125 54.6875 
L 18.109375 54.6875 
L 18.109375 46.1875 
Q 21.34375 51.125 25.703125 53.5625 
Q 30.078125 56 35.796875 56 
Q 45.21875 56 50.046875 50.171875 
Q 54.890625 44.34375 54.890625 33.015625 
z
" id="DejaVuSans-110"/>
      <path d="M 56.203125 29.59375 
L 56.203125 25.203125 
L 14.890625 25.203125 
Q 15.484375 15.921875 20.484375 11.0625 
Q 25.484375 6.203125 34.421875 6.203125 
Q 39.59375 6.203125 44.453125 7.46875 
Q 49.3125 8.734375 54.109375 11.28125 
L 54.109375 2.78125 
Q 49.265625 0.734375 44.1875 -0.34375 
Q 39.109375 -1.421875 33.890625 -1.421875 
Q 20.796875 -1.421875 13.15625 6.1875 
Q 5.515625 13.8125 5.515625 26.8125 
Q 5.515625 40.234375 12.765625 48.109375 
Q 20.015625 56 32.328125 56 
Q 43.359375 56 49.78125 48.890625 
Q 56.203125 41.796875 56.203125 29.59375 
z
M 47.21875 32.234375 
Q 47.125 39.59375 43.09375 43.984375 
Q 39.0625 48.390625 32.421875 48.390625 
Q 24.90625 48.390625 20.390625 44.140625 
Q 15.875 39.890625 15.1875 32.171875 
z
" id="DejaVuSans-101"/>
      <path id="DejaVuSans-32"/>
      <path d="M 52 44.1875 
Q 55.375 50.25 60.0625 53.125 
Q 64.75 56 71.09375 56 
Q 79.640625 56 84.28125 50.015625 
Q 88.921875 44.046875 88.921875 33.015625 
L 88.921875 0 
L 79.890625 0 
L 79.890625 32.71875 
Q 79.890625 40.578125 77.09375 44.375 
Q 74.3125 48.1875 68.609375 48.1875 
Q 61.625 48.1875 57.5625 43.546875 
Q 53.515625 38.921875 53.515625 30.90625 
L 53.515625 0 
L 44.484375 0 
L 44.484375 32.71875 
Q 44.484375 40.625 41.703125 44.40625 
Q 38.921875 48.1875 33.109375 48.1875 
Q 26.21875 48.1875 22.15625 43.53125 
Q 18.109375 38.875 18.109375 30.90625 
L 18.109375 0 
L 9.078125 0 
L 9.078125 54.6875 
L 18.109375 54.6875 
L 18.109375 46.1875 
Q 21.1875 51.21875 25.484375 53.609375 
Q 29.78125 56 35.6875 56 
Q 41.65625 56 45.828125 52.96875 
Q 50 49.953125 52 44.1875 
z
" id="DejaVuSans-109"/>
      <path d="M 9.421875 75.984375 
L 18.40625 75.984375 
L 18.40625 0 
L 9.421875 0 
z
" id="DejaVuSans-108"/>
      <path d="M 34.28125 27.484375 
Q 23.390625 27.484375 19.1875 25 
Q 14.984375 22.515625 14.984375 16.5 
Q 14.984375 11.71875 18.140625 8.90625 
Q 21.296875 6.109375 26.703125 6.109375 
Q 34.1875 6.109375 38.703125 11.40625 
Q 43.21875 16.703125 43.21875 25.484375 
L 43.21875 27.484375 
z
M 52.203125 31.203125 
L 52.203125 0 
L 43.21875 0 
L 43.21875 8.296875 
Q 40.140625 3.328125 35.546875 0.953125 
Q 30.953125 -1.421875 24.3125 -1.421875 
Q 15.921875 -1.421875 10.953125 3.296875 
Q 6 8.015625 6 15.921875 
Q 6 25.140625 12.171875 29.828125 
Q 18.359375 34.515625 30.609375 34.515625 
L 43.21875 34.515625 
L 43.21875 35.40625 
Q 43.21875 41.609375 39.140625 45 
Q 35.0625 48.390625 27.6875 48.390625 
Q 23 48.390625 18.546875 47.265625 
Q 14.109375 46.140625 10.015625 43.890625 
L 10.015625 52.203125 
Q 14.9375 54.109375 19.578125 55.046875 
Q 24.21875 56 28.609375 56 
Q 40.484375 56 46.34375 49.84375 
Q 52.203125 43.703125 52.203125 31.203125 
z
" id="DejaVuSans-97"/>
      <path d="M 41.109375 46.296875 
Q 39.59375 47.171875 37.8125 47.578125 
Q 36.03125 48 33.890625 48 
Q 26.265625 48 22.1875 43.046875 
Q 18.109375 38.09375 18.109375 28.8125 
L 18.109375 0 
L 9.078125 0 
L 9.078125 54.6875 
L 18.109375 54.6875 
L 18.109375 46.1875 
Q 20.953125 51.171875 25.484375 53.578125 
Q 30.03125 56 36.53125 56 
Q 37.453125 56 38.578125 55.875 
Q 39.703125 55.765625 41.0625 55.515625 
z
" id="DejaVuSans-114"/>
      <path d="M 18.3125 70.21875 
L 18.3125 54.6875 
L 36.8125 54.6875 
L 36.8125 47.703125 
L 18.3125 47.703125 
L 18.3125 18.015625 
Q 18.3125 11.328125 20.140625 9.421875 
Q 21.96875 7.515625 27.59375 7.515625 
L 36.8125 7.515625 
L 36.8125 0 
L 27.59375 0 
Q 17.1875 0 13.234375 3.875 
Q 9.28125 7.765625 9.28125 18.015625 
L 9.28125 47.703125 
L 2.6875 47.703125 
L 2.6875 54.6875 
L 9.28125 54.6875 
L 9.28125 70.21875 
z
" id="DejaVuSans-116"/>
      <path d="M 32.171875 -5.078125 
Q 28.375 -14.84375 24.75 -17.8125 
Q 21.140625 -20.796875 15.09375 -20.796875 
L 7.90625 -20.796875 
L 7.90625 -13.28125 
L 13.1875 -13.28125 
Q 16.890625 -13.28125 18.9375 -11.515625 
Q 21 -9.765625 23.484375 -3.21875 
L 25.09375 0.875 
L 2.984375 54.6875 
L 12.5 54.6875 
L 29.59375 11.921875 
L 46.6875 54.6875 
L 56.203125 54.6875 
z
" id="DejaVuSans-121"/>
     </defs>
     <g transform="translate(180.692969 280.276563)scale(0.1 -0.1)">
      <use xlink:href="#DejaVuSans-99"/>
      <use x="54.980469" xlink:href="#DejaVuSans-111"/>
      <use x="116.162109" xlink:href="#DejaVuSans-115"/>
      <use x="168.261719" xlink:href="#DejaVuSans-105"/>
      <use x="196.044922" xlink:href="#DejaVuSans-110"/>
      <use x="259.423828" xlink:href="#DejaVuSans-101"/>
      <use x="320.947266" xlink:href="#DejaVuSans-32"/>
      <use x="352.734375" xlink:href="#DejaVuSans-115"/>
      <use x="404.833984" xlink:href="#DejaVuSans-105"/>
      <use x="432.617188" xlink:href="#DejaVuSans-109"/>
      <use x="530.029297" xlink:href="#DejaVuSans-105"/>
      <use x="557.8125" xlink:href="#DejaVuSans-108"/>
      <use x="585.595703" xlink:href="#DejaVuSans-97"/>
      <use x="646.875" xlink:href="#DejaVuSans-114"/>
      <use x="687.988281" xlink:href="#DejaVuSans-105"/>
      <use x="715.771484" xlink:href="#DejaVuSans-116"/>
      <use x="754.980469" xlink:href="#DejaVuSans-121"/>
     </g>
    </g>
   </g>
   <g id="matplotlib.axis_2">
    <g id="ytick_1">
     <g id="line2d_10">
      <defs>
       <path d="M 0 0 
L -3.5 0 
" id="m97d3af086b" style="stroke:#000000;stroke-width:0.8;"/>
      </defs>
      <g>
       <use style="stroke:#000000;stroke-width:0.8;" x="54" xlink:href="#m97d3af086b" y="252"/>
      </g>
     </g>
     <g id="text_11">
      <!-- 0.0 -->
      <g transform="translate(31.096875 255.799219)scale(0.1 -0.1)">
       <use xlink:href="#DejaVuSans-48"/>
       <use x="63.623047" xlink:href="#DejaVuSans-46"/>
       <use x="95.410156" xlink:href="#DejaVuSans-48"/>
      </g>
     </g>
    </g>
    <g id="ytick_2">
     <g id="line2d_11">
      <g>
       <use style="stroke:#000000;stroke-width:0.8;" x="54" xlink:href="#m97d3af086b" y="218.098918"/>
      </g>
     </g>
     <g id="text_12">
      <!-- 0.2 -->
      <g transform="translate(31.096875 221.898136)scale(0.1 -0.1)">
       <use xlink:href="#DejaVuSans-48"/>
       <use x="63.623047" xlink:href="#DejaVuSans-46"/>
       <use x="95.410156" xlink:href="#DejaVuSans-50"/>
      </g>
     </g>
    </g>
    <g id="ytick_3">
     <g id="line2d_12">
      <g>
       <use style="stroke:#000000;stroke-width:0.8;" x="54" xlink:href="#m97d3af086b" y="184.197835"/>
      </g>
     </g>
     <g id="text_13">
      <!-- 0.4 -->
      <defs>
       <path d="M 37.796875 64.3125 
L 12.890625 25.390625 
L 37.796875 25.390625 
z
M 35.203125 72.90625 
L 47.609375 72.90625 
L 47.609375 25.390625 
L 58.015625 25.390625 
L 58.015625 17.1875 
L 47.609375 17.1875 
L 47.609375 0 
L 37.796875 0 
L 37.796875 17.1875 
L 4.890625 17.1875 
L 4.890625 26.703125 
z
" id="DejaVuSans-52"/>
      </defs>
      <g transform="translate(31.096875 187.997054)scale(0.1 -0.1)">
       <use xlink:href="#DejaVuSans-48"/>
       <use x="63.623047" xlink:href="#DejaVuSans-46"/>
       <use x="95.410156" xlink:href="#DejaVuSans-52"/>
      </g>
     </g>
    </g>
    <g id="ytick_4">
     <g id="line2d_13">
      <g>
       <use style="stroke:#000000;stroke-width:0.8;" x="54" xlink:href="#m97d3af086b" y="150.296753"/>
      </g>
     </g>
     <g id="text_14">
      <!-- 0.6 -->
      <defs>
       <path d="M 33.015625 40.375 
Q 26.375 40.375 22.484375 35.828125 
Q 18.609375 31.296875 18.609375 23.390625 
Q 18.609375 15.53125 22.484375 10.953125 
Q 26.375 6.390625 33.015625 6.390625 
Q 39.65625 6.390625 43.53125 10.953125 
Q 47.40625 15.53125 47.40625 23.390625 
Q 47.40625 31.296875 43.53125 35.828125 
Q 39.65625 40.375 33.015625 40.375 
z
M 52.59375 71.296875 
L 52.59375 62.3125 
Q 48.875 64.0625 45.09375 64.984375 
Q 41.3125 65.921875 37.59375 65.921875 
Q 27.828125 65.921875 22.671875 59.328125 
Q 17.53125 52.734375 16.796875 39.40625 
Q 19.671875 43.65625 24.015625 45.921875 
Q 28.375 48.1875 33.59375 48.1875 
Q 44.578125 48.1875 50.953125 41.515625 
Q 57.328125 34.859375 57.328125 23.390625 
Q 57.328125 12.15625 50.6875 5.359375 
Q 44.046875 -1.421875 33.015625 -1.421875 
Q 20.359375 -1.421875 13.671875 8.265625 
Q 6.984375 17.96875 6.984375 36.375 
Q 6.984375 53.65625 15.1875 63.9375 
Q 23.390625 74.21875 37.203125 74.21875 
Q 40.921875 74.21875 44.703125 73.484375 
Q 48.484375 72.75 52.59375 71.296875 
z
" id="DejaVuSans-54"/>
      </defs>
      <g transform="translate(31.096875 154.095972)scale(0.1 -0.1)">
       <use xlink:href="#DejaVuSans-48"/>
       <use x="63.623047" xlink:href="#DejaVuSans-46"/>
       <use x="95.410156" xlink:href="#DejaVuSans-54"/>
      </g>
     </g>
    </g>
    <g id="ytick_5">
     <g id="line2d_14">
      <g>
       <use style="stroke:#000000;stroke-width:0.8;" x="54" xlink:href="#m97d3af086b" y="116.395671"/>
      </g>
     </g>
     <g id="text_15">
      <!-- 0.8 -->
      <defs>
       <path d="M 31.78125 34.625 
Q 24.75 34.625 20.71875 30.859375 
Q 16.703125 27.09375 16.703125 20.515625 
Q 16.703125 13.921875 20.71875 10.15625 
Q 24.75 6.390625 31.78125 6.390625 
Q 38.8125 6.390625 42.859375 10.171875 
Q 46.921875 13.96875 46.921875 20.515625 
Q 46.921875 27.09375 42.890625 30.859375 
Q 38.875 34.625 31.78125 34.625 
z
M 21.921875 38.8125 
Q 15.578125 40.375 12.03125 44.71875 
Q 8.5 49.078125 8.5 55.328125 
Q 8.5 64.0625 14.71875 69.140625 
Q 20.953125 74.21875 31.78125 74.21875 
Q 42.671875 74.21875 48.875 69.140625 
Q 55.078125 64.0625 55.078125 55.328125 
Q 55.078125 49.078125 51.53125 44.71875 
Q 48 40.375 41.703125 38.8125 
Q 48.828125 37.15625 52.796875 32.3125 
Q 56.78125 27.484375 56.78125 20.515625 
Q 56.78125 9.90625 50.3125 4.234375 
Q 43.84375 -1.421875 31.78125 -1.421875 
Q 19.734375 -1.421875 13.25 4.234375 
Q 6.78125 9.90625 6.78125 20.515625 
Q 6.78125 27.484375 10.78125 32.3125 
Q 14.796875 37.15625 21.921875 38.8125 
z
M 18.3125 54.390625 
Q 18.3125 48.734375 21.84375 45.5625 
Q 25.390625 42.390625 31.78125 42.390625 
Q 38.140625 42.390625 41.71875 45.5625 
Q 45.3125 48.734375 45.3125 54.390625 
Q 45.3125 60.0625 41.71875 63.234375 
Q 38.140625 66.40625 31.78125 66.40625 
Q 25.390625 66.40625 21.84375 63.234375 
Q 18.3125 60.0625 18.3125 54.390625 
z
" id="DejaVuSans-56"/>
      </defs>
      <g transform="translate(31.096875 120.194889)scale(0.1 -0.1)">
       <use xlink:href="#DejaVuSans-48"/>
       <use x="63.623047" xlink:href="#DejaVuSans-46"/>
       <use x="95.410156" xlink:href="#DejaVuSans-56"/>
      </g>
     </g>
    </g>
    <g id="ytick_6">
     <g id="line2d_15">
      <g>
       <use style="stroke:#000000;stroke-width:0.8;" x="54" xlink:href="#m97d3af086b" y="82.494588"/>
      </g>
     </g>
     <g id="text_16">
      <!-- 1.0 -->
      <g transform="translate(31.096875 86.293807)scale(0.1 -0.1)">
       <use xlink:href="#DejaVuSans-49"/>
       <use x="63.623047" xlink:href="#DejaVuSans-46"/>
       <use x="95.410156" xlink:href="#DejaVuSans-48"/>
      </g>
     </g>
    </g>
    <g id="ytick_7">
     <g id="line2d_16">
      <g>
       <use style="stroke:#000000;stroke-width:0.8;" x="54" xlink:href="#m97d3af086b" y="48.593506"/>
      </g>
     </g>
     <g id="text_17">
      <!-- 1.2 -->
      <g transform="translate(31.096875 52.392725)scale(0.1 -0.1)">
       <use xlink:href="#DejaVuSans-49"/>
       <use x="63.623047" xlink:href="#DejaVuSans-46"/>
       <use x="95.410156" xlink:href="#DejaVuSans-50"/>
      </g>
     </g>
    </g>
    <g id="text_18">
     <!-- density -->
     <defs>
      <path d="M 45.40625 46.390625 
L 45.40625 75.984375 
L 54.390625 75.984375 
L 54.390625 0 
L 45.40625 0 
L 45.40625 8.203125 
Q 42.578125 3.328125 38.25 0.953125 
Q 33.9375 -1.421875 27.875 -1.421875 
Q 17.96875 -1.421875 11.734375 6.484375 
Q 5.515625 14.40625 5.515625 27.296875 
Q 5.515625 40.1875 11.734375 48.09375 
Q 17.96875 56 27.875 56 
Q 33.9375 56 38.25 53.625 
Q 42.578125 51.265625 45.40625 46.390625 
z
M 14.796875 27.296875 
Q 14.796875 17.390625 18.875 11.75 
Q 22.953125 6.109375 30.078125 6.109375 
Q 37.203125 6.109375 41.296875 11.75 
Q 45.40625 17.390625 45.40625 27.296875 
Q 45.40625 37.203125 41.296875 42.84375 
Q 37.203125 48.484375 30.078125 48.484375 
Q 22.953125 48.484375 18.875 42.84375 
Q 14.796875 37.203125 14.796875 27.296875 
z
" id="DejaVuSans-100"/>
     </defs>
     <g transform="translate(25.017187 161.612813)rotate(-90)scale(0.1 -0.1)">
      <use xlink:href="#DejaVuSans-100"/>
      <use x="63.476562" xlink:href="#DejaVuSans-101"/>
      <use x="125" xlink:href="#DejaVuSans-110"/>
      <use x="188.378906" xlink:href="#DejaVuSans-115"/>
      <use x="240.478516" xlink:href="#DejaVuSans-105"/>
      <use x="268.261719" xlink:href="#DejaVuSans-116"/>
      <use x="307.470703" xlink:href="#DejaVuSans-121"/>
     </g>
    </g>
   </g>
   <g id="patch_7">
    <path d="M 54 252 
L 54 34.56 
" style="fill:none;stroke:#000000;stroke-linecap:square;stroke-linejoin:miter;stroke-width:0.8;"/>
   </g>
   <g id="patch_8">
    <path d="M 388.8 252 
L 388.8 34.56 
" style="fill:none;stroke:#000000;stroke-linecap:square;stroke-linejoin:miter;stroke-width:0.8;"/>
   </g>
   <g id="patch_9">
    <path d="M 54 252 
L 388.8 252 
" style="fill:none;stroke:#000000;stroke-linecap:square;stroke-linejoin:miter;stroke-width:0.8;"/>
   </g>
   <g id="patch_10">
    <path d="M 54 34.56 
L 388.8 34.56 
" style="fill:none;stroke:#000000;stroke-linecap:square;stroke-linejoin:miter;stroke-width:0.8;"/>
   </g>
   <g id="text_19">
    <!-- x-validation emb_w2v_wiki_pm_pmc -->
    <defs>
     <path d="M 54.890625 54.6875 
L 35.109375 28.078125 
L 55.90625 0 
L 45.3125 0 
L 29.390625 21.484375 
L 13.484375 0 
L 2.875 0 
L 24.125 28.609375 
L 4.6875 54.6875 
L 15.28125 54.6875 
L 29.78125 35.203125 
L 44.28125 54.6875 
z
" id="DejaVuSans-120"/>
     <path d="M 4.890625 31.390625 
L 31.203125 31.390625 
L 31.203125 23.390625 
L 4.890625 23.390625 
z
" id="DejaVuSans-45"/>
     <path d="M 2.984375 54.6875 
L 12.5 54.6875 
L 29.59375 8.796875 
L 46.6875 54.6875 
L 56.203125 54.6875 
L 35.6875 0 
L 23.484375 0 
z
" id="DejaVuSans-118"/>
     <path d="M 48.6875 27.296875 
Q 48.6875 37.203125 44.609375 42.84375 
Q 40.53125 48.484375 33.40625 48.484375 
Q 26.265625 48.484375 22.1875 42.84375 
Q 18.109375 37.203125 18.109375 27.296875 
Q 18.109375 17.390625 22.1875 11.75 
Q 26.265625 6.109375 33.40625 6.109375 
Q 40.53125 6.109375 44.609375 11.75 
Q 48.6875 17.390625 48.6875 27.296875 
z
M 18.109375 46.390625 
Q 20.953125 51.265625 25.265625 53.625 
Q 29.59375 56 35.59375 56 
Q 45.5625 56 51.78125 48.09375 
Q 58.015625 40.1875 58.015625 27.296875 
Q 58.015625 14.40625 51.78125 6.484375 
Q 45.5625 -1.421875 35.59375 -1.421875 
Q 29.59375 -1.421875 25.265625 0.953125 
Q 20.953125 3.328125 18.109375 8.203125 
L 18.109375 0 
L 9.078125 0 
L 9.078125 75.984375 
L 18.109375 75.984375 
z
" id="DejaVuSans-98"/>
     <path d="M 50.984375 -16.609375 
L 50.984375 -23.578125 
L -0.984375 -23.578125 
L -0.984375 -16.609375 
z
" id="DejaVuSans-95"/>
     <path d="M 4.203125 54.6875 
L 13.1875 54.6875 
L 24.421875 12.015625 
L 35.59375 54.6875 
L 46.1875 54.6875 
L 57.421875 12.015625 
L 68.609375 54.6875 
L 77.59375 54.6875 
L 63.28125 0 
L 52.6875 0 
L 40.921875 44.828125 
L 29.109375 0 
L 18.5 0 
z
" id="DejaVuSans-119"/>
     <path d="M 9.078125 75.984375 
L 18.109375 75.984375 
L 18.109375 31.109375 
L 44.921875 54.6875 
L 56.390625 54.6875 
L 27.390625 29.109375 
L 57.625 0 
L 45.90625 0 
L 18.109375 26.703125 
L 18.109375 0 
L 9.078125 0 
z
" id="DejaVuSans-107"/>
     <path d="M 18.109375 8.203125 
L 18.109375 -20.796875 
L 9.078125 -20.796875 
L 9.078125 54.6875 
L 18.109375 54.6875 
L 18.109375 46.390625 
Q 20.953125 51.265625 25.265625 53.625 
Q 29.59375 56 35.59375 56 
Q 45.5625 56 51.78125 48.09375 
Q 58.015625 40.1875 58.015625 27.296875 
Q 58.015625 14.40625 51.78125 6.484375 
Q 45.5625 -1.421875 35.59375 -1.421875 
Q 29.59375 -1.421875 25.265625 0.953125 
Q 20.953125 3.328125 18.109375 8.203125 
z
M 48.6875 27.296875 
Q 48.6875 37.203125 44.609375 42.84375 
Q 40.53125 48.484375 33.40625 48.484375 
Q 26.265625 48.484375 22.1875 42.84375 
Q 18.109375 37.203125 18.109375 27.296875 
Q 18.109375 17.390625 22.1875 11.75 
Q 26.265625 6.109375 33.40625 6.109375 
Q 40.53125 6.109375 44.609375 11.75 
Q 48.6875 17.390625 48.6875 27.296875 
z
" id="DejaVuSans-112"/>
    </defs>
    <g transform="translate(112.296563 28.56)scale(0.12 -0.12)">
     <use xlink:href="#DejaVuSans-120"/>
     <use x="59.179688" xlink:href="#DejaVuSans-45"/>
     <use x="95.232422" xlink:href="#DejaVuSans-118"/>
     <use x="154.412109" xlink:href="#DejaVuSans-97"/>
     <use x="215.691406" xlink:href="#DejaVuSans-108"/>
     <use x="243.474609" xlink:href="#DejaVuSans-105"/>
     <use x="271.257812" xlink:href="#DejaVuSans-100"/>
     <use x="334.734375" xlink:href="#DejaVuSans-97"/>
     <use x="396.013672" xlink:href="#DejaVuSans-116"/>
     <use x="435.222656" xlink:href="#DejaVuSans-105"/>
     <use x="463.005859" xlink:href="#DejaVuSans-111"/>
     <use x="524.1875" xlink:href="#DejaVuSans-110"/>
     <use x="587.566406" xlink:href="#DejaVuSans-32"/>
     <use x="619.353516" xlink:href="#DejaVuSans-101"/>
     <use x="680.876953" xlink:href="#DejaVuSans-109"/>
     <use x="778.289062" xlink:href="#DejaVuSans-98"/>
     <use x="841.765625" xlink:href="#DejaVuSans-95"/>
     <use x="891.765625" xlink:href="#DejaVuSans-119"/>
     <use x="973.552734" xlink:href="#DejaVuSans-50"/>
     <use x="1037.175781" xlink:href="#DejaVuSans-118"/>
     <use x="1096.355469" xlink:href="#DejaVuSans-95"/>
     <use x="1146.355469" xlink:href="#DejaVuSans-119"/>
     <use x="1228.142578" xlink:href="#DejaVuSans-105"/>
     <use x="1255.925781" xlink:href="#DejaVuSans-107"/>
     <use x="1313.835938" xlink:href="#DejaVuSans-105"/>
     <use x="1341.619141" xlink:href="#DejaVuSans-95"/>
     <use x="1391.619141" xlink:href="#DejaVuSans-112"/>
     <use x="1455.095703" xlink:href="#DejaVuSans-109"/>
     <use x="1552.507812" xlink:href="#DejaVuSans-95"/>
     <use x="1602.507812" xlink:href="#DejaVuSans-112"/>
     <use x="1665.984375" xlink:href="#DejaVuSans-109"/>
     <use x="1763.396484" xlink:href="#DejaVuSans-99"/>
    </g>
   </g>
  </g>
 </g>
 <defs>
  <clipPath id="p5bcce82a58">
   <rect height="217.44" width="334.8" x="54" y="34.56"/>
  </clipPath>
 </defs>
</svg>
