<?xml version="1.0" encoding="utf-8" standalone="no"?>
<!DOCTYPE svg PUBLIC "-//W3C//DTD SVG 1.1//EN"
  "http://www.w3.org/Graphics/SVG/1.1/DTD/svg11.dtd">
<!-- Created with matplotlib (https://matplotlib.org/) -->
<svg height="288pt" version="1.1" viewBox="0 0 432 288" width="432pt" xmlns="http://www.w3.org/2000/svg" xmlns:xlink="http://www.w3.org/1999/xlink">
 <defs>
  <style type="text/css">
*{stroke-linecap:butt;stroke-linejoin:round;}
  </style>
 </defs>
 <g id="figure_1">
  <g id="patch_1">
   <path d="M 0 288 
L 432 288 
L 432 0 
L 0 0 
z
" style="fill:#ffffff;"/>
  </g>
  <g id="axes_1">
   <g id="patch_2">
    <path d="M 54 252 
L 388.8 252 
L 388.8 34.56 
L 54 34.56 
z
" style="fill:#ffffff;"/>
   </g>
   <g id="patch_3">
    <path clip-path="url(#p0d231e7a35)" d="M 70.419656 252 
L 70.419656 251.995831 
L 79.514521 251.945374 
L 79.514521 251.871773 
L 82.546143 251.871773 
L 82.546143 251.690281 
L 85.577764 251.690281 
L 85.577764 251.422596 
L 88.609386 251.422596 
L 88.609386 251.021068 
L 91.641008 251.021068 
L 91.641008 250.334922 
L 94.672629 250.334922 
L 94.672629 249.524039 
L 97.704251 249.524039 
L 97.704251 248.398586 
L 100.735872 248.398586 
L 100.735872 246.869053 
L 103.767494 246.869053 
L 103.767494 245.267706 
L 106.799116 245.267706 
L 106.799116 243.056452 
L 109.830737 243.056452 
L 109.830737 240.584319 
L 112.862359 240.584319 
L 112.862359 237.687089 
L 115.893981 237.687089 
L 115.893981 234.507965 
L 118.925602 234.507965 
L 118.925602 230.93531 
L 121.957224 230.93531 
L 121.957224 227.063403 
L 124.988845 227.063403 
L 124.988845 222.893945 
L 128.020467 222.893945 
L 128.020467 218.57201 
L 131.052089 218.57201 
L 131.052089 213.892027 
L 134.08371 213.892027 
L 134.08371 208.916279 
L 137.115332 208.916279 
L 137.115332 203.945977 
L 140.146954 203.945977 
L 140.146954 198.450515 
L 143.178575 198.450515 
L 143.178575 193.381342 
L 146.210197 193.381342 
L 146.210197 187.591477 
L 149.241818 187.591477 
L 149.241818 182.04743 
L 152.27344 182.04743 
L 152.27344 176.485429 
L 155.305062 176.485429 
L 155.305062 171.152655 
L 158.336683 171.152655 
L 158.336683 165.320161 
L 161.368305 165.320161 
L 161.368305 159.879581 
L 164.399926 159.879581 
L 164.399926 154.606112 
L 167.431548 154.606112 
L 167.431548 148.92601 
L 170.46317 148.92601 
L 170.46317 144.013142 
L 173.494791 144.013142 
L 173.494791 139.136862 
L 176.526413 139.136862 
L 176.526413 134.142991 
L 179.558035 134.142991 
L 179.558035 129.585959 
L 182.589656 129.585959 
L 182.589656 125.360003 
L 185.621278 125.360003 
L 185.621278 120.977911 
L 188.652899 120.977911 
L 188.652899 116.85942 
L 191.684521 116.85942 
L 191.684521 113.896247 
L 194.716143 113.896247 
L 194.716143 110.675174 
L 197.747764 110.675174 
L 197.747764 107.526681 
L 200.779386 107.526681 
L 200.779386 105.252037 
L 203.811008 105.252037 
L 203.811008 103.09192 
L 206.842629 103.09192 
L 206.842629 101.081387 
L 209.874251 101.081387 
L 209.874251 99.318459 
L 212.905872 99.318459 
L 212.905872 97.708774 
L 215.937494 97.708774 
L 215.937494 97.074276 
L 218.969116 97.074276 
L 218.969116 95.18644 
L 222.000737 95.18644 
L 222.000737 94.871956 
L 225.032359 94.871956 
L 225.032359 94.522076 
L 228.06398 94.522076 
L 228.06398 94.204445 
L 231.095602 94.204445 
L 231.095602 94.401592 
L 237.158845 94.471364 
L 237.158845 95.047236 
L 240.190467 95.047236 
L 240.190467 95.809195 
L 243.222089 95.809195 
L 243.222089 96.66977 
L 246.25371 96.66977 
L 246.25371 97.412074 
L 249.285332 97.412074 
L 249.285332 98.700979 
L 252.316953 98.700979 
L 252.316953 100.268376 
L 255.348575 100.268376 
L 255.348575 102.350042 
L 258.380197 102.350042 
L 258.380197 103.438482 
L 261.411818 103.438482 
L 261.411818 105.709127 
L 264.44344 105.709127 
L 264.44344 108.07958 
L 267.475062 108.07958 
L 267.475062 109.634554 
L 270.506683 109.634554 
L 270.506683 112.406025 
L 273.538305 112.406025 
L 273.538305 114.610642 
L 276.569926 114.610642 
L 276.569926 116.826151 
L 279.601548 116.826151 
L 279.601548 119.599663 
L 282.63317 119.599663 
L 282.63317 122.513145 
L 285.664791 122.513145 
L 285.664791 125.342219 
L 288.696413 125.342219 
L 288.696413 128.268379 
L 291.728034 128.268379 
L 291.728034 131.068439 
L 294.759656 131.068439 
L 294.759656 134.746942 
L 297.791278 134.746942 
L 297.791278 138.203452 
L 300.822899 138.203452 
L 300.822899 141.735264 
L 303.854521 141.735264 
L 303.854521 145.110601 
L 306.886143 145.110601 
L 306.886143 148.559708 
L 309.917764 148.559708 
L 309.917764 152.370267 
L 312.949386 152.370267 
L 312.949386 156.131476 
L 315.981007 156.131476 
L 315.981007 160.118591 
L 319.012629 160.118591 
L 319.012629 164.17633 
L 322.044251 164.17633 
L 322.044251 168.298394 
L 325.075872 168.298394 
L 325.075872 172.450324 
L 328.107494 172.450324 
L 328.107494 176.643267 
L 331.139116 176.643267 
L 331.139116 181.501253 
L 334.170737 181.501253 
L 334.170737 185.836292 
L 337.202359 185.836292 
L 337.202359 190.836289 
L 340.23398 190.836289 
L 340.23398 195.719802 
L 343.265602 195.719802 
L 343.265602 200.679297 
L 346.297224 200.679297 
L 346.297224 205.769062 
L 349.328845 205.769062 
L 349.328845 211.587261 
L 352.360467 211.587261 
L 352.360467 217.033628 
L 355.392088 217.033628 
L 355.392088 223.087349 
L 358.42371 223.087349 
L 358.42371 228.820035 
L 361.455332 228.820035 
L 361.455332 235.088176 
L 364.486953 235.088176 
L 364.486953 241.404563 
L 367.518575 241.404563 
L 367.518575 247.176644 
L 370.550197 247.176644 
L 370.550197 250.705649 
L 373.581818 250.705649 
L 373.581818 252 
L 373.581818 252 
" style="fill:none;opacity:0.5;stroke:#008080;stroke-linejoin:miter;stroke-width:2;"/>
   </g>
   <g id="patch_4">
    <path clip-path="url(#p0d231e7a35)" d="M 70.149969 252 
L 70.149969 251.969831 
L 73.159571 251.969831 
L 73.159571 251.847587 
L 76.169173 251.847587 
L 76.169173 251.452256 
L 79.178775 251.452256 
L 79.178775 250.782966 
L 82.188377 250.782966 
L 82.188377 249.541518 
L 85.197979 249.541518 
L 85.197979 247.628164 
L 88.207582 247.628164 
L 88.207582 244.560728 
L 91.217184 244.560728 
L 91.217184 240.184707 
L 94.226786 240.184707 
L 94.226786 234.850787 
L 97.236388 234.850787 
L 97.236388 227.550675 
L 100.24599 227.550675 
L 100.24599 219.282027 
L 103.255592 219.282027 
L 103.255592 209.706537 
L 106.265194 209.706537 
L 106.265194 198.376034 
L 109.274796 198.376034 
L 109.274796 186.372928 
L 112.284398 186.372928 
L 112.284398 172.937945 
L 115.294001 172.937945 
L 115.294001 160.212535 
L 118.303603 160.212535 
L 118.303603 146.45058 
L 121.313205 146.45058 
L 121.313205 133.016992 
L 124.322807 133.016992 
L 124.322807 119.836786 
L 127.332409 119.836786 
L 127.332409 107.302676 
L 130.342011 107.302676 
L 130.342011 96.302808 
L 133.351613 96.302808 
L 133.351613 85.883294 
L 136.361215 85.883294 
L 136.361215 77.03499 
L 139.370817 77.03499 
L 139.370817 69.104126 
L 142.38042 69.104126 
L 142.38042 62.1268 
L 145.390022 62.1268 
L 145.390022 58.067114 
L 148.399624 58.067114 
L 148.399624 52.691342 
L 151.409226 52.691342 
L 151.409226 50.506121 
L 154.418828 50.506121 
L 154.418828 47.42613 
L 157.42843 47.42613 
L 157.42843 46.686214 
L 160.438032 46.686214 
L 160.438032 44.914286 
L 163.447634 44.914286 
L 163.447634 45.882298 
L 166.457236 45.882298 
L 166.457236 46.710104 
L 169.466839 46.710104 
L 169.466839 48.307298 
L 172.476441 48.307298 
L 172.476441 50.192925 
L 175.486043 50.192925 
L 175.486043 52.149004 
L 178.495645 52.149004 
L 178.495645 55.1139 
L 181.505247 55.1139 
L 181.505247 59.087267 
L 184.514849 59.087267 
L 184.514849 62.568518 
L 187.524451 62.568518 
L 187.524451 65.589916 
L 190.534053 65.589916 
L 190.534053 70.766365 
L 193.543655 70.766365 
L 193.543655 74.368989 
L 196.553258 74.368989 
L 196.553258 79.063438 
L 199.56286 79.063438 
L 199.56286 82.408669 
L 202.572462 82.408669 
L 202.572462 87.925867 
L 205.582064 87.925867 
L 205.582064 91.577842 
L 208.591666 91.577842 
L 208.591666 96.375875 
L 211.601268 96.375875 
L 211.601268 101.464609 
L 214.61087 101.464609 
L 214.61087 106.666694 
L 217.620472 106.666694 
L 217.620472 111.92929 
L 220.630074 111.92929 
L 220.630074 115.569231 
L 223.639677 115.569231 
L 223.639677 121.132991 
L 226.649279 121.132991 
L 226.649279 126.080996 
L 229.658881 126.080996 
L 229.658881 130.449344 
L 232.668483 130.449344 
L 232.668483 135.559877 
L 235.678085 135.559877 
L 235.678085 140.204626 
L 238.687687 140.204626 
L 238.687687 145.062648 
L 241.697289 145.062648 
L 241.697289 150.397265 
L 244.706891 150.397265 
L 244.706891 154.696906 
L 247.716493 154.696906 
L 247.716493 160.233287 
L 250.726096 160.233287 
L 250.726096 164.266816 
L 253.735698 164.266816 
L 253.735698 169.077929 
L 256.7453 169.077929 
L 256.7453 173.339903 
L 259.754902 173.339903 
L 259.754902 178.220421 
L 262.764504 178.220421 
L 262.764504 182.448912 
L 265.774106 182.448912 
L 265.774106 186.803659 
L 268.783708 186.803659 
L 268.783708 190.658269 
L 271.79331 190.658269 
L 271.79331 194.577227 
L 274.802912 194.577227 
L 274.802912 198.458169 
L 277.812515 198.458169 
L 277.812515 202.361433 
L 280.822117 202.361433 
L 280.822117 205.993876 
L 283.831719 205.993876 
L 283.831719 209.899058 
L 286.841321 209.899058 
L 286.841321 212.96318 
L 289.850923 212.96318 
L 289.850923 216.053634 
L 292.860525 216.053634 
L 292.860525 219.479431 
L 295.870127 219.479431 
L 295.870127 222.359228 
L 298.879729 222.359228 
L 298.879729 224.873862 
L 301.889331 224.873862 
L 301.889331 227.536375 
L 304.898934 227.536375 
L 304.898934 229.793094 
L 307.908536 229.793094 
L 307.908536 232.254017 
L 310.918138 232.254017 
L 310.918138 234.218466 
L 313.92774 234.218466 
L 313.92774 236.590977 
L 316.937342 236.590977 
L 316.937342 238.259494 
L 319.946944 238.259494 
L 319.946944 240.114952 
L 322.956546 240.114952 
L 322.956546 241.589902 
L 325.966148 241.589902 
L 325.966148 243.103217 
L 328.97575 243.103217 
L 328.97575 244.549916 
L 331.985353 244.549916 
L 331.985353 245.715856 
L 334.994955 245.715856 
L 334.994955 246.746821 
L 338.004557 246.746821 
L 338.004557 247.802374 
L 341.014159 247.802374 
L 341.014159 248.538454 
L 344.023761 248.538454 
L 344.023761 249.327373 
L 347.033363 249.327373 
L 347.033363 250.038167 
L 350.042965 250.038167 
L 350.042965 250.520342 
L 353.052567 250.520342 
L 353.052567 250.984555 
L 356.062169 250.984555 
L 356.062169 251.31641 
L 359.071771 251.31641 
L 359.071771 251.566478 
L 362.081374 251.566478 
L 362.081374 251.755512 
L 365.090976 251.755512 
L 365.090976 251.880895 
L 371.11018 251.963205 
L 371.11018 252 
L 371.11018 252 
" style="fill:none;opacity:0.5;stroke:#bf4080;stroke-linejoin:miter;stroke-width:2;"/>
   </g>
   <g id="patch_5">
    <path clip-path="url(#p0d231e7a35)" d="M 69.218182 252 
L 69.218182 251.987892 
L 75.287218 251.919396 
L 75.287218 251.704739 
L 78.321736 251.704739 
L 78.321736 251.228897 
L 81.356254 251.228897 
L 81.356254 250.356607 
L 84.390772 250.356607 
L 84.390772 248.830142 
L 87.42529 248.830142 
L 87.42529 246.514413 
L 90.459808 246.514413 
L 90.459808 243.389873 
L 93.494326 243.389873 
L 93.494326 238.962174 
L 96.528844 238.962174 
L 96.528844 233.105564 
L 99.563362 233.105564 
L 99.563362 226.178614 
L 102.597881 226.178614 
L 102.597881 218.197408 
L 105.632399 218.197408 
L 105.632399 208.423189 
L 108.666917 208.423189 
L 108.666917 197.93391 
L 111.701435 197.93391 
L 111.701435 186.521834 
L 114.735953 186.521834 
L 114.735953 174.348687 
L 117.770471 174.348687 
L 117.770471 161.385411 
L 120.804989 161.385411 
L 120.804989 148.89002 
L 123.839507 148.89002 
L 123.839507 136.653912 
L 126.874025 136.653912 
L 126.874025 124.249676 
L 129.908543 124.249676 
L 129.908543 113.418435 
L 132.943061 113.418435 
L 132.943061 103.115618 
L 135.977579 103.115618 
L 135.977579 94.229776 
L 139.012097 94.229776 
L 139.012097 86.62703 
L 142.046615 86.62703 
L 142.046615 79.312452 
L 145.081133 79.312452 
L 145.081133 74.10085 
L 148.115651 74.10085 
L 148.115651 70.080323 
L 151.15017 70.080323 
L 151.15017 66.955438 
L 154.184688 66.955438 
L 154.184688 63.908908 
L 157.219206 63.908908 
L 157.219206 62.768513 
L 160.253724 62.768513 
L 160.253724 60.929144 
L 166.32276 60.977576 
L 166.32276 61.242394 
L 169.357278 61.242394 
L 169.357278 61.433353 
L 172.391796 61.433353 
L 172.391796 63.004618 
L 175.426314 63.004618 
L 175.426314 65.51442 
L 178.460832 65.51442 
L 178.460832 66.254734 
L 181.49535 66.254734 
L 181.49535 68.850157 
L 184.529868 68.850157 
L 184.529868 71.455439 
L 187.564386 71.455439 
L 187.564386 74.611978 
L 190.598904 74.611978 
L 190.598904 77.107424 
L 193.633422 77.107424 
L 193.633422 80.037199 
L 196.66794 80.037199 
L 196.66794 83.284374 
L 199.702458 83.284374 
L 199.702458 87.529417 
L 202.736977 87.529417 
L 202.736977 90.481159 
L 205.771495 90.481159 
L 205.771495 93.871727 
L 208.806013 93.871727 
L 208.806013 97.978048 
L 211.840531 97.978048 
L 211.840531 101.678233 
L 214.875049 101.678233 
L 214.875049 106.118387 
L 217.909567 106.118387 
L 217.909567 109.610489 
L 220.944085 109.610489 
L 220.944085 113.576703 
L 223.978603 113.576703 
L 223.978603 117.497426 
L 227.013121 117.497426 
L 227.013121 122.455453 
L 230.047639 122.455453 
L 230.047639 125.576706 
L 233.082157 125.576706 
L 233.082157 130.152296 
L 236.116675 130.152296 
L 236.116675 134.132347 
L 239.151193 134.132347 
L 239.151193 138.729385 
L 242.185711 138.729385 
L 242.185711 142.454132 
L 245.220229 142.454132 
L 245.220229 146.336283 
L 248.254747 146.336283 
L 248.254747 150.852889 
L 251.289266 150.852889 
L 251.289266 154.766521 
L 254.323784 154.766521 
L 254.323784 159.042525 
L 257.358302 159.042525 
L 257.358302 162.490001 
L 260.39282 162.490001 
L 260.39282 166.806826 
L 263.427338 166.806826 
L 263.427338 170.87492 
L 266.461856 170.87492 
L 266.461856 174.693071 
L 269.496374 174.693071 
L 269.496374 178.198838 
L 272.530892 178.198838 
L 272.530892 182.216251 
L 275.56541 182.216251 
L 275.56541 185.872848 
L 278.599928 185.872848 
L 278.599928 189.394009 
L 281.634446 189.394009 
L 281.634446 192.952013 
L 284.668964 192.952013 
L 284.668964 196.692501 
L 287.703482 196.692501 
L 287.703482 200.290807 
L 290.738 200.290807 
L 290.738 203.315023 
L 293.772518 203.315023 
L 293.772518 206.679992 
L 296.807036 206.679992 
L 296.807036 209.806434 
L 299.841555 209.806434 
L 299.841555 212.791906 
L 302.876073 212.791906 
L 302.876073 215.76942 
L 305.910591 215.76942 
L 305.910591 218.63952 
L 308.945109 218.63952 
L 308.945109 221.197581 
L 311.979627 221.197581 
L 311.979627 223.926019 
L 315.014145 223.926019 
L 315.014145 226.837977 
L 318.048663 226.837977 
L 318.048663 228.862424 
L 321.083181 228.862424 
L 321.083181 231.230737 
L 324.117699 231.230737 
L 324.117699 233.501667 
L 327.152217 233.501667 
L 327.152217 235.687668 
L 330.186735 235.687668 
L 330.186735 237.349569 
L 333.221253 237.349569 
L 333.221253 239.32005 
L 336.255771 239.32005 
L 336.255771 240.982815 
L 339.290289 240.982815 
L 339.290289 242.632954 
L 342.324807 242.632954 
L 342.324807 244.157343 
L 345.359325 244.157343 
L 345.359325 245.499768 
L 348.393844 245.499768 
L 348.393844 246.881629 
L 351.428362 246.881629 
L 351.428362 247.977051 
L 354.46288 247.977051 
L 354.46288 249.060712 
L 357.497398 249.060712 
L 357.497398 250.031422 
L 360.531916 250.031422 
L 360.531916 250.768623 
L 363.566434 250.768623 
L 363.566434 251.363295 
L 366.600952 251.363295 
L 366.600952 251.767182 
L 369.63547 251.767182 
L 369.63547 251.968692 
L 372.669988 251.968692 
L 372.669988 252 
" style="fill:none;opacity:0.5;stroke:#bf8080;stroke-linejoin:miter;stroke-width:2;"/>
   </g>
   <g id="patch_6">
    <path clip-path="url(#p0d231e7a35)" d="M 74.705629 252 
L 74.705629 251.996784 
L 89.649439 251.887804 
L 89.649439 251.82456 
L 92.6382 251.82456 
L 92.6382 251.652335 
L 95.626962 251.652335 
L 95.626962 251.528347 
L 98.615724 251.528347 
L 98.615724 251.276799 
L 101.604486 251.276799 
L 101.604486 251.068843 
L 104.593248 251.068843 
L 104.593248 250.63721 
L 107.58201 250.63721 
L 107.58201 250.267391 
L 110.570772 250.267391 
L 110.570772 249.602432 
L 113.559534 249.602432 
L 113.559534 249.04038 
L 116.548296 249.04038 
L 116.548296 248.363629 
L 119.537057 248.363629 
L 119.537057 247.19486 
L 122.525819 247.19486 
L 122.525819 246.398053 
L 125.514581 246.398053 
L 125.514581 245.193552 
L 128.503343 245.193552 
L 128.503343 243.96261 
L 131.492105 243.96261 
L 131.492105 242.25537 
L 134.480867 242.25537 
L 134.480867 240.779312 
L 137.469629 240.779312 
L 137.469629 238.719404 
L 140.458391 238.719404 
L 140.458391 236.631984 
L 143.447153 236.631984 
L 143.447153 235.150209 
L 146.435914 235.150209 
L 146.435914 232.332441 
L 149.424676 232.332441 
L 149.424676 229.615436 
L 152.413438 229.615436 
L 152.413438 226.513248 
L 155.4022 226.513248 
L 155.4022 224.017419 
L 158.390962 224.017419 
L 158.390962 221.010991 
L 161.379724 221.010991 
L 161.379724 216.987293 
L 164.368486 216.987293 
L 164.368486 213.454186 
L 167.357248 213.454186 
L 167.357248 209.46086 
L 170.34601 209.46086 
L 170.34601 205.5758 
L 173.334771 205.5758 
L 173.334771 201.04722 
L 176.323533 201.04722 
L 176.323533 196.420379 
L 179.312295 196.420379 
L 179.312295 192.00328 
L 182.301057 192.00328 
L 182.301057 186.195163 
L 185.289819 186.195163 
L 185.289819 181.460056 
L 188.278581 181.460056 
L 188.278581 175.256395 
L 191.267343 175.256395 
L 191.267343 170.289392 
L 194.256105 170.289392 
L 194.256105 165.011527 
L 197.244867 165.011527 
L 197.244867 159.504982 
L 200.233629 159.504982 
L 200.233629 153.655417 
L 203.22239 153.655417 
L 203.22239 147.651851 
L 206.211152 147.651851 
L 206.211152 142.748092 
L 209.199914 142.748092 
L 209.199914 137.264773 
L 212.188676 137.264773 
L 212.188676 131.128286 
L 215.177438 131.128286 
L 215.177438 126.12305 
L 218.1662 126.12305 
L 218.1662 120.45643 
L 221.154962 120.45643 
L 221.154962 114.977755 
L 224.143724 114.977755 
L 224.143724 110.698579 
L 227.132486 110.698579 
L 227.132486 105.42 
L 230.121247 105.42 
L 230.121247 102.307807 
L 233.110009 102.307807 
L 233.110009 99.148806 
L 236.098771 99.148806 
L 236.098771 95.738614 
L 239.087533 95.738614 
L 239.087533 92.244811 
L 242.076295 92.244811 
L 242.076295 89.273757 
L 245.065057 89.273757 
L 245.065057 86.405251 
L 248.053819 86.405251 
L 248.053819 84.596177 
L 251.042581 84.596177 
L 251.042581 82.160377 
L 254.031343 82.160377 
L 254.031343 81.680864 
L 257.020104 81.680864 
L 257.020104 81.118096 
L 260.008866 81.118096 
L 260.008866 80.824028 
L 262.997628 80.824028 
L 262.997628 80.127983 
L 265.98639 80.127983 
L 265.98639 79.744944 
L 268.975152 79.744944 
L 268.975152 80.788297 
L 274.952676 80.7054 
L 274.952676 82.366189 
L 277.941438 82.366189 
L 277.941438 84.026264 
L 280.9302 84.026264 
L 280.9302 84.96671 
L 283.918961 84.96671 
L 283.918961 87.535431 
L 286.907723 87.535431 
L 286.907723 88.954319 
L 289.896485 88.954319 
L 289.896485 90.361416 
L 292.885247 90.361416 
L 292.885247 92.482067 
L 295.874009 92.482067 
L 295.874009 93.375348 
L 298.862771 93.375348 
L 298.862771 95.803288 
L 301.851533 95.803288 
L 301.851533 97.685253 
L 304.840295 97.685253 
L 304.840295 100.813883 
L 307.829057 100.813883 
L 307.829057 102.628316 
L 310.817818 102.628316 
L 310.817818 104.602111 
L 313.80658 104.602111 
L 313.80658 107.956205 
L 316.795342 107.956205 
L 316.795342 111.043386 
L 319.784104 111.043386 
L 319.784104 111.870564 
L 322.772866 111.870564 
L 322.772866 115.918916 
L 325.761628 115.918916 
L 325.761628 118.452978 
L 328.75039 118.452978 
L 328.75039 123.07839 
L 331.739152 123.07839 
L 331.739152 126.510735 
L 334.727914 126.510735 
L 334.727914 130.005252 
L 337.716675 130.005252 
L 337.716675 133.96642 
L 340.705437 133.96642 
L 340.705437 139.836709 
L 343.694199 139.836709 
L 343.694199 144.442826 
L 346.682961 144.442826 
L 346.682961 151.770236 
L 349.671723 151.770236 
L 349.671723 159.576445 
L 352.660485 159.576445 
L 352.660485 167.716384 
L 355.649247 167.716384 
L 355.649247 178.430045 
L 358.638009 178.430045 
L 358.638009 191.329388 
L 361.626771 191.329388 
L 361.626771 206.394403 
L 364.615533 206.394403 
L 364.615533 223.012299 
L 367.604294 223.012299 
L 367.604294 239.315759 
L 370.593056 239.315759 
L 370.593056 248.997502 
L 373.581818 248.997502 
L 373.581818 252 
L 373.581818 252 
" style="fill:none;opacity:0.5;stroke:#00bf40;stroke-linejoin:miter;stroke-width:2;"/>
   </g>
   <g id="matplotlib.axis_1">
    <g id="xtick_1">
     <g id="line2d_1">
      <defs>
       <path d="M 0 0 
L 0 3.5 
" id="mf21d864963" style="stroke:#000000;stroke-width:0.8;"/>
      </defs>
      <g>
       <use style="stroke:#000000;stroke-width:0.8;" x="67.014014" xlink:href="#mf21d864963" y="252"/>
      </g>
     </g>
     <g id="text_1">
      <!-- −1.00 -->
      <defs>
       <path d="M 10.59375 35.5 
L 73.1875 35.5 
L 73.1875 27.203125 
L 10.59375 27.203125 
z
" id="DejaVuSans-8722"/>
       <path d="M 12.40625 8.296875 
L 28.515625 8.296875 
L 28.515625 63.921875 
L 10.984375 60.40625 
L 10.984375 69.390625 
L 28.421875 72.90625 
L 38.28125 72.90625 
L 38.28125 8.296875 
L 54.390625 8.296875 
L 54.390625 0 
L 12.40625 0 
z
" id="DejaVuSans-49"/>
       <path d="M 10.6875 12.40625 
L 21 12.40625 
L 21 0 
L 10.6875 0 
z
" id="DejaVuSans-46"/>
       <path d="M 31.78125 66.40625 
Q 24.171875 66.40625 20.328125 58.90625 
Q 16.5 51.421875 16.5 36.375 
Q 16.5 21.390625 20.328125 13.890625 
Q 24.171875 6.390625 31.78125 6.390625 
Q 39.453125 6.390625 43.28125 13.890625 
Q 47.125 21.390625 47.125 36.375 
Q 47.125 51.421875 43.28125 58.90625 
Q 39.453125 66.40625 31.78125 66.40625 
z
M 31.78125 74.21875 
Q 44.046875 74.21875 50.515625 64.515625 
Q 56.984375 54.828125 56.984375 36.375 
Q 56.984375 17.96875 50.515625 8.265625 
Q 44.046875 -1.421875 31.78125 -1.421875 
Q 19.53125 -1.421875 13.0625 8.265625 
Q 6.59375 17.96875 6.59375 36.375 
Q 6.59375 54.828125 13.0625 64.515625 
Q 19.53125 74.21875 31.78125 74.21875 
z
" id="DejaVuSans-48"/>
      </defs>
      <g transform="translate(51.691357 266.598437)scale(0.1 -0.1)">
       <use xlink:href="#DejaVuSans-8722"/>
       <use x="83.789062" xlink:href="#DejaVuSans-49"/>
       <use x="147.412109" xlink:href="#DejaVuSans-46"/>
       <use x="179.199219" xlink:href="#DejaVuSans-48"/>
       <use x="242.822266" xlink:href="#DejaVuSans-48"/>
      </g>
     </g>
    </g>
    <g id="xtick_2">
     <g id="line2d_2">
      <g>
       <use style="stroke:#000000;stroke-width:0.8;" x="105.334989" xlink:href="#mf21d864963" y="252"/>
      </g>
     </g>
     <g id="text_2">
      <!-- −0.75 -->
      <defs>
       <path d="M 8.203125 72.90625 
L 55.078125 72.90625 
L 55.078125 68.703125 
L 28.609375 0 
L 18.3125 0 
L 43.21875 64.59375 
L 8.203125 64.59375 
z
" id="DejaVuSans-55"/>
       <path d="M 10.796875 72.90625 
L 49.515625 72.90625 
L 49.515625 64.59375 
L 19.828125 64.59375 
L 19.828125 46.734375 
Q 21.96875 47.46875 24.109375 47.828125 
Q 26.265625 48.1875 28.421875 48.1875 
Q 40.625 48.1875 47.75 41.5 
Q 54.890625 34.8125 54.890625 23.390625 
Q 54.890625 11.625 47.5625 5.09375 
Q 40.234375 -1.421875 26.90625 -1.421875 
Q 22.3125 -1.421875 17.546875 -0.640625 
Q 12.796875 0.140625 7.71875 1.703125 
L 7.71875 11.625 
Q 12.109375 9.234375 16.796875 8.0625 
Q 21.484375 6.890625 26.703125 6.890625 
Q 35.15625 6.890625 40.078125 11.328125 
Q 45.015625 15.765625 45.015625 23.390625 
Q 45.015625 31 40.078125 35.4375 
Q 35.15625 39.890625 26.703125 39.890625 
Q 22.75 39.890625 18.8125 39.015625 
Q 14.890625 38.140625 10.796875 36.28125 
z
" id="DejaVuSans-53"/>
      </defs>
      <g transform="translate(90.012333 266.598437)scale(0.1 -0.1)">
       <use xlink:href="#DejaVuSans-8722"/>
       <use x="83.789062" xlink:href="#DejaVuSans-48"/>
       <use x="147.412109" xlink:href="#DejaVuSans-46"/>
       <use x="179.199219" xlink:href="#DejaVuSans-55"/>
       <use x="242.822266" xlink:href="#DejaVuSans-53"/>
      </g>
     </g>
    </g>
    <g id="xtick_3">
     <g id="line2d_3">
      <g>
       <use style="stroke:#000000;stroke-width:0.8;" x="143.655965" xlink:href="#mf21d864963" y="252"/>
      </g>
     </g>
     <g id="text_3">
      <!-- −0.50 -->
      <g transform="translate(128.333308 266.598437)scale(0.1 -0.1)">
       <use xlink:href="#DejaVuSans-8722"/>
       <use x="83.789062" xlink:href="#DejaVuSans-48"/>
       <use x="147.412109" xlink:href="#DejaVuSans-46"/>
       <use x="179.199219" xlink:href="#DejaVuSans-53"/>
       <use x="242.822266" xlink:href="#DejaVuSans-48"/>
      </g>
     </g>
    </g>
    <g id="xtick_4">
     <g id="line2d_4">
      <g>
       <use style="stroke:#000000;stroke-width:0.8;" x="181.97694" xlink:href="#mf21d864963" y="252"/>
      </g>
     </g>
     <g id="text_4">
      <!-- −0.25 -->
      <defs>
       <path d="M 19.1875 8.296875 
L 53.609375 8.296875 
L 53.609375 0 
L 7.328125 0 
L 7.328125 8.296875 
Q 12.9375 14.109375 22.625 23.890625 
Q 32.328125 33.6875 34.8125 36.53125 
Q 39.546875 41.84375 41.421875 45.53125 
Q 43.3125 49.21875 43.3125 52.78125 
Q 43.3125 58.59375 39.234375 62.25 
Q 35.15625 65.921875 28.609375 65.921875 
Q 23.96875 65.921875 18.8125 64.3125 
Q 13.671875 62.703125 7.8125 59.421875 
L 7.8125 69.390625 
Q 13.765625 71.78125 18.9375 73 
Q 24.125 74.21875 28.421875 74.21875 
Q 39.75 74.21875 46.484375 68.546875 
Q 53.21875 62.890625 53.21875 53.421875 
Q 53.21875 48.921875 51.53125 44.890625 
Q 49.859375 40.875 45.40625 35.40625 
Q 44.1875 33.984375 37.640625 27.21875 
Q 31.109375 20.453125 19.1875 8.296875 
z
" id="DejaVuSans-50"/>
      </defs>
      <g transform="translate(166.654284 266.598437)scale(0.1 -0.1)">
       <use xlink:href="#DejaVuSans-8722"/>
       <use x="83.789062" xlink:href="#DejaVuSans-48"/>
       <use x="147.412109" xlink:href="#DejaVuSans-46"/>
       <use x="179.199219" xlink:href="#DejaVuSans-50"/>
       <use x="242.822266" xlink:href="#DejaVuSans-53"/>
      </g>
     </g>
    </g>
    <g id="xtick_5">
     <g id="line2d_5">
      <g>
       <use style="stroke:#000000;stroke-width:0.8;" x="220.297916" xlink:href="#mf21d864963" y="252"/>
      </g>
     </g>
     <g id="text_5">
      <!-- 0.00 -->
      <g transform="translate(209.165103 266.598437)scale(0.1 -0.1)">
       <use xlink:href="#DejaVuSans-48"/>
       <use x="63.623047" xlink:href="#DejaVuSans-46"/>
       <use x="95.410156" xlink:href="#DejaVuSans-48"/>
       <use x="159.033203" xlink:href="#DejaVuSans-48"/>
      </g>
     </g>
    </g>
    <g id="xtick_6">
     <g id="line2d_6">
      <g>
       <use style="stroke:#000000;stroke-width:0.8;" x="258.618891" xlink:href="#mf21d864963" y="252"/>
      </g>
     </g>
     <g id="text_6">
      <!-- 0.25 -->
      <g transform="translate(247.486079 266.598437)scale(0.1 -0.1)">
       <use xlink:href="#DejaVuSans-48"/>
       <use x="63.623047" xlink:href="#DejaVuSans-46"/>
       <use x="95.410156" xlink:href="#DejaVuSans-50"/>
       <use x="159.033203" xlink:href="#DejaVuSans-53"/>
      </g>
     </g>
    </g>
    <g id="xtick_7">
     <g id="line2d_7">
      <g>
       <use style="stroke:#000000;stroke-width:0.8;" x="296.939867" xlink:href="#mf21d864963" y="252"/>
      </g>
     </g>
     <g id="text_7">
      <!-- 0.50 -->
      <g transform="translate(285.807055 266.598437)scale(0.1 -0.1)">
       <use xlink:href="#DejaVuSans-48"/>
       <use x="63.623047" xlink:href="#DejaVuSans-46"/>
       <use x="95.410156" xlink:href="#DejaVuSans-53"/>
       <use x="159.033203" xlink:href="#DejaVuSans-48"/>
      </g>
     </g>
    </g>
    <g id="xtick_8">
     <g id="line2d_8">
      <g>
       <use style="stroke:#000000;stroke-width:0.8;" x="335.260843" xlink:href="#mf21d864963" y="252"/>
      </g>
     </g>
     <g id="text_8">
      <!-- 0.75 -->
      <g transform="translate(324.12803 266.598437)scale(0.1 -0.1)">
       <use xlink:href="#DejaVuSans-48"/>
       <use x="63.623047" xlink:href="#DejaVuSans-46"/>
       <use x="95.410156" xlink:href="#DejaVuSans-55"/>
       <use x="159.033203" xlink:href="#DejaVuSans-53"/>
      </g>
     </g>
    </g>
    <g id="xtick_9">
     <g id="line2d_9">
      <g>
       <use style="stroke:#000000;stroke-width:0.8;" x="373.581818" xlink:href="#mf21d864963" y="252"/>
      </g>
     </g>
     <g id="text_9">
      <!-- 1.00 -->
      <g transform="translate(362.449006 266.598437)scale(0.1 -0.1)">
       <use xlink:href="#DejaVuSans-49"/>
       <use x="63.623047" xlink:href="#DejaVuSans-46"/>
       <use x="95.410156" xlink:href="#DejaVuSans-48"/>
       <use x="159.033203" xlink:href="#DejaVuSans-48"/>
      </g>
     </g>
    </g>
    <g id="text_10">
     <!-- cosine similarity -->
     <defs>
      <path d="M 48.78125 52.59375 
L 48.78125 44.1875 
Q 44.96875 46.296875 41.140625 47.34375 
Q 37.3125 48.390625 33.40625 48.390625 
Q 24.65625 48.390625 19.8125 42.84375 
Q 14.984375 37.3125 14.984375 27.296875 
Q 14.984375 17.28125 19.8125 11.734375 
Q 24.65625 6.203125 33.40625 6.203125 
Q 37.3125 6.203125 41.140625 7.25 
Q 44.96875 8.296875 48.78125 10.40625 
L 48.78125 2.09375 
Q 45.015625 0.34375 40.984375 -0.53125 
Q 36.96875 -1.421875 32.421875 -1.421875 
Q 20.0625 -1.421875 12.78125 6.34375 
Q 5.515625 14.109375 5.515625 27.296875 
Q 5.515625 40.671875 12.859375 48.328125 
Q 20.21875 56 33.015625 56 
Q 37.15625 56 41.109375 55.140625 
Q 45.0625 54.296875 48.78125 52.59375 
z
" id="DejaVuSans-99"/>
      <path d="M 30.609375 48.390625 
Q 23.390625 48.390625 19.1875 42.75 
Q 14.984375 37.109375 14.984375 27.296875 
Q 14.984375 17.484375 19.15625 11.84375 
Q 23.34375 6.203125 30.609375 6.203125 
Q 37.796875 6.203125 41.984375 11.859375 
Q 46.1875 17.53125 46.1875 27.296875 
Q 46.1875 37.015625 41.984375 42.703125 
Q 37.796875 48.390625 30.609375 48.390625 
z
M 30.609375 56 
Q 42.328125 56 49.015625 48.375 
Q 55.71875 40.765625 55.71875 27.296875 
Q 55.71875 13.875 49.015625 6.21875 
Q 42.328125 -1.421875 30.609375 -1.421875 
Q 18.84375 -1.421875 12.171875 6.21875 
Q 5.515625 13.875 5.515625 27.296875 
Q 5.515625 40.765625 12.171875 48.375 
Q 18.84375 56 30.609375 56 
z
" id="DejaVuSans-111"/>
      <path d="M 44.28125 53.078125 
L 44.28125 44.578125 
Q 40.484375 46.53125 36.375 47.5 
Q 32.28125 48.484375 27.875 48.484375 
Q 21.1875 48.484375 17.84375 46.4375 
Q 14.5 44.390625 14.5 40.28125 
Q 14.5 37.15625 16.890625 35.375 
Q 19.28125 33.59375 26.515625 31.984375 
L 29.59375 31.296875 
Q 39.15625 29.25 43.1875 25.515625 
Q 47.21875 21.78125 47.21875 15.09375 
Q 47.21875 7.46875 41.1875 3.015625 
Q 35.15625 -1.421875 24.609375 -1.421875 
Q 20.21875 -1.421875 15.453125 -0.5625 
Q 10.6875 0.296875 5.421875 2 
L 5.421875 11.28125 
Q 10.40625 8.6875 15.234375 7.390625 
Q 20.0625 6.109375 24.8125 6.109375 
Q 31.15625 6.109375 34.5625 8.28125 
Q 37.984375 10.453125 37.984375 14.40625 
Q 37.984375 18.0625 35.515625 20.015625 
Q 33.0625 21.96875 24.703125 23.78125 
L 21.578125 24.515625 
Q 13.234375 26.265625 9.515625 29.90625 
Q 5.8125 33.546875 5.8125 39.890625 
Q 5.8125 47.609375 11.28125 51.796875 
Q 16.75 56 26.8125 56 
Q 31.78125 56 36.171875 55.265625 
Q 40.578125 54.546875 44.28125 53.078125 
z
" id="DejaVuSans-115"/>
      <path d="M 9.421875 54.6875 
L 18.40625 54.6875 
L 18.40625 0 
L 9.421875 0 
z
M 9.421875 75.984375 
L 18.40625 75.984375 
L 18.40625 64.59375 
L 9.421875 64.59375 
z
" id="DejaVuSans-105"/>
      <path d="M 54.890625 33.015625 
L 54.890625 0 
L 45.90625 0 
L 45.90625 32.71875 
Q 45.90625 40.484375 42.875 44.328125 
Q 39.84375 48.1875 33.796875 48.1875 
Q 26.515625 48.1875 22.3125 43.546875 
Q 18.109375 38.921875 18.109375 30.90625 
L 18.109375 0 
L 9.078125 0 
L 9.078125 54.6875 
L 18.109375 54.6875 
L 18.109375 46.1875 
Q 21.34375 51.125 25.703125 53.5625 
Q 30.078125 56 35.796875 56 
Q 45.21875 56 50.046875 50.171875 
Q 54.890625 44.34375 54.890625 33.015625 
z
" id="DejaVuSans-110"/>
      <path d="M 56.203125 29.59375 
L 56.203125 25.203125 
L 14.890625 25.203125 
Q 15.484375 15.921875 20.484375 11.0625 
Q 25.484375 6.203125 34.421875 6.203125 
Q 39.59375 6.203125 44.453125 7.46875 
Q 49.3125 8.734375 54.109375 11.28125 
L 54.109375 2.78125 
Q 49.265625 0.734375 44.1875 -0.34375 
Q 39.109375 -1.421875 33.890625 -1.421875 
Q 20.796875 -1.421875 13.15625 6.1875 
Q 5.515625 13.8125 5.515625 26.8125 
Q 5.515625 40.234375 12.765625 48.109375 
Q 20.015625 56 32.328125 56 
Q 43.359375 56 49.78125 48.890625 
Q 56.203125 41.796875 56.203125 29.59375 
z
M 47.21875 32.234375 
Q 47.125 39.59375 43.09375 43.984375 
Q 39.0625 48.390625 32.421875 48.390625 
Q 24.90625 48.390625 20.390625 44.140625 
Q 15.875 39.890625 15.1875 32.171875 
z
" id="DejaVuSans-101"/>
      <path id="DejaVuSans-32"/>
      <path d="M 52 44.1875 
Q 55.375 50.25 60.0625 53.125 
Q 64.75 56 71.09375 56 
Q 79.640625 56 84.28125 50.015625 
Q 88.921875 44.046875 88.921875 33.015625 
L 88.921875 0 
L 79.890625 0 
L 79.890625 32.71875 
Q 79.890625 40.578125 77.09375 44.375 
Q 74.3125 48.1875 68.609375 48.1875 
Q 61.625 48.1875 57.5625 43.546875 
Q 53.515625 38.921875 53.515625 30.90625 
L 53.515625 0 
L 44.484375 0 
L 44.484375 32.71875 
Q 44.484375 40.625 41.703125 44.40625 
Q 38.921875 48.1875 33.109375 48.1875 
Q 26.21875 48.1875 22.15625 43.53125 
Q 18.109375 38.875 18.109375 30.90625 
L 18.109375 0 
L 9.078125 0 
L 9.078125 54.6875 
L 18.109375 54.6875 
L 18.109375 46.1875 
Q 21.1875 51.21875 25.484375 53.609375 
Q 29.78125 56 35.6875 56 
Q 41.65625 56 45.828125 52.96875 
Q 50 49.953125 52 44.1875 
z
" id="DejaVuSans-109"/>
      <path d="M 9.421875 75.984375 
L 18.40625 75.984375 
L 18.40625 0 
L 9.421875 0 
z
" id="DejaVuSans-108"/>
      <path d="M 34.28125 27.484375 
Q 23.390625 27.484375 19.1875 25 
Q 14.984375 22.515625 14.984375 16.5 
Q 14.984375 11.71875 18.140625 8.90625 
Q 21.296875 6.109375 26.703125 6.109375 
Q 34.1875 6.109375 38.703125 11.40625 
Q 43.21875 16.703125 43.21875 25.484375 
L 43.21875 27.484375 
z
M 52.203125 31.203125 
L 52.203125 0 
L 43.21875 0 
L 43.21875 8.296875 
Q 40.140625 3.328125 35.546875 0.953125 
Q 30.953125 -1.421875 24.3125 -1.421875 
Q 15.921875 -1.421875 10.953125 3.296875 
Q 6 8.015625 6 15.921875 
Q 6 25.140625 12.171875 29.828125 
Q 18.359375 34.515625 30.609375 34.515625 
L 43.21875 34.515625 
L 43.21875 35.40625 
Q 43.21875 41.609375 39.140625 45 
Q 35.0625 48.390625 27.6875 48.390625 
Q 23 48.390625 18.546875 47.265625 
Q 14.109375 46.140625 10.015625 43.890625 
L 10.015625 52.203125 
Q 14.9375 54.109375 19.578125 55.046875 
Q 24.21875 56 28.609375 56 
Q 40.484375 56 46.34375 49.84375 
Q 52.203125 43.703125 52.203125 31.203125 
z
" id="DejaVuSans-97"/>
      <path d="M 41.109375 46.296875 
Q 39.59375 47.171875 37.8125 47.578125 
Q 36.03125 48 33.890625 48 
Q 26.265625 48 22.1875 43.046875 
Q 18.109375 38.09375 18.109375 28.8125 
L 18.109375 0 
L 9.078125 0 
L 9.078125 54.6875 
L 18.109375 54.6875 
L 18.109375 46.1875 
Q 20.953125 51.171875 25.484375 53.578125 
Q 30.03125 56 36.53125 56 
Q 37.453125 56 38.578125 55.875 
Q 39.703125 55.765625 41.0625 55.515625 
z
" id="DejaVuSans-114"/>
      <path d="M 18.3125 70.21875 
L 18.3125 54.6875 
L 36.8125 54.6875 
L 36.8125 47.703125 
L 18.3125 47.703125 
L 18.3125 18.015625 
Q 18.3125 11.328125 20.140625 9.421875 
Q 21.96875 7.515625 27.59375 7.515625 
L 36.8125 7.515625 
L 36.8125 0 
L 27.59375 0 
Q 17.1875 0 13.234375 3.875 
Q 9.28125 7.765625 9.28125 18.015625 
L 9.28125 47.703125 
L 2.6875 47.703125 
L 2.6875 54.6875 
L 9.28125 54.6875 
L 9.28125 70.21875 
z
" id="DejaVuSans-116"/>
      <path d="M 32.171875 -5.078125 
Q 28.375 -14.84375 24.75 -17.8125 
Q 21.140625 -20.796875 15.09375 -20.796875 
L 7.90625 -20.796875 
L 7.90625 -13.28125 
L 13.1875 -13.28125 
Q 16.890625 -13.28125 18.9375 -11.515625 
Q 21 -9.765625 23.484375 -3.21875 
L 25.09375 0.875 
L 2.984375 54.6875 
L 12.5 54.6875 
L 29.59375 11.921875 
L 46.6875 54.6875 
L 56.203125 54.6875 
z
" id="DejaVuSans-121"/>
     </defs>
     <g transform="translate(180.692969 280.276563)scale(0.1 -0.1)">
      <use xlink:href="#DejaVuSans-99"/>
      <use x="54.980469" xlink:href="#DejaVuSans-111"/>
      <use x="116.162109" xlink:href="#DejaVuSans-115"/>
      <use x="168.261719" xlink:href="#DejaVuSans-105"/>
      <use x="196.044922" xlink:href="#DejaVuSans-110"/>
      <use x="259.423828" xlink:href="#DejaVuSans-101"/>
      <use x="320.947266" xlink:href="#DejaVuSans-32"/>
      <use x="352.734375" xlink:href="#DejaVuSans-115"/>
      <use x="404.833984" xlink:href="#DejaVuSans-105"/>
      <use x="432.617188" xlink:href="#DejaVuSans-109"/>
      <use x="530.029297" xlink:href="#DejaVuSans-105"/>
      <use x="557.8125" xlink:href="#DejaVuSans-108"/>
      <use x="585.595703" xlink:href="#DejaVuSans-97"/>
      <use x="646.875" xlink:href="#DejaVuSans-114"/>
      <use x="687.988281" xlink:href="#DejaVuSans-105"/>
      <use x="715.771484" xlink:href="#DejaVuSans-116"/>
      <use x="754.980469" xlink:href="#DejaVuSans-121"/>
     </g>
    </g>
   </g>
   <g id="matplotlib.axis_2">
    <g id="ytick_1">
     <g id="line2d_10">
      <defs>
       <path d="M 0 0 
L -3.5 0 
" id="m0f07c5dbf8" style="stroke:#000000;stroke-width:0.8;"/>
      </defs>
      <g>
       <use style="stroke:#000000;stroke-width:0.8;" x="54" xlink:href="#m0f07c5dbf8" y="252"/>
      </g>
     </g>
     <g id="text_11">
      <!-- 0.0 -->
      <g transform="translate(31.096875 255.799219)scale(0.1 -0.1)">
       <use xlink:href="#DejaVuSans-48"/>
       <use x="63.623047" xlink:href="#DejaVuSans-46"/>
       <use x="95.410156" xlink:href="#DejaVuSans-48"/>
      </g>
     </g>
    </g>
    <g id="ytick_2">
     <g id="line2d_11">
      <g>
       <use style="stroke:#000000;stroke-width:0.8;" x="54" xlink:href="#m0f07c5dbf8" y="217.954921"/>
      </g>
     </g>
     <g id="text_12">
      <!-- 0.2 -->
      <g transform="translate(31.096875 221.75414)scale(0.1 -0.1)">
       <use xlink:href="#DejaVuSans-48"/>
       <use x="63.623047" xlink:href="#DejaVuSans-46"/>
       <use x="95.410156" xlink:href="#DejaVuSans-50"/>
      </g>
     </g>
    </g>
    <g id="ytick_3">
     <g id="line2d_12">
      <g>
       <use style="stroke:#000000;stroke-width:0.8;" x="54" xlink:href="#m0f07c5dbf8" y="183.909842"/>
      </g>
     </g>
     <g id="text_13">
      <!-- 0.4 -->
      <defs>
       <path d="M 37.796875 64.3125 
L 12.890625 25.390625 
L 37.796875 25.390625 
z
M 35.203125 72.90625 
L 47.609375 72.90625 
L 47.609375 25.390625 
L 58.015625 25.390625 
L 58.015625 17.1875 
L 47.609375 17.1875 
L 47.609375 0 
L 37.796875 0 
L 37.796875 17.1875 
L 4.890625 17.1875 
L 4.890625 26.703125 
z
" id="DejaVuSans-52"/>
      </defs>
      <g transform="translate(31.096875 187.709061)scale(0.1 -0.1)">
       <use xlink:href="#DejaVuSans-48"/>
       <use x="63.623047" xlink:href="#DejaVuSans-46"/>
       <use x="95.410156" xlink:href="#DejaVuSans-52"/>
      </g>
     </g>
    </g>
    <g id="ytick_4">
     <g id="line2d_13">
      <g>
       <use style="stroke:#000000;stroke-width:0.8;" x="54" xlink:href="#m0f07c5dbf8" y="149.864763"/>
      </g>
     </g>
     <g id="text_14">
      <!-- 0.6 -->
      <defs>
       <path d="M 33.015625 40.375 
Q 26.375 40.375 22.484375 35.828125 
Q 18.609375 31.296875 18.609375 23.390625 
Q 18.609375 15.53125 22.484375 10.953125 
Q 26.375 6.390625 33.015625 6.390625 
Q 39.65625 6.390625 43.53125 10.953125 
Q 47.40625 15.53125 47.40625 23.390625 
Q 47.40625 31.296875 43.53125 35.828125 
Q 39.65625 40.375 33.015625 40.375 
z
M 52.59375 71.296875 
L 52.59375 62.3125 
Q 48.875 64.0625 45.09375 64.984375 
Q 41.3125 65.921875 37.59375 65.921875 
Q 27.828125 65.921875 22.671875 59.328125 
Q 17.53125 52.734375 16.796875 39.40625 
Q 19.671875 43.65625 24.015625 45.921875 
Q 28.375 48.1875 33.59375 48.1875 
Q 44.578125 48.1875 50.953125 41.515625 
Q 57.328125 34.859375 57.328125 23.390625 
Q 57.328125 12.15625 50.6875 5.359375 
Q 44.046875 -1.421875 33.015625 -1.421875 
Q 20.359375 -1.421875 13.671875 8.265625 
Q 6.984375 17.96875 6.984375 36.375 
Q 6.984375 53.65625 15.1875 63.9375 
Q 23.390625 74.21875 37.203125 74.21875 
Q 40.921875 74.21875 44.703125 73.484375 
Q 48.484375 72.75 52.59375 71.296875 
z
" id="DejaVuSans-54"/>
      </defs>
      <g transform="translate(31.096875 153.663982)scale(0.1 -0.1)">
       <use xlink:href="#DejaVuSans-48"/>
       <use x="63.623047" xlink:href="#DejaVuSans-46"/>
       <use x="95.410156" xlink:href="#DejaVuSans-54"/>
      </g>
     </g>
    </g>
    <g id="ytick_5">
     <g id="line2d_14">
      <g>
       <use style="stroke:#000000;stroke-width:0.8;" x="54" xlink:href="#m0f07c5dbf8" y="115.819684"/>
      </g>
     </g>
     <g id="text_15">
      <!-- 0.8 -->
      <defs>
       <path d="M 31.78125 34.625 
Q 24.75 34.625 20.71875 30.859375 
Q 16.703125 27.09375 16.703125 20.515625 
Q 16.703125 13.921875 20.71875 10.15625 
Q 24.75 6.390625 31.78125 6.390625 
Q 38.8125 6.390625 42.859375 10.171875 
Q 46.921875 13.96875 46.921875 20.515625 
Q 46.921875 27.09375 42.890625 30.859375 
Q 38.875 34.625 31.78125 34.625 
z
M 21.921875 38.8125 
Q 15.578125 40.375 12.03125 44.71875 
Q 8.5 49.078125 8.5 55.328125 
Q 8.5 64.0625 14.71875 69.140625 
Q 20.953125 74.21875 31.78125 74.21875 
Q 42.671875 74.21875 48.875 69.140625 
Q 55.078125 64.0625 55.078125 55.328125 
Q 55.078125 49.078125 51.53125 44.71875 
Q 48 40.375 41.703125 38.8125 
Q 48.828125 37.15625 52.796875 32.3125 
Q 56.78125 27.484375 56.78125 20.515625 
Q 56.78125 9.90625 50.3125 4.234375 
Q 43.84375 -1.421875 31.78125 -1.421875 
Q 19.734375 -1.421875 13.25 4.234375 
Q 6.78125 9.90625 6.78125 20.515625 
Q 6.78125 27.484375 10.78125 32.3125 
Q 14.796875 37.15625 21.921875 38.8125 
z
M 18.3125 54.390625 
Q 18.3125 48.734375 21.84375 45.5625 
Q 25.390625 42.390625 31.78125 42.390625 
Q 38.140625 42.390625 41.71875 45.5625 
Q 45.3125 48.734375 45.3125 54.390625 
Q 45.3125 60.0625 41.71875 63.234375 
Q 38.140625 66.40625 31.78125 66.40625 
Q 25.390625 66.40625 21.84375 63.234375 
Q 18.3125 60.0625 18.3125 54.390625 
z
" id="DejaVuSans-56"/>
      </defs>
      <g transform="translate(31.096875 119.618903)scale(0.1 -0.1)">
       <use xlink:href="#DejaVuSans-48"/>
       <use x="63.623047" xlink:href="#DejaVuSans-46"/>
       <use x="95.410156" xlink:href="#DejaVuSans-56"/>
      </g>
     </g>
    </g>
    <g id="ytick_6">
     <g id="line2d_15">
      <g>
       <use style="stroke:#000000;stroke-width:0.8;" x="54" xlink:href="#m0f07c5dbf8" y="81.774605"/>
      </g>
     </g>
     <g id="text_16">
      <!-- 1.0 -->
      <g transform="translate(31.096875 85.573824)scale(0.1 -0.1)">
       <use xlink:href="#DejaVuSans-49"/>
       <use x="63.623047" xlink:href="#DejaVuSans-46"/>
       <use x="95.410156" xlink:href="#DejaVuSans-48"/>
      </g>
     </g>
    </g>
    <g id="ytick_7">
     <g id="line2d_16">
      <g>
       <use style="stroke:#000000;stroke-width:0.8;" x="54" xlink:href="#m0f07c5dbf8" y="47.729526"/>
      </g>
     </g>
     <g id="text_17">
      <!-- 1.2 -->
      <g transform="translate(31.096875 51.528745)scale(0.1 -0.1)">
       <use xlink:href="#DejaVuSans-49"/>
       <use x="63.623047" xlink:href="#DejaVuSans-46"/>
       <use x="95.410156" xlink:href="#DejaVuSans-50"/>
      </g>
     </g>
    </g>
    <g id="text_18">
     <!-- density -->
     <defs>
      <path d="M 45.40625 46.390625 
L 45.40625 75.984375 
L 54.390625 75.984375 
L 54.390625 0 
L 45.40625 0 
L 45.40625 8.203125 
Q 42.578125 3.328125 38.25 0.953125 
Q 33.9375 -1.421875 27.875 -1.421875 
Q 17.96875 -1.421875 11.734375 6.484375 
Q 5.515625 14.40625 5.515625 27.296875 
Q 5.515625 40.1875 11.734375 48.09375 
Q 17.96875 56 27.875 56 
Q 33.9375 56 38.25 53.625 
Q 42.578125 51.265625 45.40625 46.390625 
z
M 14.796875 27.296875 
Q 14.796875 17.390625 18.875 11.75 
Q 22.953125 6.109375 30.078125 6.109375 
Q 37.203125 6.109375 41.296875 11.75 
Q 45.40625 17.390625 45.40625 27.296875 
Q 45.40625 37.203125 41.296875 42.84375 
Q 37.203125 48.484375 30.078125 48.484375 
Q 22.953125 48.484375 18.875 42.84375 
Q 14.796875 37.203125 14.796875 27.296875 
z
" id="DejaVuSans-100"/>
     </defs>
     <g transform="translate(25.017187 161.612813)rotate(-90)scale(0.1 -0.1)">
      <use xlink:href="#DejaVuSans-100"/>
      <use x="63.476562" xlink:href="#DejaVuSans-101"/>
      <use x="125" xlink:href="#DejaVuSans-110"/>
      <use x="188.378906" xlink:href="#DejaVuSans-115"/>
      <use x="240.478516" xlink:href="#DejaVuSans-105"/>
      <use x="268.261719" xlink:href="#DejaVuSans-116"/>
      <use x="307.470703" xlink:href="#DejaVuSans-121"/>
     </g>
    </g>
   </g>
   <g id="patch_7">
    <path d="M 54 252 
L 54 34.56 
" style="fill:none;stroke:#000000;stroke-linecap:square;stroke-linejoin:miter;stroke-width:0.8;"/>
   </g>
   <g id="patch_8">
    <path d="M 388.8 252 
L 388.8 34.56 
" style="fill:none;stroke:#000000;stroke-linecap:square;stroke-linejoin:miter;stroke-width:0.8;"/>
   </g>
   <g id="patch_9">
    <path d="M 54 252 
L 388.8 252 
" style="fill:none;stroke:#000000;stroke-linecap:square;stroke-linejoin:miter;stroke-width:0.8;"/>
   </g>
   <g id="patch_10">
    <path d="M 54 34.56 
L 388.8 34.56 
" style="fill:none;stroke:#000000;stroke-linecap:square;stroke-linejoin:miter;stroke-width:0.8;"/>
   </g>
   <g id="text_19">
    <!-- x-validation emb_w2v_pm -->
    <defs>
     <path d="M 54.890625 54.6875 
L 35.109375 28.078125 
L 55.90625 0 
L 45.3125 0 
L 29.390625 21.484375 
L 13.484375 0 
L 2.875 0 
L 24.125 28.609375 
L 4.6875 54.6875 
L 15.28125 54.6875 
L 29.78125 35.203125 
L 44.28125 54.6875 
z
" id="DejaVuSans-120"/>
     <path d="M 4.890625 31.390625 
L 31.203125 31.390625 
L 31.203125 23.390625 
L 4.890625 23.390625 
z
" id="DejaVuSans-45"/>
     <path d="M 2.984375 54.6875 
L 12.5 54.6875 
L 29.59375 8.796875 
L 46.6875 54.6875 
L 56.203125 54.6875 
L 35.6875 0 
L 23.484375 0 
z
" id="DejaVuSans-118"/>
     <path d="M 48.6875 27.296875 
Q 48.6875 37.203125 44.609375 42.84375 
Q 40.53125 48.484375 33.40625 48.484375 
Q 26.265625 48.484375 22.1875 42.84375 
Q 18.109375 37.203125 18.109375 27.296875 
Q 18.109375 17.390625 22.1875 11.75 
Q 26.265625 6.109375 33.40625 6.109375 
Q 40.53125 6.109375 44.609375 11.75 
Q 48.6875 17.390625 48.6875 27.296875 
z
M 18.109375 46.390625 
Q 20.953125 51.265625 25.265625 53.625 
Q 29.59375 56 35.59375 56 
Q 45.5625 56 51.78125 48.09375 
Q 58.015625 40.1875 58.015625 27.296875 
Q 58.015625 14.40625 51.78125 6.484375 
Q 45.5625 -1.421875 35.59375 -1.421875 
Q 29.59375 -1.421875 25.265625 0.953125 
Q 20.953125 3.328125 18.109375 8.203125 
L 18.109375 0 
L 9.078125 0 
L 9.078125 75.984375 
L 18.109375 75.984375 
z
" id="DejaVuSans-98"/>
     <path d="M 50.984375 -16.609375 
L 50.984375 -23.578125 
L -0.984375 -23.578125 
L -0.984375 -16.609375 
z
" id="DejaVuSans-95"/>
     <path d="M 4.203125 54.6875 
L 13.1875 54.6875 
L 24.421875 12.015625 
L 35.59375 54.6875 
L 46.1875 54.6875 
L 57.421875 12.015625 
L 68.609375 54.6875 
L 77.59375 54.6875 
L 63.28125 0 
L 52.6875 0 
L 40.921875 44.828125 
L 29.109375 0 
L 18.5 0 
z
" id="DejaVuSans-119"/>
     <path d="M 18.109375 8.203125 
L 18.109375 -20.796875 
L 9.078125 -20.796875 
L 9.078125 54.6875 
L 18.109375 54.6875 
L 18.109375 46.390625 
Q 20.953125 51.265625 25.265625 53.625 
Q 29.59375 56 35.59375 56 
Q 45.5625 56 51.78125 48.09375 
Q 58.015625 40.1875 58.015625 27.296875 
Q 58.015625 14.40625 51.78125 6.484375 
Q 45.5625 -1.421875 35.59375 -1.421875 
Q 29.59375 -1.421875 25.265625 0.953125 
Q 20.953125 3.328125 18.109375 8.203125 
z
M 48.6875 27.296875 
Q 48.6875 37.203125 44.609375 42.84375 
Q 40.53125 48.484375 33.40625 48.484375 
Q 26.265625 48.484375 22.1875 42.84375 
Q 18.109375 37.203125 18.109375 27.296875 
Q 18.109375 17.390625 22.1875 11.75 
Q 26.265625 6.109375 33.40625 6.109375 
Q 40.53125 6.109375 44.609375 11.75 
Q 48.6875 17.390625 48.6875 27.296875 
z
" id="DejaVuSans-112"/>
    </defs>
    <g transform="translate(142.964063 28.56)scale(0.12 -0.12)">
     <use xlink:href="#DejaVuSans-120"/>
     <use x="59.179688" xlink:href="#DejaVuSans-45"/>
     <use x="95.232422" xlink:href="#DejaVuSans-118"/>
     <use x="154.412109" xlink:href="#DejaVuSans-97"/>
     <use x="215.691406" xlink:href="#DejaVuSans-108"/>
     <use x="243.474609" xlink:href="#DejaVuSans-105"/>
     <use x="271.257812" xlink:href="#DejaVuSans-100"/>
     <use x="334.734375" xlink:href="#DejaVuSans-97"/>
     <use x="396.013672" xlink:href="#DejaVuSans-116"/>
     <use x="435.222656" xlink:href="#DejaVuSans-105"/>
     <use x="463.005859" xlink:href="#DejaVuSans-111"/>
     <use x="524.1875" xlink:href="#DejaVuSans-110"/>
     <use x="587.566406" xlink:href="#DejaVuSans-32"/>
     <use x="619.353516" xlink:href="#DejaVuSans-101"/>
     <use x="680.876953" xlink:href="#DejaVuSans-109"/>
     <use x="778.289062" xlink:href="#DejaVuSans-98"/>
     <use x="841.765625" xlink:href="#DejaVuSans-95"/>
     <use x="891.765625" xlink:href="#DejaVuSans-119"/>
     <use x="973.552734" xlink:href="#DejaVuSans-50"/>
     <use x="1037.175781" xlink:href="#DejaVuSans-118"/>
     <use x="1096.355469" xlink:href="#DejaVuSans-95"/>
     <use x="1146.355469" xlink:href="#DejaVuSans-112"/>
     <use x="1209.832031" xlink:href="#DejaVuSans-109"/>
    </g>
   </g>
  </g>
 </g>
 <defs>
  <clipPath id="p0d231e7a35">
   <rect height="217.44" width="334.8" x="54" y="34.56"/>
  </clipPath>
 </defs>
</svg>
