<?xml version="1.0" encoding="utf-8" standalone="no"?>
<!DOCTYPE svg PUBLIC "-//W3C//DTD SVG 1.1//EN"
  "http://www.w3.org/Graphics/SVG/1.1/DTD/svg11.dtd">
<!-- Created with matplotlib (https://matplotlib.org/) -->
<svg height="288pt" version="1.1" viewBox="0 0 432 288" width="432pt" xmlns="http://www.w3.org/2000/svg" xmlns:xlink="http://www.w3.org/1999/xlink">
 <defs>
  <style type="text/css">
*{stroke-linecap:butt;stroke-linejoin:round;}
  </style>
 </defs>
 <g id="figure_1">
  <g id="patch_1">
   <path d="M 0 288 
L 432 288 
L 432 0 
L 0 0 
z
" style="fill:#ffffff;"/>
  </g>
  <g id="axes_1">
   <g id="patch_2">
    <path d="M 54 252 
L 388.8 252 
L 388.8 34.56 
L 54 34.56 
z
" style="fill:#ffffff;"/>
   </g>
   <g id="patch_3">
    <path clip-path="url(#pd85e614e6e)" d="M 70.923523 252 
L 70.923523 251.996541 
L 80.003271 251.948794 
L 80.003271 251.84478 
L 83.029854 251.84478 
L 83.029854 251.657672 
L 86.056437 251.657672 
L 86.056437 251.364103 
L 89.08302 251.364103 
L 89.08302 250.921219 
L 92.109603 250.921219 
L 92.109603 250.229645 
L 95.136186 250.229645 
L 95.136186 249.347758 
L 98.162769 249.347758 
L 98.162769 248.169855 
L 101.189352 248.169855 
L 101.189352 246.740057 
L 104.215935 246.740057 
L 104.215935 244.88914 
L 107.242518 244.88914 
L 107.242518 242.647641 
L 110.269101 242.647641 
L 110.269101 240.1847 
L 113.295684 240.1847 
L 113.295684 237.390145 
L 116.322267 237.390145 
L 116.322267 234.13769 
L 119.34885 234.13769 
L 119.34885 230.719385 
L 122.375433 230.719385 
L 122.375433 226.695299 
L 125.402016 226.695299 
L 125.402016 222.68429 
L 128.428599 222.68429 
L 128.428599 218.478158 
L 131.455182 218.478158 
L 131.455182 213.681176 
L 134.481765 213.681176 
L 134.481765 209.060758 
L 137.508348 209.060758 
L 137.508348 204.187095 
L 140.534931 204.187095 
L 140.534931 198.715917 
L 143.561514 198.715917 
L 143.561514 193.535947 
L 146.588096 193.535947 
L 146.588096 187.875553 
L 149.614679 187.875553 
L 149.614679 182.38084 
L 152.641262 182.38084 
L 152.641262 176.795019 
L 155.667845 176.795019 
L 155.667845 171.179757 
L 158.694428 171.179757 
L 158.694428 164.989589 
L 161.721011 164.989589 
L 161.721011 159.583537 
L 164.747594 159.583537 
L 164.747594 154.277197 
L 167.774177 154.277197 
L 167.774177 148.718034 
L 170.80076 148.718034 
L 170.80076 143.716735 
L 173.827343 143.716735 
L 173.827343 138.832696 
L 176.853926 138.832696 
L 176.853926 133.571488 
L 179.880509 133.571488 
L 179.880509 129.395556 
L 182.907092 129.395556 
L 182.907092 125.229579 
L 185.933675 125.229579 
L 185.933675 121.013071 
L 188.960258 121.013071 
L 188.960258 117.625641 
L 191.986841 117.625641 
L 191.986841 113.806717 
L 195.013424 113.806717 
L 195.013424 110.731752 
L 198.040007 110.731752 
L 198.040007 107.692894 
L 201.06659 107.692894 
L 201.06659 106.03693 
L 204.093173 106.03693 
L 204.093173 103.125453 
L 207.119756 103.125453 
L 207.119756 101.631795 
L 210.146339 101.631795 
L 210.146339 100.353759 
L 213.172922 100.353759 
L 213.172922 98.425063 
L 216.199504 98.425063 
L 216.199504 97.976695 
L 219.226087 97.976695 
L 219.226087 96.236035 
L 222.25267 96.236035 
L 222.25267 96.417659 
L 225.279253 96.417659 
L 225.279253 96.211065 
L 228.305836 96.211065 
L 228.305836 95.616082 
L 234.359002 95.667203 
L 234.359002 96.716543 
L 237.385585 96.716543 
L 237.385585 97.312032 
L 240.412168 97.312032 
L 240.412168 97.570001 
L 243.438751 97.570001 
L 243.438751 98.806196 
L 246.465334 98.806196 
L 246.465334 99.789482 
L 249.491917 99.789482 
L 249.491917 101.153902 
L 252.5185 101.153902 
L 252.5185 101.920387 
L 255.545083 101.920387 
L 255.545083 104.39556 
L 258.571666 104.39556 
L 258.571666 105.310094 
L 261.598249 105.310094 
L 261.598249 107.6098 
L 264.624832 107.6098 
L 264.624832 109.502138 
L 267.651415 109.502138 
L 267.651415 111.620642 
L 270.677998 111.620642 
L 270.677998 113.691989 
L 273.704581 113.691989 
L 273.704581 116.371057 
L 276.731164 116.371057 
L 276.731164 118.982216 
L 279.757747 118.982216 
L 279.757747 121.163736 
L 282.78433 121.163736 
L 282.78433 124.010256 
L 285.810912 124.010256 
L 285.810912 127.036377 
L 288.837495 127.036377 
L 288.837495 130.22202 
L 291.864078 130.22202 
L 291.864078 132.902775 
L 294.890661 132.902775 
L 294.890661 136.341495 
L 297.917244 136.341495 
L 297.917244 139.867104 
L 300.943827 139.867104 
L 300.943827 143.065822 
L 303.97041 143.065822 
L 303.97041 146.502686 
L 306.996993 146.502686 
L 306.996993 149.979283 
L 310.023576 149.979283 
L 310.023576 153.922637 
L 313.050159 153.922637 
L 313.050159 157.662855 
L 316.076742 157.662855 
L 316.076742 161.602582 
L 319.103325 161.602582 
L 319.103325 165.501226 
L 322.129908 165.501226 
L 322.129908 169.847309 
L 325.156491 169.847309 
L 325.156491 173.776744 
L 328.183074 173.776744 
L 328.183074 178.031888 
L 331.209657 178.031888 
L 331.209657 182.534541 
L 334.23624 182.534541 
L 334.23624 187.018045 
L 337.262823 187.018045 
L 337.262823 192.006099 
L 340.289406 192.006099 
L 340.289406 197.009929 
L 343.315989 197.009929 
L 343.315989 201.97993 
L 346.342572 201.97993 
L 346.342572 207.172554 
L 349.369155 207.172554 
L 349.369155 212.337593 
L 352.395737 212.337593 
L 352.395737 217.78051 
L 355.42232 217.78051 
L 355.42232 223.66184 
L 358.448903 223.66184 
L 358.448903 229.416463 
L 361.475486 229.416463 
L 361.475486 235.599038 
L 364.502069 235.599038 
L 364.502069 241.713367 
L 367.528652 241.713367 
L 367.528652 247.367434 
L 370.555235 247.367434 
L 370.555235 250.713612 
L 373.581818 250.713612 
L 373.581818 252 
L 373.581818 252 
" style="fill:none;opacity:0.5;stroke:#008080;stroke-linejoin:miter;stroke-width:2;"/>
   </g>
   <g id="patch_4">
    <path clip-path="url(#pd85e614e6e)" d="M 69.683484 252 
L 69.683484 251.989678 
L 75.722728 251.913812 
L 75.722728 251.678301 
L 78.74235 251.678301 
L 78.74235 251.09735 
L 81.761973 251.09735 
L 81.761973 250.04486 
L 84.781595 250.04486 
L 84.781595 248.19053 
L 87.801217 248.19053 
L 87.801217 245.7002 
L 90.820839 245.7002 
L 90.820839 241.761535 
L 93.840462 241.761535 
L 93.840462 236.476205 
L 96.860084 236.476205 
L 96.860084 230.173825 
L 99.879706 230.173825 
L 99.879706 221.688878 
L 102.899328 221.688878 
L 102.899328 212.506343 
L 105.91895 212.506343 
L 105.91895 201.312586 
L 108.938573 201.312586 
L 108.938573 189.339353 
L 111.958195 189.339353 
L 111.958195 176.446439 
L 114.977817 176.446439 
L 114.977817 163.176603 
L 117.997439 163.176603 
L 117.997439 149.88664 
L 121.017061 149.88664 
L 121.017061 135.931258 
L 124.036684 135.931258 
L 124.036684 122.218441 
L 127.056306 122.218441 
L 127.056306 110.891531 
L 130.075928 110.891531 
L 130.075928 99.577008 
L 133.09555 99.577008 
L 133.09555 89.485629 
L 136.115172 89.485629 
L 136.115172 79.121237 
L 139.134795 79.121237 
L 139.134795 71.506599 
L 142.154417 71.506599 
L 142.154417 65.569269 
L 145.174039 65.569269 
L 145.174039 59.814466 
L 148.193661 59.814466 
L 148.193661 55.240487 
L 151.213284 55.240487 
L 151.213284 51.110867 
L 154.232906 51.110867 
L 154.232906 48.633783 
L 157.252528 48.633783 
L 157.252528 46.711329 
L 160.27215 46.711329 
L 160.27215 44.914286 
L 163.291772 44.914286 
L 163.291772 45.914822 
L 166.311395 45.914822 
L 166.311395 46.552887 
L 169.331017 46.552887 
L 169.331017 46.833471 
L 172.350639 46.833471 
L 172.350639 48.87738 
L 175.370261 48.87738 
L 175.370261 51.993905 
L 178.389883 51.993905 
L 178.389883 54.292421 
L 181.409506 54.292421 
L 181.409506 57.559818 
L 184.429128 57.559818 
L 184.429128 61.67516 
L 187.44875 61.67516 
L 187.44875 65.434052 
L 190.468372 65.434052 
L 190.468372 69.841332 
L 193.487995 69.841332 
L 193.487995 74.359572 
L 196.507617 74.359572 
L 196.507617 78.249036 
L 199.527239 78.249036 
L 199.527239 81.866174 
L 202.546861 81.866174 
L 202.546861 86.879177 
L 205.566483 86.879177 
L 205.566483 92.847817 
L 208.586106 92.847817 
L 208.586106 97.386528 
L 211.605728 97.386528 
L 211.605728 101.684396 
L 214.62535 101.684396 
L 214.62535 108.038902 
L 217.644972 108.038902 
L 217.644972 112.932515 
L 220.664594 112.932515 
L 220.664594 117.338935 
L 223.684217 117.338935 
L 223.684217 122.499025 
L 226.703839 122.499025 
L 226.703839 127.463171 
L 229.723461 127.463171 
L 229.723461 132.701019 
L 232.743083 132.701019 
L 232.743083 138.275362 
L 235.762706 138.275362 
L 235.762706 142.852093 
L 238.782328 142.852093 
L 238.782328 148.361235 
L 241.80195 148.361235 
L 241.80195 152.505994 
L 244.821572 152.505994 
L 244.821572 157.578004 
L 247.841194 157.578004 
L 247.841194 163.002163 
L 250.860817 163.002163 
L 250.860817 167.661641 
L 253.880439 167.661641 
L 253.880439 172.436209 
L 256.900061 172.436209 
L 256.900061 176.449708 
L 259.919683 176.449708 
L 259.919683 181.060157 
L 262.939305 181.060157 
L 262.939305 184.93603 
L 265.958928 184.93603 
L 265.958928 188.961744 
L 268.97855 188.961744 
L 268.97855 193.271481 
L 271.998172 193.271481 
L 271.998172 196.975323 
L 275.017794 196.975323 
L 275.017794 200.479781 
L 278.037416 200.479781 
L 278.037416 204.259489 
L 281.057039 204.259489 
L 281.057039 207.57884 
L 284.076661 207.57884 
L 284.076661 211.025839 
L 287.096283 211.025839 
L 287.096283 214.04964 
L 290.115905 214.04964 
L 290.115905 217.235322 
L 293.135528 217.235322 
L 293.135528 220.12081 
L 296.15515 220.12081 
L 296.15515 223.041219 
L 299.174772 223.041219 
L 299.174772 225.832433 
L 302.194394 225.832433 
L 302.194394 228.259284 
L 305.214016 228.259284 
L 305.214016 230.732068 
L 308.233639 230.732068 
L 308.233639 232.774772 
L 311.253261 232.774772 
L 311.253261 234.877343 
L 314.272883 234.877343 
L 314.272883 237.187384 
L 317.292505 237.187384 
L 317.292505 238.631246 
L 320.312127 238.631246 
L 320.312127 240.492629 
L 323.33175 240.492629 
L 323.33175 241.875248 
L 326.351372 241.875248 
L 326.351372 243.445381 
L 329.370994 243.445381 
L 329.370994 244.655968 
L 332.390616 244.655968 
L 332.390616 245.958591 
L 335.410239 245.958591 
L 335.410239 246.882058 
L 338.429861 246.882058 
L 338.429861 247.904786 
L 341.449483 247.904786 
L 341.449483 248.707314 
L 344.469105 248.707314 
L 344.469105 249.407655 
L 347.488727 249.407655 
L 347.488727 250.078234 
L 350.50835 250.078234 
L 350.50835 250.568868 
L 353.527972 250.568868 
L 353.527972 250.998948 
L 356.547594 250.998948 
L 356.547594 251.292262 
L 359.567216 251.292262 
L 359.567216 251.564588 
L 362.586838 251.564588 
L 362.586838 251.727674 
L 365.606461 251.727674 
L 365.606461 251.880266 
L 371.645705 251.969722 
L 371.645705 252 
L 371.645705 252 
" style="fill:none;opacity:0.5;stroke:#bf4080;stroke-linejoin:miter;stroke-width:2;"/>
   </g>
   <g id="patch_5">
    <path clip-path="url(#pd85e614e6e)" d="M 69.218182 252 
L 69.218182 251.99572 
L 75.287251 251.942476 
L 75.287251 251.781887 
L 78.321785 251.781887 
L 78.321785 251.421333 
L 81.35632 251.421333 
L 81.35632 250.671291 
L 84.390854 250.671291 
L 84.390854 249.413974 
L 87.425388 249.413974 
L 87.425388 247.361931 
L 90.459923 247.361931 
L 90.459923 244.512081 
L 93.494457 244.512081 
L 93.494457 240.637579 
L 96.528992 240.637579 
L 96.528992 235.365715 
L 99.563526 235.365715 
L 99.563526 228.974011 
L 102.598061 228.974011 
L 102.598061 221.267465 
L 105.632595 221.267465 
L 105.632595 212.278265 
L 108.667129 212.278265 
L 108.667129 201.762101 
L 111.701664 201.762101 
L 111.701664 190.32709 
L 114.736198 190.32709 
L 114.736198 178.35022 
L 117.770733 178.35022 
L 117.770733 165.419234 
L 120.805267 165.419234 
L 120.805267 152.731357 
L 123.839802 152.731357 
L 123.839802 140.674022 
L 126.874336 140.674022 
L 126.874336 128.111808 
L 129.908871 128.111808 
L 129.908871 117.975031 
L 132.943405 117.975031 
L 132.943405 107.358201 
L 135.977939 107.358201 
L 135.977939 98.325857 
L 139.012474 98.325857 
L 139.012474 90.431501 
L 142.047008 90.431501 
L 142.047008 84.088418 
L 145.081543 84.088418 
L 145.081543 77.966188 
L 148.116077 77.966188 
L 148.116077 73.94137 
L 151.150612 73.94137 
L 151.150612 70.151271 
L 154.185146 70.151271 
L 154.185146 67.6315 
L 157.21968 67.6315 
L 157.21968 65.727377 
L 160.254215 65.727377 
L 160.254215 64.719503 
L 163.288749 64.719503 
L 163.288749 64.602743 
L 166.323284 64.602743 
L 166.323284 63.977851 
L 172.392353 63.948233 
L 172.392353 65.187573 
L 175.426887 65.187573 
L 175.426887 67.529635 
L 178.461422 67.529635 
L 178.461422 68.116348 
L 181.495956 68.116348 
L 181.495956 70.794995 
L 184.53049 70.794995 
L 184.53049 73.374515 
L 187.565025 73.374515 
L 187.565025 75.576361 
L 190.599559 75.576361 
L 190.599559 78.96242 
L 193.634094 78.96242 
L 193.634094 81.818263 
L 196.668628 81.818263 
L 196.668628 84.74447 
L 199.703163 84.74447 
L 199.703163 87.805413 
L 202.737697 87.805413 
L 202.737697 90.870295 
L 205.772231 90.870295 
L 205.772231 94.159282 
L 208.806766 94.159282 
L 208.806766 98.645151 
L 211.8413 98.645151 
L 211.8413 102.754544 
L 214.875835 102.754544 
L 214.875835 106.264725 
L 217.910369 106.264725 
L 217.910369 109.69427 
L 220.944904 109.69427 
L 220.944904 113.365382 
L 223.979438 113.365382 
L 223.979438 117.966129 
L 227.013972 117.966129 
L 227.013972 122.053437 
L 230.048507 122.053437 
L 230.048507 125.792688 
L 233.083041 125.792688 
L 233.083041 129.988025 
L 236.117576 129.988025 
L 236.117576 134.709812 
L 239.15211 134.709812 
L 239.15211 138.312272 
L 242.186645 138.312272 
L 242.186645 141.726238 
L 245.221179 141.726238 
L 245.221179 145.503496 
L 248.255714 145.503496 
L 248.255714 150.334682 
L 251.290248 150.334682 
L 251.290248 153.984223 
L 254.324782 153.984223 
L 254.324782 158.291356 
L 257.359317 158.291356 
L 257.359317 162.161578 
L 260.393851 162.161578 
L 260.393851 166.308978 
L 263.428386 166.308978 
L 263.428386 169.745028 
L 266.46292 169.745028 
L 266.46292 173.77601 
L 269.497455 173.77601 
L 269.497455 177.450033 
L 272.531989 177.450033 
L 272.531989 181.64383 
L 275.566523 181.64383 
L 275.566523 184.979041 
L 278.601058 184.979041 
L 278.601058 188.790883 
L 281.635592 188.790883 
L 281.635592 192.33034 
L 284.670127 192.33034 
L 284.670127 195.780771 
L 287.704661 195.780771 
L 287.704661 199.188745 
L 290.739196 199.188745 
L 290.739196 202.159978 
L 293.77373 202.159978 
L 293.77373 205.82527 
L 296.808265 205.82527 
L 296.808265 208.725967 
L 299.842799 208.725967 
L 299.842799 211.783829 
L 302.877333 211.783829 
L 302.877333 214.940818 
L 305.911868 214.940818 
L 305.911868 217.453056 
L 308.946402 217.453056 
L 308.946402 220.316773 
L 311.980937 220.316773 
L 311.980937 222.845618 
L 315.015471 222.845618 
L 315.015471 225.599252 
L 318.050006 225.599252 
L 318.050006 228.050541 
L 321.08454 228.050541 
L 321.08454 230.516553 
L 324.119074 230.516553 
L 324.119074 232.969212 
L 327.153609 232.969212 
L 327.153609 234.839779 
L 330.188143 234.839779 
L 330.188143 237.039741 
L 333.222678 237.039741 
L 333.222678 238.764101 
L 336.257212 238.764101 
L 336.257212 240.577487 
L 339.291747 240.577487 
L 339.291747 242.248431 
L 342.326281 242.248431 
L 342.326281 243.869213 
L 345.360815 243.869213 
L 345.360815 245.400455 
L 348.39535 245.400455 
L 348.39535 246.708791 
L 351.429884 246.708791 
L 351.429884 247.878452 
L 354.464419 247.878452 
L 354.464419 249.039381 
L 357.498953 249.039381 
L 357.498953 249.765968 
L 360.533488 249.765968 
L 360.533488 250.634654 
L 363.568022 250.634654 
L 363.568022 251.246363 
L 366.602557 251.246363 
L 366.602557 251.707242 
L 369.637091 251.707242 
L 369.637091 251.951036 
L 372.671625 251.951036 
L 372.671625 252 
" style="fill:none;opacity:0.5;stroke:#bf8080;stroke-linejoin:miter;stroke-width:2;"/>
   </g>
   <g id="patch_6">
    <path clip-path="url(#pd85e614e6e)" d="M 80.200856 252 
L 80.200856 251.988831 
L 86.068475 251.954243 
L 86.068475 251.873899 
L 91.936094 251.874259 
L 91.936094 251.684027 
L 94.869904 251.684027 
L 94.869904 251.560809 
L 97.803713 251.560809 
L 97.803713 251.355805 
L 100.737523 251.355805 
L 100.737523 251.106125 
L 103.671333 251.106125 
L 103.671333 250.933547 
L 106.605142 250.933547 
L 106.605142 250.434908 
L 109.538952 250.434908 
L 109.538952 250.034627 
L 112.472761 250.034627 
L 112.472761 249.410968 
L 115.406571 249.410968 
L 115.406571 248.744075 
L 118.340381 248.744075 
L 118.340381 248.05124 
L 121.27419 248.05124 
L 121.27419 247.020456 
L 124.208 247.020456 
L 124.208 245.719094 
L 127.14181 245.719094 
L 127.14181 244.868094 
L 130.075619 244.868094 
L 130.075619 243.654282 
L 133.009429 243.654282 
L 133.009429 241.879863 
L 135.943239 241.879863 
L 135.943239 240.468974 
L 138.877048 240.468974 
L 138.877048 238.554762 
L 141.810858 238.554762 
L 141.810858 236.265851 
L 144.744667 236.265851 
L 144.744667 234.21545 
L 147.678477 234.21545 
L 147.678477 231.284145 
L 150.612287 231.284145 
L 150.612287 229.040269 
L 153.546096 229.040269 
L 153.546096 226.267851 
L 156.479906 226.267851 
L 156.479906 222.728739 
L 159.413716 222.728739 
L 159.413716 219.69331 
L 162.347525 219.69331 
L 162.347525 215.8058 
L 165.281335 215.8058 
L 165.281335 212.139867 
L 168.215144 212.139867 
L 168.215144 208.250555 
L 171.148954 208.250555 
L 171.148954 203.993028 
L 174.082764 203.993028 
L 174.082764 199.387823 
L 177.016573 199.387823 
L 177.016573 194.149592 
L 179.950383 194.149592 
L 179.950383 189.306957 
L 182.884193 189.306957 
L 182.884193 184.080255 
L 185.818002 184.080255 
L 185.818002 178.982176 
L 188.751812 178.982176 
L 188.751812 173.658917 
L 191.685621 173.658917 
L 191.685621 168.62641 
L 194.619431 168.62641 
L 194.619431 163.544544 
L 197.553241 163.544544 
L 197.553241 158.058074 
L 200.48705 158.058074 
L 200.48705 153.164999 
L 203.42086 153.164999 
L 203.42086 147.625207 
L 206.35467 147.625207 
L 206.35467 142.662596 
L 209.288479 142.662596 
L 209.288479 138.269241 
L 212.222289 138.269241 
L 212.222289 132.648383 
L 215.156098 132.648383 
L 215.156098 127.94554 
L 218.089908 127.94554 
L 218.089908 123.850144 
L 221.023718 123.850144 
L 221.023718 118.510671 
L 223.957527 118.510671 
L 223.957527 114.033729 
L 226.891337 114.033729 
L 226.891337 109.346739 
L 229.825147 109.346739 
L 229.825147 105.768716 
L 232.758956 105.768716 
L 232.758956 103.412431 
L 235.692766 103.412431 
L 235.692766 99.148059 
L 238.626575 99.148059 
L 238.626575 96.190452 
L 241.560385 96.190452 
L 241.560385 91.848618 
L 244.494195 91.848618 
L 244.494195 90.898178 
L 247.428004 90.898178 
L 247.428004 88.121076 
L 250.361814 88.121076 
L 250.361814 85.823157 
L 253.295624 85.823157 
L 253.295624 85.171396 
L 256.229433 85.171396 
L 256.229433 84.075399 
L 259.163243 84.075399 
L 259.163243 83.746816 
L 262.097052 83.746816 
L 262.097052 83.126039 
L 265.030862 83.126039 
L 265.030862 82.574798 
L 267.964672 82.574798 
L 267.964672 82.13993 
L 270.898481 82.13993 
L 270.898481 82.888609 
L 273.832291 82.888609 
L 273.832291 84.170515 
L 279.69991 84.27752 
L 279.69991 86.428081 
L 282.63372 86.428081 
L 282.63372 88.931724 
L 285.567529 88.931724 
L 285.567529 88.634847 
L 288.501339 88.634847 
L 288.501339 90.6013 
L 291.435149 90.6013 
L 291.435149 92.520916 
L 294.368958 92.520916 
L 294.368958 93.442894 
L 297.302768 93.442894 
L 297.302768 95.918074 
L 300.236578 95.918074 
L 300.236578 98.284087 
L 303.170387 98.284087 
L 303.170387 101.315553 
L 306.104197 101.315553 
L 306.104197 103.378203 
L 309.038006 103.378203 
L 309.038006 105.771598 
L 311.971816 105.771598 
L 311.971816 108.368556 
L 314.905626 108.368556 
L 314.905626 111.320038 
L 317.839435 111.320038 
L 317.839435 112.517276 
L 320.773245 112.517276 
L 320.773245 114.672881 
L 323.707055 114.672881 
L 323.707055 118.402585 
L 326.640864 118.402585 
L 326.640864 121.751104 
L 329.574674 121.751104 
L 329.574674 124.317437 
L 332.508483 124.317437 
L 332.508483 128.087134 
L 335.442293 128.087134 
L 335.442293 131.683892 
L 338.376103 131.683892 
L 338.376103 135.324965 
L 341.309912 135.324965 
L 341.309912 140.519241 
L 344.243722 140.519241 
L 344.243722 146.657112 
L 347.177532 146.657112 
L 347.177532 154.036537 
L 350.111341 154.036537 
L 350.111341 161.653751 
L 353.045151 161.653751 
L 353.045151 169.961639 
L 355.97896 169.961639 
L 355.97896 180.270207 
L 358.91277 180.270207 
L 358.91277 192.628095 
L 361.84658 192.628095 
L 361.84658 206.203037 
L 364.780389 206.203037 
L 364.780389 222.320893 
L 367.714199 222.320893 
L 367.714199 238.298237 
L 370.648009 238.298237 
L 370.648009 248.673458 
L 373.581818 248.673458 
L 373.581818 252 
L 373.581818 252 
" style="fill:none;opacity:0.5;stroke:#00bf40;stroke-linejoin:miter;stroke-width:2;"/>
   </g>
   <g id="matplotlib.axis_1">
    <g id="xtick_1">
     <g id="line2d_1">
      <defs>
       <path d="M 0 0 
L 0 3.5 
" id="mb28a53932d" style="stroke:#000000;stroke-width:0.8;"/>
      </defs>
      <g>
       <use style="stroke:#000000;stroke-width:0.8;" x="67.523206" xlink:href="#mb28a53932d" y="252"/>
      </g>
     </g>
     <g id="text_1">
      <!-- −1.00 -->
      <defs>
       <path d="M 10.59375 35.5 
L 73.1875 35.5 
L 73.1875 27.203125 
L 10.59375 27.203125 
z
" id="DejaVuSans-8722"/>
       <path d="M 12.40625 8.296875 
L 28.515625 8.296875 
L 28.515625 63.921875 
L 10.984375 60.40625 
L 10.984375 69.390625 
L 28.421875 72.90625 
L 38.28125 72.90625 
L 38.28125 8.296875 
L 54.390625 8.296875 
L 54.390625 0 
L 12.40625 0 
z
" id="DejaVuSans-49"/>
       <path d="M 10.6875 12.40625 
L 21 12.40625 
L 21 0 
L 10.6875 0 
z
" id="DejaVuSans-46"/>
       <path d="M 31.78125 66.40625 
Q 24.171875 66.40625 20.328125 58.90625 
Q 16.5 51.421875 16.5 36.375 
Q 16.5 21.390625 20.328125 13.890625 
Q 24.171875 6.390625 31.78125 6.390625 
Q 39.453125 6.390625 43.28125 13.890625 
Q 47.125 21.390625 47.125 36.375 
Q 47.125 51.421875 43.28125 58.90625 
Q 39.453125 66.40625 31.78125 66.40625 
z
M 31.78125 74.21875 
Q 44.046875 74.21875 50.515625 64.515625 
Q 56.984375 54.828125 56.984375 36.375 
Q 56.984375 17.96875 50.515625 8.265625 
Q 44.046875 -1.421875 31.78125 -1.421875 
Q 19.53125 -1.421875 13.0625 8.265625 
Q 6.59375 17.96875 6.59375 36.375 
Q 6.59375 54.828125 13.0625 64.515625 
Q 19.53125 74.21875 31.78125 74.21875 
z
" id="DejaVuSans-48"/>
      </defs>
      <g transform="translate(52.20055 266.598437)scale(0.1 -0.1)">
       <use xlink:href="#DejaVuSans-8722"/>
       <use x="83.789062" xlink:href="#DejaVuSans-49"/>
       <use x="147.412109" xlink:href="#DejaVuSans-46"/>
       <use x="179.199219" xlink:href="#DejaVuSans-48"/>
       <use x="242.822266" xlink:href="#DejaVuSans-48"/>
      </g>
     </g>
    </g>
    <g id="xtick_2">
     <g id="line2d_2">
      <g>
       <use style="stroke:#000000;stroke-width:0.8;" x="105.780533" xlink:href="#mb28a53932d" y="252"/>
      </g>
     </g>
     <g id="text_2">
      <!-- −0.75 -->
      <defs>
       <path d="M 8.203125 72.90625 
L 55.078125 72.90625 
L 55.078125 68.703125 
L 28.609375 0 
L 18.3125 0 
L 43.21875 64.59375 
L 8.203125 64.59375 
z
" id="DejaVuSans-55"/>
       <path d="M 10.796875 72.90625 
L 49.515625 72.90625 
L 49.515625 64.59375 
L 19.828125 64.59375 
L 19.828125 46.734375 
Q 21.96875 47.46875 24.109375 47.828125 
Q 26.265625 48.1875 28.421875 48.1875 
Q 40.625 48.1875 47.75 41.5 
Q 54.890625 34.8125 54.890625 23.390625 
Q 54.890625 11.625 47.5625 5.09375 
Q 40.234375 -1.421875 26.90625 -1.421875 
Q 22.3125 -1.421875 17.546875 -0.640625 
Q 12.796875 0.140625 7.71875 1.703125 
L 7.71875 11.625 
Q 12.109375 9.234375 16.796875 8.0625 
Q 21.484375 6.890625 26.703125 6.890625 
Q 35.15625 6.890625 40.078125 11.328125 
Q 45.015625 15.765625 45.015625 23.390625 
Q 45.015625 31 40.078125 35.4375 
Q 35.15625 39.890625 26.703125 39.890625 
Q 22.75 39.890625 18.8125 39.015625 
Q 14.890625 38.140625 10.796875 36.28125 
z
" id="DejaVuSans-53"/>
      </defs>
      <g transform="translate(90.457876 266.598437)scale(0.1 -0.1)">
       <use xlink:href="#DejaVuSans-8722"/>
       <use x="83.789062" xlink:href="#DejaVuSans-48"/>
       <use x="147.412109" xlink:href="#DejaVuSans-46"/>
       <use x="179.199219" xlink:href="#DejaVuSans-55"/>
       <use x="242.822266" xlink:href="#DejaVuSans-53"/>
      </g>
     </g>
    </g>
    <g id="xtick_3">
     <g id="line2d_3">
      <g>
       <use style="stroke:#000000;stroke-width:0.8;" x="144.037859" xlink:href="#mb28a53932d" y="252"/>
      </g>
     </g>
     <g id="text_3">
      <!-- −0.50 -->
      <g transform="translate(128.715203 266.598437)scale(0.1 -0.1)">
       <use xlink:href="#DejaVuSans-8722"/>
       <use x="83.789062" xlink:href="#DejaVuSans-48"/>
       <use x="147.412109" xlink:href="#DejaVuSans-46"/>
       <use x="179.199219" xlink:href="#DejaVuSans-53"/>
       <use x="242.822266" xlink:href="#DejaVuSans-48"/>
      </g>
     </g>
    </g>
    <g id="xtick_4">
     <g id="line2d_4">
      <g>
       <use style="stroke:#000000;stroke-width:0.8;" x="182.295186" xlink:href="#mb28a53932d" y="252"/>
      </g>
     </g>
     <g id="text_4">
      <!-- −0.25 -->
      <defs>
       <path d="M 19.1875 8.296875 
L 53.609375 8.296875 
L 53.609375 0 
L 7.328125 0 
L 7.328125 8.296875 
Q 12.9375 14.109375 22.625 23.890625 
Q 32.328125 33.6875 34.8125 36.53125 
Q 39.546875 41.84375 41.421875 45.53125 
Q 43.3125 49.21875 43.3125 52.78125 
Q 43.3125 58.59375 39.234375 62.25 
Q 35.15625 65.921875 28.609375 65.921875 
Q 23.96875 65.921875 18.8125 64.3125 
Q 13.671875 62.703125 7.8125 59.421875 
L 7.8125 69.390625 
Q 13.765625 71.78125 18.9375 73 
Q 24.125 74.21875 28.421875 74.21875 
Q 39.75 74.21875 46.484375 68.546875 
Q 53.21875 62.890625 53.21875 53.421875 
Q 53.21875 48.921875 51.53125 44.890625 
Q 49.859375 40.875 45.40625 35.40625 
Q 44.1875 33.984375 37.640625 27.21875 
Q 31.109375 20.453125 19.1875 8.296875 
z
" id="DejaVuSans-50"/>
      </defs>
      <g transform="translate(166.972529 266.598437)scale(0.1 -0.1)">
       <use xlink:href="#DejaVuSans-8722"/>
       <use x="83.789062" xlink:href="#DejaVuSans-48"/>
       <use x="147.412109" xlink:href="#DejaVuSans-46"/>
       <use x="179.199219" xlink:href="#DejaVuSans-50"/>
       <use x="242.822266" xlink:href="#DejaVuSans-53"/>
      </g>
     </g>
    </g>
    <g id="xtick_5">
     <g id="line2d_5">
      <g>
       <use style="stroke:#000000;stroke-width:0.8;" x="220.552512" xlink:href="#mb28a53932d" y="252"/>
      </g>
     </g>
     <g id="text_5">
      <!-- 0.00 -->
      <g transform="translate(209.4197 266.598437)scale(0.1 -0.1)">
       <use xlink:href="#DejaVuSans-48"/>
       <use x="63.623047" xlink:href="#DejaVuSans-46"/>
       <use x="95.410156" xlink:href="#DejaVuSans-48"/>
       <use x="159.033203" xlink:href="#DejaVuSans-48"/>
      </g>
     </g>
    </g>
    <g id="xtick_6">
     <g id="line2d_6">
      <g>
       <use style="stroke:#000000;stroke-width:0.8;" x="258.809839" xlink:href="#mb28a53932d" y="252"/>
      </g>
     </g>
     <g id="text_6">
      <!-- 0.25 -->
      <g transform="translate(247.677026 266.598437)scale(0.1 -0.1)">
       <use xlink:href="#DejaVuSans-48"/>
       <use x="63.623047" xlink:href="#DejaVuSans-46"/>
       <use x="95.410156" xlink:href="#DejaVuSans-50"/>
       <use x="159.033203" xlink:href="#DejaVuSans-53"/>
      </g>
     </g>
    </g>
    <g id="xtick_7">
     <g id="line2d_7">
      <g>
       <use style="stroke:#000000;stroke-width:0.8;" x="297.067165" xlink:href="#mb28a53932d" y="252"/>
      </g>
     </g>
     <g id="text_7">
      <!-- 0.50 -->
      <g transform="translate(285.934353 266.598437)scale(0.1 -0.1)">
       <use xlink:href="#DejaVuSans-48"/>
       <use x="63.623047" xlink:href="#DejaVuSans-46"/>
       <use x="95.410156" xlink:href="#DejaVuSans-53"/>
       <use x="159.033203" xlink:href="#DejaVuSans-48"/>
      </g>
     </g>
    </g>
    <g id="xtick_8">
     <g id="line2d_8">
      <g>
       <use style="stroke:#000000;stroke-width:0.8;" x="335.324492" xlink:href="#mb28a53932d" y="252"/>
      </g>
     </g>
     <g id="text_8">
      <!-- 0.75 -->
      <g transform="translate(324.191679 266.598437)scale(0.1 -0.1)">
       <use xlink:href="#DejaVuSans-48"/>
       <use x="63.623047" xlink:href="#DejaVuSans-46"/>
       <use x="95.410156" xlink:href="#DejaVuSans-55"/>
       <use x="159.033203" xlink:href="#DejaVuSans-53"/>
      </g>
     </g>
    </g>
    <g id="xtick_9">
     <g id="line2d_9">
      <g>
       <use style="stroke:#000000;stroke-width:0.8;" x="373.581818" xlink:href="#mb28a53932d" y="252"/>
      </g>
     </g>
     <g id="text_9">
      <!-- 1.00 -->
      <g transform="translate(362.449006 266.598437)scale(0.1 -0.1)">
       <use xlink:href="#DejaVuSans-49"/>
       <use x="63.623047" xlink:href="#DejaVuSans-46"/>
       <use x="95.410156" xlink:href="#DejaVuSans-48"/>
       <use x="159.033203" xlink:href="#DejaVuSans-48"/>
      </g>
     </g>
    </g>
    <g id="text_10">
     <!-- cosine similarity -->
     <defs>
      <path d="M 48.78125 52.59375 
L 48.78125 44.1875 
Q 44.96875 46.296875 41.140625 47.34375 
Q 37.3125 48.390625 33.40625 48.390625 
Q 24.65625 48.390625 19.8125 42.84375 
Q 14.984375 37.3125 14.984375 27.296875 
Q 14.984375 17.28125 19.8125 11.734375 
Q 24.65625 6.203125 33.40625 6.203125 
Q 37.3125 6.203125 41.140625 7.25 
Q 44.96875 8.296875 48.78125 10.40625 
L 48.78125 2.09375 
Q 45.015625 0.34375 40.984375 -0.53125 
Q 36.96875 -1.421875 32.421875 -1.421875 
Q 20.0625 -1.421875 12.78125 6.34375 
Q 5.515625 14.109375 5.515625 27.296875 
Q 5.515625 40.671875 12.859375 48.328125 
Q 20.21875 56 33.015625 56 
Q 37.15625 56 41.109375 55.140625 
Q 45.0625 54.296875 48.78125 52.59375 
z
" id="DejaVuSans-99"/>
      <path d="M 30.609375 48.390625 
Q 23.390625 48.390625 19.1875 42.75 
Q 14.984375 37.109375 14.984375 27.296875 
Q 14.984375 17.484375 19.15625 11.84375 
Q 23.34375 6.203125 30.609375 6.203125 
Q 37.796875 6.203125 41.984375 11.859375 
Q 46.1875 17.53125 46.1875 27.296875 
Q 46.1875 37.015625 41.984375 42.703125 
Q 37.796875 48.390625 30.609375 48.390625 
z
M 30.609375 56 
Q 42.328125 56 49.015625 48.375 
Q 55.71875 40.765625 55.71875 27.296875 
Q 55.71875 13.875 49.015625 6.21875 
Q 42.328125 -1.421875 30.609375 -1.421875 
Q 18.84375 -1.421875 12.171875 6.21875 
Q 5.515625 13.875 5.515625 27.296875 
Q 5.515625 40.765625 12.171875 48.375 
Q 18.84375 56 30.609375 56 
z
" id="DejaVuSans-111"/>
      <path d="M 44.28125 53.078125 
L 44.28125 44.578125 
Q 40.484375 46.53125 36.375 47.5 
Q 32.28125 48.484375 27.875 48.484375 
Q 21.1875 48.484375 17.84375 46.4375 
Q 14.5 44.390625 14.5 40.28125 
Q 14.5 37.15625 16.890625 35.375 
Q 19.28125 33.59375 26.515625 31.984375 
L 29.59375 31.296875 
Q 39.15625 29.25 43.1875 25.515625 
Q 47.21875 21.78125 47.21875 15.09375 
Q 47.21875 7.46875 41.1875 3.015625 
Q 35.15625 -1.421875 24.609375 -1.421875 
Q 20.21875 -1.421875 15.453125 -0.5625 
Q 10.6875 0.296875 5.421875 2 
L 5.421875 11.28125 
Q 10.40625 8.6875 15.234375 7.390625 
Q 20.0625 6.109375 24.8125 6.109375 
Q 31.15625 6.109375 34.5625 8.28125 
Q 37.984375 10.453125 37.984375 14.40625 
Q 37.984375 18.0625 35.515625 20.015625 
Q 33.0625 21.96875 24.703125 23.78125 
L 21.578125 24.515625 
Q 13.234375 26.265625 9.515625 29.90625 
Q 5.8125 33.546875 5.8125 39.890625 
Q 5.8125 47.609375 11.28125 51.796875 
Q 16.75 56 26.8125 56 
Q 31.78125 56 36.171875 55.265625 
Q 40.578125 54.546875 44.28125 53.078125 
z
" id="DejaVuSans-115"/>
      <path d="M 9.421875 54.6875 
L 18.40625 54.6875 
L 18.40625 0 
L 9.421875 0 
z
M 9.421875 75.984375 
L 18.40625 75.984375 
L 18.40625 64.59375 
L 9.421875 64.59375 
z
" id="DejaVuSans-105"/>
      <path d="M 54.890625 33.015625 
L 54.890625 0 
L 45.90625 0 
L 45.90625 32.71875 
Q 45.90625 40.484375 42.875 44.328125 
Q 39.84375 48.1875 33.796875 48.1875 
Q 26.515625 48.1875 22.3125 43.546875 
Q 18.109375 38.921875 18.109375 30.90625 
L 18.109375 0 
L 9.078125 0 
L 9.078125 54.6875 
L 18.109375 54.6875 
L 18.109375 46.1875 
Q 21.34375 51.125 25.703125 53.5625 
Q 30.078125 56 35.796875 56 
Q 45.21875 56 50.046875 50.171875 
Q 54.890625 44.34375 54.890625 33.015625 
z
" id="DejaVuSans-110"/>
      <path d="M 56.203125 29.59375 
L 56.203125 25.203125 
L 14.890625 25.203125 
Q 15.484375 15.921875 20.484375 11.0625 
Q 25.484375 6.203125 34.421875 6.203125 
Q 39.59375 6.203125 44.453125 7.46875 
Q 49.3125 8.734375 54.109375 11.28125 
L 54.109375 2.78125 
Q 49.265625 0.734375 44.1875 -0.34375 
Q 39.109375 -1.421875 33.890625 -1.421875 
Q 20.796875 -1.421875 13.15625 6.1875 
Q 5.515625 13.8125 5.515625 26.8125 
Q 5.515625 40.234375 12.765625 48.109375 
Q 20.015625 56 32.328125 56 
Q 43.359375 56 49.78125 48.890625 
Q 56.203125 41.796875 56.203125 29.59375 
z
M 47.21875 32.234375 
Q 47.125 39.59375 43.09375 43.984375 
Q 39.0625 48.390625 32.421875 48.390625 
Q 24.90625 48.390625 20.390625 44.140625 
Q 15.875 39.890625 15.1875 32.171875 
z
" id="DejaVuSans-101"/>
      <path id="DejaVuSans-32"/>
      <path d="M 52 44.1875 
Q 55.375 50.25 60.0625 53.125 
Q 64.75 56 71.09375 56 
Q 79.640625 56 84.28125 50.015625 
Q 88.921875 44.046875 88.921875 33.015625 
L 88.921875 0 
L 79.890625 0 
L 79.890625 32.71875 
Q 79.890625 40.578125 77.09375 44.375 
Q 74.3125 48.1875 68.609375 48.1875 
Q 61.625 48.1875 57.5625 43.546875 
Q 53.515625 38.921875 53.515625 30.90625 
L 53.515625 0 
L 44.484375 0 
L 44.484375 32.71875 
Q 44.484375 40.625 41.703125 44.40625 
Q 38.921875 48.1875 33.109375 48.1875 
Q 26.21875 48.1875 22.15625 43.53125 
Q 18.109375 38.875 18.109375 30.90625 
L 18.109375 0 
L 9.078125 0 
L 9.078125 54.6875 
L 18.109375 54.6875 
L 18.109375 46.1875 
Q 21.1875 51.21875 25.484375 53.609375 
Q 29.78125 56 35.6875 56 
Q 41.65625 56 45.828125 52.96875 
Q 50 49.953125 52 44.1875 
z
" id="DejaVuSans-109"/>
      <path d="M 9.421875 75.984375 
L 18.40625 75.984375 
L 18.40625 0 
L 9.421875 0 
z
" id="DejaVuSans-108"/>
      <path d="M 34.28125 27.484375 
Q 23.390625 27.484375 19.1875 25 
Q 14.984375 22.515625 14.984375 16.5 
Q 14.984375 11.71875 18.140625 8.90625 
Q 21.296875 6.109375 26.703125 6.109375 
Q 34.1875 6.109375 38.703125 11.40625 
Q 43.21875 16.703125 43.21875 25.484375 
L 43.21875 27.484375 
z
M 52.203125 31.203125 
L 52.203125 0 
L 43.21875 0 
L 43.21875 8.296875 
Q 40.140625 3.328125 35.546875 0.953125 
Q 30.953125 -1.421875 24.3125 -1.421875 
Q 15.921875 -1.421875 10.953125 3.296875 
Q 6 8.015625 6 15.921875 
Q 6 25.140625 12.171875 29.828125 
Q 18.359375 34.515625 30.609375 34.515625 
L 43.21875 34.515625 
L 43.21875 35.40625 
Q 43.21875 41.609375 39.140625 45 
Q 35.0625 48.390625 27.6875 48.390625 
Q 23 48.390625 18.546875 47.265625 
Q 14.109375 46.140625 10.015625 43.890625 
L 10.015625 52.203125 
Q 14.9375 54.109375 19.578125 55.046875 
Q 24.21875 56 28.609375 56 
Q 40.484375 56 46.34375 49.84375 
Q 52.203125 43.703125 52.203125 31.203125 
z
" id="DejaVuSans-97"/>
      <path d="M 41.109375 46.296875 
Q 39.59375 47.171875 37.8125 47.578125 
Q 36.03125 48 33.890625 48 
Q 26.265625 48 22.1875 43.046875 
Q 18.109375 38.09375 18.109375 28.8125 
L 18.109375 0 
L 9.078125 0 
L 9.078125 54.6875 
L 18.109375 54.6875 
L 18.109375 46.1875 
Q 20.953125 51.171875 25.484375 53.578125 
Q 30.03125 56 36.53125 56 
Q 37.453125 56 38.578125 55.875 
Q 39.703125 55.765625 41.0625 55.515625 
z
" id="DejaVuSans-114"/>
      <path d="M 18.3125 70.21875 
L 18.3125 54.6875 
L 36.8125 54.6875 
L 36.8125 47.703125 
L 18.3125 47.703125 
L 18.3125 18.015625 
Q 18.3125 11.328125 20.140625 9.421875 
Q 21.96875 7.515625 27.59375 7.515625 
L 36.8125 7.515625 
L 36.8125 0 
L 27.59375 0 
Q 17.1875 0 13.234375 3.875 
Q 9.28125 7.765625 9.28125 18.015625 
L 9.28125 47.703125 
L 2.6875 47.703125 
L 2.6875 54.6875 
L 9.28125 54.6875 
L 9.28125 70.21875 
z
" id="DejaVuSans-116"/>
      <path d="M 32.171875 -5.078125 
Q 28.375 -14.84375 24.75 -17.8125 
Q 21.140625 -20.796875 15.09375 -20.796875 
L 7.90625 -20.796875 
L 7.90625 -13.28125 
L 13.1875 -13.28125 
Q 16.890625 -13.28125 18.9375 -11.515625 
Q 21 -9.765625 23.484375 -3.21875 
L 25.09375 0.875 
L 2.984375 54.6875 
L 12.5 54.6875 
L 29.59375 11.921875 
L 46.6875 54.6875 
L 56.203125 54.6875 
z
" id="DejaVuSans-121"/>
     </defs>
     <g transform="translate(180.692969 280.276563)scale(0.1 -0.1)">
      <use xlink:href="#DejaVuSans-99"/>
      <use x="54.980469" xlink:href="#DejaVuSans-111"/>
      <use x="116.162109" xlink:href="#DejaVuSans-115"/>
      <use x="168.261719" xlink:href="#DejaVuSans-105"/>
      <use x="196.044922" xlink:href="#DejaVuSans-110"/>
      <use x="259.423828" xlink:href="#DejaVuSans-101"/>
      <use x="320.947266" xlink:href="#DejaVuSans-32"/>
      <use x="352.734375" xlink:href="#DejaVuSans-115"/>
      <use x="404.833984" xlink:href="#DejaVuSans-105"/>
      <use x="432.617188" xlink:href="#DejaVuSans-109"/>
      <use x="530.029297" xlink:href="#DejaVuSans-105"/>
      <use x="557.8125" xlink:href="#DejaVuSans-108"/>
      <use x="585.595703" xlink:href="#DejaVuSans-97"/>
      <use x="646.875" xlink:href="#DejaVuSans-114"/>
      <use x="687.988281" xlink:href="#DejaVuSans-105"/>
      <use x="715.771484" xlink:href="#DejaVuSans-116"/>
      <use x="754.980469" xlink:href="#DejaVuSans-121"/>
     </g>
    </g>
   </g>
   <g id="matplotlib.axis_2">
    <g id="ytick_1">
     <g id="line2d_10">
      <defs>
       <path d="M 0 0 
L -3.5 0 
" id="mfcf6a29d7d" style="stroke:#000000;stroke-width:0.8;"/>
      </defs>
      <g>
       <use style="stroke:#000000;stroke-width:0.8;" x="54" xlink:href="#mfcf6a29d7d" y="252"/>
      </g>
     </g>
     <g id="text_11">
      <!-- 0.0 -->
      <g transform="translate(31.096875 255.799219)scale(0.1 -0.1)">
       <use xlink:href="#DejaVuSans-48"/>
       <use x="63.623047" xlink:href="#DejaVuSans-46"/>
       <use x="95.410156" xlink:href="#DejaVuSans-48"/>
      </g>
     </g>
    </g>
    <g id="ytick_2">
     <g id="line2d_11">
      <g>
       <use style="stroke:#000000;stroke-width:0.8;" x="54" xlink:href="#mfcf6a29d7d" y="218.246511"/>
      </g>
     </g>
     <g id="text_12">
      <!-- 0.2 -->
      <g transform="translate(31.096875 222.04573)scale(0.1 -0.1)">
       <use xlink:href="#DejaVuSans-48"/>
       <use x="63.623047" xlink:href="#DejaVuSans-46"/>
       <use x="95.410156" xlink:href="#DejaVuSans-50"/>
      </g>
     </g>
    </g>
    <g id="ytick_3">
     <g id="line2d_12">
      <g>
       <use style="stroke:#000000;stroke-width:0.8;" x="54" xlink:href="#mfcf6a29d7d" y="184.493022"/>
      </g>
     </g>
     <g id="text_13">
      <!-- 0.4 -->
      <defs>
       <path d="M 37.796875 64.3125 
L 12.890625 25.390625 
L 37.796875 25.390625 
z
M 35.203125 72.90625 
L 47.609375 72.90625 
L 47.609375 25.390625 
L 58.015625 25.390625 
L 58.015625 17.1875 
L 47.609375 17.1875 
L 47.609375 0 
L 37.796875 0 
L 37.796875 17.1875 
L 4.890625 17.1875 
L 4.890625 26.703125 
z
" id="DejaVuSans-52"/>
      </defs>
      <g transform="translate(31.096875 188.292241)scale(0.1 -0.1)">
       <use xlink:href="#DejaVuSans-48"/>
       <use x="63.623047" xlink:href="#DejaVuSans-46"/>
       <use x="95.410156" xlink:href="#DejaVuSans-52"/>
      </g>
     </g>
    </g>
    <g id="ytick_4">
     <g id="line2d_13">
      <g>
       <use style="stroke:#000000;stroke-width:0.8;" x="54" xlink:href="#mfcf6a29d7d" y="150.739534"/>
      </g>
     </g>
     <g id="text_14">
      <!-- 0.6 -->
      <defs>
       <path d="M 33.015625 40.375 
Q 26.375 40.375 22.484375 35.828125 
Q 18.609375 31.296875 18.609375 23.390625 
Q 18.609375 15.53125 22.484375 10.953125 
Q 26.375 6.390625 33.015625 6.390625 
Q 39.65625 6.390625 43.53125 10.953125 
Q 47.40625 15.53125 47.40625 23.390625 
Q 47.40625 31.296875 43.53125 35.828125 
Q 39.65625 40.375 33.015625 40.375 
z
M 52.59375 71.296875 
L 52.59375 62.3125 
Q 48.875 64.0625 45.09375 64.984375 
Q 41.3125 65.921875 37.59375 65.921875 
Q 27.828125 65.921875 22.671875 59.328125 
Q 17.53125 52.734375 16.796875 39.40625 
Q 19.671875 43.65625 24.015625 45.921875 
Q 28.375 48.1875 33.59375 48.1875 
Q 44.578125 48.1875 50.953125 41.515625 
Q 57.328125 34.859375 57.328125 23.390625 
Q 57.328125 12.15625 50.6875 5.359375 
Q 44.046875 -1.421875 33.015625 -1.421875 
Q 20.359375 -1.421875 13.671875 8.265625 
Q 6.984375 17.96875 6.984375 36.375 
Q 6.984375 53.65625 15.1875 63.9375 
Q 23.390625 74.21875 37.203125 74.21875 
Q 40.921875 74.21875 44.703125 73.484375 
Q 48.484375 72.75 52.59375 71.296875 
z
" id="DejaVuSans-54"/>
      </defs>
      <g transform="translate(31.096875 154.538752)scale(0.1 -0.1)">
       <use xlink:href="#DejaVuSans-48"/>
       <use x="63.623047" xlink:href="#DejaVuSans-46"/>
       <use x="95.410156" xlink:href="#DejaVuSans-54"/>
      </g>
     </g>
    </g>
    <g id="ytick_5">
     <g id="line2d_14">
      <g>
       <use style="stroke:#000000;stroke-width:0.8;" x="54" xlink:href="#mfcf6a29d7d" y="116.986045"/>
      </g>
     </g>
     <g id="text_15">
      <!-- 0.8 -->
      <defs>
       <path d="M 31.78125 34.625 
Q 24.75 34.625 20.71875 30.859375 
Q 16.703125 27.09375 16.703125 20.515625 
Q 16.703125 13.921875 20.71875 10.15625 
Q 24.75 6.390625 31.78125 6.390625 
Q 38.8125 6.390625 42.859375 10.171875 
Q 46.921875 13.96875 46.921875 20.515625 
Q 46.921875 27.09375 42.890625 30.859375 
Q 38.875 34.625 31.78125 34.625 
z
M 21.921875 38.8125 
Q 15.578125 40.375 12.03125 44.71875 
Q 8.5 49.078125 8.5 55.328125 
Q 8.5 64.0625 14.71875 69.140625 
Q 20.953125 74.21875 31.78125 74.21875 
Q 42.671875 74.21875 48.875 69.140625 
Q 55.078125 64.0625 55.078125 55.328125 
Q 55.078125 49.078125 51.53125 44.71875 
Q 48 40.375 41.703125 38.8125 
Q 48.828125 37.15625 52.796875 32.3125 
Q 56.78125 27.484375 56.78125 20.515625 
Q 56.78125 9.90625 50.3125 4.234375 
Q 43.84375 -1.421875 31.78125 -1.421875 
Q 19.734375 -1.421875 13.25 4.234375 
Q 6.78125 9.90625 6.78125 20.515625 
Q 6.78125 27.484375 10.78125 32.3125 
Q 14.796875 37.15625 21.921875 38.8125 
z
M 18.3125 54.390625 
Q 18.3125 48.734375 21.84375 45.5625 
Q 25.390625 42.390625 31.78125 42.390625 
Q 38.140625 42.390625 41.71875 45.5625 
Q 45.3125 48.734375 45.3125 54.390625 
Q 45.3125 60.0625 41.71875 63.234375 
Q 38.140625 66.40625 31.78125 66.40625 
Q 25.390625 66.40625 21.84375 63.234375 
Q 18.3125 60.0625 18.3125 54.390625 
z
" id="DejaVuSans-56"/>
      </defs>
      <g transform="translate(31.096875 120.785264)scale(0.1 -0.1)">
       <use xlink:href="#DejaVuSans-48"/>
       <use x="63.623047" xlink:href="#DejaVuSans-46"/>
       <use x="95.410156" xlink:href="#DejaVuSans-56"/>
      </g>
     </g>
    </g>
    <g id="ytick_6">
     <g id="line2d_15">
      <g>
       <use style="stroke:#000000;stroke-width:0.8;" x="54" xlink:href="#mfcf6a29d7d" y="83.232556"/>
      </g>
     </g>
     <g id="text_16">
      <!-- 1.0 -->
      <g transform="translate(31.096875 87.031775)scale(0.1 -0.1)">
       <use xlink:href="#DejaVuSans-49"/>
       <use x="63.623047" xlink:href="#DejaVuSans-46"/>
       <use x="95.410156" xlink:href="#DejaVuSans-48"/>
      </g>
     </g>
    </g>
    <g id="ytick_7">
     <g id="line2d_16">
      <g>
       <use style="stroke:#000000;stroke-width:0.8;" x="54" xlink:href="#mfcf6a29d7d" y="49.479067"/>
      </g>
     </g>
     <g id="text_17">
      <!-- 1.2 -->
      <g transform="translate(31.096875 53.278286)scale(0.1 -0.1)">
       <use xlink:href="#DejaVuSans-49"/>
       <use x="63.623047" xlink:href="#DejaVuSans-46"/>
       <use x="95.410156" xlink:href="#DejaVuSans-50"/>
      </g>
     </g>
    </g>
    <g id="text_18">
     <!-- density -->
     <defs>
      <path d="M 45.40625 46.390625 
L 45.40625 75.984375 
L 54.390625 75.984375 
L 54.390625 0 
L 45.40625 0 
L 45.40625 8.203125 
Q 42.578125 3.328125 38.25 0.953125 
Q 33.9375 -1.421875 27.875 -1.421875 
Q 17.96875 -1.421875 11.734375 6.484375 
Q 5.515625 14.40625 5.515625 27.296875 
Q 5.515625 40.1875 11.734375 48.09375 
Q 17.96875 56 27.875 56 
Q 33.9375 56 38.25 53.625 
Q 42.578125 51.265625 45.40625 46.390625 
z
M 14.796875 27.296875 
Q 14.796875 17.390625 18.875 11.75 
Q 22.953125 6.109375 30.078125 6.109375 
Q 37.203125 6.109375 41.296875 11.75 
Q 45.40625 17.390625 45.40625 27.296875 
Q 45.40625 37.203125 41.296875 42.84375 
Q 37.203125 48.484375 30.078125 48.484375 
Q 22.953125 48.484375 18.875 42.84375 
Q 14.796875 37.203125 14.796875 27.296875 
z
" id="DejaVuSans-100"/>
     </defs>
     <g transform="translate(25.017187 161.612813)rotate(-90)scale(0.1 -0.1)">
      <use xlink:href="#DejaVuSans-100"/>
      <use x="63.476562" xlink:href="#DejaVuSans-101"/>
      <use x="125" xlink:href="#DejaVuSans-110"/>
      <use x="188.378906" xlink:href="#DejaVuSans-115"/>
      <use x="240.478516" xlink:href="#DejaVuSans-105"/>
      <use x="268.261719" xlink:href="#DejaVuSans-116"/>
      <use x="307.470703" xlink:href="#DejaVuSans-121"/>
     </g>
    </g>
   </g>
   <g id="patch_7">
    <path d="M 54 252 
L 54 34.56 
" style="fill:none;stroke:#000000;stroke-linecap:square;stroke-linejoin:miter;stroke-width:0.8;"/>
   </g>
   <g id="patch_8">
    <path d="M 388.8 252 
L 388.8 34.56 
" style="fill:none;stroke:#000000;stroke-linecap:square;stroke-linejoin:miter;stroke-width:0.8;"/>
   </g>
   <g id="patch_9">
    <path d="M 54 252 
L 388.8 252 
" style="fill:none;stroke:#000000;stroke-linecap:square;stroke-linejoin:miter;stroke-width:0.8;"/>
   </g>
   <g id="patch_10">
    <path d="M 54 34.56 
L 388.8 34.56 
" style="fill:none;stroke:#000000;stroke-linecap:square;stroke-linejoin:miter;stroke-width:0.8;"/>
   </g>
   <g id="text_19">
    <!-- x-validation emb_w2v_pm -->
    <defs>
     <path d="M 54.890625 54.6875 
L 35.109375 28.078125 
L 55.90625 0 
L 45.3125 0 
L 29.390625 21.484375 
L 13.484375 0 
L 2.875 0 
L 24.125 28.609375 
L 4.6875 54.6875 
L 15.28125 54.6875 
L 29.78125 35.203125 
L 44.28125 54.6875 
z
" id="DejaVuSans-120"/>
     <path d="M 4.890625 31.390625 
L 31.203125 31.390625 
L 31.203125 23.390625 
L 4.890625 23.390625 
z
" id="DejaVuSans-45"/>
     <path d="M 2.984375 54.6875 
L 12.5 54.6875 
L 29.59375 8.796875 
L 46.6875 54.6875 
L 56.203125 54.6875 
L 35.6875 0 
L 23.484375 0 
z
" id="DejaVuSans-118"/>
     <path d="M 48.6875 27.296875 
Q 48.6875 37.203125 44.609375 42.84375 
Q 40.53125 48.484375 33.40625 48.484375 
Q 26.265625 48.484375 22.1875 42.84375 
Q 18.109375 37.203125 18.109375 27.296875 
Q 18.109375 17.390625 22.1875 11.75 
Q 26.265625 6.109375 33.40625 6.109375 
Q 40.53125 6.109375 44.609375 11.75 
Q 48.6875 17.390625 48.6875 27.296875 
z
M 18.109375 46.390625 
Q 20.953125 51.265625 25.265625 53.625 
Q 29.59375 56 35.59375 56 
Q 45.5625 56 51.78125 48.09375 
Q 58.015625 40.1875 58.015625 27.296875 
Q 58.015625 14.40625 51.78125 6.484375 
Q 45.5625 -1.421875 35.59375 -1.421875 
Q 29.59375 -1.421875 25.265625 0.953125 
Q 20.953125 3.328125 18.109375 8.203125 
L 18.109375 0 
L 9.078125 0 
L 9.078125 75.984375 
L 18.109375 75.984375 
z
" id="DejaVuSans-98"/>
     <path d="M 50.984375 -16.609375 
L 50.984375 -23.578125 
L -0.984375 -23.578125 
L -0.984375 -16.609375 
z
" id="DejaVuSans-95"/>
     <path d="M 4.203125 54.6875 
L 13.1875 54.6875 
L 24.421875 12.015625 
L 35.59375 54.6875 
L 46.1875 54.6875 
L 57.421875 12.015625 
L 68.609375 54.6875 
L 77.59375 54.6875 
L 63.28125 0 
L 52.6875 0 
L 40.921875 44.828125 
L 29.109375 0 
L 18.5 0 
z
" id="DejaVuSans-119"/>
     <path d="M 18.109375 8.203125 
L 18.109375 -20.796875 
L 9.078125 -20.796875 
L 9.078125 54.6875 
L 18.109375 54.6875 
L 18.109375 46.390625 
Q 20.953125 51.265625 25.265625 53.625 
Q 29.59375 56 35.59375 56 
Q 45.5625 56 51.78125 48.09375 
Q 58.015625 40.1875 58.015625 27.296875 
Q 58.015625 14.40625 51.78125 6.484375 
Q 45.5625 -1.421875 35.59375 -1.421875 
Q 29.59375 -1.421875 25.265625 0.953125 
Q 20.953125 3.328125 18.109375 8.203125 
z
M 48.6875 27.296875 
Q 48.6875 37.203125 44.609375 42.84375 
Q 40.53125 48.484375 33.40625 48.484375 
Q 26.265625 48.484375 22.1875 42.84375 
Q 18.109375 37.203125 18.109375 27.296875 
Q 18.109375 17.390625 22.1875 11.75 
Q 26.265625 6.109375 33.40625 6.109375 
Q 40.53125 6.109375 44.609375 11.75 
Q 48.6875 17.390625 48.6875 27.296875 
z
" id="DejaVuSans-112"/>
    </defs>
    <g transform="translate(142.964063 28.56)scale(0.12 -0.12)">
     <use xlink:href="#DejaVuSans-120"/>
     <use x="59.179688" xlink:href="#DejaVuSans-45"/>
     <use x="95.232422" xlink:href="#DejaVuSans-118"/>
     <use x="154.412109" xlink:href="#DejaVuSans-97"/>
     <use x="215.691406" xlink:href="#DejaVuSans-108"/>
     <use x="243.474609" xlink:href="#DejaVuSans-105"/>
     <use x="271.257812" xlink:href="#DejaVuSans-100"/>
     <use x="334.734375" xlink:href="#DejaVuSans-97"/>
     <use x="396.013672" xlink:href="#DejaVuSans-116"/>
     <use x="435.222656" xlink:href="#DejaVuSans-105"/>
     <use x="463.005859" xlink:href="#DejaVuSans-111"/>
     <use x="524.1875" xlink:href="#DejaVuSans-110"/>
     <use x="587.566406" xlink:href="#DejaVuSans-32"/>
     <use x="619.353516" xlink:href="#DejaVuSans-101"/>
     <use x="680.876953" xlink:href="#DejaVuSans-109"/>
     <use x="778.289062" xlink:href="#DejaVuSans-98"/>
     <use x="841.765625" xlink:href="#DejaVuSans-95"/>
     <use x="891.765625" xlink:href="#DejaVuSans-119"/>
     <use x="973.552734" xlink:href="#DejaVuSans-50"/>
     <use x="1037.175781" xlink:href="#DejaVuSans-118"/>
     <use x="1096.355469" xlink:href="#DejaVuSans-95"/>
     <use x="1146.355469" xlink:href="#DejaVuSans-112"/>
     <use x="1209.832031" xlink:href="#DejaVuSans-109"/>
    </g>
   </g>
  </g>
 </g>
 <defs>
  <clipPath id="pd85e614e6e">
   <rect height="217.44" width="334.8" x="54" y="34.56"/>
  </clipPath>
 </defs>
</svg>
