<?xml version="1.0" encoding="utf-8" standalone="no"?>
<!DOCTYPE svg PUBLIC "-//W3C//DTD SVG 1.1//EN"
  "http://www.w3.org/Graphics/SVG/1.1/DTD/svg11.dtd">
<!-- Created with matplotlib (https://matplotlib.org/) -->
<svg height="288pt" version="1.1" viewBox="0 0 432 288" width="432pt" xmlns="http://www.w3.org/2000/svg" xmlns:xlink="http://www.w3.org/1999/xlink">
 <defs>
  <style type="text/css">
*{stroke-linecap:butt;stroke-linejoin:round;}
  </style>
 </defs>
 <g id="figure_1">
  <g id="patch_1">
   <path d="M 0 288 
L 432 288 
L 432 0 
L 0 0 
z
" style="fill:#ffffff;"/>
  </g>
  <g id="axes_1">
   <g id="patch_2">
    <path d="M 54 252 
L 388.8 252 
L 388.8 34.56 
L 54 34.56 
z
" style="fill:#ffffff;"/>
   </g>
   <g id="patch_3">
    <path clip-path="url(#pef210418d8)" d="M 70.390897 252 
L 70.390897 251.996903 
L 79.486624 251.946438 
L 79.486624 251.856386 
L 82.518533 251.856386 
L 82.518533 251.658792 
L 85.550443 251.658792 
L 85.550443 251.35399 
L 88.582352 251.35399 
L 88.582352 250.900218 
L 91.614261 250.900218 
L 91.614261 250.233118 
L 94.64617 250.233118 
L 94.64617 249.286909 
L 97.678079 249.286909 
L 97.678079 248.170138 
L 100.709989 248.170138 
L 100.709989 246.667468 
L 103.741898 246.667468 
L 103.741898 244.947788 
L 106.773807 244.947788 
L 106.773807 242.903806 
L 109.805716 242.903806 
L 109.805716 240.466309 
L 112.837626 240.466309 
L 112.837626 237.705514 
L 115.869535 237.705514 
L 115.869535 234.610709 
L 118.901444 234.610709 
L 118.901444 231.298476 
L 121.933353 231.298476 
L 121.933353 227.418818 
L 124.965262 227.418818 
L 124.965262 223.389688 
L 127.997172 223.389688 
L 127.997172 219.182045 
L 131.029081 219.182045 
L 131.029081 214.716383 
L 134.06099 214.716383 
L 134.06099 209.808918 
L 137.092899 209.808918 
L 137.092899 204.965978 
L 140.124809 204.965978 
L 140.124809 199.818152 
L 143.156718 199.818152 
L 143.156718 194.45432 
L 146.188627 194.45432 
L 146.188627 188.937417 
L 149.220536 188.937417 
L 149.220536 183.671001 
L 152.252445 183.671001 
L 152.252445 178.029985 
L 155.284355 178.029985 
L 155.284355 172.429392 
L 158.316264 172.429392 
L 158.316264 166.872066 
L 161.348173 166.872066 
L 161.348173 161.229376 
L 164.380082 161.229376 
L 164.380082 156.388863 
L 167.411991 156.388863 
L 167.411991 150.346884 
L 170.443901 150.346884 
L 170.443901 145.720117 
L 173.47581 145.720117 
L 173.47581 140.641002 
L 176.507719 140.641002 
L 176.507719 136.175173 
L 179.539628 136.175173 
L 179.539628 131.03036 
L 182.571538 131.03036 
L 182.571538 127.53501 
L 185.603447 127.53501 
L 185.603447 122.943059 
L 188.635356 122.943059 
L 188.635356 119.625385 
L 191.667265 119.625385 
L 191.667265 116.023581 
L 194.699174 116.023581 
L 194.699174 112.622049 
L 197.731084 112.622049 
L 197.731084 110.222129 
L 200.762993 110.222129 
L 200.762993 107.787897 
L 203.794902 107.787897 
L 203.794902 105.161426 
L 206.826811 105.161426 
L 206.826811 103.478235 
L 209.85872 103.478235 
L 209.85872 101.929033 
L 212.89063 101.929033 
L 212.89063 100.027158 
L 215.922539 100.027158 
L 215.922539 99.824626 
L 218.954448 99.824626 
L 218.954448 97.573927 
L 225.018267 97.619873 
L 225.018267 97.231297 
L 228.050176 97.231297 
L 228.050176 96.714254 
L 231.082085 96.714254 
L 231.082085 96.355221 
L 234.113994 96.355221 
L 234.113994 97.475507 
L 237.145903 97.475507 
L 237.145903 97.650588 
L 240.177813 97.650588 
L 240.177813 98.462641 
L 243.209722 98.462641 
L 243.209722 99.237953 
L 246.241631 99.237953 
L 246.241631 100.278482 
L 249.27354 100.278482 
L 249.27354 101.024669 
L 252.30545 101.024669 
L 252.30545 102.275513 
L 255.337359 102.275513 
L 255.337359 104.065828 
L 258.369268 104.065828 
L 258.369268 105.677798 
L 261.401177 105.677798 
L 261.401177 108.080564 
L 264.433086 108.080564 
L 264.433086 109.786435 
L 267.464996 109.786435 
L 267.464996 111.379491 
L 270.496905 111.379491 
L 270.496905 114.216946 
L 273.528814 114.216946 
L 273.528814 116.612095 
L 276.560723 116.612095 
L 276.560723 118.556653 
L 279.592632 118.556653 
L 279.592632 121.42792 
L 282.624542 121.42792 
L 282.624542 124.12444 
L 285.656451 124.12444 
L 285.656451 127.069773 
L 288.68836 127.069773 
L 288.68836 130.251449 
L 291.720269 130.251449 
L 291.720269 133.089155 
L 294.752179 133.089155 
L 294.752179 136.503074 
L 297.784088 136.503074 
L 297.784088 139.503643 
L 300.815997 139.503643 
L 300.815997 142.78399 
L 303.847906 142.78399 
L 303.847906 146.256911 
L 306.879815 146.256911 
L 306.879815 150.259594 
L 309.911725 150.259594 
L 309.911725 153.638781 
L 312.943634 153.638781 
L 312.943634 157.633849 
L 315.975543 157.633849 
L 315.975543 161.753532 
L 319.007452 161.753532 
L 319.007452 165.648757 
L 322.039361 165.648757 
L 322.039361 169.781914 
L 325.071271 169.781914 
L 325.071271 173.678143 
L 328.10318 173.678143 
L 328.10318 178.462248 
L 331.135089 178.462248 
L 331.135089 183.272967 
L 334.166998 183.272967 
L 334.166998 187.599451 
L 337.198908 187.599451 
L 337.198908 192.295765 
L 340.230817 192.295765 
L 340.230817 197.627627 
L 343.262726 197.627627 
L 343.262726 202.37541 
L 346.294635 202.37541 
L 346.294635 207.498798 
L 349.326544 207.498798 
L 349.326544 213.061062 
L 352.358454 213.061062 
L 352.358454 218.372838 
L 355.390363 218.372838 
L 355.390363 224.17839 
L 358.422272 224.17839 
L 358.422272 229.763334 
L 361.454181 229.763334 
L 361.454181 235.992529 
L 364.486091 235.992529 
L 364.486091 241.732468 
L 367.518 241.732468 
L 367.518 247.362521 
L 370.549909 247.362521 
L 370.549909 250.727229 
L 373.581818 250.727229 
L 373.581818 252 
L 373.581818 252 
" style="fill:none;opacity:0.5;stroke:#008080;stroke-linejoin:miter;stroke-width:2;"/>
   </g>
   <g id="patch_4">
    <path clip-path="url(#pef210418d8)" d="M 69.218182 252 
L 69.218182 251.994378 
L 75.279349 251.925045 
L 75.279349 251.707336 
L 78.309933 251.707336 
L 78.309933 251.205651 
L 81.340517 251.205651 
L 81.340517 250.279961 
L 84.3711 250.279961 
L 84.3711 248.536925 
L 87.401684 248.536925 
L 87.401684 246.089997 
L 90.432268 246.089997 
L 90.432268 242.252148 
L 93.462851 242.252148 
L 93.462851 237.362891 
L 96.493435 237.362891 
L 96.493435 230.731279 
L 99.524019 230.731279 
L 99.524019 222.615054 
L 102.554603 222.615054 
L 102.554603 213.398017 
L 105.585186 213.398017 
L 105.585186 202.284117 
L 108.61577 202.284117 
L 108.61577 190.316416 
L 111.646354 190.316416 
L 111.646354 177.529835 
L 114.676937 177.529835 
L 114.676937 164.617535 
L 117.707521 164.617535 
L 117.707521 151.091628 
L 120.738105 151.091628 
L 120.738105 137.27391 
L 123.768688 137.27391 
L 123.768688 123.320421 
L 126.799272 123.320421 
L 126.799272 110.869944 
L 129.829856 110.869944 
L 129.829856 99.187751 
L 132.860439 99.187751 
L 132.860439 88.690353 
L 135.891023 88.690353 
L 135.891023 79.354923 
L 138.921607 79.354923 
L 138.921607 71.218085 
L 141.952191 71.218085 
L 141.952191 63.554484 
L 144.982774 63.554484 
L 144.982774 58.267115 
L 148.013358 58.267115 
L 148.013358 54.29043 
L 151.043942 54.29043 
L 151.043942 49.115664 
L 154.074525 49.115664 
L 154.074525 47.188478 
L 157.105109 47.188478 
L 157.105109 45.841849 
L 160.135693 45.841849 
L 160.135693 44.914286 
L 163.166276 44.914286 
L 163.166276 45.050567 
L 166.19686 45.050567 
L 166.19686 46.687304 
L 169.227444 46.687304 
L 169.227444 47.976013 
L 172.258028 47.976013 
L 172.258028 50.002684 
L 175.288611 50.002684 
L 175.288611 52.485386 
L 178.319195 52.485386 
L 178.319195 55.852724 
L 181.349779 55.852724 
L 181.349779 58.422135 
L 184.380362 58.422135 
L 184.380362 62.517554 
L 187.410946 62.517554 
L 187.410946 66.220314 
L 190.44153 66.220314 
L 190.44153 70.959492 
L 193.472113 70.959492 
L 193.472113 75.158144 
L 196.502697 75.158144 
L 196.502697 79.913165 
L 199.533281 79.913165 
L 199.533281 83.746924 
L 202.563865 83.746924 
L 202.563865 88.81948 
L 205.594448 88.81948 
L 205.594448 93.64707 
L 208.625032 93.64707 
L 208.625032 98.189662 
L 211.655616 98.189662 
L 211.655616 103.527796 
L 214.686199 103.527796 
L 214.686199 109.957882 
L 217.716783 109.957882 
L 217.716783 114.72125 
L 220.747367 114.72125 
L 220.747367 119.659057 
L 223.77795 119.659057 
L 223.77795 124.523443 
L 226.808534 124.523443 
L 226.808534 130.011146 
L 229.839118 130.011146 
L 229.839118 134.931748 
L 232.869702 134.931748 
L 232.869702 140.413828 
L 235.900285 140.413828 
L 235.900285 145.526076 
L 238.930869 145.526076 
L 238.930869 150.059809 
L 241.961453 150.059809 
L 241.961453 155.471535 
L 244.992036 155.471535 
L 244.992036 159.832703 
L 248.02262 159.832703 
L 248.02262 164.89623 
L 251.053204 164.89623 
L 251.053204 169.664026 
L 254.083787 169.664026 
L 254.083787 174.076981 
L 257.114371 174.076981 
L 257.114371 178.322821 
L 260.144955 178.322821 
L 260.144955 182.731687 
L 263.175539 182.731687 
L 263.175539 186.583504 
L 266.206122 186.583504 
L 266.206122 190.747575 
L 269.236706 190.747575 
L 269.236706 194.700922 
L 272.26729 194.700922 
L 272.26729 198.764997 
L 275.297873 198.764997 
L 275.297873 202.291613 
L 278.328457 202.291613 
L 278.328457 205.720788 
L 281.359041 205.720788 
L 281.359041 209.236331 
L 284.389624 209.236331 
L 284.389624 212.747275 
L 287.420208 212.747275 
L 287.420208 215.651086 
L 290.450792 215.651086 
L 290.450792 219.125915 
L 293.481376 219.125915 
L 293.481376 221.927004 
L 296.511959 221.927004 
L 296.511959 224.611573 
L 299.542543 224.611573 
L 299.542543 227.040614 
L 302.573127 227.040614 
L 302.573127 229.395383 
L 305.60371 229.395383 
L 305.60371 231.843163 
L 308.634294 231.843163 
L 308.634294 233.894706 
L 311.664878 233.894706 
L 311.664878 235.867376 
L 314.695461 235.867376 
L 314.695461 237.857421 
L 317.726045 237.857421 
L 317.726045 239.31563 
L 320.756629 239.31563 
L 320.756629 241.099039 
L 323.787212 241.099039 
L 323.787212 242.517386 
L 326.817796 242.517386 
L 326.817796 243.958218 
L 329.84838 243.958218 
L 329.84838 245.050682 
L 332.878964 245.050682 
L 332.878964 246.236329 
L 335.909547 246.236329 
L 335.909547 247.159122 
L 338.940131 247.159122 
L 338.940131 248.003725 
L 341.970715 248.003725 
L 341.970715 248.80591 
L 345.001298 248.80591 
L 345.001298 249.575558 
L 348.031882 249.575558 
L 348.031882 250.113869 
L 351.062466 250.113869 
L 351.062466 250.580632 
L 354.093049 250.580632 
L 354.093049 250.938029 
L 357.123633 250.938029 
L 357.123633 251.288442 
L 360.154217 251.288442 
L 360.154217 251.495589 
L 363.184801 251.495589 
L 363.184801 251.687916 
L 366.215384 251.687916 
L 366.215384 251.867126 
L 369.245968 251.867126 
L 369.245968 251.98535 
L 372.276552 251.98535 
L 372.276552 252 
" style="fill:none;opacity:0.5;stroke:#bf4080;stroke-linejoin:miter;stroke-width:2;"/>
   </g>
   <g id="patch_5">
    <path clip-path="url(#pef210418d8)" d="M 70.976259 252 
L 70.976259 251.977214 
L 77.003667 251.906629 
L 77.003667 251.578204 
L 80.017371 251.578204 
L 80.017371 251.021062 
L 83.031075 251.021062 
L 83.031075 249.90284 
L 86.04478 249.90284 
L 86.04478 248.224735 
L 89.058484 248.224735 
L 89.058484 245.613606 
L 92.072188 245.613606 
L 92.072188 242.046326 
L 95.085892 242.046326 
L 95.085892 237.121315 
L 98.099596 237.121315 
L 98.099596 230.939138 
L 101.1133 230.939138 
L 101.1133 223.738276 
L 104.127004 223.738276 
L 104.127004 214.943258 
L 107.140708 214.943258 
L 107.140708 205.234747 
L 110.154412 205.234747 
L 110.154412 194.347022 
L 113.168116 194.347022 
L 113.168116 182.458774 
L 116.18182 182.458774 
L 116.18182 170.403828 
L 119.195524 170.403828 
L 119.195524 158.111772 
L 122.209228 158.111772 
L 122.209228 145.741422 
L 125.222932 145.741422 
L 125.222932 133.59379 
L 128.236636 133.59379 
L 128.236636 122.886469 
L 131.25034 122.886469 
L 131.25034 112.756162 
L 134.264044 112.756162 
L 134.264044 103.393208 
L 137.277749 103.393208 
L 137.277749 95.98813 
L 140.291453 95.98813 
L 140.291453 88.798062 
L 143.305157 88.798062 
L 143.305157 83.033912 
L 146.318861 83.033912 
L 146.318861 78.742452 
L 149.332565 78.742452 
L 149.332565 73.775637 
L 152.346269 73.775637 
L 152.346269 71.142237 
L 155.359973 71.142237 
L 155.359973 69.706896 
L 158.373677 69.706896 
L 158.373677 67.01439 
L 164.401085 66.995887 
L 164.401085 66.504705 
L 167.414789 66.504705 
L 167.414789 67.621557 
L 170.428493 67.621557 
L 170.428493 67.23197 
L 173.442197 67.23197 
L 173.442197 68.219302 
L 176.455901 68.219302 
L 176.455901 69.599134 
L 179.469605 69.599134 
L 179.469605 71.575341 
L 182.483309 71.575341 
L 182.483309 73.981396 
L 185.497014 73.981396 
L 185.497014 76.514915 
L 188.510718 76.514915 
L 188.510718 79.045693 
L 191.524422 79.045693 
L 191.524422 82.146975 
L 194.538126 82.146975 
L 194.538126 85.166194 
L 197.55183 85.166194 
L 197.55183 86.59571 
L 200.565534 86.59571 
L 200.565534 90.345791 
L 203.579238 90.345791 
L 203.579238 94.196267 
L 206.592942 94.196267 
L 206.592942 97.794042 
L 209.606646 97.794042 
L 209.606646 101.280458 
L 212.62035 101.280458 
L 212.62035 104.670076 
L 215.634054 104.670076 
L 215.634054 108.732992 
L 218.647758 108.732992 
L 218.647758 112.815439 
L 221.661462 112.815439 
L 221.661462 116.21448 
L 224.675166 116.21448 
L 224.675166 120.220175 
L 227.68887 120.220175 
L 227.68887 124.492447 
L 230.702574 124.492447 
L 230.702574 128.614298 
L 233.716278 128.614298 
L 233.716278 132.499895 
L 236.729983 132.499895 
L 236.729983 136.051585 
L 239.743687 136.051585 
L 239.743687 140.443269 
L 242.757391 140.443269 
L 242.757391 143.943733 
L 245.771095 143.943733 
L 245.771095 147.676853 
L 248.784799 147.676853 
L 248.784799 152.474058 
L 251.798503 152.474058 
L 251.798503 155.722507 
L 254.812207 155.722507 
L 254.812207 159.134397 
L 257.825911 159.134397 
L 257.825911 163.547154 
L 260.839615 163.547154 
L 260.839615 167.692648 
L 263.853319 167.692648 
L 263.853319 171.624159 
L 266.867023 171.624159 
L 266.867023 174.698887 
L 269.880727 174.698887 
L 269.880727 178.160974 
L 272.894431 178.160974 
L 272.894431 181.911569 
L 275.908135 181.911569 
L 275.908135 185.638522 
L 278.921839 185.638522 
L 278.921839 189.114144 
L 281.935543 189.114144 
L 281.935543 192.683994 
L 284.949247 192.683994 
L 284.949247 196.58895 
L 287.962952 196.58895 
L 287.962952 199.504005 
L 290.976656 199.504005 
L 290.976656 202.634755 
L 293.99036 202.634755 
L 293.99036 205.965438 
L 297.004064 205.965438 
L 297.004064 208.86079 
L 300.017768 208.86079 
L 300.017768 212.011585 
L 303.031472 212.011585 
L 303.031472 214.750177 
L 306.045176 214.750177 
L 306.045176 217.652382 
L 309.05888 217.652382 
L 309.05888 220.21417 
L 312.072584 220.21417 
L 312.072584 222.636158 
L 315.086288 222.636158 
L 315.086288 225.443279 
L 318.099992 225.443279 
L 318.099992 227.668589 
L 321.113696 227.668589 
L 321.113696 229.871798 
L 324.1274 229.871798 
L 324.1274 232.506911 
L 327.141104 232.506911 
L 327.141104 234.434805 
L 330.154808 234.434805 
L 330.154808 236.355331 
L 333.168512 236.355331 
L 333.168512 238.476477 
L 336.182216 238.476477 
L 336.182216 240.09599 
L 339.195921 240.09599 
L 339.195921 241.815898 
L 342.209625 241.815898 
L 342.209625 243.455969 
L 345.223329 243.455969 
L 345.223329 244.905359 
L 348.237033 244.905359 
L 348.237033 246.321854 
L 351.250737 246.321854 
L 351.250737 247.557604 
L 354.264441 247.557604 
L 354.264441 248.710434 
L 357.278145 248.710434 
L 357.278145 249.674124 
L 360.291849 249.674124 
L 360.291849 250.471117 
L 363.305553 250.471117 
L 363.305553 251.253547 
L 366.319257 251.253547 
L 366.319257 251.743873 
L 369.332961 251.743873 
L 369.332961 251.935583 
L 372.346665 251.935583 
L 372.346665 252 
" style="fill:none;opacity:0.5;stroke:#bf8080;stroke-linejoin:miter;stroke-width:2;"/>
   </g>
   <g id="patch_6">
    <path clip-path="url(#pef210418d8)" d="M 73.069037 252 
L 73.069037 251.99965 
L 88.094676 251.906316 
L 88.094676 251.88709 
L 91.099804 251.88709 
L 91.099804 251.747613 
L 97.110059 251.639946 
L 97.110059 251.424263 
L 100.115187 251.424263 
L 100.115187 251.264511 
L 103.120315 251.264511 
L 103.120315 250.95095 
L 106.125443 250.95095 
L 106.125443 250.602781 
L 109.13057 250.602781 
L 109.13057 250.074586 
L 112.135698 250.074586 
L 112.135698 249.567364 
L 115.140826 249.567364 
L 115.140826 248.853199 
L 118.145954 248.853199 
L 118.145954 247.984875 
L 121.151082 247.984875 
L 121.151082 247.101869 
L 124.15621 247.101869 
L 124.15621 246.079386 
L 127.161337 246.079386 
L 127.161337 244.738098 
L 130.166465 244.738098 
L 130.166465 243.458684 
L 133.171593 243.458684 
L 133.171593 241.931077 
L 136.176721 241.931077 
L 136.176721 240.094103 
L 139.181849 240.094103 
L 139.181849 238.21658 
L 142.186976 238.21658 
L 142.186976 236.3845 
L 145.192104 236.3845 
L 145.192104 234.152166 
L 148.197232 234.152166 
L 148.197232 231.560827 
L 151.20236 231.560827 
L 151.20236 228.32244 
L 154.207488 228.32244 
L 154.207488 226.114925 
L 157.212615 226.114925 
L 157.212615 223.07649 
L 160.217743 223.07649 
L 160.217743 219.425264 
L 163.222871 219.425264 
L 163.222871 216.664735 
L 166.227999 216.664735 
L 166.227999 212.080865 
L 169.233127 212.080865 
L 169.233127 207.84027 
L 172.238255 207.84027 
L 172.238255 203.911838 
L 175.243382 203.911838 
L 175.243382 198.850459 
L 178.24851 198.850459 
L 178.24851 194.313781 
L 181.253638 194.313781 
L 181.253638 188.752522 
L 184.258766 188.752522 
L 184.258766 183.744278 
L 187.263894 183.744278 
L 187.263894 178.556706 
L 190.269021 178.556706 
L 190.269021 172.635743 
L 193.274149 172.635743 
L 193.274149 167.829199 
L 196.279277 167.829199 
L 196.279277 162.60702 
L 199.284405 162.60702 
L 199.284405 156.741638 
L 202.289533 156.741638 
L 202.289533 150.918903 
L 205.294661 150.918903 
L 205.294661 146.072508 
L 208.299788 146.072508 
L 208.299788 140.800691 
L 211.304916 140.800691 
L 211.304916 135.120929 
L 214.310044 135.120929 
L 214.310044 129.786539 
L 217.315172 129.786539 
L 217.315172 125.271184 
L 220.3203 125.271184 
L 220.3203 118.427364 
L 223.325427 118.427364 
L 223.325427 115.190375 
L 226.330555 115.190375 
L 226.330555 110.486255 
L 229.335683 110.486255 
L 229.335683 106.18064 
L 232.340811 106.18064 
L 232.340811 102.54095 
L 235.345939 102.54095 
L 235.345939 98.297208 
L 238.351067 98.297208 
L 238.351067 94.630951 
L 241.356194 94.630951 
L 241.356194 92.196218 
L 244.361322 92.196218 
L 244.361322 90.219068 
L 247.36645 90.219068 
L 247.36645 87.966809 
L 250.371578 87.966809 
L 250.371578 85.678545 
L 256.381833 85.615623 
L 256.381833 83.512978 
L 259.386961 83.512978 
L 259.386961 82.992123 
L 262.392089 82.992123 
L 262.392089 84.206169 
L 265.397217 84.206169 
L 265.397217 82.675066 
L 268.402345 82.675066 
L 268.402345 83.400418 
L 271.407472 83.400418 
L 271.407472 82.566001 
L 274.4126 82.566001 
L 274.4126 84.275733 
L 277.417728 84.275733 
L 277.417728 85.58521 
L 280.422856 85.58521 
L 280.422856 86.669217 
L 283.427984 86.669217 
L 283.427984 88.418799 
L 286.433112 88.418799 
L 286.433112 90.539272 
L 289.438239 90.539272 
L 289.438239 92.116867 
L 292.443367 92.116867 
L 292.443367 93.594136 
L 295.448495 93.594136 
L 295.448495 95.22137 
L 298.453623 95.22137 
L 298.453623 96.564406 
L 301.458751 96.564406 
L 301.458751 99.190701 
L 304.463878 99.190701 
L 304.463878 101.697095 
L 307.469006 101.697095 
L 307.469006 104.618076 
L 310.474134 104.618076 
L 310.474134 106.74519 
L 313.479262 106.74519 
L 313.479262 108.57762 
L 316.48439 108.57762 
L 316.48439 111.523419 
L 319.489518 111.523419 
L 319.489518 114.0008 
L 322.494645 114.0008 
L 322.494645 117.308751 
L 325.499773 117.308751 
L 325.499773 119.884009 
L 328.504901 119.884009 
L 328.504901 123.790069 
L 331.510029 123.790069 
L 331.510029 127.323141 
L 334.515157 127.323141 
L 334.515157 131.193545 
L 337.520284 131.193545 
L 337.520284 134.736405 
L 340.525412 134.736405 
L 340.525412 140.859069 
L 343.53054 140.859069 
L 343.53054 146.430814 
L 346.535668 146.430814 
L 346.535668 153.938811 
L 349.540796 153.938811 
L 349.540796 162.450064 
L 352.545923 162.450064 
L 352.545923 170.909582 
L 355.551051 170.909582 
L 355.551051 181.339957 
L 358.556179 181.339957 
L 358.556179 193.777895 
L 361.561307 193.777895 
L 361.561307 208.016452 
L 364.566435 208.016452 
L 364.566435 223.782266 
L 367.571563 223.782266 
L 367.571563 239.16041 
L 370.57669 239.16041 
L 370.57669 248.895497 
L 373.581818 248.895497 
L 373.581818 252 
L 373.581818 252 
" style="fill:none;opacity:0.5;stroke:#00bf40;stroke-linejoin:miter;stroke-width:2;"/>
   </g>
   <g id="matplotlib.axis_1">
    <g id="xtick_1">
     <g id="line2d_1">
      <defs>
       <path d="M 0 0 
L 0 3.5 
" id="ma474cb03d5" style="stroke:#000000;stroke-width:0.8;"/>
      </defs>
      <g>
       <use style="stroke:#000000;stroke-width:0.8;" x="67.522922" xlink:href="#ma474cb03d5" y="252"/>
      </g>
     </g>
     <g id="text_1">
      <!-- −1.00 -->
      <defs>
       <path d="M 10.59375 35.5 
L 73.1875 35.5 
L 73.1875 27.203125 
L 10.59375 27.203125 
z
" id="DejaVuSans-8722"/>
       <path d="M 12.40625 8.296875 
L 28.515625 8.296875 
L 28.515625 63.921875 
L 10.984375 60.40625 
L 10.984375 69.390625 
L 28.421875 72.90625 
L 38.28125 72.90625 
L 38.28125 8.296875 
L 54.390625 8.296875 
L 54.390625 0 
L 12.40625 0 
z
" id="DejaVuSans-49"/>
       <path d="M 10.6875 12.40625 
L 21 12.40625 
L 21 0 
L 10.6875 0 
z
" id="DejaVuSans-46"/>
       <path d="M 31.78125 66.40625 
Q 24.171875 66.40625 20.328125 58.90625 
Q 16.5 51.421875 16.5 36.375 
Q 16.5 21.390625 20.328125 13.890625 
Q 24.171875 6.390625 31.78125 6.390625 
Q 39.453125 6.390625 43.28125 13.890625 
Q 47.125 21.390625 47.125 36.375 
Q 47.125 51.421875 43.28125 58.90625 
Q 39.453125 66.40625 31.78125 66.40625 
z
M 31.78125 74.21875 
Q 44.046875 74.21875 50.515625 64.515625 
Q 56.984375 54.828125 56.984375 36.375 
Q 56.984375 17.96875 50.515625 8.265625 
Q 44.046875 -1.421875 31.78125 -1.421875 
Q 19.53125 -1.421875 13.0625 8.265625 
Q 6.59375 17.96875 6.59375 36.375 
Q 6.59375 54.828125 13.0625 64.515625 
Q 19.53125 74.21875 31.78125 74.21875 
z
" id="DejaVuSans-48"/>
      </defs>
      <g transform="translate(52.200266 266.598437)scale(0.1 -0.1)">
       <use xlink:href="#DejaVuSans-8722"/>
       <use x="83.789062" xlink:href="#DejaVuSans-49"/>
       <use x="147.412109" xlink:href="#DejaVuSans-46"/>
       <use x="179.199219" xlink:href="#DejaVuSans-48"/>
       <use x="242.822266" xlink:href="#DejaVuSans-48"/>
      </g>
     </g>
    </g>
    <g id="xtick_2">
     <g id="line2d_2">
      <g>
       <use style="stroke:#000000;stroke-width:0.8;" x="105.780284" xlink:href="#ma474cb03d5" y="252"/>
      </g>
     </g>
     <g id="text_2">
      <!-- −0.75 -->
      <defs>
       <path d="M 8.203125 72.90625 
L 55.078125 72.90625 
L 55.078125 68.703125 
L 28.609375 0 
L 18.3125 0 
L 43.21875 64.59375 
L 8.203125 64.59375 
z
" id="DejaVuSans-55"/>
       <path d="M 10.796875 72.90625 
L 49.515625 72.90625 
L 49.515625 64.59375 
L 19.828125 64.59375 
L 19.828125 46.734375 
Q 21.96875 47.46875 24.109375 47.828125 
Q 26.265625 48.1875 28.421875 48.1875 
Q 40.625 48.1875 47.75 41.5 
Q 54.890625 34.8125 54.890625 23.390625 
Q 54.890625 11.625 47.5625 5.09375 
Q 40.234375 -1.421875 26.90625 -1.421875 
Q 22.3125 -1.421875 17.546875 -0.640625 
Q 12.796875 0.140625 7.71875 1.703125 
L 7.71875 11.625 
Q 12.109375 9.234375 16.796875 8.0625 
Q 21.484375 6.890625 26.703125 6.890625 
Q 35.15625 6.890625 40.078125 11.328125 
Q 45.015625 15.765625 45.015625 23.390625 
Q 45.015625 31 40.078125 35.4375 
Q 35.15625 39.890625 26.703125 39.890625 
Q 22.75 39.890625 18.8125 39.015625 
Q 14.890625 38.140625 10.796875 36.28125 
z
" id="DejaVuSans-53"/>
      </defs>
      <g transform="translate(90.457628 266.598437)scale(0.1 -0.1)">
       <use xlink:href="#DejaVuSans-8722"/>
       <use x="83.789062" xlink:href="#DejaVuSans-48"/>
       <use x="147.412109" xlink:href="#DejaVuSans-46"/>
       <use x="179.199219" xlink:href="#DejaVuSans-55"/>
       <use x="242.822266" xlink:href="#DejaVuSans-53"/>
      </g>
     </g>
    </g>
    <g id="xtick_3">
     <g id="line2d_3">
      <g>
       <use style="stroke:#000000;stroke-width:0.8;" x="144.037646" xlink:href="#ma474cb03d5" y="252"/>
      </g>
     </g>
     <g id="text_3">
      <!-- −0.50 -->
      <g transform="translate(128.71499 266.598437)scale(0.1 -0.1)">
       <use xlink:href="#DejaVuSans-8722"/>
       <use x="83.789062" xlink:href="#DejaVuSans-48"/>
       <use x="147.412109" xlink:href="#DejaVuSans-46"/>
       <use x="179.199219" xlink:href="#DejaVuSans-53"/>
       <use x="242.822266" xlink:href="#DejaVuSans-48"/>
      </g>
     </g>
    </g>
    <g id="xtick_4">
     <g id="line2d_4">
      <g>
       <use style="stroke:#000000;stroke-width:0.8;" x="182.295008" xlink:href="#ma474cb03d5" y="252"/>
      </g>
     </g>
     <g id="text_4">
      <!-- −0.25 -->
      <defs>
       <path d="M 19.1875 8.296875 
L 53.609375 8.296875 
L 53.609375 0 
L 7.328125 0 
L 7.328125 8.296875 
Q 12.9375 14.109375 22.625 23.890625 
Q 32.328125 33.6875 34.8125 36.53125 
Q 39.546875 41.84375 41.421875 45.53125 
Q 43.3125 49.21875 43.3125 52.78125 
Q 43.3125 58.59375 39.234375 62.25 
Q 35.15625 65.921875 28.609375 65.921875 
Q 23.96875 65.921875 18.8125 64.3125 
Q 13.671875 62.703125 7.8125 59.421875 
L 7.8125 69.390625 
Q 13.765625 71.78125 18.9375 73 
Q 24.125 74.21875 28.421875 74.21875 
Q 39.75 74.21875 46.484375 68.546875 
Q 53.21875 62.890625 53.21875 53.421875 
Q 53.21875 48.921875 51.53125 44.890625 
Q 49.859375 40.875 45.40625 35.40625 
Q 44.1875 33.984375 37.640625 27.21875 
Q 31.109375 20.453125 19.1875 8.296875 
z
" id="DejaVuSans-50"/>
      </defs>
      <g transform="translate(166.972352 266.598437)scale(0.1 -0.1)">
       <use xlink:href="#DejaVuSans-8722"/>
       <use x="83.789062" xlink:href="#DejaVuSans-48"/>
       <use x="147.412109" xlink:href="#DejaVuSans-46"/>
       <use x="179.199219" xlink:href="#DejaVuSans-50"/>
       <use x="242.822266" xlink:href="#DejaVuSans-53"/>
      </g>
     </g>
    </g>
    <g id="xtick_5">
     <g id="line2d_5">
      <g>
       <use style="stroke:#000000;stroke-width:0.8;" x="220.55237" xlink:href="#ma474cb03d5" y="252"/>
      </g>
     </g>
     <g id="text_5">
      <!-- 0.00 -->
      <g transform="translate(209.419558 266.598437)scale(0.1 -0.1)">
       <use xlink:href="#DejaVuSans-48"/>
       <use x="63.623047" xlink:href="#DejaVuSans-46"/>
       <use x="95.410156" xlink:href="#DejaVuSans-48"/>
       <use x="159.033203" xlink:href="#DejaVuSans-48"/>
      </g>
     </g>
    </g>
    <g id="xtick_6">
     <g id="line2d_6">
      <g>
       <use style="stroke:#000000;stroke-width:0.8;" x="258.809732" xlink:href="#ma474cb03d5" y="252"/>
      </g>
     </g>
     <g id="text_6">
      <!-- 0.25 -->
      <g transform="translate(247.67692 266.598437)scale(0.1 -0.1)">
       <use xlink:href="#DejaVuSans-48"/>
       <use x="63.623047" xlink:href="#DejaVuSans-46"/>
       <use x="95.410156" xlink:href="#DejaVuSans-50"/>
       <use x="159.033203" xlink:href="#DejaVuSans-53"/>
      </g>
     </g>
    </g>
    <g id="xtick_7">
     <g id="line2d_7">
      <g>
       <use style="stroke:#000000;stroke-width:0.8;" x="297.067094" xlink:href="#ma474cb03d5" y="252"/>
      </g>
     </g>
     <g id="text_7">
      <!-- 0.50 -->
      <g transform="translate(285.934282 266.598437)scale(0.1 -0.1)">
       <use xlink:href="#DejaVuSans-48"/>
       <use x="63.623047" xlink:href="#DejaVuSans-46"/>
       <use x="95.410156" xlink:href="#DejaVuSans-53"/>
       <use x="159.033203" xlink:href="#DejaVuSans-48"/>
      </g>
     </g>
    </g>
    <g id="xtick_8">
     <g id="line2d_8">
      <g>
       <use style="stroke:#000000;stroke-width:0.8;" x="335.324456" xlink:href="#ma474cb03d5" y="252"/>
      </g>
     </g>
     <g id="text_8">
      <!-- 0.75 -->
      <g transform="translate(324.191644 266.598437)scale(0.1 -0.1)">
       <use xlink:href="#DejaVuSans-48"/>
       <use x="63.623047" xlink:href="#DejaVuSans-46"/>
       <use x="95.410156" xlink:href="#DejaVuSans-55"/>
       <use x="159.033203" xlink:href="#DejaVuSans-53"/>
      </g>
     </g>
    </g>
    <g id="xtick_9">
     <g id="line2d_9">
      <g>
       <use style="stroke:#000000;stroke-width:0.8;" x="373.581818" xlink:href="#ma474cb03d5" y="252"/>
      </g>
     </g>
     <g id="text_9">
      <!-- 1.00 -->
      <g transform="translate(362.449006 266.598437)scale(0.1 -0.1)">
       <use xlink:href="#DejaVuSans-49"/>
       <use x="63.623047" xlink:href="#DejaVuSans-46"/>
       <use x="95.410156" xlink:href="#DejaVuSans-48"/>
       <use x="159.033203" xlink:href="#DejaVuSans-48"/>
      </g>
     </g>
    </g>
    <g id="text_10">
     <!-- cosine similarity -->
     <defs>
      <path d="M 48.78125 52.59375 
L 48.78125 44.1875 
Q 44.96875 46.296875 41.140625 47.34375 
Q 37.3125 48.390625 33.40625 48.390625 
Q 24.65625 48.390625 19.8125 42.84375 
Q 14.984375 37.3125 14.984375 27.296875 
Q 14.984375 17.28125 19.8125 11.734375 
Q 24.65625 6.203125 33.40625 6.203125 
Q 37.3125 6.203125 41.140625 7.25 
Q 44.96875 8.296875 48.78125 10.40625 
L 48.78125 2.09375 
Q 45.015625 0.34375 40.984375 -0.53125 
Q 36.96875 -1.421875 32.421875 -1.421875 
Q 20.0625 -1.421875 12.78125 6.34375 
Q 5.515625 14.109375 5.515625 27.296875 
Q 5.515625 40.671875 12.859375 48.328125 
Q 20.21875 56 33.015625 56 
Q 37.15625 56 41.109375 55.140625 
Q 45.0625 54.296875 48.78125 52.59375 
z
" id="DejaVuSans-99"/>
      <path d="M 30.609375 48.390625 
Q 23.390625 48.390625 19.1875 42.75 
Q 14.984375 37.109375 14.984375 27.296875 
Q 14.984375 17.484375 19.15625 11.84375 
Q 23.34375 6.203125 30.609375 6.203125 
Q 37.796875 6.203125 41.984375 11.859375 
Q 46.1875 17.53125 46.1875 27.296875 
Q 46.1875 37.015625 41.984375 42.703125 
Q 37.796875 48.390625 30.609375 48.390625 
z
M 30.609375 56 
Q 42.328125 56 49.015625 48.375 
Q 55.71875 40.765625 55.71875 27.296875 
Q 55.71875 13.875 49.015625 6.21875 
Q 42.328125 -1.421875 30.609375 -1.421875 
Q 18.84375 -1.421875 12.171875 6.21875 
Q 5.515625 13.875 5.515625 27.296875 
Q 5.515625 40.765625 12.171875 48.375 
Q 18.84375 56 30.609375 56 
z
" id="DejaVuSans-111"/>
      <path d="M 44.28125 53.078125 
L 44.28125 44.578125 
Q 40.484375 46.53125 36.375 47.5 
Q 32.28125 48.484375 27.875 48.484375 
Q 21.1875 48.484375 17.84375 46.4375 
Q 14.5 44.390625 14.5 40.28125 
Q 14.5 37.15625 16.890625 35.375 
Q 19.28125 33.59375 26.515625 31.984375 
L 29.59375 31.296875 
Q 39.15625 29.25 43.1875 25.515625 
Q 47.21875 21.78125 47.21875 15.09375 
Q 47.21875 7.46875 41.1875 3.015625 
Q 35.15625 -1.421875 24.609375 -1.421875 
Q 20.21875 -1.421875 15.453125 -0.5625 
Q 10.6875 0.296875 5.421875 2 
L 5.421875 11.28125 
Q 10.40625 8.6875 15.234375 7.390625 
Q 20.0625 6.109375 24.8125 6.109375 
Q 31.15625 6.109375 34.5625 8.28125 
Q 37.984375 10.453125 37.984375 14.40625 
Q 37.984375 18.0625 35.515625 20.015625 
Q 33.0625 21.96875 24.703125 23.78125 
L 21.578125 24.515625 
Q 13.234375 26.265625 9.515625 29.90625 
Q 5.8125 33.546875 5.8125 39.890625 
Q 5.8125 47.609375 11.28125 51.796875 
Q 16.75 56 26.8125 56 
Q 31.78125 56 36.171875 55.265625 
Q 40.578125 54.546875 44.28125 53.078125 
z
" id="DejaVuSans-115"/>
      <path d="M 9.421875 54.6875 
L 18.40625 54.6875 
L 18.40625 0 
L 9.421875 0 
z
M 9.421875 75.984375 
L 18.40625 75.984375 
L 18.40625 64.59375 
L 9.421875 64.59375 
z
" id="DejaVuSans-105"/>
      <path d="M 54.890625 33.015625 
L 54.890625 0 
L 45.90625 0 
L 45.90625 32.71875 
Q 45.90625 40.484375 42.875 44.328125 
Q 39.84375 48.1875 33.796875 48.1875 
Q 26.515625 48.1875 22.3125 43.546875 
Q 18.109375 38.921875 18.109375 30.90625 
L 18.109375 0 
L 9.078125 0 
L 9.078125 54.6875 
L 18.109375 54.6875 
L 18.109375 46.1875 
Q 21.34375 51.125 25.703125 53.5625 
Q 30.078125 56 35.796875 56 
Q 45.21875 56 50.046875 50.171875 
Q 54.890625 44.34375 54.890625 33.015625 
z
" id="DejaVuSans-110"/>
      <path d="M 56.203125 29.59375 
L 56.203125 25.203125 
L 14.890625 25.203125 
Q 15.484375 15.921875 20.484375 11.0625 
Q 25.484375 6.203125 34.421875 6.203125 
Q 39.59375 6.203125 44.453125 7.46875 
Q 49.3125 8.734375 54.109375 11.28125 
L 54.109375 2.78125 
Q 49.265625 0.734375 44.1875 -0.34375 
Q 39.109375 -1.421875 33.890625 -1.421875 
Q 20.796875 -1.421875 13.15625 6.1875 
Q 5.515625 13.8125 5.515625 26.8125 
Q 5.515625 40.234375 12.765625 48.109375 
Q 20.015625 56 32.328125 56 
Q 43.359375 56 49.78125 48.890625 
Q 56.203125 41.796875 56.203125 29.59375 
z
M 47.21875 32.234375 
Q 47.125 39.59375 43.09375 43.984375 
Q 39.0625 48.390625 32.421875 48.390625 
Q 24.90625 48.390625 20.390625 44.140625 
Q 15.875 39.890625 15.1875 32.171875 
z
" id="DejaVuSans-101"/>
      <path id="DejaVuSans-32"/>
      <path d="M 52 44.1875 
Q 55.375 50.25 60.0625 53.125 
Q 64.75 56 71.09375 56 
Q 79.640625 56 84.28125 50.015625 
Q 88.921875 44.046875 88.921875 33.015625 
L 88.921875 0 
L 79.890625 0 
L 79.890625 32.71875 
Q 79.890625 40.578125 77.09375 44.375 
Q 74.3125 48.1875 68.609375 48.1875 
Q 61.625 48.1875 57.5625 43.546875 
Q 53.515625 38.921875 53.515625 30.90625 
L 53.515625 0 
L 44.484375 0 
L 44.484375 32.71875 
Q 44.484375 40.625 41.703125 44.40625 
Q 38.921875 48.1875 33.109375 48.1875 
Q 26.21875 48.1875 22.15625 43.53125 
Q 18.109375 38.875 18.109375 30.90625 
L 18.109375 0 
L 9.078125 0 
L 9.078125 54.6875 
L 18.109375 54.6875 
L 18.109375 46.1875 
Q 21.1875 51.21875 25.484375 53.609375 
Q 29.78125 56 35.6875 56 
Q 41.65625 56 45.828125 52.96875 
Q 50 49.953125 52 44.1875 
z
" id="DejaVuSans-109"/>
      <path d="M 9.421875 75.984375 
L 18.40625 75.984375 
L 18.40625 0 
L 9.421875 0 
z
" id="DejaVuSans-108"/>
      <path d="M 34.28125 27.484375 
Q 23.390625 27.484375 19.1875 25 
Q 14.984375 22.515625 14.984375 16.5 
Q 14.984375 11.71875 18.140625 8.90625 
Q 21.296875 6.109375 26.703125 6.109375 
Q 34.1875 6.109375 38.703125 11.40625 
Q 43.21875 16.703125 43.21875 25.484375 
L 43.21875 27.484375 
z
M 52.203125 31.203125 
L 52.203125 0 
L 43.21875 0 
L 43.21875 8.296875 
Q 40.140625 3.328125 35.546875 0.953125 
Q 30.953125 -1.421875 24.3125 -1.421875 
Q 15.921875 -1.421875 10.953125 3.296875 
Q 6 8.015625 6 15.921875 
Q 6 25.140625 12.171875 29.828125 
Q 18.359375 34.515625 30.609375 34.515625 
L 43.21875 34.515625 
L 43.21875 35.40625 
Q 43.21875 41.609375 39.140625 45 
Q 35.0625 48.390625 27.6875 48.390625 
Q 23 48.390625 18.546875 47.265625 
Q 14.109375 46.140625 10.015625 43.890625 
L 10.015625 52.203125 
Q 14.9375 54.109375 19.578125 55.046875 
Q 24.21875 56 28.609375 56 
Q 40.484375 56 46.34375 49.84375 
Q 52.203125 43.703125 52.203125 31.203125 
z
" id="DejaVuSans-97"/>
      <path d="M 41.109375 46.296875 
Q 39.59375 47.171875 37.8125 47.578125 
Q 36.03125 48 33.890625 48 
Q 26.265625 48 22.1875 43.046875 
Q 18.109375 38.09375 18.109375 28.8125 
L 18.109375 0 
L 9.078125 0 
L 9.078125 54.6875 
L 18.109375 54.6875 
L 18.109375 46.1875 
Q 20.953125 51.171875 25.484375 53.578125 
Q 30.03125 56 36.53125 56 
Q 37.453125 56 38.578125 55.875 
Q 39.703125 55.765625 41.0625 55.515625 
z
" id="DejaVuSans-114"/>
      <path d="M 18.3125 70.21875 
L 18.3125 54.6875 
L 36.8125 54.6875 
L 36.8125 47.703125 
L 18.3125 47.703125 
L 18.3125 18.015625 
Q 18.3125 11.328125 20.140625 9.421875 
Q 21.96875 7.515625 27.59375 7.515625 
L 36.8125 7.515625 
L 36.8125 0 
L 27.59375 0 
Q 17.1875 0 13.234375 3.875 
Q 9.28125 7.765625 9.28125 18.015625 
L 9.28125 47.703125 
L 2.6875 47.703125 
L 2.6875 54.6875 
L 9.28125 54.6875 
L 9.28125 70.21875 
z
" id="DejaVuSans-116"/>
      <path d="M 32.171875 -5.078125 
Q 28.375 -14.84375 24.75 -17.8125 
Q 21.140625 -20.796875 15.09375 -20.796875 
L 7.90625 -20.796875 
L 7.90625 -13.28125 
L 13.1875 -13.28125 
Q 16.890625 -13.28125 18.9375 -11.515625 
Q 21 -9.765625 23.484375 -3.21875 
L 25.09375 0.875 
L 2.984375 54.6875 
L 12.5 54.6875 
L 29.59375 11.921875 
L 46.6875 54.6875 
L 56.203125 54.6875 
z
" id="DejaVuSans-121"/>
     </defs>
     <g transform="translate(180.692969 280.276563)scale(0.1 -0.1)">
      <use xlink:href="#DejaVuSans-99"/>
      <use x="54.980469" xlink:href="#DejaVuSans-111"/>
      <use x="116.162109" xlink:href="#DejaVuSans-115"/>
      <use x="168.261719" xlink:href="#DejaVuSans-105"/>
      <use x="196.044922" xlink:href="#DejaVuSans-110"/>
      <use x="259.423828" xlink:href="#DejaVuSans-101"/>
      <use x="320.947266" xlink:href="#DejaVuSans-32"/>
      <use x="352.734375" xlink:href="#DejaVuSans-115"/>
      <use x="404.833984" xlink:href="#DejaVuSans-105"/>
      <use x="432.617188" xlink:href="#DejaVuSans-109"/>
      <use x="530.029297" xlink:href="#DejaVuSans-105"/>
      <use x="557.8125" xlink:href="#DejaVuSans-108"/>
      <use x="585.595703" xlink:href="#DejaVuSans-97"/>
      <use x="646.875" xlink:href="#DejaVuSans-114"/>
      <use x="687.988281" xlink:href="#DejaVuSans-105"/>
      <use x="715.771484" xlink:href="#DejaVuSans-116"/>
      <use x="754.980469" xlink:href="#DejaVuSans-121"/>
     </g>
    </g>
   </g>
   <g id="matplotlib.axis_2">
    <g id="ytick_1">
     <g id="line2d_10">
      <defs>
       <path d="M 0 0 
L -3.5 0 
" id="m046d9d2a5b" style="stroke:#000000;stroke-width:0.8;"/>
      </defs>
      <g>
       <use style="stroke:#000000;stroke-width:0.8;" x="54" xlink:href="#m046d9d2a5b" y="252"/>
      </g>
     </g>
     <g id="text_11">
      <!-- 0.0 -->
      <g transform="translate(31.096875 255.799219)scale(0.1 -0.1)">
       <use xlink:href="#DejaVuSans-48"/>
       <use x="63.623047" xlink:href="#DejaVuSans-46"/>
       <use x="95.410156" xlink:href="#DejaVuSans-48"/>
      </g>
     </g>
    </g>
    <g id="ytick_2">
     <g id="line2d_11">
      <g>
       <use style="stroke:#000000;stroke-width:0.8;" x="54" xlink:href="#m046d9d2a5b" y="218.454878"/>
      </g>
     </g>
     <g id="text_12">
      <!-- 0.2 -->
      <g transform="translate(31.096875 222.254096)scale(0.1 -0.1)">
       <use xlink:href="#DejaVuSans-48"/>
       <use x="63.623047" xlink:href="#DejaVuSans-46"/>
       <use x="95.410156" xlink:href="#DejaVuSans-50"/>
      </g>
     </g>
    </g>
    <g id="ytick_3">
     <g id="line2d_12">
      <g>
       <use style="stroke:#000000;stroke-width:0.8;" x="54" xlink:href="#m046d9d2a5b" y="184.909755"/>
      </g>
     </g>
     <g id="text_13">
      <!-- 0.4 -->
      <defs>
       <path d="M 37.796875 64.3125 
L 12.890625 25.390625 
L 37.796875 25.390625 
z
M 35.203125 72.90625 
L 47.609375 72.90625 
L 47.609375 25.390625 
L 58.015625 25.390625 
L 58.015625 17.1875 
L 47.609375 17.1875 
L 47.609375 0 
L 37.796875 0 
L 37.796875 17.1875 
L 4.890625 17.1875 
L 4.890625 26.703125 
z
" id="DejaVuSans-52"/>
      </defs>
      <g transform="translate(31.096875 188.708974)scale(0.1 -0.1)">
       <use xlink:href="#DejaVuSans-48"/>
       <use x="63.623047" xlink:href="#DejaVuSans-46"/>
       <use x="95.410156" xlink:href="#DejaVuSans-52"/>
      </g>
     </g>
    </g>
    <g id="ytick_4">
     <g id="line2d_13">
      <g>
       <use style="stroke:#000000;stroke-width:0.8;" x="54" xlink:href="#m046d9d2a5b" y="151.364633"/>
      </g>
     </g>
     <g id="text_14">
      <!-- 0.6 -->
      <defs>
       <path d="M 33.015625 40.375 
Q 26.375 40.375 22.484375 35.828125 
Q 18.609375 31.296875 18.609375 23.390625 
Q 18.609375 15.53125 22.484375 10.953125 
Q 26.375 6.390625 33.015625 6.390625 
Q 39.65625 6.390625 43.53125 10.953125 
Q 47.40625 15.53125 47.40625 23.390625 
Q 47.40625 31.296875 43.53125 35.828125 
Q 39.65625 40.375 33.015625 40.375 
z
M 52.59375 71.296875 
L 52.59375 62.3125 
Q 48.875 64.0625 45.09375 64.984375 
Q 41.3125 65.921875 37.59375 65.921875 
Q 27.828125 65.921875 22.671875 59.328125 
Q 17.53125 52.734375 16.796875 39.40625 
Q 19.671875 43.65625 24.015625 45.921875 
Q 28.375 48.1875 33.59375 48.1875 
Q 44.578125 48.1875 50.953125 41.515625 
Q 57.328125 34.859375 57.328125 23.390625 
Q 57.328125 12.15625 50.6875 5.359375 
Q 44.046875 -1.421875 33.015625 -1.421875 
Q 20.359375 -1.421875 13.671875 8.265625 
Q 6.984375 17.96875 6.984375 36.375 
Q 6.984375 53.65625 15.1875 63.9375 
Q 23.390625 74.21875 37.203125 74.21875 
Q 40.921875 74.21875 44.703125 73.484375 
Q 48.484375 72.75 52.59375 71.296875 
z
" id="DejaVuSans-54"/>
      </defs>
      <g transform="translate(31.096875 155.163851)scale(0.1 -0.1)">
       <use xlink:href="#DejaVuSans-48"/>
       <use x="63.623047" xlink:href="#DejaVuSans-46"/>
       <use x="95.410156" xlink:href="#DejaVuSans-54"/>
      </g>
     </g>
    </g>
    <g id="ytick_5">
     <g id="line2d_14">
      <g>
       <use style="stroke:#000000;stroke-width:0.8;" x="54" xlink:href="#m046d9d2a5b" y="117.81951"/>
      </g>
     </g>
     <g id="text_15">
      <!-- 0.8 -->
      <defs>
       <path d="M 31.78125 34.625 
Q 24.75 34.625 20.71875 30.859375 
Q 16.703125 27.09375 16.703125 20.515625 
Q 16.703125 13.921875 20.71875 10.15625 
Q 24.75 6.390625 31.78125 6.390625 
Q 38.8125 6.390625 42.859375 10.171875 
Q 46.921875 13.96875 46.921875 20.515625 
Q 46.921875 27.09375 42.890625 30.859375 
Q 38.875 34.625 31.78125 34.625 
z
M 21.921875 38.8125 
Q 15.578125 40.375 12.03125 44.71875 
Q 8.5 49.078125 8.5 55.328125 
Q 8.5 64.0625 14.71875 69.140625 
Q 20.953125 74.21875 31.78125 74.21875 
Q 42.671875 74.21875 48.875 69.140625 
Q 55.078125 64.0625 55.078125 55.328125 
Q 55.078125 49.078125 51.53125 44.71875 
Q 48 40.375 41.703125 38.8125 
Q 48.828125 37.15625 52.796875 32.3125 
Q 56.78125 27.484375 56.78125 20.515625 
Q 56.78125 9.90625 50.3125 4.234375 
Q 43.84375 -1.421875 31.78125 -1.421875 
Q 19.734375 -1.421875 13.25 4.234375 
Q 6.78125 9.90625 6.78125 20.515625 
Q 6.78125 27.484375 10.78125 32.3125 
Q 14.796875 37.15625 21.921875 38.8125 
z
M 18.3125 54.390625 
Q 18.3125 48.734375 21.84375 45.5625 
Q 25.390625 42.390625 31.78125 42.390625 
Q 38.140625 42.390625 41.71875 45.5625 
Q 45.3125 48.734375 45.3125 54.390625 
Q 45.3125 60.0625 41.71875 63.234375 
Q 38.140625 66.40625 31.78125 66.40625 
Q 25.390625 66.40625 21.84375 63.234375 
Q 18.3125 60.0625 18.3125 54.390625 
z
" id="DejaVuSans-56"/>
      </defs>
      <g transform="translate(31.096875 121.618729)scale(0.1 -0.1)">
       <use xlink:href="#DejaVuSans-48"/>
       <use x="63.623047" xlink:href="#DejaVuSans-46"/>
       <use x="95.410156" xlink:href="#DejaVuSans-56"/>
      </g>
     </g>
    </g>
    <g id="ytick_6">
     <g id="line2d_15">
      <g>
       <use style="stroke:#000000;stroke-width:0.8;" x="54" xlink:href="#m046d9d2a5b" y="84.274388"/>
      </g>
     </g>
     <g id="text_16">
      <!-- 1.0 -->
      <g transform="translate(31.096875 88.073607)scale(0.1 -0.1)">
       <use xlink:href="#DejaVuSans-49"/>
       <use x="63.623047" xlink:href="#DejaVuSans-46"/>
       <use x="95.410156" xlink:href="#DejaVuSans-48"/>
      </g>
     </g>
    </g>
    <g id="ytick_7">
     <g id="line2d_16">
      <g>
       <use style="stroke:#000000;stroke-width:0.8;" x="54" xlink:href="#m046d9d2a5b" y="50.729265"/>
      </g>
     </g>
     <g id="text_17">
      <!-- 1.2 -->
      <g transform="translate(31.096875 54.528484)scale(0.1 -0.1)">
       <use xlink:href="#DejaVuSans-49"/>
       <use x="63.623047" xlink:href="#DejaVuSans-46"/>
       <use x="95.410156" xlink:href="#DejaVuSans-50"/>
      </g>
     </g>
    </g>
    <g id="text_18">
     <!-- density -->
     <defs>
      <path d="M 45.40625 46.390625 
L 45.40625 75.984375 
L 54.390625 75.984375 
L 54.390625 0 
L 45.40625 0 
L 45.40625 8.203125 
Q 42.578125 3.328125 38.25 0.953125 
Q 33.9375 -1.421875 27.875 -1.421875 
Q 17.96875 -1.421875 11.734375 6.484375 
Q 5.515625 14.40625 5.515625 27.296875 
Q 5.515625 40.1875 11.734375 48.09375 
Q 17.96875 56 27.875 56 
Q 33.9375 56 38.25 53.625 
Q 42.578125 51.265625 45.40625 46.390625 
z
M 14.796875 27.296875 
Q 14.796875 17.390625 18.875 11.75 
Q 22.953125 6.109375 30.078125 6.109375 
Q 37.203125 6.109375 41.296875 11.75 
Q 45.40625 17.390625 45.40625 27.296875 
Q 45.40625 37.203125 41.296875 42.84375 
Q 37.203125 48.484375 30.078125 48.484375 
Q 22.953125 48.484375 18.875 42.84375 
Q 14.796875 37.203125 14.796875 27.296875 
z
" id="DejaVuSans-100"/>
     </defs>
     <g transform="translate(25.017187 161.612813)rotate(-90)scale(0.1 -0.1)">
      <use xlink:href="#DejaVuSans-100"/>
      <use x="63.476562" xlink:href="#DejaVuSans-101"/>
      <use x="125" xlink:href="#DejaVuSans-110"/>
      <use x="188.378906" xlink:href="#DejaVuSans-115"/>
      <use x="240.478516" xlink:href="#DejaVuSans-105"/>
      <use x="268.261719" xlink:href="#DejaVuSans-116"/>
      <use x="307.470703" xlink:href="#DejaVuSans-121"/>
     </g>
    </g>
   </g>
   <g id="patch_7">
    <path d="M 54 252 
L 54 34.56 
" style="fill:none;stroke:#000000;stroke-linecap:square;stroke-linejoin:miter;stroke-width:0.8;"/>
   </g>
   <g id="patch_8">
    <path d="M 388.8 252 
L 388.8 34.56 
" style="fill:none;stroke:#000000;stroke-linecap:square;stroke-linejoin:miter;stroke-width:0.8;"/>
   </g>
   <g id="patch_9">
    <path d="M 54 252 
L 388.8 252 
" style="fill:none;stroke:#000000;stroke-linecap:square;stroke-linejoin:miter;stroke-width:0.8;"/>
   </g>
   <g id="patch_10">
    <path d="M 54 34.56 
L 388.8 34.56 
" style="fill:none;stroke:#000000;stroke-linecap:square;stroke-linejoin:miter;stroke-width:0.8;"/>
   </g>
   <g id="text_19">
    <!-- x-validation emb_w2v_pm_pmc -->
    <defs>
     <path d="M 54.890625 54.6875 
L 35.109375 28.078125 
L 55.90625 0 
L 45.3125 0 
L 29.390625 21.484375 
L 13.484375 0 
L 2.875 0 
L 24.125 28.609375 
L 4.6875 54.6875 
L 15.28125 54.6875 
L 29.78125 35.203125 
L 44.28125 54.6875 
z
" id="DejaVuSans-120"/>
     <path d="M 4.890625 31.390625 
L 31.203125 31.390625 
L 31.203125 23.390625 
L 4.890625 23.390625 
z
" id="DejaVuSans-45"/>
     <path d="M 2.984375 54.6875 
L 12.5 54.6875 
L 29.59375 8.796875 
L 46.6875 54.6875 
L 56.203125 54.6875 
L 35.6875 0 
L 23.484375 0 
z
" id="DejaVuSans-118"/>
     <path d="M 48.6875 27.296875 
Q 48.6875 37.203125 44.609375 42.84375 
Q 40.53125 48.484375 33.40625 48.484375 
Q 26.265625 48.484375 22.1875 42.84375 
Q 18.109375 37.203125 18.109375 27.296875 
Q 18.109375 17.390625 22.1875 11.75 
Q 26.265625 6.109375 33.40625 6.109375 
Q 40.53125 6.109375 44.609375 11.75 
Q 48.6875 17.390625 48.6875 27.296875 
z
M 18.109375 46.390625 
Q 20.953125 51.265625 25.265625 53.625 
Q 29.59375 56 35.59375 56 
Q 45.5625 56 51.78125 48.09375 
Q 58.015625 40.1875 58.015625 27.296875 
Q 58.015625 14.40625 51.78125 6.484375 
Q 45.5625 -1.421875 35.59375 -1.421875 
Q 29.59375 -1.421875 25.265625 0.953125 
Q 20.953125 3.328125 18.109375 8.203125 
L 18.109375 0 
L 9.078125 0 
L 9.078125 75.984375 
L 18.109375 75.984375 
z
" id="DejaVuSans-98"/>
     <path d="M 50.984375 -16.609375 
L 50.984375 -23.578125 
L -0.984375 -23.578125 
L -0.984375 -16.609375 
z
" id="DejaVuSans-95"/>
     <path d="M 4.203125 54.6875 
L 13.1875 54.6875 
L 24.421875 12.015625 
L 35.59375 54.6875 
L 46.1875 54.6875 
L 57.421875 12.015625 
L 68.609375 54.6875 
L 77.59375 54.6875 
L 63.28125 0 
L 52.6875 0 
L 40.921875 44.828125 
L 29.109375 0 
L 18.5 0 
z
" id="DejaVuSans-119"/>
     <path d="M 18.109375 8.203125 
L 18.109375 -20.796875 
L 9.078125 -20.796875 
L 9.078125 54.6875 
L 18.109375 54.6875 
L 18.109375 46.390625 
Q 20.953125 51.265625 25.265625 53.625 
Q 29.59375 56 35.59375 56 
Q 45.5625 56 51.78125 48.09375 
Q 58.015625 40.1875 58.015625 27.296875 
Q 58.015625 14.40625 51.78125 6.484375 
Q 45.5625 -1.421875 35.59375 -1.421875 
Q 29.59375 -1.421875 25.265625 0.953125 
Q 20.953125 3.328125 18.109375 8.203125 
z
M 48.6875 27.296875 
Q 48.6875 37.203125 44.609375 42.84375 
Q 40.53125 48.484375 33.40625 48.484375 
Q 26.265625 48.484375 22.1875 42.84375 
Q 18.109375 37.203125 18.109375 27.296875 
Q 18.109375 17.390625 22.1875 11.75 
Q 26.265625 6.109375 33.40625 6.109375 
Q 40.53125 6.109375 44.609375 11.75 
Q 48.6875 17.390625 48.6875 27.296875 
z
" id="DejaVuSans-112"/>
    </defs>
    <g transform="translate(127.011563 28.56)scale(0.12 -0.12)">
     <use xlink:href="#DejaVuSans-120"/>
     <use x="59.179688" xlink:href="#DejaVuSans-45"/>
     <use x="95.232422" xlink:href="#DejaVuSans-118"/>
     <use x="154.412109" xlink:href="#DejaVuSans-97"/>
     <use x="215.691406" xlink:href="#DejaVuSans-108"/>
     <use x="243.474609" xlink:href="#DejaVuSans-105"/>
     <use x="271.257812" xlink:href="#DejaVuSans-100"/>
     <use x="334.734375" xlink:href="#DejaVuSans-97"/>
     <use x="396.013672" xlink:href="#DejaVuSans-116"/>
     <use x="435.222656" xlink:href="#DejaVuSans-105"/>
     <use x="463.005859" xlink:href="#DejaVuSans-111"/>
     <use x="524.1875" xlink:href="#DejaVuSans-110"/>
     <use x="587.566406" xlink:href="#DejaVuSans-32"/>
     <use x="619.353516" xlink:href="#DejaVuSans-101"/>
     <use x="680.876953" xlink:href="#DejaVuSans-109"/>
     <use x="778.289062" xlink:href="#DejaVuSans-98"/>
     <use x="841.765625" xlink:href="#DejaVuSans-95"/>
     <use x="891.765625" xlink:href="#DejaVuSans-119"/>
     <use x="973.552734" xlink:href="#DejaVuSans-50"/>
     <use x="1037.175781" xlink:href="#DejaVuSans-118"/>
     <use x="1096.355469" xlink:href="#DejaVuSans-95"/>
     <use x="1146.355469" xlink:href="#DejaVuSans-112"/>
     <use x="1209.832031" xlink:href="#DejaVuSans-109"/>
     <use x="1307.244141" xlink:href="#DejaVuSans-95"/>
     <use x="1357.244141" xlink:href="#DejaVuSans-112"/>
     <use x="1420.720703" xlink:href="#DejaVuSans-109"/>
     <use x="1518.132812" xlink:href="#DejaVuSans-99"/>
    </g>
   </g>
  </g>
 </g>
 <defs>
  <clipPath id="pef210418d8">
   <rect height="217.44" width="334.8" x="54" y="34.56"/>
  </clipPath>
 </defs>
</svg>
