<?xml version="1.0" encoding="utf-8" standalone="no"?>
<!DOCTYPE svg PUBLIC "-//W3C//DTD SVG 1.1//EN"
  "http://www.w3.org/Graphics/SVG/1.1/DTD/svg11.dtd">
<!-- Created with matplotlib (https://matplotlib.org/) -->
<svg height="288pt" version="1.1" viewBox="0 0 432 288" width="432pt" xmlns="http://www.w3.org/2000/svg" xmlns:xlink="http://www.w3.org/1999/xlink">
 <defs>
  <style type="text/css">
*{stroke-linecap:butt;stroke-linejoin:round;}
  </style>
 </defs>
 <g id="figure_1">
  <g id="patch_1">
   <path d="M 0 288 
L 432 288 
L 432 0 
L 0 0 
z
" style="fill:#ffffff;"/>
  </g>
  <g id="axes_1">
   <g id="patch_2">
    <path d="M 54 252 
L 388.8 252 
L 388.8 34.56 
L 54 34.56 
z
" style="fill:#ffffff;"/>
   </g>
   <g id="patch_3">
    <path clip-path="url(#peb1a223e3b)" d="M 72.186302 252 
L 72.186302 251.995096 
L 81.228167 251.901245 
L 81.228167 251.775856 
L 84.242122 251.775856 
L 84.242122 251.553825 
L 87.256077 251.553825 
L 87.256077 251.161002 
L 90.270033 251.161002 
L 90.270033 250.600515 
L 93.283988 250.600515 
L 93.283988 249.851901 
L 96.297943 249.851901 
L 96.297943 248.797891 
L 99.311898 248.797891 
L 99.311898 247.580866 
L 102.325853 247.580866 
L 102.325853 245.910057 
L 105.339808 245.910057 
L 105.339808 244.035142 
L 108.353764 244.035142 
L 108.353764 241.75303 
L 111.367719 241.75303 
L 111.367719 239.239165 
L 114.381674 239.239165 
L 114.381674 236.089223 
L 117.395629 236.089223 
L 117.395629 232.833593 
L 120.409584 232.833593 
L 120.409584 229.209153 
L 123.423539 229.209153 
L 123.423539 225.157815 
L 126.437495 225.157815 
L 126.437495 221.074347 
L 129.45145 221.074347 
L 129.45145 216.602876 
L 132.465405 216.602876 
L 132.465405 211.890266 
L 135.47936 211.890266 
L 135.47936 206.96518 
L 138.493315 206.96518 
L 138.493315 202.288504 
L 141.50727 202.288504 
L 141.50727 196.648033 
L 144.521226 196.648033 
L 144.521226 191.210738 
L 147.535181 191.210738 
L 147.535181 185.837786 
L 150.549136 185.837786 
L 150.549136 179.845752 
L 153.563091 179.845752 
L 153.563091 174.521163 
L 156.577046 174.521163 
L 156.577046 169.201224 
L 159.591001 169.201224 
L 159.591001 163.338216 
L 162.604957 163.338216 
L 162.604957 157.967546 
L 165.618912 157.967546 
L 165.618912 152.540905 
L 168.632867 152.540905 
L 168.632867 147.37637 
L 171.646822 147.37637 
L 171.646822 142.149776 
L 174.660777 142.149776 
L 174.660777 137.670019 
L 177.674732 137.670019 
L 177.674732 132.523832 
L 180.688688 132.523832 
L 180.688688 128.398766 
L 183.702643 128.398766 
L 183.702643 124.097918 
L 186.716598 124.097918 
L 186.716598 120.105343 
L 189.730553 120.105343 
L 189.730553 117.091528 
L 192.744508 117.091528 
L 192.744508 112.635107 
L 195.758463 112.635107 
L 195.758463 110.536894 
L 198.772419 110.536894 
L 198.772419 107.508875 
L 201.786374 107.508875 
L 201.786374 105.628041 
L 204.800329 105.628041 
L 204.800329 103.251994 
L 207.814284 103.251994 
L 207.814284 101.57349 
L 210.828239 101.57349 
L 210.828239 100.488027 
L 213.842194 100.488027 
L 213.842194 98.44976 
L 216.85615 98.44976 
L 216.85615 97.74469 
L 219.870105 97.74469 
L 219.870105 97.372666 
L 222.88406 97.372666 
L 222.88406 96.583723 
L 225.898015 96.583723 
L 225.898015 96.886753 
L 228.91197 96.886753 
L 228.91197 96.264797 
L 231.925925 96.264797 
L 231.925925 96.709027 
L 234.939881 96.709027 
L 234.939881 96.996838 
L 237.953836 96.996838 
L 237.953836 97.68914 
L 240.967791 97.68914 
L 240.967791 98.197967 
L 243.981746 98.197967 
L 243.981746 99.523132 
L 246.995701 99.523132 
L 246.995701 100.726375 
L 250.009656 100.726375 
L 250.009656 101.345372 
L 253.023612 101.345372 
L 253.023612 103.060401 
L 256.037567 103.060401 
L 256.037567 104.829797 
L 259.051522 104.829797 
L 259.051522 106.583127 
L 262.065477 106.583127 
L 262.065477 108.018462 
L 265.079432 108.018462 
L 265.079432 110.27597 
L 268.093387 110.27597 
L 268.093387 112.309164 
L 271.107343 112.309164 
L 271.107343 114.756234 
L 274.121298 114.756234 
L 274.121298 116.803125 
L 277.135253 116.803125 
L 277.135253 119.797916 
L 280.149208 119.797916 
L 280.149208 121.83965 
L 283.163163 121.83965 
L 283.163163 124.844417 
L 286.177118 124.844417 
L 286.177118 127.735887 
L 289.191074 127.735887 
L 289.191074 130.597256 
L 292.205029 130.597256 
L 292.205029 133.67051 
L 295.218984 133.67051 
L 295.218984 137.141153 
L 298.232939 137.141153 
L 298.232939 140.412932 
L 301.246894 140.412932 
L 301.246894 143.395632 
L 304.260849 143.395632 
L 304.260849 146.895614 
L 307.274805 146.895614 
L 307.274805 150.411069 
L 310.28876 150.411069 
L 310.28876 154.515082 
L 313.302715 154.515082 
L 313.302715 158.054887 
L 316.31667 158.054887 
L 316.31667 161.756692 
L 319.330625 161.756692 
L 319.330625 165.984826 
L 322.34458 165.984826 
L 322.34458 170.241453 
L 325.358536 170.241453 
L 325.358536 174.199024 
L 328.372491 174.199024 
L 328.372491 178.584423 
L 331.386446 178.584423 
L 331.386446 183.492514 
L 334.400401 183.492514 
L 334.400401 187.9048 
L 337.414356 187.9048 
L 337.414356 192.546725 
L 340.428311 192.546725 
L 340.428311 197.55112 
L 343.442267 197.55112 
L 343.442267 202.331963 
L 346.456222 202.331963 
L 346.456222 207.760042 
L 349.470177 207.760042 
L 349.470177 212.885345 
L 352.484132 212.885345 
L 352.484132 218.465616 
L 355.498087 218.465616 
L 355.498087 224.429409 
L 358.512042 224.429409 
L 358.512042 230.045529 
L 361.525998 230.045529 
L 361.525998 236.128117 
L 364.539953 236.128117 
L 364.539953 242.061303 
L 367.553908 242.061303 
L 367.553908 247.470696 
L 370.567863 247.470696 
L 370.567863 250.748901 
L 373.581818 250.748901 
L 373.581818 252 
L 373.581818 252 
" style="fill:none;opacity:0.5;stroke:#008080;stroke-linejoin:miter;stroke-width:2;"/>
   </g>
   <g id="patch_4">
    <path clip-path="url(#peb1a223e3b)" d="M 69.218182 252 
L 69.218182 251.995379 
L 75.277523 251.933771 
L 75.277523 251.707531 
L 78.307194 251.707531 
L 78.307194 251.190192 
L 81.336864 251.190192 
L 81.336864 250.276677 
L 84.366535 250.276677 
L 84.366535 248.289637 
L 87.396205 248.289637 
L 87.396205 245.861583 
L 90.425876 245.861583 
L 90.425876 242.203758 
L 93.455546 242.203758 
L 93.455546 236.859233 
L 96.485217 236.859233 
L 96.485217 230.281171 
L 99.514888 230.281171 
L 99.514888 222.226905 
L 102.544558 222.226905 
L 102.544558 212.678123 
L 105.574229 212.678123 
L 105.574229 202.081143 
L 108.603899 202.081143 
L 108.603899 190.161124 
L 111.63357 190.161124 
L 111.63357 176.840712 
L 114.663241 176.840712 
L 114.663241 163.831594 
L 117.692911 163.831594 
L 117.692911 149.928984 
L 120.722582 149.928984 
L 120.722582 136.9748 
L 123.752252 136.9748 
L 123.752252 123.142696 
L 126.781923 123.142696 
L 126.781923 110.254741 
L 129.811593 110.254741 
L 129.811593 99.559017 
L 132.841264 99.559017 
L 132.841264 88.767628 
L 135.870935 88.767628 
L 135.870935 79.256325 
L 138.900605 79.256325 
L 138.900605 71.180154 
L 141.930276 71.180154 
L 141.930276 64.003807 
L 144.959946 64.003807 
L 144.959946 58.314617 
L 147.989617 58.314617 
L 147.989617 54.497295 
L 151.019288 54.497295 
L 151.019288 50.045577 
L 154.048958 50.045577 
L 154.048958 47.045079 
L 157.078629 47.045079 
L 157.078629 45.807949 
L 160.108299 45.807949 
L 160.108299 44.914286 
L 163.13797 44.914286 
L 163.13797 45.664881 
L 166.16764 45.664881 
L 166.16764 46.721464 
L 169.197311 46.721464 
L 169.197311 47.376395 
L 172.226982 47.376395 
L 172.226982 49.59943 
L 175.256652 49.59943 
L 175.256652 52.374202 
L 178.286323 52.374202 
L 178.286323 54.951999 
L 181.315993 54.951999 
L 181.315993 57.473834 
L 184.345664 57.473834 
L 184.345664 61.613573 
L 187.375335 61.613573 
L 187.375335 65.993928 
L 190.405005 65.993928 
L 190.405005 70.867833 
L 193.434676 70.867833 
L 193.434676 74.904721 
L 196.464346 74.904721 
L 196.464346 79.46374 
L 199.494017 79.46374 
L 199.494017 83.247348 
L 202.523687 83.247348 
L 202.523687 88.556278 
L 205.553358 88.556278 
L 205.553358 93.438911 
L 208.583029 93.438911 
L 208.583029 98.342936 
L 211.612699 98.342936 
L 211.612699 103.429391 
L 214.64237 103.429391 
L 214.64237 108.521835 
L 217.67204 108.521835 
L 217.67204 114.195109 
L 220.701711 114.195109 
L 220.701711 118.280941 
L 223.731382 118.280941 
L 223.731382 123.521245 
L 226.761052 123.521245 
L 226.761052 128.666741 
L 229.790723 128.666741 
L 229.790723 134.028893 
L 232.820393 134.028893 
L 232.820393 138.43081 
L 235.850064 138.43081 
L 235.850064 143.720744 
L 238.879734 143.720744 
L 238.879734 149.193791 
L 241.909405 149.193791 
L 241.909405 153.712421 
L 244.939076 153.712421 
L 244.939076 158.534816 
L 247.968746 158.534816 
L 247.968746 163.17461 
L 250.998417 163.17461 
L 250.998417 168.07795 
L 254.028087 168.07795 
L 254.028087 172.42442 
L 257.057758 172.42442 
L 257.057758 177.032212 
L 260.087429 177.032212 
L 260.087429 181.682445 
L 263.117099 181.682445 
L 263.117099 185.714541 
L 266.14677 185.714541 
L 266.14677 189.836311 
L 269.17644 189.836311 
L 269.17644 193.890997 
L 272.206111 193.890997 
L 272.206111 197.716191 
L 275.235781 197.716191 
L 275.235781 201.787306 
L 278.265452 201.787306 
L 278.265452 205.01045 
L 281.295123 205.01045 
L 281.295123 208.704213 
L 284.324793 208.704213 
L 284.324793 212.016689 
L 287.354464 212.016689 
L 287.354464 215.446563 
L 290.384134 215.446563 
L 290.384134 218.339931 
L 293.413805 218.339931 
L 293.413805 221.634267 
L 296.443475 221.634267 
L 296.443475 224.21463 
L 299.473146 224.21463 
L 299.473146 226.770522 
L 302.502817 226.770522 
L 302.502817 229.403081 
L 305.532487 229.403081 
L 305.532487 231.657605 
L 308.562158 231.657605 
L 308.562158 233.752289 
L 311.591828 233.752289 
L 311.591828 235.622445 
L 314.621499 235.622445 
L 314.621499 237.73236 
L 317.65117 237.73236 
L 317.65117 239.381753 
L 320.68084 239.381753 
L 320.68084 240.97758 
L 323.710511 240.97758 
L 323.710511 242.460973 
L 326.740181 242.460973 
L 326.740181 243.926225 
L 329.769852 243.926225 
L 329.769852 245.195699 
L 332.799522 245.195699 
L 332.799522 246.313206 
L 335.829193 246.313206 
L 335.829193 247.289014 
L 338.858864 247.289014 
L 338.858864 248.271325 
L 341.888534 248.271325 
L 341.888534 248.987694 
L 344.918205 248.987694 
L 344.918205 249.678221 
L 347.947875 249.678221 
L 347.947875 250.268634 
L 350.977546 250.268634 
L 350.977546 250.727274 
L 354.007217 250.727274 
L 354.007217 251.103085 
L 357.036887 251.103085 
L 357.036887 251.356877 
L 360.066558 251.356877 
L 360.066558 251.583801 
L 363.096228 251.583801 
L 363.096228 251.76469 
L 366.125899 251.76469 
L 366.125899 251.909641 
L 372.18524 251.989561 
L 372.18524 252 
" style="fill:none;opacity:0.5;stroke:#bf4080;stroke-linejoin:miter;stroke-width:2;"/>
   </g>
   <g id="patch_5">
    <path clip-path="url(#peb1a223e3b)" d="M 70.503624 252 
L 70.503624 251.982989 
L 76.539068 251.916147 
L 76.539068 251.669916 
L 79.556789 251.669916 
L 79.556789 251.228316 
L 82.574511 251.228316 
L 82.574511 250.231192 
L 85.592233 250.231192 
L 85.592233 248.72786 
L 88.609955 248.72786 
L 88.609955 246.361259 
L 91.627677 246.361259 
L 91.627677 243.085167 
L 94.645399 243.085167 
L 94.645399 238.508329 
L 97.663121 238.508329 
L 97.663121 232.937288 
L 100.680842 232.937288 
L 100.680842 225.858276 
L 103.698564 225.858276 
L 103.698564 217.77269 
L 106.716286 217.77269 
L 106.716286 207.763306 
L 109.734008 207.763306 
L 109.734008 197.705638 
L 112.75173 197.705638 
L 112.75173 186.275743 
L 115.769452 186.275743 
L 115.769452 174.486897 
L 118.787174 174.486897 
L 118.787174 161.873616 
L 121.804895 161.873616 
L 121.804895 149.024414 
L 124.822617 149.024414 
L 124.822617 137.354818 
L 127.840339 137.354818 
L 127.840339 125.983001 
L 130.858061 125.983001 
L 130.858061 115.267915 
L 133.875783 115.267915 
L 133.875783 106.084685 
L 136.893505 106.084685 
L 136.893505 97.817647 
L 139.911227 97.817647 
L 139.911227 90.478314 
L 142.928948 90.478314 
L 142.928948 83.582987 
L 145.94667 83.582987 
L 145.94667 78.833461 
L 148.964392 78.833461 
L 148.964392 75.046865 
L 151.982114 75.046865 
L 151.982114 71.332437 
L 154.999836 71.332437 
L 154.999836 69.429946 
L 158.017558 69.429946 
L 158.017558 67.229332 
L 161.03528 67.229332 
L 161.03528 66.153167 
L 164.053001 66.153167 
L 164.053001 65.55503 
L 170.088445 65.5851 
L 170.088445 65.873429 
L 173.106167 65.873429 
L 173.106167 67.108708 
L 176.123889 67.108708 
L 176.123889 68.703797 
L 179.141611 68.703797 
L 179.141611 69.596964 
L 182.159333 69.596964 
L 182.159333 71.838474 
L 185.177054 71.838474 
L 185.177054 74.570383 
L 188.194776 74.570383 
L 188.194776 76.684052 
L 191.212498 76.684052 
L 191.212498 79.381596 
L 194.23022 79.381596 
L 194.23022 82.301658 
L 197.247942 82.301658 
L 197.247942 85.012605 
L 200.265664 85.012605 
L 200.265664 88.235602 
L 203.283386 88.235602 
L 203.283386 91.812738 
L 206.301107 91.812738 
L 206.301107 95.400872 
L 209.318829 95.400872 
L 209.318829 99.332492 
L 212.336551 99.332492 
L 212.336551 102.696732 
L 215.354273 102.696732 
L 215.354273 106.794511 
L 218.371995 106.794511 
L 218.371995 110.988342 
L 221.389717 110.988342 
L 221.389717 114.640739 
L 224.407439 114.640739 
L 224.407439 118.823573 
L 227.42516 118.823573 
L 227.42516 122.438856 
L 230.442882 122.438856 
L 230.442882 126.290747 
L 233.460604 126.290747 
L 233.460604 130.37581 
L 236.478326 130.37581 
L 236.478326 134.505893 
L 239.496048 134.505893 
L 239.496048 138.149527 
L 242.51377 138.149527 
L 242.51377 141.970489 
L 245.531492 141.970489 
L 245.531492 145.837501 
L 248.549213 145.837501 
L 248.549213 149.622379 
L 251.566935 149.622379 
L 251.566935 153.499185 
L 254.584657 153.499185 
L 254.584657 157.464655 
L 257.602379 157.464655 
L 257.602379 161.553155 
L 260.620101 161.553155 
L 260.620101 165.953696 
L 263.637823 165.953696 
L 263.637823 169.286492 
L 266.655545 169.286492 
L 266.655545 173.046455 
L 269.673266 173.046455 
L 269.673266 176.768615 
L 272.690988 176.768615 
L 272.690988 180.627723 
L 275.70871 180.627723 
L 275.70871 184.186818 
L 278.726432 184.186818 
L 278.726432 188.0473 
L 281.744154 188.0473 
L 281.744154 191.330953 
L 284.761876 191.330953 
L 284.761876 195.041257 
L 287.779598 195.041257 
L 287.779598 198.459623 
L 290.797319 198.459623 
L 290.797319 201.90806 
L 293.815041 201.90806 
L 293.815041 205.34928 
L 296.832763 205.34928 
L 296.832763 208.636541 
L 299.850485 208.636541 
L 299.850485 211.28666 
L 302.868207 211.28666 
L 302.868207 214.682173 
L 305.885929 214.682173 
L 305.885929 217.713409 
L 308.903651 217.713409 
L 308.903651 220.121249 
L 311.921372 220.121249 
L 311.921372 223.096812 
L 314.939094 223.096812 
L 314.939094 225.614966 
L 317.956816 225.614966 
L 317.956816 228.040161 
L 320.974538 228.040161 
L 320.974538 230.388892 
L 323.99226 230.388892 
L 323.99226 233.108258 
L 327.009982 233.108258 
L 327.009982 234.785653 
L 330.027704 234.785653 
L 330.027704 236.668727 
L 333.045425 236.668727 
L 333.045425 238.900099 
L 336.063147 238.900099 
L 336.063147 240.666845 
L 339.080869 240.666845 
L 339.080869 242.159524 
L 342.098591 242.159524 
L 342.098591 243.838981 
L 345.116313 243.838981 
L 345.116313 245.221173 
L 348.134035 245.221173 
L 348.134035 246.511781 
L 351.151757 246.511781 
L 351.151757 247.819915 
L 354.169478 247.819915 
L 354.169478 248.846594 
L 357.1872 248.846594 
L 357.1872 249.802307 
L 360.204922 249.802307 
L 360.204922 250.624509 
L 363.222644 250.624509 
L 363.222644 251.23811 
L 366.240366 251.23811 
L 366.240366 251.697237 
L 369.258088 251.697237 
L 369.258088 251.952403 
L 372.27581 251.952403 
L 372.27581 252 
" style="fill:none;opacity:0.5;stroke:#bf8080;stroke-linejoin:miter;stroke-width:2;"/>
   </g>
   <g id="patch_6">
    <path clip-path="url(#peb1a223e3b)" d="M 78.240994 252 
L 78.240994 251.997499 
L 87.101219 251.926414 
L 87.101219 251.872831 
L 90.054627 251.872831 
L 90.054627 251.758165 
L 95.961443 251.701011 
L 95.961443 251.490254 
L 98.914852 251.490254 
L 98.914852 251.327721 
L 101.86826 251.327721 
L 101.86826 251.036233 
L 104.821668 251.036233 
L 104.821668 250.904778 
L 107.775076 250.904778 
L 107.775076 250.359667 
L 110.728485 250.359667 
L 110.728485 249.922793 
L 113.681893 249.922793 
L 113.681893 249.42162 
L 116.635301 249.42162 
L 116.635301 248.652892 
L 119.588709 248.652892 
L 119.588709 247.739493 
L 122.542118 247.739493 
L 122.542118 247.02149 
L 125.495526 247.02149 
L 125.495526 245.526187 
L 128.448934 245.526187 
L 128.448934 244.629933 
L 131.402342 244.629933 
L 131.402342 243.036039 
L 134.355751 243.036039 
L 134.355751 241.553952 
L 137.309159 241.553952 
L 137.309159 239.780378 
L 140.262567 239.780378 
L 140.262567 237.735678 
L 143.215975 237.735678 
L 143.215975 235.802071 
L 146.169384 235.802071 
L 146.169384 233.639847 
L 149.122792 233.639847 
L 149.122792 230.959303 
L 152.0762 230.959303 
L 152.0762 227.855102 
L 155.029608 227.855102 
L 155.029608 224.870568 
L 157.983017 224.870568 
L 157.983017 222.325409 
L 160.936425 222.325409 
L 160.936425 218.337814 
L 163.889833 218.337814 
L 163.889833 214.938553 
L 166.843241 214.938553 
L 166.843241 211.642527 
L 169.796649 211.642527 
L 169.796649 206.249647 
L 172.750058 206.249647 
L 172.750058 202.657847 
L 175.703466 202.657847 
L 175.703466 197.621826 
L 178.656874 197.621826 
L 178.656874 193.397754 
L 181.610282 193.397754 
L 181.610282 187.547282 
L 184.563691 187.547282 
L 184.563691 183.150318 
L 187.517099 183.150318 
L 187.517099 177.8496 
L 190.470507 177.8496 
L 190.470507 171.750148 
L 193.423915 171.750148 
L 193.423915 166.539448 
L 196.377324 166.539448 
L 196.377324 161.817062 
L 199.330732 161.817062 
L 199.330732 155.803699 
L 202.28414 155.803699 
L 202.28414 150.892346 
L 205.237548 150.892346 
L 205.237548 145.310856 
L 208.190957 145.310856 
L 208.190957 140.462015 
L 211.144365 140.462015 
L 211.144365 135.516369 
L 214.097773 135.516369 
L 214.097773 129.734482 
L 217.051181 129.734482 
L 217.051181 125.343234 
L 220.00459 125.343234 
L 220.00459 119.35952 
L 222.957998 119.35952 
L 222.957998 114.649279 
L 225.911406 114.649279 
L 225.911406 110.694548 
L 228.864814 110.694548 
L 228.864814 106.894848 
L 231.818223 106.894848 
L 231.818223 103.365204 
L 234.771631 103.365204 
L 234.771631 99.752685 
L 237.725039 99.752685 
L 237.725039 95.431451 
L 240.678447 95.431451 
L 240.678447 92.951305 
L 243.631856 92.951305 
L 243.631856 90.480804 
L 246.585264 90.480804 
L 246.585264 88.178194 
L 249.538672 88.178194 
L 249.538672 87.479481 
L 252.49208 87.479481 
L 252.49208 84.88967 
L 255.445489 84.88967 
L 255.445489 83.616197 
L 261.352305 83.581547 
L 261.352305 83.362932 
L 264.305713 83.362932 
L 264.305713 83.550113 
L 267.259121 83.550113 
L 267.259121 82.977496 
L 270.21253 82.977496 
L 270.21253 83.815166 
L 273.165938 83.815166 
L 273.165938 85.591241 
L 276.119346 85.591241 
L 276.119346 85.468002 
L 279.072754 85.468002 
L 279.072754 86.954732 
L 282.026163 86.954732 
L 282.026163 89.682428 
L 284.979571 89.682428 
L 284.979571 89.948553 
L 287.932979 89.948553 
L 287.932979 92.287957 
L 290.886387 92.287957 
L 290.886387 93.580004 
L 293.839796 93.580004 
L 293.839796 96.878888 
L 296.793204 96.878888 
L 296.793204 97.069641 
L 299.746612 97.069641 
L 299.746612 99.738397 
L 302.70002 99.738397 
L 302.70002 101.223341 
L 305.653429 101.223341 
L 305.653429 103.762784 
L 308.606837 103.762784 
L 308.606837 106.615149 
L 311.560245 106.615149 
L 311.560245 108.59948 
L 314.513653 108.59948 
L 314.513653 110.706336 
L 317.467062 110.706336 
L 317.467062 112.427042 
L 320.42047 112.427042 
L 320.42047 114.503535 
L 323.373878 114.503535 
L 323.373878 117.542008 
L 326.327286 117.542008 
L 326.327286 119.25557 
L 329.280695 119.25557 
L 329.280695 122.190809 
L 332.234103 122.190809 
L 332.234103 125.413963 
L 335.187511 125.413963 
L 335.187511 129.282962 
L 338.140919 129.282962 
L 338.140919 133.433447 
L 341.094328 133.433447 
L 341.094328 139.111384 
L 344.047736 139.111384 
L 344.047736 143.970584 
L 347.001144 143.970584 
L 347.001144 150.97129 
L 349.954552 150.97129 
L 349.954552 158.29349 
L 352.90796 158.29349 
L 352.90796 167.094918 
L 355.861369 167.094918 
L 355.861369 177.726718 
L 358.814777 177.726718 
L 358.814777 190.398574 
L 361.768185 190.398574 
L 361.768185 206.023887 
L 364.721593 206.023887 
L 364.721593 221.151956 
L 367.675002 221.151956 
L 367.675002 238.053242 
L 370.62841 238.053242 
L 370.62841 248.70326 
L 373.581818 248.70326 
L 373.581818 252 
L 373.581818 252 
" style="fill:none;opacity:0.5;stroke:#00bf40;stroke-linejoin:miter;stroke-width:2;"/>
   </g>
   <g id="matplotlib.axis_1">
    <g id="xtick_1">
     <g id="line2d_1">
      <defs>
       <path d="M 0 0 
L 0 3.5 
" id="m81be8889ca" style="stroke:#000000;stroke-width:0.8;"/>
      </defs>
      <g>
       <use style="stroke:#000000;stroke-width:0.8;" x="67.522603" xlink:href="#m81be8889ca" y="252"/>
      </g>
     </g>
     <g id="text_1">
      <!-- −1.00 -->
      <defs>
       <path d="M 10.59375 35.5 
L 73.1875 35.5 
L 73.1875 27.203125 
L 10.59375 27.203125 
z
" id="DejaVuSans-8722"/>
       <path d="M 12.40625 8.296875 
L 28.515625 8.296875 
L 28.515625 63.921875 
L 10.984375 60.40625 
L 10.984375 69.390625 
L 28.421875 72.90625 
L 38.28125 72.90625 
L 38.28125 8.296875 
L 54.390625 8.296875 
L 54.390625 0 
L 12.40625 0 
z
" id="DejaVuSans-49"/>
       <path d="M 10.6875 12.40625 
L 21 12.40625 
L 21 0 
L 10.6875 0 
z
" id="DejaVuSans-46"/>
       <path d="M 31.78125 66.40625 
Q 24.171875 66.40625 20.328125 58.90625 
Q 16.5 51.421875 16.5 36.375 
Q 16.5 21.390625 20.328125 13.890625 
Q 24.171875 6.390625 31.78125 6.390625 
Q 39.453125 6.390625 43.28125 13.890625 
Q 47.125 21.390625 47.125 36.375 
Q 47.125 51.421875 43.28125 58.90625 
Q 39.453125 66.40625 31.78125 66.40625 
z
M 31.78125 74.21875 
Q 44.046875 74.21875 50.515625 64.515625 
Q 56.984375 54.828125 56.984375 36.375 
Q 56.984375 17.96875 50.515625 8.265625 
Q 44.046875 -1.421875 31.78125 -1.421875 
Q 19.53125 -1.421875 13.0625 8.265625 
Q 6.59375 17.96875 6.59375 36.375 
Q 6.59375 54.828125 13.0625 64.515625 
Q 19.53125 74.21875 31.78125 74.21875 
z
" id="DejaVuSans-48"/>
      </defs>
      <g transform="translate(52.199946 266.598437)scale(0.1 -0.1)">
       <use xlink:href="#DejaVuSans-8722"/>
       <use x="83.789062" xlink:href="#DejaVuSans-49"/>
       <use x="147.412109" xlink:href="#DejaVuSans-46"/>
       <use x="179.199219" xlink:href="#DejaVuSans-48"/>
       <use x="242.822266" xlink:href="#DejaVuSans-48"/>
      </g>
     </g>
    </g>
    <g id="xtick_2">
     <g id="line2d_2">
      <g>
       <use style="stroke:#000000;stroke-width:0.8;" x="105.780005" xlink:href="#m81be8889ca" y="252"/>
      </g>
     </g>
     <g id="text_2">
      <!-- −0.75 -->
      <defs>
       <path d="M 8.203125 72.90625 
L 55.078125 72.90625 
L 55.078125 68.703125 
L 28.609375 0 
L 18.3125 0 
L 43.21875 64.59375 
L 8.203125 64.59375 
z
" id="DejaVuSans-55"/>
       <path d="M 10.796875 72.90625 
L 49.515625 72.90625 
L 49.515625 64.59375 
L 19.828125 64.59375 
L 19.828125 46.734375 
Q 21.96875 47.46875 24.109375 47.828125 
Q 26.265625 48.1875 28.421875 48.1875 
Q 40.625 48.1875 47.75 41.5 
Q 54.890625 34.8125 54.890625 23.390625 
Q 54.890625 11.625 47.5625 5.09375 
Q 40.234375 -1.421875 26.90625 -1.421875 
Q 22.3125 -1.421875 17.546875 -0.640625 
Q 12.796875 0.140625 7.71875 1.703125 
L 7.71875 11.625 
Q 12.109375 9.234375 16.796875 8.0625 
Q 21.484375 6.890625 26.703125 6.890625 
Q 35.15625 6.890625 40.078125 11.328125 
Q 45.015625 15.765625 45.015625 23.390625 
Q 45.015625 31 40.078125 35.4375 
Q 35.15625 39.890625 26.703125 39.890625 
Q 22.75 39.890625 18.8125 39.015625 
Q 14.890625 38.140625 10.796875 36.28125 
z
" id="DejaVuSans-53"/>
      </defs>
      <g transform="translate(90.457348 266.598437)scale(0.1 -0.1)">
       <use xlink:href="#DejaVuSans-8722"/>
       <use x="83.789062" xlink:href="#DejaVuSans-48"/>
       <use x="147.412109" xlink:href="#DejaVuSans-46"/>
       <use x="179.199219" xlink:href="#DejaVuSans-55"/>
       <use x="242.822266" xlink:href="#DejaVuSans-53"/>
      </g>
     </g>
    </g>
    <g id="xtick_3">
     <g id="line2d_3">
      <g>
       <use style="stroke:#000000;stroke-width:0.8;" x="144.037407" xlink:href="#m81be8889ca" y="252"/>
      </g>
     </g>
     <g id="text_3">
      <!-- −0.50 -->
      <g transform="translate(128.71475 266.598437)scale(0.1 -0.1)">
       <use xlink:href="#DejaVuSans-8722"/>
       <use x="83.789062" xlink:href="#DejaVuSans-48"/>
       <use x="147.412109" xlink:href="#DejaVuSans-46"/>
       <use x="179.199219" xlink:href="#DejaVuSans-53"/>
       <use x="242.822266" xlink:href="#DejaVuSans-48"/>
      </g>
     </g>
    </g>
    <g id="xtick_4">
     <g id="line2d_4">
      <g>
       <use style="stroke:#000000;stroke-width:0.8;" x="182.294808" xlink:href="#m81be8889ca" y="252"/>
      </g>
     </g>
     <g id="text_4">
      <!-- −0.25 -->
      <defs>
       <path d="M 19.1875 8.296875 
L 53.609375 8.296875 
L 53.609375 0 
L 7.328125 0 
L 7.328125 8.296875 
Q 12.9375 14.109375 22.625 23.890625 
Q 32.328125 33.6875 34.8125 36.53125 
Q 39.546875 41.84375 41.421875 45.53125 
Q 43.3125 49.21875 43.3125 52.78125 
Q 43.3125 58.59375 39.234375 62.25 
Q 35.15625 65.921875 28.609375 65.921875 
Q 23.96875 65.921875 18.8125 64.3125 
Q 13.671875 62.703125 7.8125 59.421875 
L 7.8125 69.390625 
Q 13.765625 71.78125 18.9375 73 
Q 24.125 74.21875 28.421875 74.21875 
Q 39.75 74.21875 46.484375 68.546875 
Q 53.21875 62.890625 53.21875 53.421875 
Q 53.21875 48.921875 51.53125 44.890625 
Q 49.859375 40.875 45.40625 35.40625 
Q 44.1875 33.984375 37.640625 27.21875 
Q 31.109375 20.453125 19.1875 8.296875 
z
" id="DejaVuSans-50"/>
      </defs>
      <g transform="translate(166.972152 266.598437)scale(0.1 -0.1)">
       <use xlink:href="#DejaVuSans-8722"/>
       <use x="83.789062" xlink:href="#DejaVuSans-48"/>
       <use x="147.412109" xlink:href="#DejaVuSans-46"/>
       <use x="179.199219" xlink:href="#DejaVuSans-50"/>
       <use x="242.822266" xlink:href="#DejaVuSans-53"/>
      </g>
     </g>
    </g>
    <g id="xtick_5">
     <g id="line2d_5">
      <g>
       <use style="stroke:#000000;stroke-width:0.8;" x="220.55221" xlink:href="#m81be8889ca" y="252"/>
      </g>
     </g>
     <g id="text_5">
      <!-- 0.00 -->
      <g transform="translate(209.419398 266.598437)scale(0.1 -0.1)">
       <use xlink:href="#DejaVuSans-48"/>
       <use x="63.623047" xlink:href="#DejaVuSans-46"/>
       <use x="95.410156" xlink:href="#DejaVuSans-48"/>
       <use x="159.033203" xlink:href="#DejaVuSans-48"/>
      </g>
     </g>
    </g>
    <g id="xtick_6">
     <g id="line2d_6">
      <g>
       <use style="stroke:#000000;stroke-width:0.8;" x="258.809612" xlink:href="#m81be8889ca" y="252"/>
      </g>
     </g>
     <g id="text_6">
      <!-- 0.25 -->
      <g transform="translate(247.6768 266.598437)scale(0.1 -0.1)">
       <use xlink:href="#DejaVuSans-48"/>
       <use x="63.623047" xlink:href="#DejaVuSans-46"/>
       <use x="95.410156" xlink:href="#DejaVuSans-50"/>
       <use x="159.033203" xlink:href="#DejaVuSans-53"/>
      </g>
     </g>
    </g>
    <g id="xtick_7">
     <g id="line2d_7">
      <g>
       <use style="stroke:#000000;stroke-width:0.8;" x="297.067014" xlink:href="#m81be8889ca" y="252"/>
      </g>
     </g>
     <g id="text_7">
      <!-- 0.50 -->
      <g transform="translate(285.934202 266.598437)scale(0.1 -0.1)">
       <use xlink:href="#DejaVuSans-48"/>
       <use x="63.623047" xlink:href="#DejaVuSans-46"/>
       <use x="95.410156" xlink:href="#DejaVuSans-53"/>
       <use x="159.033203" xlink:href="#DejaVuSans-48"/>
      </g>
     </g>
    </g>
    <g id="xtick_8">
     <g id="line2d_8">
      <g>
       <use style="stroke:#000000;stroke-width:0.8;" x="335.324416" xlink:href="#m81be8889ca" y="252"/>
      </g>
     </g>
     <g id="text_8">
      <!-- 0.75 -->
      <g transform="translate(324.191604 266.598437)scale(0.1 -0.1)">
       <use xlink:href="#DejaVuSans-48"/>
       <use x="63.623047" xlink:href="#DejaVuSans-46"/>
       <use x="95.410156" xlink:href="#DejaVuSans-55"/>
       <use x="159.033203" xlink:href="#DejaVuSans-53"/>
      </g>
     </g>
    </g>
    <g id="xtick_9">
     <g id="line2d_9">
      <g>
       <use style="stroke:#000000;stroke-width:0.8;" x="373.581818" xlink:href="#m81be8889ca" y="252"/>
      </g>
     </g>
     <g id="text_9">
      <!-- 1.00 -->
      <g transform="translate(362.449006 266.598437)scale(0.1 -0.1)">
       <use xlink:href="#DejaVuSans-49"/>
       <use x="63.623047" xlink:href="#DejaVuSans-46"/>
       <use x="95.410156" xlink:href="#DejaVuSans-48"/>
       <use x="159.033203" xlink:href="#DejaVuSans-48"/>
      </g>
     </g>
    </g>
    <g id="text_10">
     <!-- cosine similarity -->
     <defs>
      <path d="M 48.78125 52.59375 
L 48.78125 44.1875 
Q 44.96875 46.296875 41.140625 47.34375 
Q 37.3125 48.390625 33.40625 48.390625 
Q 24.65625 48.390625 19.8125 42.84375 
Q 14.984375 37.3125 14.984375 27.296875 
Q 14.984375 17.28125 19.8125 11.734375 
Q 24.65625 6.203125 33.40625 6.203125 
Q 37.3125 6.203125 41.140625 7.25 
Q 44.96875 8.296875 48.78125 10.40625 
L 48.78125 2.09375 
Q 45.015625 0.34375 40.984375 -0.53125 
Q 36.96875 -1.421875 32.421875 -1.421875 
Q 20.0625 -1.421875 12.78125 6.34375 
Q 5.515625 14.109375 5.515625 27.296875 
Q 5.515625 40.671875 12.859375 48.328125 
Q 20.21875 56 33.015625 56 
Q 37.15625 56 41.109375 55.140625 
Q 45.0625 54.296875 48.78125 52.59375 
z
" id="DejaVuSans-99"/>
      <path d="M 30.609375 48.390625 
Q 23.390625 48.390625 19.1875 42.75 
Q 14.984375 37.109375 14.984375 27.296875 
Q 14.984375 17.484375 19.15625 11.84375 
Q 23.34375 6.203125 30.609375 6.203125 
Q 37.796875 6.203125 41.984375 11.859375 
Q 46.1875 17.53125 46.1875 27.296875 
Q 46.1875 37.015625 41.984375 42.703125 
Q 37.796875 48.390625 30.609375 48.390625 
z
M 30.609375 56 
Q 42.328125 56 49.015625 48.375 
Q 55.71875 40.765625 55.71875 27.296875 
Q 55.71875 13.875 49.015625 6.21875 
Q 42.328125 -1.421875 30.609375 -1.421875 
Q 18.84375 -1.421875 12.171875 6.21875 
Q 5.515625 13.875 5.515625 27.296875 
Q 5.515625 40.765625 12.171875 48.375 
Q 18.84375 56 30.609375 56 
z
" id="DejaVuSans-111"/>
      <path d="M 44.28125 53.078125 
L 44.28125 44.578125 
Q 40.484375 46.53125 36.375 47.5 
Q 32.28125 48.484375 27.875 48.484375 
Q 21.1875 48.484375 17.84375 46.4375 
Q 14.5 44.390625 14.5 40.28125 
Q 14.5 37.15625 16.890625 35.375 
Q 19.28125 33.59375 26.515625 31.984375 
L 29.59375 31.296875 
Q 39.15625 29.25 43.1875 25.515625 
Q 47.21875 21.78125 47.21875 15.09375 
Q 47.21875 7.46875 41.1875 3.015625 
Q 35.15625 -1.421875 24.609375 -1.421875 
Q 20.21875 -1.421875 15.453125 -0.5625 
Q 10.6875 0.296875 5.421875 2 
L 5.421875 11.28125 
Q 10.40625 8.6875 15.234375 7.390625 
Q 20.0625 6.109375 24.8125 6.109375 
Q 31.15625 6.109375 34.5625 8.28125 
Q 37.984375 10.453125 37.984375 14.40625 
Q 37.984375 18.0625 35.515625 20.015625 
Q 33.0625 21.96875 24.703125 23.78125 
L 21.578125 24.515625 
Q 13.234375 26.265625 9.515625 29.90625 
Q 5.8125 33.546875 5.8125 39.890625 
Q 5.8125 47.609375 11.28125 51.796875 
Q 16.75 56 26.8125 56 
Q 31.78125 56 36.171875 55.265625 
Q 40.578125 54.546875 44.28125 53.078125 
z
" id="DejaVuSans-115"/>
      <path d="M 9.421875 54.6875 
L 18.40625 54.6875 
L 18.40625 0 
L 9.421875 0 
z
M 9.421875 75.984375 
L 18.40625 75.984375 
L 18.40625 64.59375 
L 9.421875 64.59375 
z
" id="DejaVuSans-105"/>
      <path d="M 54.890625 33.015625 
L 54.890625 0 
L 45.90625 0 
L 45.90625 32.71875 
Q 45.90625 40.484375 42.875 44.328125 
Q 39.84375 48.1875 33.796875 48.1875 
Q 26.515625 48.1875 22.3125 43.546875 
Q 18.109375 38.921875 18.109375 30.90625 
L 18.109375 0 
L 9.078125 0 
L 9.078125 54.6875 
L 18.109375 54.6875 
L 18.109375 46.1875 
Q 21.34375 51.125 25.703125 53.5625 
Q 30.078125 56 35.796875 56 
Q 45.21875 56 50.046875 50.171875 
Q 54.890625 44.34375 54.890625 33.015625 
z
" id="DejaVuSans-110"/>
      <path d="M 56.203125 29.59375 
L 56.203125 25.203125 
L 14.890625 25.203125 
Q 15.484375 15.921875 20.484375 11.0625 
Q 25.484375 6.203125 34.421875 6.203125 
Q 39.59375 6.203125 44.453125 7.46875 
Q 49.3125 8.734375 54.109375 11.28125 
L 54.109375 2.78125 
Q 49.265625 0.734375 44.1875 -0.34375 
Q 39.109375 -1.421875 33.890625 -1.421875 
Q 20.796875 -1.421875 13.15625 6.1875 
Q 5.515625 13.8125 5.515625 26.8125 
Q 5.515625 40.234375 12.765625 48.109375 
Q 20.015625 56 32.328125 56 
Q 43.359375 56 49.78125 48.890625 
Q 56.203125 41.796875 56.203125 29.59375 
z
M 47.21875 32.234375 
Q 47.125 39.59375 43.09375 43.984375 
Q 39.0625 48.390625 32.421875 48.390625 
Q 24.90625 48.390625 20.390625 44.140625 
Q 15.875 39.890625 15.1875 32.171875 
z
" id="DejaVuSans-101"/>
      <path id="DejaVuSans-32"/>
      <path d="M 52 44.1875 
Q 55.375 50.25 60.0625 53.125 
Q 64.75 56 71.09375 56 
Q 79.640625 56 84.28125 50.015625 
Q 88.921875 44.046875 88.921875 33.015625 
L 88.921875 0 
L 79.890625 0 
L 79.890625 32.71875 
Q 79.890625 40.578125 77.09375 44.375 
Q 74.3125 48.1875 68.609375 48.1875 
Q 61.625 48.1875 57.5625 43.546875 
Q 53.515625 38.921875 53.515625 30.90625 
L 53.515625 0 
L 44.484375 0 
L 44.484375 32.71875 
Q 44.484375 40.625 41.703125 44.40625 
Q 38.921875 48.1875 33.109375 48.1875 
Q 26.21875 48.1875 22.15625 43.53125 
Q 18.109375 38.875 18.109375 30.90625 
L 18.109375 0 
L 9.078125 0 
L 9.078125 54.6875 
L 18.109375 54.6875 
L 18.109375 46.1875 
Q 21.1875 51.21875 25.484375 53.609375 
Q 29.78125 56 35.6875 56 
Q 41.65625 56 45.828125 52.96875 
Q 50 49.953125 52 44.1875 
z
" id="DejaVuSans-109"/>
      <path d="M 9.421875 75.984375 
L 18.40625 75.984375 
L 18.40625 0 
L 9.421875 0 
z
" id="DejaVuSans-108"/>
      <path d="M 34.28125 27.484375 
Q 23.390625 27.484375 19.1875 25 
Q 14.984375 22.515625 14.984375 16.5 
Q 14.984375 11.71875 18.140625 8.90625 
Q 21.296875 6.109375 26.703125 6.109375 
Q 34.1875 6.109375 38.703125 11.40625 
Q 43.21875 16.703125 43.21875 25.484375 
L 43.21875 27.484375 
z
M 52.203125 31.203125 
L 52.203125 0 
L 43.21875 0 
L 43.21875 8.296875 
Q 40.140625 3.328125 35.546875 0.953125 
Q 30.953125 -1.421875 24.3125 -1.421875 
Q 15.921875 -1.421875 10.953125 3.296875 
Q 6 8.015625 6 15.921875 
Q 6 25.140625 12.171875 29.828125 
Q 18.359375 34.515625 30.609375 34.515625 
L 43.21875 34.515625 
L 43.21875 35.40625 
Q 43.21875 41.609375 39.140625 45 
Q 35.0625 48.390625 27.6875 48.390625 
Q 23 48.390625 18.546875 47.265625 
Q 14.109375 46.140625 10.015625 43.890625 
L 10.015625 52.203125 
Q 14.9375 54.109375 19.578125 55.046875 
Q 24.21875 56 28.609375 56 
Q 40.484375 56 46.34375 49.84375 
Q 52.203125 43.703125 52.203125 31.203125 
z
" id="DejaVuSans-97"/>
      <path d="M 41.109375 46.296875 
Q 39.59375 47.171875 37.8125 47.578125 
Q 36.03125 48 33.890625 48 
Q 26.265625 48 22.1875 43.046875 
Q 18.109375 38.09375 18.109375 28.8125 
L 18.109375 0 
L 9.078125 0 
L 9.078125 54.6875 
L 18.109375 54.6875 
L 18.109375 46.1875 
Q 20.953125 51.171875 25.484375 53.578125 
Q 30.03125 56 36.53125 56 
Q 37.453125 56 38.578125 55.875 
Q 39.703125 55.765625 41.0625 55.515625 
z
" id="DejaVuSans-114"/>
      <path d="M 18.3125 70.21875 
L 18.3125 54.6875 
L 36.8125 54.6875 
L 36.8125 47.703125 
L 18.3125 47.703125 
L 18.3125 18.015625 
Q 18.3125 11.328125 20.140625 9.421875 
Q 21.96875 7.515625 27.59375 7.515625 
L 36.8125 7.515625 
L 36.8125 0 
L 27.59375 0 
Q 17.1875 0 13.234375 3.875 
Q 9.28125 7.765625 9.28125 18.015625 
L 9.28125 47.703125 
L 2.6875 47.703125 
L 2.6875 54.6875 
L 9.28125 54.6875 
L 9.28125 70.21875 
z
" id="DejaVuSans-116"/>
      <path d="M 32.171875 -5.078125 
Q 28.375 -14.84375 24.75 -17.8125 
Q 21.140625 -20.796875 15.09375 -20.796875 
L 7.90625 -20.796875 
L 7.90625 -13.28125 
L 13.1875 -13.28125 
Q 16.890625 -13.28125 18.9375 -11.515625 
Q 21 -9.765625 23.484375 -3.21875 
L 25.09375 0.875 
L 2.984375 54.6875 
L 12.5 54.6875 
L 29.59375 11.921875 
L 46.6875 54.6875 
L 56.203125 54.6875 
z
" id="DejaVuSans-121"/>
     </defs>
     <g transform="translate(180.692969 280.276563)scale(0.1 -0.1)">
      <use xlink:href="#DejaVuSans-99"/>
      <use x="54.980469" xlink:href="#DejaVuSans-111"/>
      <use x="116.162109" xlink:href="#DejaVuSans-115"/>
      <use x="168.261719" xlink:href="#DejaVuSans-105"/>
      <use x="196.044922" xlink:href="#DejaVuSans-110"/>
      <use x="259.423828" xlink:href="#DejaVuSans-101"/>
      <use x="320.947266" xlink:href="#DejaVuSans-32"/>
      <use x="352.734375" xlink:href="#DejaVuSans-115"/>
      <use x="404.833984" xlink:href="#DejaVuSans-105"/>
      <use x="432.617188" xlink:href="#DejaVuSans-109"/>
      <use x="530.029297" xlink:href="#DejaVuSans-105"/>
      <use x="557.8125" xlink:href="#DejaVuSans-108"/>
      <use x="585.595703" xlink:href="#DejaVuSans-97"/>
      <use x="646.875" xlink:href="#DejaVuSans-114"/>
      <use x="687.988281" xlink:href="#DejaVuSans-105"/>
      <use x="715.771484" xlink:href="#DejaVuSans-116"/>
      <use x="754.980469" xlink:href="#DejaVuSans-121"/>
     </g>
    </g>
   </g>
   <g id="matplotlib.axis_2">
    <g id="ytick_1">
     <g id="line2d_10">
      <defs>
       <path d="M 0 0 
L -3.5 0 
" id="m8fd0e277df" style="stroke:#000000;stroke-width:0.8;"/>
      </defs>
      <g>
       <use style="stroke:#000000;stroke-width:0.8;" x="54" xlink:href="#m8fd0e277df" y="252"/>
      </g>
     </g>
     <g id="text_11">
      <!-- 0.0 -->
      <g transform="translate(31.096875 255.799219)scale(0.1 -0.1)">
       <use xlink:href="#DejaVuSans-48"/>
       <use x="63.623047" xlink:href="#DejaVuSans-46"/>
       <use x="95.410156" xlink:href="#DejaVuSans-48"/>
      </g>
     </g>
    </g>
    <g id="ytick_2">
     <g id="line2d_11">
      <g>
       <use style="stroke:#000000;stroke-width:0.8;" x="54" xlink:href="#m8fd0e277df" y="218.310907"/>
      </g>
     </g>
     <g id="text_12">
      <!-- 0.2 -->
      <g transform="translate(31.096875 222.110126)scale(0.1 -0.1)">
       <use xlink:href="#DejaVuSans-48"/>
       <use x="63.623047" xlink:href="#DejaVuSans-46"/>
       <use x="95.410156" xlink:href="#DejaVuSans-50"/>
      </g>
     </g>
    </g>
    <g id="ytick_3">
     <g id="line2d_12">
      <g>
       <use style="stroke:#000000;stroke-width:0.8;" x="54" xlink:href="#m8fd0e277df" y="184.621814"/>
      </g>
     </g>
     <g id="text_13">
      <!-- 0.4 -->
      <defs>
       <path d="M 37.796875 64.3125 
L 12.890625 25.390625 
L 37.796875 25.390625 
z
M 35.203125 72.90625 
L 47.609375 72.90625 
L 47.609375 25.390625 
L 58.015625 25.390625 
L 58.015625 17.1875 
L 47.609375 17.1875 
L 47.609375 0 
L 37.796875 0 
L 37.796875 17.1875 
L 4.890625 17.1875 
L 4.890625 26.703125 
z
" id="DejaVuSans-52"/>
      </defs>
      <g transform="translate(31.096875 188.421033)scale(0.1 -0.1)">
       <use xlink:href="#DejaVuSans-48"/>
       <use x="63.623047" xlink:href="#DejaVuSans-46"/>
       <use x="95.410156" xlink:href="#DejaVuSans-52"/>
      </g>
     </g>
    </g>
    <g id="ytick_4">
     <g id="line2d_13">
      <g>
       <use style="stroke:#000000;stroke-width:0.8;" x="54" xlink:href="#m8fd0e277df" y="150.932722"/>
      </g>
     </g>
     <g id="text_14">
      <!-- 0.6 -->
      <defs>
       <path d="M 33.015625 40.375 
Q 26.375 40.375 22.484375 35.828125 
Q 18.609375 31.296875 18.609375 23.390625 
Q 18.609375 15.53125 22.484375 10.953125 
Q 26.375 6.390625 33.015625 6.390625 
Q 39.65625 6.390625 43.53125 10.953125 
Q 47.40625 15.53125 47.40625 23.390625 
Q 47.40625 31.296875 43.53125 35.828125 
Q 39.65625 40.375 33.015625 40.375 
z
M 52.59375 71.296875 
L 52.59375 62.3125 
Q 48.875 64.0625 45.09375 64.984375 
Q 41.3125 65.921875 37.59375 65.921875 
Q 27.828125 65.921875 22.671875 59.328125 
Q 17.53125 52.734375 16.796875 39.40625 
Q 19.671875 43.65625 24.015625 45.921875 
Q 28.375 48.1875 33.59375 48.1875 
Q 44.578125 48.1875 50.953125 41.515625 
Q 57.328125 34.859375 57.328125 23.390625 
Q 57.328125 12.15625 50.6875 5.359375 
Q 44.046875 -1.421875 33.015625 -1.421875 
Q 20.359375 -1.421875 13.671875 8.265625 
Q 6.984375 17.96875 6.984375 36.375 
Q 6.984375 53.65625 15.1875 63.9375 
Q 23.390625 74.21875 37.203125 74.21875 
Q 40.921875 74.21875 44.703125 73.484375 
Q 48.484375 72.75 52.59375 71.296875 
z
" id="DejaVuSans-54"/>
      </defs>
      <g transform="translate(31.096875 154.73194)scale(0.1 -0.1)">
       <use xlink:href="#DejaVuSans-48"/>
       <use x="63.623047" xlink:href="#DejaVuSans-46"/>
       <use x="95.410156" xlink:href="#DejaVuSans-54"/>
      </g>
     </g>
    </g>
    <g id="ytick_5">
     <g id="line2d_14">
      <g>
       <use style="stroke:#000000;stroke-width:0.8;" x="54" xlink:href="#m8fd0e277df" y="117.243629"/>
      </g>
     </g>
     <g id="text_15">
      <!-- 0.8 -->
      <defs>
       <path d="M 31.78125 34.625 
Q 24.75 34.625 20.71875 30.859375 
Q 16.703125 27.09375 16.703125 20.515625 
Q 16.703125 13.921875 20.71875 10.15625 
Q 24.75 6.390625 31.78125 6.390625 
Q 38.8125 6.390625 42.859375 10.171875 
Q 46.921875 13.96875 46.921875 20.515625 
Q 46.921875 27.09375 42.890625 30.859375 
Q 38.875 34.625 31.78125 34.625 
z
M 21.921875 38.8125 
Q 15.578125 40.375 12.03125 44.71875 
Q 8.5 49.078125 8.5 55.328125 
Q 8.5 64.0625 14.71875 69.140625 
Q 20.953125 74.21875 31.78125 74.21875 
Q 42.671875 74.21875 48.875 69.140625 
Q 55.078125 64.0625 55.078125 55.328125 
Q 55.078125 49.078125 51.53125 44.71875 
Q 48 40.375 41.703125 38.8125 
Q 48.828125 37.15625 52.796875 32.3125 
Q 56.78125 27.484375 56.78125 20.515625 
Q 56.78125 9.90625 50.3125 4.234375 
Q 43.84375 -1.421875 31.78125 -1.421875 
Q 19.734375 -1.421875 13.25 4.234375 
Q 6.78125 9.90625 6.78125 20.515625 
Q 6.78125 27.484375 10.78125 32.3125 
Q 14.796875 37.15625 21.921875 38.8125 
z
M 18.3125 54.390625 
Q 18.3125 48.734375 21.84375 45.5625 
Q 25.390625 42.390625 31.78125 42.390625 
Q 38.140625 42.390625 41.71875 45.5625 
Q 45.3125 48.734375 45.3125 54.390625 
Q 45.3125 60.0625 41.71875 63.234375 
Q 38.140625 66.40625 31.78125 66.40625 
Q 25.390625 66.40625 21.84375 63.234375 
Q 18.3125 60.0625 18.3125 54.390625 
z
" id="DejaVuSans-56"/>
      </defs>
      <g transform="translate(31.096875 121.042848)scale(0.1 -0.1)">
       <use xlink:href="#DejaVuSans-48"/>
       <use x="63.623047" xlink:href="#DejaVuSans-46"/>
       <use x="95.410156" xlink:href="#DejaVuSans-56"/>
      </g>
     </g>
    </g>
    <g id="ytick_6">
     <g id="line2d_15">
      <g>
       <use style="stroke:#000000;stroke-width:0.8;" x="54" xlink:href="#m8fd0e277df" y="83.554536"/>
      </g>
     </g>
     <g id="text_16">
      <!-- 1.0 -->
      <g transform="translate(31.096875 87.353755)scale(0.1 -0.1)">
       <use xlink:href="#DejaVuSans-49"/>
       <use x="63.623047" xlink:href="#DejaVuSans-46"/>
       <use x="95.410156" xlink:href="#DejaVuSans-48"/>
      </g>
     </g>
    </g>
    <g id="ytick_7">
     <g id="line2d_16">
      <g>
       <use style="stroke:#000000;stroke-width:0.8;" x="54" xlink:href="#m8fd0e277df" y="49.865443"/>
      </g>
     </g>
     <g id="text_17">
      <!-- 1.2 -->
      <g transform="translate(31.096875 53.664662)scale(0.1 -0.1)">
       <use xlink:href="#DejaVuSans-49"/>
       <use x="63.623047" xlink:href="#DejaVuSans-46"/>
       <use x="95.410156" xlink:href="#DejaVuSans-50"/>
      </g>
     </g>
    </g>
    <g id="text_18">
     <!-- density -->
     <defs>
      <path d="M 45.40625 46.390625 
L 45.40625 75.984375 
L 54.390625 75.984375 
L 54.390625 0 
L 45.40625 0 
L 45.40625 8.203125 
Q 42.578125 3.328125 38.25 0.953125 
Q 33.9375 -1.421875 27.875 -1.421875 
Q 17.96875 -1.421875 11.734375 6.484375 
Q 5.515625 14.40625 5.515625 27.296875 
Q 5.515625 40.1875 11.734375 48.09375 
Q 17.96875 56 27.875 56 
Q 33.9375 56 38.25 53.625 
Q 42.578125 51.265625 45.40625 46.390625 
z
M 14.796875 27.296875 
Q 14.796875 17.390625 18.875 11.75 
Q 22.953125 6.109375 30.078125 6.109375 
Q 37.203125 6.109375 41.296875 11.75 
Q 45.40625 17.390625 45.40625 27.296875 
Q 45.40625 37.203125 41.296875 42.84375 
Q 37.203125 48.484375 30.078125 48.484375 
Q 22.953125 48.484375 18.875 42.84375 
Q 14.796875 37.203125 14.796875 27.296875 
z
" id="DejaVuSans-100"/>
     </defs>
     <g transform="translate(25.017187 161.612813)rotate(-90)scale(0.1 -0.1)">
      <use xlink:href="#DejaVuSans-100"/>
      <use x="63.476562" xlink:href="#DejaVuSans-101"/>
      <use x="125" xlink:href="#DejaVuSans-110"/>
      <use x="188.378906" xlink:href="#DejaVuSans-115"/>
      <use x="240.478516" xlink:href="#DejaVuSans-105"/>
      <use x="268.261719" xlink:href="#DejaVuSans-116"/>
      <use x="307.470703" xlink:href="#DejaVuSans-121"/>
     </g>
    </g>
   </g>
   <g id="patch_7">
    <path d="M 54 252 
L 54 34.56 
" style="fill:none;stroke:#000000;stroke-linecap:square;stroke-linejoin:miter;stroke-width:0.8;"/>
   </g>
   <g id="patch_8">
    <path d="M 388.8 252 
L 388.8 34.56 
" style="fill:none;stroke:#000000;stroke-linecap:square;stroke-linejoin:miter;stroke-width:0.8;"/>
   </g>
   <g id="patch_9">
    <path d="M 54 252 
L 388.8 252 
" style="fill:none;stroke:#000000;stroke-linecap:square;stroke-linejoin:miter;stroke-width:0.8;"/>
   </g>
   <g id="patch_10">
    <path d="M 54 34.56 
L 388.8 34.56 
" style="fill:none;stroke:#000000;stroke-linecap:square;stroke-linejoin:miter;stroke-width:0.8;"/>
   </g>
   <g id="text_19">
    <!-- x-validation emb_w2v_wiki_pm_pmc -->
    <defs>
     <path d="M 54.890625 54.6875 
L 35.109375 28.078125 
L 55.90625 0 
L 45.3125 0 
L 29.390625 21.484375 
L 13.484375 0 
L 2.875 0 
L 24.125 28.609375 
L 4.6875 54.6875 
L 15.28125 54.6875 
L 29.78125 35.203125 
L 44.28125 54.6875 
z
" id="DejaVuSans-120"/>
     <path d="M 4.890625 31.390625 
L 31.203125 31.390625 
L 31.203125 23.390625 
L 4.890625 23.390625 
z
" id="DejaVuSans-45"/>
     <path d="M 2.984375 54.6875 
L 12.5 54.6875 
L 29.59375 8.796875 
L 46.6875 54.6875 
L 56.203125 54.6875 
L 35.6875 0 
L 23.484375 0 
z
" id="DejaVuSans-118"/>
     <path d="M 48.6875 27.296875 
Q 48.6875 37.203125 44.609375 42.84375 
Q 40.53125 48.484375 33.40625 48.484375 
Q 26.265625 48.484375 22.1875 42.84375 
Q 18.109375 37.203125 18.109375 27.296875 
Q 18.109375 17.390625 22.1875 11.75 
Q 26.265625 6.109375 33.40625 6.109375 
Q 40.53125 6.109375 44.609375 11.75 
Q 48.6875 17.390625 48.6875 27.296875 
z
M 18.109375 46.390625 
Q 20.953125 51.265625 25.265625 53.625 
Q 29.59375 56 35.59375 56 
Q 45.5625 56 51.78125 48.09375 
Q 58.015625 40.1875 58.015625 27.296875 
Q 58.015625 14.40625 51.78125 6.484375 
Q 45.5625 -1.421875 35.59375 -1.421875 
Q 29.59375 -1.421875 25.265625 0.953125 
Q 20.953125 3.328125 18.109375 8.203125 
L 18.109375 0 
L 9.078125 0 
L 9.078125 75.984375 
L 18.109375 75.984375 
z
" id="DejaVuSans-98"/>
     <path d="M 50.984375 -16.609375 
L 50.984375 -23.578125 
L -0.984375 -23.578125 
L -0.984375 -16.609375 
z
" id="DejaVuSans-95"/>
     <path d="M 4.203125 54.6875 
L 13.1875 54.6875 
L 24.421875 12.015625 
L 35.59375 54.6875 
L 46.1875 54.6875 
L 57.421875 12.015625 
L 68.609375 54.6875 
L 77.59375 54.6875 
L 63.28125 0 
L 52.6875 0 
L 40.921875 44.828125 
L 29.109375 0 
L 18.5 0 
z
" id="DejaVuSans-119"/>
     <path d="M 9.078125 75.984375 
L 18.109375 75.984375 
L 18.109375 31.109375 
L 44.921875 54.6875 
L 56.390625 54.6875 
L 27.390625 29.109375 
L 57.625 0 
L 45.90625 0 
L 18.109375 26.703125 
L 18.109375 0 
L 9.078125 0 
z
" id="DejaVuSans-107"/>
     <path d="M 18.109375 8.203125 
L 18.109375 -20.796875 
L 9.078125 -20.796875 
L 9.078125 54.6875 
L 18.109375 54.6875 
L 18.109375 46.390625 
Q 20.953125 51.265625 25.265625 53.625 
Q 29.59375 56 35.59375 56 
Q 45.5625 56 51.78125 48.09375 
Q 58.015625 40.1875 58.015625 27.296875 
Q 58.015625 14.40625 51.78125 6.484375 
Q 45.5625 -1.421875 35.59375 -1.421875 
Q 29.59375 -1.421875 25.265625 0.953125 
Q 20.953125 3.328125 18.109375 8.203125 
z
M 48.6875 27.296875 
Q 48.6875 37.203125 44.609375 42.84375 
Q 40.53125 48.484375 33.40625 48.484375 
Q 26.265625 48.484375 22.1875 42.84375 
Q 18.109375 37.203125 18.109375 27.296875 
Q 18.109375 17.390625 22.1875 11.75 
Q 26.265625 6.109375 33.40625 6.109375 
Q 40.53125 6.109375 44.609375 11.75 
Q 48.6875 17.390625 48.6875 27.296875 
z
" id="DejaVuSans-112"/>
    </defs>
    <g transform="translate(112.296563 28.56)scale(0.12 -0.12)">
     <use xlink:href="#DejaVuSans-120"/>
     <use x="59.179688" xlink:href="#DejaVuSans-45"/>
     <use x="95.232422" xlink:href="#DejaVuSans-118"/>
     <use x="154.412109" xlink:href="#DejaVuSans-97"/>
     <use x="215.691406" xlink:href="#DejaVuSans-108"/>
     <use x="243.474609" xlink:href="#DejaVuSans-105"/>
     <use x="271.257812" xlink:href="#DejaVuSans-100"/>
     <use x="334.734375" xlink:href="#DejaVuSans-97"/>
     <use x="396.013672" xlink:href="#DejaVuSans-116"/>
     <use x="435.222656" xlink:href="#DejaVuSans-105"/>
     <use x="463.005859" xlink:href="#DejaVuSans-111"/>
     <use x="524.1875" xlink:href="#DejaVuSans-110"/>
     <use x="587.566406" xlink:href="#DejaVuSans-32"/>
     <use x="619.353516" xlink:href="#DejaVuSans-101"/>
     <use x="680.876953" xlink:href="#DejaVuSans-109"/>
     <use x="778.289062" xlink:href="#DejaVuSans-98"/>
     <use x="841.765625" xlink:href="#DejaVuSans-95"/>
     <use x="891.765625" xlink:href="#DejaVuSans-119"/>
     <use x="973.552734" xlink:href="#DejaVuSans-50"/>
     <use x="1037.175781" xlink:href="#DejaVuSans-118"/>
     <use x="1096.355469" xlink:href="#DejaVuSans-95"/>
     <use x="1146.355469" xlink:href="#DejaVuSans-119"/>
     <use x="1228.142578" xlink:href="#DejaVuSans-105"/>
     <use x="1255.925781" xlink:href="#DejaVuSans-107"/>
     <use x="1313.835938" xlink:href="#DejaVuSans-105"/>
     <use x="1341.619141" xlink:href="#DejaVuSans-95"/>
     <use x="1391.619141" xlink:href="#DejaVuSans-112"/>
     <use x="1455.095703" xlink:href="#DejaVuSans-109"/>
     <use x="1552.507812" xlink:href="#DejaVuSans-95"/>
     <use x="1602.507812" xlink:href="#DejaVuSans-112"/>
     <use x="1665.984375" xlink:href="#DejaVuSans-109"/>
     <use x="1763.396484" xlink:href="#DejaVuSans-99"/>
    </g>
   </g>
  </g>
 </g>
 <defs>
  <clipPath id="peb1a223e3b">
   <rect height="217.44" width="334.8" x="54" y="34.56"/>
  </clipPath>
 </defs>
</svg>
